<?xml version="1.0" standalone="no"?>
<!DOCTYPE svg PUBLIC "-//W3C//DTD SVG 20010904//EN"
 "http://www.w3.org/TR/2001/REC-SVG-20010904/DTD/svg10.dtd">
<svg version="1.0" xmlns="http://www.w3.org/2000/svg"
 width="700.000000pt" height="700.000000pt" viewBox="0 0 700.000000 700.000000"
 preserveAspectRatio="xMidYMid meet">
<metadata>
Created by potrace 1.14, written by Peter Selinger 2001-2017
</metadata>
<g transform="translate(0.000000,700.000000) scale(0.100000,-0.100000)"
fill="#000000" stroke="none">
<path d="M2022 5699 c-245 -36 -409 -199 -477 -474 -40 -165 -152 -779 -329
-1800 -253 -1458 -279 -1640 -257 -1760 42 -224 267 -388 513 -372 200 13 395
193 462 428 24 84 85 459 205 1259 138 920 128 865 156 827 20 -28 170 -485
419 -1277 310 -987 309 -983 407 -1094 86 -96 200 -136 390 -136 234 0 373 78
455 255 45 98 158 439 359 1085 181 582 370 1166 384 1190 6 8 12 12 15 9 9
-8 45 -224 107 -634 215 -1437 263 -1661 383 -1781 181 -180 510 -175 706 12
154 147 163 300 55 964 -31 189 -105 611 -350 2000 -153 869 -184 971 -334
1121 -118 118 -250 174 -436 186 -206 12 -387 -68 -504 -223 -140 -184 -236
-436 -596 -1552 -119 -371 -226 -695 -237 -720 l-20 -47 -18 40 c-10 23 -84
245 -165 495 -265 821 -437 1333 -482 1440 -122 289 -259 471 -391 520 -118
45 -274 59 -420 39z"/>
</g>
</svg>
