<svg id="Layer_1" data-name="Layer 1" xmlns="http://www.w3.org/2000/svg" viewBox="0 0 477.19 477.19"><defs><style>.cls-1{fill:none;}.cls-2{fill:#ee746f;}.cls-3{fill:#7b444a;}.cls-4{fill:#fff2e1;}.cls-5{fill:#ea5548;}.cls-6{fill:#fcd2ad;}.cls-7{fill:#a1d8ed;}.cls-8{fill:#f8b770;}.cls-9{fill:#eaf6fe;}.cls-10{fill:#77d1ed;}</style></defs><path class="cls-1" d="M313.74,257.54h0c3.39,0,6.12-3.78,6.12-8.44h0C319.87,253.76,317.12,257.53,313.74,257.54Z"/><path class="cls-1" d="M411.48,249.1h0a11.36,11.36,0,0,1-.28,2.51A11.36,11.36,0,0,0,411.48,249.1Z"/><path class="cls-1" d="M411,252.39a10.65,10.65,0,0,1-.57,1.43A10.65,10.65,0,0,0,411,252.39Z"/><path class="cls-1" d="M130,299.22v6.69a.79.79,0,0,1,0,.22,51.53,51.53,0,0,1,12.24,4.62L139,299.22Z"/><path class="cls-1" d="M104.12,306.7c1.06-.31,2.14-.56,3.21-.79v-6.69H98l-3,11A49.94,49.94,0,0,1,104.12,306.7Z"/><path class="cls-1" d="M407.73,256.88a5,5,0,0,1-1.15.49A5,5,0,0,0,407.73,256.88Z"/><path class="cls-1" d="M410.43,253.82a7.86,7.86,0,0,1-1.19,1.79A7.86,7.86,0,0,0,410.43,253.82Z"/><path class="cls-2" d="M408.84,455.16h-41v13.65h50c.84,0,1.26-.84,1.4-1.21a3,3,0,0,0-.54-3.22Z"/><path class="cls-3" d="M405.34,257.54a4.7,4.7,0,0,0,1.24-.17,5,5,0,0,0,1.15-.49,6,6,0,0,0,1.51-1.27,7.86,7.86,0,0,0,1.19-1.79,10.65,10.65,0,0,0,.57-1.43c.08-.26.14-.52.2-.78a11.36,11.36,0,0,0,.28-2.51,10.33,10.33,0,0,0-.64-3.74v0c.07-.05.16-.09.23-.15a8.78,8.78,0,0,0,3.4-6.44.49.49,0,0,0,0-.12,1.22,1.22,0,1,0-2.44-.17,6.55,6.55,0,0,1-2.31,4.67,5.84,5.84,0,0,0-4.38-2.48,5.44,5.44,0,0,0-4.34,2.48,8.94,8.94,0,0,0-1.32,2.68c-.08.25-.14.51-.2.78a11.29,11.29,0,0,0-.28,2.51C399.2,253.76,402,257.54,405.34,257.54Z"/><rect class="cls-4" x="367.84" y="440.55" width="40.26" height="12.15"/><path class="cls-2" d="M388.7,337.41H346.14v74.5h47.4V397.12l-17,7.88a1.31,1.31,0,0,1-.52.11,1.24,1.24,0,0,1-1.19-.92l-2.44-9.44L367.86,396a14.35,14.35,0,1,1-7.2-27.78l4.6-1.19-1.78-6.92a1.22,1.22,0,0,1,.17-1,1.27,1.27,0,0,1,.86-.54l29-4v-8.73a.54.54,0,0,1,0-.1V337.4H388.7Z"/><path class="cls-4" d="M361.24,370.58a11.92,11.92,0,1,0,6,23.07l4.57-1.28-5.92-23Z"/><polygon class="cls-4" points="368.58 314.9 350.88 314.9 350.87 320.36 368.58 320.36 368.58 314.9"/><path class="cls-2" d="M351.59,455.16h-41l-9.85,9.22a3,3,0,0,0-.56,3.22c.14.36.57,1.21,1.4,1.21h50Z"/><rect class="cls-4" x="311.33" y="440.55" width="40.26" height="12.15"/><rect class="cls-5" x="334.74" y="337.41" width="8.89" height="74.5"/><path class="cls-4" d="M404.51,211.67a35.32,35.32,0,0,1,14.67,3.19V185.74H299.05v28.9a35.28,35.28,0,0,1,49.43,31.08h20.79A35.27,35.27,0,0,1,404.51,211.67Z"/><path class="cls-4" d="M346.06,247a32.63,32.63,0,0,0-32.39-32.85h-.44a32.67,32.67,0,0,0-14.18,3.21v59.23a32.84,32.84,0,0,0,47-29.59Zm-38.47,2.13a10.55,10.55,0,0,1,.66-3.77l-.23-.14a8.9,8.9,0,0,1-3.38-6.43,1.21,1.21,0,0,1,1.05-1.37h0a1.22,1.22,0,0,1,1.37,1v0a6.6,6.6,0,0,0,2.29,4.66c.08-.1.14-.21.22-.31a5.81,5.81,0,0,1,2.57-1.82,5.93,5.93,0,0,1,1.58-.34,5.45,5.45,0,0,1,4.34,2.48,8.94,8.94,0,0,1,1.32,2.68c.07.25.14.51.2.78a11.29,11.29,0,0,1,.28,2.51h0c0,4.66-2.73,8.44-6.12,8.44h0C310.34,257.54,307.59,253.76,307.59,249.1Z"/><path class="cls-4" d="M404.52,279.77a32.42,32.42,0,0,0,14.66-3.46V217.58a32.42,32.42,0,0,0-14.66-3.46,32.83,32.83,0,0,0,0,65.65Zm-4.84-34a8.94,8.94,0,0,1,1.32-2.68,5.44,5.44,0,0,1,4.34-2.48,5.84,5.84,0,0,1,4.38,2.48,6.55,6.55,0,0,0,2.31-4.67,1.22,1.22,0,1,1,2.44.17.49.49,0,0,1,0,.12,8.78,8.78,0,0,1-3.4,6.44c-.07.06-.16.1-.23.15v0a10.33,10.33,0,0,1,.64,3.74h0a11.36,11.36,0,0,1-.28,2.51c-.06.26-.12.52-.2.78a10.65,10.65,0,0,1-.57,1.43,7.86,7.86,0,0,1-1.19,1.79,6,6,0,0,1-1.51,1.27,5,5,0,0,1-1.15.49,4.7,4.7,0,0,1-1.24.17c-3.39,0-6.14-3.78-6.14-8.44a11.29,11.29,0,0,1,.28-2.51C399.54,246.32,399.6,246.06,399.68,245.81Z"/><path class="cls-4" d="M349.66,312.45H389.6a78.51,78.51,0,0,0,29.58-5.74V279a35.25,35.25,0,0,1-49.91-30.85H348.48a35.27,35.27,0,0,1-49.42,31.08v27.46a78.46,78.46,0,0,0,29.57,5.74Zm-4.48-14.74c2.75-2.8,8.29-4.53,14.45-4.53s11.7,1.76,14.46,4.53a1.23,1.23,0,0,1-1.75,1.72c-2.28-2.3-7.26-3.8-12.71-3.8s-10.43,1.49-12.7,3.8a1.23,1.23,0,1,1-1.75-1.72Z"/><path class="cls-3" d="M313.74,257.54c3.38,0,6.13-3.78,6.13-8.44h0a11.29,11.29,0,0,0-.28-2.51c-.06-.27-.13-.53-.2-.78a8.94,8.94,0,0,0-1.32-2.68,5.45,5.45,0,0,0-4.34-2.48,5.93,5.93,0,0,0-1.58.34,5.81,5.81,0,0,0-2.57,1.82c-.08.1-.14.21-.22.31a6.6,6.6,0,0,1-2.29-4.66v0a1.22,1.22,0,0,0-1.37-1h0a1.21,1.21,0,0,0-1.05,1.37,8.9,8.9,0,0,0,3.38,6.43l.23.14a10.55,10.55,0,0,0-.66,3.77c0,4.66,2.75,8.44,6.14,8.44Z"/><path class="cls-4" d="M300.21,409.35l-22.64-7.12-.74,2.24a11.91,11.91,0,1,0,22.6,7.53Z"/><path class="cls-6" d="M414.19,142a77.65,77.65,0,0,0-10.09-2.56H404l-1.72-.28-.37-.06c-.49-.08-1-.16-1.46-.22h-.12c-.6-.08-1.19-.15-1.79-.21l-.25-.06-1.64-.14h-.06l8.22,6a41.64,41.64,0,0,1,16.85,33.37v38.26a35.23,35.23,0,0,1,0,61.66v53.17h47.74V215.53c0-1.23-.09-2.47-.18-3.69-.17-2.22-.43-4.41-.77-6.49-.08-.55-.17-1.07-.27-1.58s-.23-1.29-.37-1.92-.3-1.42-.46-2.1-.29-1.18-.43-1.77c-.19-.75-.39-1.49-.61-2.21-.15-.54-.3-1.06-.47-1.57s-.39-1.24-.61-1.86-.42-1.24-.65-1.84c-.15-.43-.3-.81-.45-1.2l-.18-.47c-.48-1.26-1-2.53-1.62-3.8-.25-.59-.51-1.13-.78-1.67s-.61-1.23-.9-1.84l-.29-.54-.58-1.07c-.31-.58-.62-1.14-.94-1.69-.71-1.22-1.36-2.29-2-3.29-.34-.55-.69-1.07-1.06-1.59s-.65-1-1-1.43-.82-1.14-1.24-1.71-.76-1-1.16-1.5-.65-.84-1-1.21L451,167c-.36-.43-.74-.88-1.11-1.3s-.63-.73-1-1.09a80.36,80.36,0,0,0-10.46-9.74q-.72-.57-1.44-1.08c-.44-.35-.87-.66-1.31-1l-1.16-.81-.11-.08c-.82-.56-1.63-1.09-2.45-1.6v0c-.9-.58-1.82-1.13-2.74-1.65v0h0a77.68,77.68,0,0,0-13.86-6.32v0L414.2,142v0Z"/><path class="cls-6" d="M314.91,173.55a45.89,45.89,0,0,1,9.79-28.26l5.68-7.17H326.5l0,0-11.56,8.52a38.94,38.94,0,0,0-4.36,3.76l-.17.17c-.21.2-.41.4-.6.62a35.62,35.62,0,0,0-3,3.5,39.25,39.25,0,0,0-7.74,23.34v5.23h15.86Z"/><path class="cls-6" d="M252.51,194.1c-.19.63-.33,1-.48,1.56-.22.75-.42,1.49-.59,2.21-.36,1.35-.66,2.63-.9,3.85-.15.67-.27,1.3-.38,2s-.19,1-.26,1.56c-.35,2.11-.61,4.3-.78,6.54-.09,1.21-.15,2.45-.18,3.68v2.3l-.08,113.15H296.6V278.06a35.28,35.28,0,0,1,0-62.23v-38A41.79,41.79,0,0,1,304.84,153l0,0c1-1.25,2-2.49,3.1-3.66l0,0,0,0c.19-.22.44-.46.67-.7l.17-.16h0a42,42,0,0,1,4.65-4l8.18-6-1.68.16h-.25v0c-.59.06-1.19.13-1.77.21v0h0v.05l-1.91.29-1.7.28h-.18v-.06a76.82,76.82,0,0,0-10,2.57l-.06,0,0,.06-1.15.38,0-.06a79.65,79.65,0,0,0-16,7.59l-1.1.7c-.56.36-1.1.71-1.63,1.07s-1.06.72-1.58,1.09l-.18.14-1.13.82-.07.05,0,0c-.43.31-.86.64-1.27,1l-.15.07,0,0c-.18.14-.35.27-.51.41-.47.36-.86.68-1.25,1s-1,.82-1.46,1.24-1,.83-1.45,1.26-.94.87-1.39,1.31-.93.89-1.37,1.34-.68.68-1,1l-.37.38c-.43.45-.86.92-1.28,1.39s-.86,1-1.27,1.43-.86,1-1.24,1.47c-1.27,1.5-2.45,3-3.51,4.57-.8,1.1-1.52,2.17-2.16,3.17s-1.32,2.11-2,3.3c-.33.57-.64,1.12-.94,1.68s-.63,1.14-.9,1.71-.6,1.15-.86,1.73-.55,1.11-.79,1.67c-.6,1.31-1.15,2.59-1.64,3.85-.21.54-.42,1.08-.61,1.62s-.45,1.24-.66,1.85S252.7,193.47,252.51,194.1Z"/><path class="cls-6" d="M402.11,183.29v-9.74a43.37,43.37,0,0,0-9.29-26.76L386,138.12H360.35v45.17Z"/><path class="cls-6" d="M280.4,247a32.81,32.81,0,0,0,16.2,28.3V218.64A32.83,32.83,0,0,0,280.4,247Z"/><path class="cls-6" d="M433.54,231.62a32.78,32.78,0,0,0-11.91-12.68v56A32.82,32.82,0,0,0,433.54,231.62Z"/><path class="cls-6" d="M317.38,173.55v9.74h40.51V138.12H333.51l-6.88,8.69A43.36,43.36,0,0,0,317.38,173.55Z"/><path class="cls-6" d="M394.75,145.27a45.77,45.77,0,0,1,9.82,28.28l0,9.74h14.65v-5.48a39.19,39.19,0,0,0-15.84-31.39l-11.25-8.3h-3Z"/><path class="cls-7" d="M409.09,339.67a22.57,22.57,0,0,0-22.93-10l3.26,5.21h5.38a1.23,1.23,0,0,1,1.24,1.21h0v9.35l5.46,8.73a1.22,1.22,0,0,1-.88,1.86l-5.45.76a1.29,1.29,0,0,1-.4.08h0l-.07,0-28.47,4,8.24,32a.43.43,0,0,1,0,.07s0,.07,0,.1l2.36,9.16,33.76-15.64a.45.45,0,0,0,.12-.06h0l5.66-2.62c5.47-2.61,9-6.12,10.09-10.13.92-3.23.23-6.75-2-10.18Z"/><path class="cls-7" d="M410.26,389.37,396,396v17.16a1.23,1.23,0,0,1-1.23,1.23H333.52a1.23,1.23,0,0,1-1.19-1.23v-77a1.23,1.23,0,0,1,1.23-1.22h53l-2.81-4.49a41.42,41.42,0,0,0-23.49-7.64h-1c-18.18.2-34.44,12.63-40.33,30.6q-.26.78-.48,1.56l-.78,2.73-22.81,80.37H310.1a1.42,1.42,0,0,1,.2,0h42.37l.15,0h13.79c.06,0,.1,0,.15,0h42.42l.15,0h14Z"/><polygon class="cls-7" points="396 350.1 396 354.27 398.4 353.94 396 350.1"/><path class="cls-7" d="M277.18,399.53a1.51,1.51,0,0,1,.17.1l23.5,7.39.76-2.59,14.46-50.11a47.62,47.62,0,0,1,16.63-24.81c-6.37.58-19.78,4.38-30.65,24.67-6.81,12.7-14.11,24.92-21.7,36.43-2.57,3.83-4.53,6.61-5.64,8.16v0l2.25.7A.83.83,0,0,1,277.18,399.53Z"/><path class="cls-2" d="M203.16,247a6,6,0,0,0-6-6v0a6,6,0,1,0,6,6Z"/><polygon class="cls-2" points="183.69 407.94 51.56 407.94 41.63 443.02 68.79 443.02 111.52 443.02 125.3 443.02 168.02 443.02 168.03 443.02 193.12 443.02 183.69 407.94"/><path class="cls-8" d="M175.09,395.8h-42.5c-8.57,0-12.35-2.54-14-4.85-1.7,2.32-5.52,4.85-14.18,4.85H61.88a18.57,18.57,0,0,1-6.55-1.2l-3.08,10.88H183l-2.8-10.4A19,19,0,0,1,175.09,395.8Z"/><path class="cls-7" d="M167.54,455.16h-41v13.65h50c.83,0,1.25-.84,1.4-1.21a3,3,0,0,0-.55-3.22Z"/><rect class="cls-4" x="126.53" y="445.47" width="40.26" height="7.24"/><path class="cls-2" d="M145.94,324.6l-19.7,22.14.19.14A24.43,24.43,0,0,1,133.71,359l31.3.11-4.29-13.51A43.29,43.29,0,0,1,145.94,324.6Z"/><path class="cls-8" d="M112.94,345.73a5.54,5.54,0,0,1,5.62,2,5.48,5.48,0,0,1,4.37-2.16,5,5,0,0,1,1,.09l21.24-23.86L143,314a48.1,48.1,0,0,0-10.83-4.78l-13.26,15.48a1.23,1.23,0,0,1-.92.41,1.15,1.15,0,0,1-.94-.44l-13-15.44a47.47,47.47,0,0,0-9.94,4.27L91.82,322Z"/><path class="cls-4" d="M131.45,393.32v-33c-.18-.87-1.67-7.39-6.66-11.59a2.88,2.88,0,0,0-.92-.52,2.74,2.74,0,0,0-.94-.17,3.13,3.13,0,0,0-1.78.56,3,3,0,0,0-1.31,2.52l-.12,36.1a2.09,2.09,0,0,0,0,.25,1.15,1.15,0,0,1,.11.71C120.33,389.71,122.44,393.05,131.45,393.32Z"/><path class="cls-4" d="M118.07,322l11.5-13.47a48.8,48.8,0,0,0-22.86,0Z"/><rect class="cls-4" x="109.78" y="299.22" width="17.7" height="5.46"/><path class="cls-4" d="M117.34,388a5.29,5.29,0,0,1-.08-.81l.08-21.52a.19.19,0,0,1,0-.08V351.11a3.07,3.07,0,0,0-1.4-2.57,3,3,0,0,0-2.84-.28,3.51,3.51,0,0,0-.79.47c-5,4.19-6.46,10.71-6.64,11.58v33C115.09,393,117,389.42,117.34,388Z"/><path class="cls-2" d="M103.39,359a24.1,24.1,0,0,1,7.27-12.13L91,324.77A43.24,43.24,0,0,1,76.35,345.5L72,359.1Z"/><path class="cls-7" d="M69.28,455.16l-9.85,9.22a3,3,0,0,0-.56,3.22c.15.37.57,1.21,1.4,1.21h50V455.16Z"/><rect class="cls-4" x="70.02" y="445.47" width="40.27" height="7.24"/><path class="cls-2" d="M163.11,322.91v2.81a17.06,17.06,0,0,0,1,5.83c.42,1.11.84,2.1,1.31,3.11a78.61,78.61,0,0,0,10.4,15.82l.09.09a1.23,1.23,0,0,1-.86,2.09l0,0a1,1,0,0,1-.34,0,38.12,38.12,0,0,1-6.07-2.26,41,41,0,0,1-4.65-2.53l3.83,12.1a1.23,1.23,0,0,1-1.19,1.6L134,361.42v31.92H175.1a16.31,16.31,0,0,0,5.57-1A16.12,16.12,0,0,0,190.45,372l-10.77-32.14A27.22,27.22,0,0,0,163.11,322.91Z"/><path class="cls-2" d="M55.05,391.85a15.81,15.81,0,0,0,6.83,1.49h41.28v-31.9l-32.8.12,0,0a1.19,1.19,0,0,1-1-.5,1.21,1.21,0,0,1-.18-1.1L73,347.8a42.72,42.72,0,0,1-5.71,3,42.15,42.15,0,0,1-5.09,1.8,1,1,0,0,1-.34,0,1.24,1.24,0,0,1-1.22-1.25,1.2,1.2,0,0,1,.36-.85l.13-.12a92.68,92.68,0,0,0,7.19-10,50.79,50.79,0,0,0,4.48-8.86c.12-.34.24-.71.35-1.07a16.71,16.71,0,0,0,.69-4.76V323A27.14,27.14,0,0,0,57.3,339.87L46.53,372A16.18,16.18,0,0,0,55.05,391.85Z"/><path class="cls-4" d="M198.07,276.36a23,23,0,0,1,3-4.45,24.74,24.74,0,0,0,3.09-4.51,17.91,17.91,0,0,0,1.9-7c0-.54,0-1.73,0-2.25s-.12-1.26-.19-1.65a2.67,2.67,0,0,1,0-.31.77.77,0,0,1,.06.2c.06.3.2.86.39,1.58a66.89,66.89,0,0,0,3.42,9.72A79.56,79.56,0,0,0,228.28,217v-6.91l-19.2-18.91c-6.81,8.87-15,14-24.34,15.13a118.36,118.36,0,0,1-14.08.72c-7.81.09-15.17.16-23.5,3.68a61.18,61.18,0,0,0-15,9.44,1.23,1.23,0,0,1-.76.29,1,1,0,0,1-.45-.1,1.22,1.22,0,0,1-.76-1,33.46,33.46,0,0,1,.8-10c2.26-10.2,9.48-23,31-26.3,14.25-2.15,23.37-4.48,30.76-7.89L179.46,162a20,20,0,0,0-14-6H70.91a20.09,20.09,0,0,0-13.95,6L43.84,174.77c7.51,3.56,16.81,6,31.42,8.21,22.73,3.42,29.21,17.94,31.05,26.3a33.45,33.45,0,0,1,.79,10,1.19,1.19,0,0,1-.75,1,1.06,1.06,0,0,1-1.26-.15,61.18,61.18,0,0,0-15-9.44c-8.32-3.52-15.69-3.59-23.49-3.68a118.08,118.08,0,0,1-14.07-.72c-9.57-1.18-17.93-6.49-24.8-15.77l-20,19.57V217c0,38.42,28.37,71.93,66.16,78.52V280a23.44,23.44,0,0,1,23.26-23.58h21.34a.85.85,0,0,1,.32,0h21A23.44,23.44,0,0,1,163.11,280v15.35a78.85,78.85,0,0,0,34-15.4,4.71,4.71,0,0,1,0-.61A9.34,9.34,0,0,1,198.07,276.36Zm-158.26-21A8.4,8.4,0,1,1,48.23,247,8.39,8.39,0,0,1,39.81,255.35Zm33-28.22a1.2,1.2,0,0,1-1.6.68c-15.16-6.18-30.57-.06-30.72,0a1.24,1.24,0,0,1-.93-2.29c.67-.27,16.47-6.56,32.57,0A1.25,1.25,0,0,1,72.78,227.13Zm90.8.68a1.24,1.24,0,1,1-1.11-2.21l.19-.08c.65-.27,16.46-6.56,32.56,0a1.24,1.24,0,0,1,.65,1.63,1.26,1.26,0,0,1-1.11.75h0a1.19,1.19,0,0,1-.46-.1C179.14,221.63,163.73,227.75,163.58,227.81ZM188.77,247a8.4,8.4,0,1,1,8.41,8.38A8.41,8.41,0,0,1,188.77,247Z"/><path class="cls-4" d="M125.22,269.16l-6.74-9.41-6.71,9.37a87.14,87.14,0,0,0-6.15,10c-.5.93-1,1.88-1.42,2.82,2.81-2.73,8.27-4.42,14.33-4.42s11.31,1.62,14.16,4.23c-.42-.87-.85-1.73-1.31-2.59A84.17,84.17,0,0,0,125.22,269.16Z"/><path class="cls-4" d="M133,283.73a1.24,1.24,0,0,1-1.74,0c-2.27-2.29-7.27-3.78-12.71-3.78s-10.41,1.49-12.7,3.8a1.23,1.23,0,0,1-1.73,0,1.19,1.19,0,0,1-.37-.87,86.38,86.38,0,0,0-5.09,13.88h39.72A86.1,86.1,0,0,0,133.31,283,1.17,1.17,0,0,1,133,283.73Z"/><path class="cls-9" d="M139.8,258.86l-18.92,0,6.33,8.82a88.94,88.94,0,0,1,13.48,28.43l7,25.8a40.91,40.91,0,0,0,14.56,21.76,1.22,1.22,0,0,1,.48.36,39,39,0,0,0,7,4.13c.58.26,1.18.52,1.77.76a73.74,73.74,0,0,1-8.24-13.16,29.81,29.81,0,0,1-1.39-3.29,19.39,19.39,0,0,1-1.2-6.69V280A21,21,0,0,0,139.8,258.86Z"/><path class="cls-9" d="M76.33,280v40.86s0,0,0,0a1.23,1.23,0,0,1,0,.76v4.1a18.94,18.94,0,0,1-.79,5.44c-.11.4-.25.82-.4,1.23a52.39,52.39,0,0,1-4.69,9.31,84,84,0,0,1-5,7.16l.82-.34a39.75,39.75,0,0,0,8.18-4.75,40.72,40.72,0,0,0,14.76-21.85l7-25.84a89.21,89.21,0,0,1,7.15-18.19,91,91,0,0,1,6.32-10.23l6.33-8.83H97.14A21,21,0,0,0,76.33,280Z"/><path class="cls-2" d="M39.81,241v0a6,6,0,1,0,6,6v0A6,6,0,0,0,39.81,241Z"/><polygon class="cls-9" points="139.72 108.27 121.9 119.94 139.72 119.94 139.72 108.27"/><polygon class="cls-9" points="118.63 119.14 139.72 105.34 139.72 89.75 97.55 89.75 97.55 105.33 118.63 119.14"/><path class="cls-9" d="M89.34,64,97.2,87.3h42.87l7.6-23.41a5.72,5.72,0,0,0-5.45-7.5H94.77A5.73,5.73,0,0,0,89,62.14,5.54,5.54,0,0,0,89.34,64Z"/><path class="cls-9" d="M41.53,173.59,55.2,160.24a22.47,22.47,0,0,1,15.7-6.69h94.53a22.49,22.49,0,0,1,15.75,6.74L195.12,174c7.52-3.88,13.45-9.16,19.82-15.84a79.62,79.62,0,0,0-66.43-35.78h-6.33v0H95.1v0H87.54a79.74,79.74,0,0,0-65.86,35C28.16,164.25,34.14,169.66,41.53,173.59Z"/><path class="cls-9" d="M210.54,189.17l17.74,17.48v-4.47a79.66,79.66,0,0,0-7.54-33.76A82.25,82.25,0,0,1,210.54,189.17Z"/><path class="cls-9" d="M26.3,188.51A84.72,84.72,0,0,1,16,166.86a79.67,79.67,0,0,0-8.3,35.36v4.46Z"/><path class="cls-9" d="M222.22,153.9c-1.61,1.78-3.24,3.56-4.83,5.23-7,7.44-13.45,13.25-21.93,17.45-7.92,4-17.5,6.51-33.05,8.86-20.19,3.05-26.92,14.95-29,24.4a34.57,34.57,0,0,0-.82,6.87,60.93,60.93,0,0,1,13.69-8.26c8.76-3.71,16.37-3.78,24.42-3.87a120,120,0,0,0,13.8-.7c9.06-1.13,16.94-6.26,23.5-15.26,4.59-6.29,8.42-14.3,11.39-23.78A109.16,109.16,0,0,0,222.22,153.9Z"/><polygon class="cls-9" points="97.55 108.27 97.55 119.94 115.38 119.94 97.55 108.27"/><path class="cls-9" d="M28.9,188c6.62,9.39,14.67,14.73,23.92,15.89a120,120,0,0,0,13.8.7c8,.09,15.65.16,24.42,3.87h0a61.09,61.09,0,0,1,13.68,8.26,34.57,34.57,0,0,0-.82-6.87c-2.07-9.45-8.8-21.36-29-24.4-16-2.4-25.7-5.07-33.74-9.2-8.32-4.26-14.8-10.22-21.93-17.88-1.25-1.31-2.57-2.76-4.11-4.45.51,2.43,1.3,5.74,2.41,9.49C20.39,173.08,24.33,181.58,28.9,188Z"/><path class="cls-3" d="M72.1,225.52c-16.1-6.56-31.9-.27-32.57,0a1.24,1.24,0,0,0,.93,2.29c.15-.06,15.56-6.18,30.72,0a1.2,1.2,0,0,0,1.6-.68A1.25,1.25,0,0,0,72.1,225.52Z"/><path class="cls-3" d="M194.76,227.91h0a1.26,1.26,0,0,0,1.11-.75,1.24,1.24,0,0,0-.65-1.63c-16.1-6.56-31.91-.27-32.56,0l-.19.08a1.24,1.24,0,1,0,1.11,2.21c.15-.06,15.56-6.18,30.72,0A1.19,1.19,0,0,0,194.76,227.91Z"/><path class="cls-3" d="M225.44,150a1.24,1.24,0,0,0-.7-1.28,1.21,1.21,0,0,0-1.44.29c-2.16,2.41-4.43,4.94-6.64,7.31a82.07,82.07,0,0,0-68.16-36.38h-6.32V106.66l44.67-29.24-1.35-2-43.32,28.36v-15L150,64.65a8.36,8.36,0,0,0,.4-2.53,8.19,8.19,0,0,0-8.19-8.19H94.77A8.21,8.21,0,0,0,87,64.74l8.1,24v15L51.78,75.37l-1.35,2L95.1,106.66V120H87.54A82.15,82.15,0,0,0,20,155.55c-1.71-1.82-3.57-3.9-6-6.58a1.23,1.23,0,0,0-2.13,1A108.85,108.85,0,0,0,15,163.65a82,82,0,0,0-9.65,38.53V217c0,39.78,29.39,74.43,68.52,81.06v22.32A29.57,29.57,0,0,0,55,339.09L44.24,371.23a18.61,18.61,0,0,0,8.83,22.34L38.81,443.9A1.2,1.2,0,0,0,39,445a1.23,1.23,0,0,0,1,.49H67.57v7.93l-9.82,9.18a5.48,5.48,0,0,0-1.16,5.93,4,4,0,0,0,3.68,2.75h51.25a1.23,1.23,0,0,0,1.22-1.23V445.47h11.34V470a1.23,1.23,0,0,0,1.22,1.23h51.25a4,4,0,0,0,3.68-2.75,5.51,5.51,0,0,0-1.15-5.93l-9.83-9.18v-7.93h25.47a1.45,1.45,0,0,0,.3,0,1.24,1.24,0,0,0,.89-1.51l-13.36-49.67a18.59,18.59,0,0,0,10.22-23L182,339.06a29.53,29.53,0,0,0-18.89-18.72V297.88a82.24,82.24,0,0,0,34.42-15,10.67,10.67,0,0,1-.36-1.53,11.23,11.23,0,0,1,0-1.39,78.85,78.85,0,0,1-34,15.4V280a23.44,23.44,0,0,0-23.27-23.58h-21a.85.85,0,0,0-.32,0H97.14A23.44,23.44,0,0,0,73.88,280v15.57C36.09,289,7.76,255.46,7.72,217v-6.93l20-19.57c6.87,9.28,15.23,14.59,24.8,15.77A118.08,118.08,0,0,0,66.6,207c7.8.09,15.17.16,23.49,3.68a61.18,61.18,0,0,1,15,9.44,1.06,1.06,0,0,0,1.26.15,1.19,1.19,0,0,0,.75-1,33.45,33.45,0,0,0-.79-10c-1.84-8.36-8.32-22.88-31-26.3-14.61-2.23-23.91-4.65-31.42-8.21L57,161.94a20.09,20.09,0,0,1,13.95-6h94.53a20,20,0,0,1,14,6l13.34,13.13c-7.39,3.41-16.51,5.74-30.76,7.89-21.57,3.26-28.79,16.1-31,26.3a33.46,33.46,0,0,0-.8,10,1.22,1.22,0,0,0,.76,1,1,1,0,0,0,.45.1,1.23,1.23,0,0,0,.76-.29,61.18,61.18,0,0,1,15-9.44c8.33-3.52,15.69-3.59,23.5-3.68a118.36,118.36,0,0,0,14.08-.72c9.37-1.15,17.53-6.26,24.34-15.13l19.2,18.91V217a79.56,79.56,0,0,1-18.54,50.73.3.3,0,0,1,0,.1c.3.66.48,1.05,1.15,2.45l0,.06A82.32,82.32,0,0,0,230.74,217V202.18a82.1,82.1,0,0,0-8.91-37.11A108,108,0,0,0,225.44,150ZM87.54,122.36H95.1v0h47.08v0h6.33a79.62,79.62,0,0,1,66.43,35.78c-6.37,6.68-12.3,12-19.82,15.84l-13.94-13.69a22.49,22.49,0,0,0-15.75-6.74H70.9a22.47,22.47,0,0,0-15.7,6.69L41.53,173.59c-7.39-3.93-13.37-9.34-19.85-16.22A79.74,79.74,0,0,1,87.54,122.36Zm10-14.09,17.83,11.67H97.55ZM94.77,56.39h47.45a5.72,5.72,0,0,1,5.45,7.5l-7.6,23.41H97.2L89.34,64a5.54,5.54,0,0,1-.3-1.81A5.73,5.73,0,0,1,94.77,56.39Zm45,33.36v15.59l-21.09,13.8-21.08-13.8V89.75Zm0,18.52v11.67H121.9ZM208,188.62c-6.56,9-14.44,14.13-23.5,15.26a120,120,0,0,1-13.8.7c-8.05.09-15.66.16-24.42,3.87a60.93,60.93,0,0,0-13.69,8.26,34.57,34.57,0,0,1,.82-6.87c2.1-9.45,8.83-21.35,29-24.4,15.55-2.35,25.13-4.88,33.05-8.86,8.48-4.2,14.95-10,21.93-17.45,1.59-1.67,3.22-3.45,4.83-5.23a109.16,109.16,0,0,1-2.85,10.94C216.4,174.32,212.57,182.33,208,188.62ZM19.2,158.39c7.13,7.66,13.61,13.62,21.93,17.88,8,4.13,17.79,6.8,33.74,9.2,20.22,3,26.95,14.95,29,24.4a34.57,34.57,0,0,1,.82,6.87A61.09,61.09,0,0,0,91,208.48h0c-8.77-3.71-16.37-3.78-24.42-3.87a120,120,0,0,1-13.8-.7c-9.25-1.16-17.3-6.5-23.92-15.89-4.57-6.44-8.51-14.94-11.4-24.59-1.11-3.75-1.9-7.06-2.41-9.49C16.63,155.63,18,157.08,19.2,158.39ZM16,166.86A84.72,84.72,0,0,0,26.3,188.51L7.72,206.68v-4.46A79.67,79.67,0,0,1,16,166.86Zm212.26,39.79-17.74-17.48a82.25,82.25,0,0,0,10.2-20.75,79.66,79.66,0,0,1,7.54,33.76Zm-47.61,185.7a16.31,16.31,0,0,1-5.57,1H134V361.42l32.71.12a1.23,1.23,0,0,0,1.19-1.6L164,347.84a41,41,0,0,0,4.65,2.53,38.12,38.12,0,0,0,6.07,2.26,1,1,0,0,0,.34,0l0,0a1.23,1.23,0,0,0,.86-2.09l-.09-.09a78.61,78.61,0,0,1-10.4-15.82c-.47-1-.89-2-1.31-3.11a17.06,17.06,0,0,1-1-5.83v-2.81a27.22,27.22,0,0,1,16.57,16.93L190.45,372A16.12,16.12,0,0,1,180.67,392.35ZM178,467.6c-.15.37-.57,1.21-1.4,1.21h-50V455.16h41l9.86,9.22A3,3,0,0,1,178,467.6Zm-51.42-22.13h40.26v7.24H126.53ZM168,443H41.63l9.93-35.08H183.69L193.12,443ZM60.27,468.81c-.83,0-1.25-.84-1.4-1.21a3,3,0,0,1,.56-3.22l9.85-9.22h41v13.65ZM70,452.71v-7.24h40.27v7.24ZM52.25,405.48l3.08-10.88a18.57,18.57,0,0,0,6.55,1.2h42.51c8.66,0,12.48-2.53,14.18-4.85,1.67,2.31,5.45,4.85,14,4.85h42.5a19,19,0,0,0,5.14-.72l2.8,10.4ZM46.53,372,57.3,339.87A27.14,27.14,0,0,1,73.88,323v2.8a16.71,16.71,0,0,1-.69,4.76c-.11.36-.23.73-.35,1.07a50.79,50.79,0,0,1-4.48,8.86,92.68,92.68,0,0,1-7.19,10l-.13.12a1.2,1.2,0,0,0-.36.85,1.24,1.24,0,0,0,1.22,1.25,1,1,0,0,0,.34,0,42.15,42.15,0,0,0,5.09-1.8,42.72,42.72,0,0,0,5.71-3l-3.9,12.14a1.21,1.21,0,0,0,.18,1.1,1.19,1.19,0,0,0,1,.5l0,0,32.8-.12v31.9H61.88a15.81,15.81,0,0,1-6.83-1.49A16.18,16.18,0,0,1,46.53,372Zm115.28-39.57a29.81,29.81,0,0,0,1.39,3.29,73.74,73.74,0,0,0,8.24,13.16c-.59-.24-1.19-.5-1.77-.76a39,39,0,0,1-7-4.13,1.22,1.22,0,0,0-.48-.36,40.91,40.91,0,0,1-14.56-21.76l-7-25.8a88.94,88.94,0,0,0-13.48-28.43l-6.33-8.82,18.92,0A21,21,0,0,1,160.61,280v45.76A19.39,19.39,0,0,0,161.81,332.44ZM98,299.22h9.35v6.69c-1.07.23-2.15.48-3.21.79A49.94,49.94,0,0,0,95,310.26Zm-3.87,14.3a47.47,47.47,0,0,1,9.94-4.27l13,15.44a1.15,1.15,0,0,0,.94.44,1.23,1.23,0,0,0,.92-.41l13.26-15.48A48.1,48.1,0,0,1,143,314l2.11,7.79-21.24,23.86a5,5,0,0,0-1-.09,5.48,5.48,0,0,0-4.37,2.16,5.54,5.54,0,0,0-5.62-2L91.82,322Zm15.67-14.3h17.71v5.46H109.78Zm19.79,9.3L118.07,322l-11.36-13.47A48.8,48.8,0,0,1,129.57,308.52Zm-9.74,79.65a1.15,1.15,0,0,0-.11-.71,2.09,2.09,0,0,1,0-.25l.12-36.1a3,3,0,0,1,1.31-2.52,3.13,3.13,0,0,1,1.78-.56,2.74,2.74,0,0,1,.94.17,2.88,2.88,0,0,1,.92.52c5,4.2,6.48,10.72,6.66,11.59v33C122.44,393.05,120.33,389.71,119.83,388.17Zm10.07-82a.79.79,0,0,0,0-.22v-6.69H139l3.12,11.53A51.53,51.53,0,0,0,129.9,306.13Zm-1.18-9.36H98.64a86.38,86.38,0,0,1,5.09-13.88,1.19,1.19,0,0,0,.37.87,1.23,1.23,0,0,0,1.73,0c2.29-2.31,7.27-3.8,12.7-3.8s10.44,1.49,12.71,3.78a1.24,1.24,0,0,0,1.74,0,1.17,1.17,0,0,0,.33-.71,86.1,86.1,0,0,1,5.05,13.75Zm-10.19-19.29c-6.06,0-11.52,1.69-14.33,4.42.46-.94.92-1.89,1.42-2.82a87.14,87.14,0,0,1,6.15-10l6.71-9.37,6.74,9.41a84.17,84.17,0,0,1,6.16,10c.46.86.89,1.72,1.31,2.59C129.84,279.1,124.48,277.48,118.53,277.48Zm-42.18,68A43.24,43.24,0,0,0,91,324.77l19.66,22.09A24.1,24.1,0,0,0,103.39,359L72,359.1Zm29.3,14.81c.18-.87,1.66-7.39,6.64-11.58a3.51,3.51,0,0,1,.79-.47,3,3,0,0,1,2.84.28,3.07,3.07,0,0,1,1.4,2.57v14.44a.19.19,0,0,0,0,.08l-.08,21.52a5.29,5.29,0,0,0,.08.81c-.39,1.46-2.25,5.07-11.69,5.36ZM133.71,359a24.43,24.43,0,0,0-7.28-12.09l-.19-.14,19.7-22.14a43.29,43.29,0,0,0,14.78,21L165,359.08ZM116,258.83l-6.33,8.83a91,91,0,0,0-6.32,10.23,89.21,89.21,0,0,0-7.15,18.19l-7,25.84a40.72,40.72,0,0,1-14.76,21.85,39.75,39.75,0,0,1-8.18,4.75l-.82.34a84,84,0,0,0,5-7.16,52.39,52.39,0,0,0,4.69-9.31c.15-.41.29-.83.4-1.23a18.94,18.94,0,0,0,.79-5.44v-4.1a1.23,1.23,0,0,0,0-.76s0,0,0,0V280a21,21,0,0,1,20.81-21.13Z"/><path class="cls-3" d="M39.85,238.56A8.4,8.4,0,1,0,48.23,247,8.4,8.4,0,0,0,39.85,238.56ZM45.79,247a6,6,0,1,1-6-6v0a6,6,0,0,1,6,6Z"/><path class="cls-3" d="M205.56,247a8.4,8.4,0,1,0-8.38,8.4A8.4,8.4,0,0,0,205.56,247Zm-8.38,6a6,6,0,0,1,0-12v0a6,6,0,0,1,6,6v0A6,6,0,0,1,197.18,253Z"/><path class="cls-3" d="M346.93,299.43c2.27-2.31,7.26-3.8,12.7-3.8s10.43,1.5,12.71,3.8a1.23,1.23,0,0,0,1.75-1.72c-2.76-2.77-8.31-4.53-14.46-4.53s-11.7,1.73-14.45,4.53a1.23,1.23,0,1,0,1.75,1.72Z"/><path class="cls-3" d="M411.08,338.37A25,25,0,0,0,384,327.7a43.79,43.79,0,0,0-13-5.85,1.22,1.22,0,0,0,.06-.26V314.9H389.6a80.9,80.9,0,0,0,29.58-5.56v24.05h52.65l0-115.83V215.2c0-1.27-.1-2.55-.19-3.81-.18-2.3-.45-4.55-.8-6.68-.07-.56-.17-1.11-.27-1.63s-.25-1.26-.38-2-.3-1.45-.48-2.14-.29-1.23-.45-1.83c-.18-.77-.4-1.52-.62-2.27-.15-.56-.29-1-.49-1.64s-.42-1.28-.63-1.92-.44-1.28-.66-1.87c-.14-.43-.3-.84-.46-1.26l-.18-.46c-.52-1.31-1.09-2.64-1.68-3.92-.25-.59-.52-1.13-.81-1.75s-.61-1.24-.94-1.89l-.29-.54c-.19-.38-.39-.76-.59-1.12l-1-1.74c-.72-1.26-1.4-2.38-2.06-3.37-.36-.58-.79-1.2-1.1-1.67s-.58-.87-1-1.46-.88-1.19-1.28-1.75-.91-1.11-1.19-1.55a13.15,13.15,0,0,0-1-1.29l-.37-.46c-.38-.45-.82-.94-1.15-1.33s-.65-.77-1-1.13a82.38,82.38,0,0,0-10.76-10c-.48-.39-1-.78-1.48-1.11s-.89-.67-1.36-1l-1.19-.83-.11-.07c-.75-.53-1.62-1.08-2.55-1.67s-1.87-1.17-2.82-1.72a81.25,81.25,0,0,0-14.34-6.52l-1.16-.39a82.53,82.53,0,0,0-10.4-2.65h-.13l-1.76-.3c-.67-.12-1.33-.22-2-.31h-.09a14,14,0,0,0-1.71-.19h-.3l-1.68-.16h-.38c-.46,0-.91-.1-1.37-.1h-2l0,0H325.21L325,136l-.24,0-.13-.06-.32.08h-1.15v-.18c-.45,0-.92.1-1.38.1l0,.17h-.34l0-.13-1.71.15v.14h-.21v-.11c-.64.06-1.27.14-1.88.22v.09h0v-.06c-.68.09-1.35.19-2,.3l-1.73.3h-.17v.06h-.07a81.55,81.55,0,0,0-10.31,2.63v0c-.41.12-.81.26-1.21.4v0l-.06,0A81.29,81.29,0,0,0,285.51,148c-.39.24-.79.48-1.16.73-.55.34-1.12.72-1.66,1.09s-1.1.75-1.64,1.14l-.19.13-1.08.79h0l-1.34,1-.16.12v0l-.05,0c-.23.18-.47.35-.62.49-.44.31-.74.58-1.25,1l-1.51,1.27c-.49.42-1,.87-1.48,1.31s-.94.88-1.44,1.33-1,.93-1.41,1.39l-1,1-.36.37c-.47.44-.89,1-1.35,1.44s-.84,1-1.3,1.48-.89,1-1.29,1.51c-1.29,1.55-2.52,3.14-3.62,4.72-.81,1.12-1.54,2.23-2.22,3.28s-1.36,2.15-2.06,3.38c-.36.58-.67,1.15-1,1.74s-.61,1.16-.93,1.75-.59,1.2-.88,1.79-.58,1.18-.82,1.74c-.61,1.33-1.18,2.66-1.69,3.94-.23.57-.39,1.07-.62,1.7s-.45,1.23-.68,1.88-.44,1.38-.62,1.92-.35,1.1-.5,1.64c-.22.77-.44,1.52-.62,2.27-.37,1.41-.67,2.75-.91,4-.15.65-.28,1.44-.39,2s-.21,1.1-.28,1.63c-.35,2.14-.62,4.4-.8,6.72-.09,1.25-.19,2.52-.19,3.79V333.39h52.66V309.34a81.05,81.05,0,0,0,29.57,5.56h19.8v6.69a1.37,1.37,0,0,0,.05.28,44.42,44.42,0,0,0-11.88,5.18c-2.17-.27-21.88-1.75-36.72,25.94-6.78,12.63-14,24.82-21.57,36.24-4,6-6.57,9.46-6.57,9.46a1.22,1.22,0,0,0,.61,1.9l2.89.91-.73,2.21a14.38,14.38,0,0,0,9.06,18.15,14.16,14.16,0,0,0,4.51.74,14.35,14.35,0,0,0,9.7-3.75L292.07,439a1.15,1.15,0,0,0,.2,1.07,1.19,1.19,0,0,0,1,.48h15.61V453.4l-9.82,9.18a5.45,5.45,0,0,0-1.15,5.93,4,4,0,0,0,3.68,2.75h51.25a1.22,1.22,0,0,0,1.22-1.2V440.55h11.34V470h0a1.22,1.22,0,0,0,1.22,1.23h51.24a4,4,0,0,0,3.69-2.72,5.51,5.51,0,0,0-1.16-5.93l-9.82-9.18V440.55H425a1.16,1.16,0,0,0,1-.47,1.21,1.21,0,0,0,.22-1.07l-13.62-50.69,4.89-2.26c6.13-2.93,10.08-7,11.41-11.7,1.11-3.92.31-8.14-2.3-12.18Zm15.43,35.33c-1.11,4-4.62,7.52-10.09,10.13l-5.66,2.62h0a.45.45,0,0,1-.12.06l-33.76,15.64L374.51,393s0-.07,0-.1a.43.43,0,0,0,0-.07l-8.24-32,28.47-4,.07,0h0a1.29,1.29,0,0,0,.4-.08l5.45-.76a1.22,1.22,0,0,0,.88-1.86L396,345.48v-9.35h0a1.23,1.23,0,0,0-1.24-1.21h-5.38l-3.26-5.21a22.57,22.57,0,0,1,22.93,10l15.43,23.85C426.74,367,427.43,370.47,426.51,373.7Zm-7.26,93.9c-.14.37-.56,1.21-1.4,1.21h-50V455.16h41l9.87,9.22A3,3,0,0,1,419.25,467.6Zm-51.41-27.05H408.1v12.16H367.84Zm41.49-2.45-.15,0H366.76c-.05,0-.09,0-.15,0H352.82l-.15,0H310.3a1.42,1.42,0,0,0-.2,0H294.87l22.81-80.37.78-2.73q.23-.78.48-1.56c5.89-18,22.15-30.4,40.33-30.6h1a41.42,41.42,0,0,1,23.49,7.64l2.81,4.49h-53a1.23,1.23,0,0,0-1.23,1.22v77a1.23,1.23,0,0,0,1.19,1.23h61.25a1.23,1.23,0,0,0,1.23-1.23V396l14.26-6.61,13.1,48.73ZM300.18,467.6a3,3,0,0,1,.56-3.22l9.85-9.22h41v13.65h-50C300.75,468.81,300.32,468,300.18,467.6Zm11.15-14.89V440.55h40.26v12.16Zm-27-33.17a11.91,11.91,0,0,1-7.53-15.07l.74-2.24,22.64,7.12-.78,2.65A11.91,11.91,0,0,1,284.36,419.54Zm-9.65-20.77c1.11-1.55,3.07-4.33,5.64-8.16,7.59-11.51,14.89-23.73,21.7-36.43,10.87-20.29,24.28-24.09,30.65-24.67a47.62,47.62,0,0,0-16.63,24.81l-14.46,50.11-.76,2.59-23.5-7.39a1.51,1.51,0,0,0-.17-.1.83.83,0,0,0-.22,0l-2.25-.7Zm-20.33-210c.49-1.26,1-2.54,1.64-3.85.24-.56.53-1.1.79-1.67s.58-1.16.86-1.73.6-1.15.9-1.71.61-1.11.94-1.68c.67-1.19,1.36-2.29,2-3.3s1.36-2.07,2.16-3.17c1.06-1.53,2.24-3.07,3.51-4.57.38-.47.83-1,1.24-1.47s.85-1,1.27-1.43.85-.94,1.28-1.39l.37-.38c.32-.32.56-.54,1-1s.91-.9,1.37-1.34.94-.88,1.39-1.31,1-.84,1.45-1.26,1.07-.92,1.46-1.24.78-.64,1.25-1c.16-.14.33-.27.51-.41l0,0,.15-.07c.41-.36.84-.69,1.27-1l0,0,.07-.05,1.13-.82.18-.14c.52-.37,1.05-.74,1.58-1.09s1.07-.71,1.63-1.07l1.1-.7a79.65,79.65,0,0,1,16-7.59l0,.06L304,142l0-.06.06,0a76.82,76.82,0,0,1,10-2.57v.06h.18l1.7-.28,1.91-.29v-.05h0v0c.58-.08,1.18-.15,1.77-.21v0H320l1.68-.16-8.18,6a42,42,0,0,0-4.65,4h0l-.17.16c-.23.24-.48.48-.67.7l0,0,0,0c-1.11,1.17-2.11,2.41-3.1,3.66l0,0a41.79,41.79,0,0,0-8.24,24.81v38a35.28,35.28,0,0,0,0,62.23v52.88H248.86l.08-113.15v-2.3c0-1.23.09-2.47.18-3.68.17-2.24.43-4.43.78-6.54.07-.56.15-.87.26-1.56s.23-1.32.38-2c.24-1.22.54-2.5.9-3.85.17-.72.37-1.46.59-2.21.15-.56.29-.93.48-1.56s.39-1.26.6-1.87.47-1.3.66-1.85S254.17,189.3,254.38,188.76Zm161-46.39v0a77.68,77.68,0,0,1,13.86,6.32h0v0c.92.52,1.84,1.07,2.74,1.65v0c.82.51,1.63,1,2.45,1.6l.11.08,1.16.81c.44.34.87.65,1.31,1s1,.7,1.44,1.08a80.36,80.36,0,0,1,10.46,9.74c.37.36.63.67,1,1.09s.75.87,1.11,1.3l.36.47c.35.37.6.71,1,1.21s.74.93,1.16,1.5.89,1.28,1.24,1.71.63.91,1,1.43.72,1,1.06,1.59c.63,1,1.28,2.07,2,3.29.32.55.63,1.11.94,1.69l.58,1.07.29.54c.29.61.63,1.29.9,1.84s.53,1.08.78,1.67c.63,1.27,1.14,2.54,1.62,3.8l.18.47c.15.39.3.77.45,1.2.23.6.43,1.22.65,1.84s.44,1.35.61,1.86.32,1,.47,1.57c.22.72.42,1.46.61,2.21.14.59.27,1.1.43,1.77s.32,1.47.46,2.1.27,1.41.37,1.92.19,1,.27,1.58c.34,2.08.6,4.27.77,6.49.09,1.22.18,2.46.18,3.69V330.94H421.64V277.77a35.23,35.23,0,0,0,0-61.66V177.85a41.64,41.64,0,0,0-16.85-33.37l-8.22-6h.06l1.64.14.25.06c.6.06,1.19.13,1.79.21h.12c.48.06,1,.14,1.46.22l.37.06,1.72.28h.13A77.65,77.65,0,0,1,414.19,142h0v0ZM369.27,245.72H348.48a35.28,35.28,0,0,0-49.43-31.08v-28.9H419.18v29.12a35.27,35.27,0,0,0-49.91,30.86Zm-70.22-67.66a39.25,39.25,0,0,1,7.74-23.34,35.62,35.62,0,0,1,3-3.5c.19-.22.39-.42.6-.62l.17-.17a38.94,38.94,0,0,1,4.36-3.76l11.56-8.52,0,0h3.88l-5.68,7.17a45.89,45.89,0,0,0-9.79,28.26v9.74H299.05Zm104.29-31.64a39.19,39.19,0,0,1,15.84,31.39v5.48H404.53l0-9.74a45.77,45.77,0,0,0-9.82-28.28l-5.65-7.15h3ZM386,138.12l6.86,8.67a43.37,43.37,0,0,1,9.29,26.76v9.74H360.35V138.12Zm-28.07,0v45.17H317.38v-9.74a43.36,43.36,0,0,1,9.25-26.74l6.88-8.69Zm63.74,80.82a32.82,32.82,0,0,1,0,56Zm-125,56.31a32.83,32.83,0,0,1,0-56.61Zm2.45-57.92a32.67,32.67,0,0,1,14.18-3.21h.44a32.83,32.83,0,1,1-14.61,62.44Zm105.47-3.21a32.42,32.42,0,0,1,14.66,3.46v58.73a32.42,32.42,0,0,1-14.66,3.46,32.83,32.83,0,0,1,0-65.65ZM299.06,279.25a35.27,35.27,0,0,0,49.42-31.08h20.79A35.25,35.25,0,0,0,419.18,279v27.69a78.51,78.51,0,0,1-29.58,5.74h-61a78.46,78.46,0,0,1-29.57-5.74Zm51.82,35.65h17.7v5.46H350.87Zm42.69,30.88a.54.54,0,0,0,0,.1v8.73l-29,4a1.27,1.27,0,0,0-.86.54,1.22,1.22,0,0,0-.17,1l1.78,6.92-4.6,1.19a14.35,14.35,0,1,0,7.2,27.78l4.54-1.27,2.44,9.44a1.24,1.24,0,0,0,1.19.92,1.31,1.31,0,0,0,.52-.11l17-7.88v14.79h-47.4v-74.5h47.43Zm-26.35,47.87a11.92,11.92,0,1,1-6-23.07l4.63-1.17,5.92,23Zm-23.59-56.24v74.5h-8.89v-74.5ZM396,350.1l2.4,3.84-2.4.33Z"/><path class="cls-10" d="M209.78,267.83a.3.3,0,0,0,0-.1,66.89,66.89,0,0,1-3.42-9.72c-.19-.72-.33-1.28-.39-1.58a.77.77,0,0,0-.06-.2,2.67,2.67,0,0,0,0,.31c.07.39.15,1.13.19,1.65s0,1.71,0,2.25a17.91,17.91,0,0,1-1.9,7,24.74,24.74,0,0,1-3.09,4.51,23,23,0,0,0-3,4.45,9.34,9.34,0,0,0-.91,3,4.71,4.71,0,0,0,0,.61,11.23,11.23,0,0,0,0,1.39,10.67,10.67,0,0,0,.36,1.53,8.31,8.31,0,0,0,1.39,2.65,10.73,10.73,0,0,0,1.4,1.38,8.33,8.33,0,0,0,4.13,1.74,12.16,12.16,0,0,0,2.09,0,8.27,8.27,0,0,0,5.1-2.61,8.44,8.44,0,0,0,2.26-5,17.28,17.28,0,0,0,0-2.16,20.34,20.34,0,0,0-2.17-6.88c-.11-.23-.45-1-.78-1.64l0-.06C210.26,268.88,210.08,268.49,209.78,267.83Z"/></svg>