<svg id="Слой_1" data-name="Слой 1" xmlns="http://www.w3.org/2000/svg" viewBox="0 0 500 203"><defs><style>.cls-1{fill:none;}.cls-2{fill:#f05d26;}.cls-3{fill:#05090a;}.cls-4{fill:#f05f28;}</style></defs><path class="cls-1" d="M188.9,82.83c-9,.44-15.2,5.3-18.66,13.51-2.92,7-3,14.16-1,21.35a24.64,24.64,0,0,0,9.33,13.93,18.24,18.24,0,0,0,14.54,3.44,19.86,19.86,0,0,0,12.87-8.7c3.81-5.45,5.11-11.63,5.21-17.84h0c-.05-5.5-.94-10.51-3.58-15.06C203.47,86.27,197.18,82.43,188.9,82.83Z"/><path class="cls-1" d="M93.07,104.1h36.51c-.2-.52-.35-.92-.52-1.31-5.93-13.51-12.49-26.73-17.92-40.53C105.86,76.49,98.9,90,93.07,104.1Z"/><path class="cls-2" d="M359,141.71c-12.75-4.44-19.26-14.25-21.18-26a40.51,40.51,0,0,1-.16-11.79,35.89,35.89,0,0,1,4.55-14,29.62,29.62,0,0,1,15.47-13,45.5,45.5,0,0,1,20.09-2.68c1.62.13,3.23.28,4.85.42l.3-.59h0c-.43-.26-.84-.54-1.28-.77Q368.34,66.26,355,59.22q-19.68-10.38-39.37-20.8L282.93,21c-7.21-3.84-14.4-7.73-21.64-11.53-4.35-2.28-8.77-4.45-13.15-6.67L246,2.26l-1.87,0-2,.58c-.71.4-1.44.75-2.14,1.15a11.61,11.61,0,0,0-5.55,6.32,15.37,15.37,0,0,0-.64,5.37V80.46a3.27,3.27,0,0,0,.79-1.34,44.17,44.17,0,0,1,7.26-12.61c3.45-4.21,7.8-7.31,12.17-10.45a46.42,46.42,0,0,1,23-8.32,73.87,73.87,0,0,1,16.88,0,56.43,56.43,0,0,1,8.24,1.75,43.85,43.85,0,0,1,10.28,4.89,38.53,38.53,0,0,1,14.35,14.68c1.05,2,1.92,4,2.93,6.18l-12.9,2.63c-.37-.83-.64-1.46-.93-2.08a26,26,0,0,0-6.29-8.54,28.87,28.87,0,0,0-12.37-6,45.4,45.4,0,0,0-26.07.58,33.92,33.92,0,0,0-14,9.3,35.49,35.49,0,0,0-7,11.88,36.27,36.27,0,0,0-1.79,18.14,34.72,34.72,0,0,0,7.28,17.22c5.67,7.2,13.28,10.92,22,12.8,4.58,1,9.22.84,13.86.88a66,66,0,0,0,14.68-1.74,32.62,32.62,0,0,0,10.36-4.62V106.43H285.72c0-3.85-.17-7.5.09-11.15h43.56c0,.56.12,1,.12,1.53,0,10.85,0,21.71,0,32.56a2.81,2.81,0,0,1-1.17,2.57c-2.06,1.41-4.1,2.84-6.2,4.17a45.11,45.11,0,0,1-11.1,4.95,90.46,90.46,0,0,1-14.65,3.1,77.09,77.09,0,0,1-19.67.26A53.64,53.64,0,0,1,257.06,138a49.35,49.35,0,0,1-21.36-22.39c-.58-1.22-1.09-2.48-1.63-3.72l-.27,0v67.86c0,2.95,0,5.9,0,8.84a11.19,11.19,0,0,0,5.81,9.87c.61.37,1.16.84,1.74,1.26l1.4.8,2.07.24,1.63-.24,1.59-.8,1.06-.4c5.46-2.09,9.41-4,10.52-4.46,6.25-2.69,12.48-5.42,18.73-8.1Q294,180,309.66,173.34q17.74-7.59,35.47-15.21,14.19-6.12,28.36-12.27c1.19-.51,2.37-1.05,3.55-1.58a9.63,9.63,0,0,0-2.73-.26A44.3,44.3,0,0,1,359,141.71Z"/><path class="cls-3" d="M103.88,49.79c-.13.31-.21.54-.32.75q-9,19.6-18.07,39.22Q74,114.85,62.41,139.92a10.4,10.4,0,0,1-1,1.46v.76H76.49L88.67,114h45.15l13.12,28.07h15.53L118.56,49.79Zm25.7,54.31H93.07C98.9,90,105.86,76.49,111.14,62.26c5.43,13.8,12,27,17.92,40.53C129.23,103.18,129.38,103.58,129.58,104.1Z"/><path class="cls-4" d="M438.2,107.87a13.57,13.57,0,0,0-.71-1.84,14.68,14.68,0,0,0-6.28-6.4c-9.41-4.95-18.77-10-28.18-15a7.28,7.28,0,0,0-1-.37c6.09,6.94,8.72,15,8.85,24.09s-2.23,17.36-8,24.62a6.47,6.47,0,0,0,1.84-.47c12.9-5.45,16.49-7.53,26.18-11.25a11.6,11.6,0,0,0,5-3.37,10.39,10.39,0,0,0,1.93-3.59l.53-1.3c0-.87.11-1.74.17-2.61Z"/><path class="cls-3" d="M210.84,82.22a7.76,7.76,0,0,1-.8-.72,23,23,0,0,0-11.18-7.26,35.2,35.2,0,0,0-16.57-.68c-8.95,1.53-16.13,5.93-20.68,13.84-6.56,11.43-7.86,23.52-3.23,36a29.66,29.66,0,0,0,16.78,17.79,36.17,36.17,0,0,0,12.05,2.63c8.54.49,16.29-1.43,22.71-7.42a6.4,6.4,0,0,1,.92-.52v6.23h12.32V49.72H210.84Zm.37,26.3c-.1,6.21-1.4,12.39-5.21,17.84a19.86,19.86,0,0,1-12.87,8.7,18.24,18.24,0,0,1-14.54-3.44,24.64,24.64,0,0,1-9.33-13.93c-2-7.19-1.94-14.39,1-21.35,3.46-8.21,9.68-13.07,18.66-13.51,8.28-.4,14.57,3.44,18.73,10.63,2.64,4.55,3.53,9.56,3.58,15.06Z"/><path class="cls-2" d="M394.9,96.6c-1.68-4.84-4.61-8.62-9.41-10.79a30.1,30.1,0,0,0-11.37-2.38c-2.57.37-5.2.58-7.75,1.18A16.82,16.82,0,0,0,354.15,94.7a29.09,29.09,0,0,0-2.22,8.65,44.54,44.54,0,0,0,.89,16.19c1.46,5.63,4.5,10.13,9.89,12.72a24.49,24.49,0,0,0,9,2.19,29.15,29.15,0,0,0,11.85-1.28c6.73-2.33,10.45-7.39,12-14.15a45.93,45.93,0,0,0,.93-12.11A34.56,34.56,0,0,0,394.9,96.6Z"/><polygon class="cls-4" points="382.61 74.72 384.84 75.38 384.96 75.09 382.92 74.13 382.92 74.13 382.61 74.72"/></svg>