<svg id="Слой_1" data-name="Слой 1" xmlns="http://www.w3.org/2000/svg" viewBox="0 0 500 150"><defs><style>.cls-1{fill:#e03e28;}.cls-2{fill:#dd2910;}.cls-3{fill:#fdf9f8;}.cls-4{fill:#fedc00;}.cls-5{fill:#fefdfd;}</style></defs><path class="cls-1" d="M293.85-1.56c.95.17,1.29,1.08,1.95,1.61a1.32,1.32,0,0,1,.54,1.29l-.47-.62c-.51.55-.75-.2-1.15-.28a2.93,2.93,0,0,1-.93-.5l-.28-1.5Z"/><path class="cls-2" d="M228.37,144.08c-1,.3-1.9.63-2.86.89q-3.07.81-6.17,1.57a5.36,5.36,0,0,1-.7.09l0-.14c1-.26,2.07-.47,3.08-.79,1.3-.42,2.58-.91,3.85-1.4a6.18,6.18,0,0,0,1.12-.63c.08,0,.11-.18.16-.27l-.1-.14-2.9.9-.09-.19a20.94,20.94,0,0,1,3.27-1.75l-7.57,1.8.2.35a.24.24,0,0,1-.11.06c-1.47,0-3,0-4.43.08s-3,.29-4.56.42c-.42,0-.74.15-.74.66l-2.37-.46-.06.28c1.29.42,2.5,1.22,4,.78.18.7.69.76,1.28.71.27,0,.56,0,.84,0,.82,0,1.65,0,2.48-.1.67-.05,1.33-.17,2-.22-.78.64-1.81.3-2.67.6l0,.22c.7.1,1.4.24,2.1.29a20.78,20.78,0,0,1,2.19.14l-1.85.61-.27-.6-.08.67h-.81v-.11c-.08-.09-.16-.23-.26-.25a3.34,3.34,0,0,0-.83-.08,10.54,10.54,0,0,1-2.91-.34,7.59,7.59,0,0,0-1.49.09c-.54,0-1.08-.16-1.62-.14-.76,0-1.5.16-2.26.22a7,7,0,0,1-.77-.09h-2.17a9.46,9.46,0,0,1-2-.28,15.17,15.17,0,0,0-2-.19c-.57-.05-1.15-.06-1.72-.15-.15,0-.27-.25-.4-.38l.09-.14c1,.1,1.91.21,2.87.28a8.07,8.07,0,0,0,1-.11,4.09,4.09,0,0,1,.6.07c1,.12,2,.26,3,.35a13,13,0,0,0,1.53,0,3.29,3.29,0,0,0,.53-.1l.05-.2a9.71,9.71,0,0,0-1.11-.47c-1.73-.5-3.47-1-5.22-1.44s-3.42-.76-5.13-1.11c-.18,0-.39.11-.59.15s-.39.09-.43,0c-.47-.71-1.25-.48-1.89-.64-.31-.08-.64-.07-.94-.18s-.29-.25-.43-.38l.11-.16c.28.1.55.21.83.3s.69.22,1-.18c.06-.07.27-.05.4,0a3,3,0,0,0,.67,0,6.39,6.39,0,0,0-2.64-1.09c-.33,0-.66-.11-1-.18a2.75,2.75,0,0,0-.49-.14c-2.55-.17-5-1-7.48-1.44-.5-.08-1-.06-1.48-.16-1.31-.27-2.6-.63-3.9-1-1.46-.37-2.93-.73-4.39-1.08-.48-.12-.76,0-.89.55a1.66,1.66,0,0,0,.05,1.38c.07.1,0,.32-.08.47s-.22.52-.38.89l6.1,2.28a2.17,2.17,0,0,1,.41.05c.6.23,1.27.76,1.77.63.71-.17,1.19.36,1.84.23a3.26,3.26,0,0,1,1.25.26c.42.09.86.16,1.27.29a5.27,5.27,0,0,1,.81.36c.11,0,.28-.15.43-.12.53.08,1.06.34,1.48-.24,0,0,.07,0,.1,0l2.25.7,0,.13-.48.1,0,.15.56.19c-.05.09-.12.31-.18.3-.35,0-.76.2-1-.28,0-.09-.32-.07-.53-.11l-.06.31a56.15,56.15,0,0,1-14.34-3.81,8.61,8.61,0,0,1-.8,1.15,10.89,10.89,0,0,1-1.07.87l1.18.56-.08.17-.82-.28c-.29-.08-.55-.15-.81.14a2.19,2.19,0,0,1-1.59.92c-.34,0-.79.52-1,.9a3,3,0,0,1-2.33,1.8c-.16,0-.36-.08-.54-.13-1.48-.42-2.86-1-3.51-2.56-.74-1.69-1.42-3.41-2.09-5.13a10.59,10.59,0,0,1-.49-1.69c-.12-.6-.57-.25-1-.4-.13.92-.25,1.81-.4,2.69,0,.11-.18.19-.27.29a.87.87,0,0,0-.17.21c-.19.46-.36.94-.58,1.39a.72.72,0,0,1-.45.38c-.79.07-1,.73-1.23,1.25a2.49,2.49,0,0,1-1.41,1.5,5,5,0,0,1-.91.11c-.16.43-.45.44-.9,0-.19-.18-.56-.18-.86-.24s-.77-.21-.89-.66-.33-1.22-.47-1.83a4.34,4.34,0,0,0-.2-1.05,1.52,1.52,0,0,0-.71-.55s-.27.31-.44.5l-.57.07c-.28-.77-.61-1.61-.87-2.47-.12-.4-.28-.64-.72-.63s-.48-.19-.58-.5a12.07,12.07,0,0,0-.47-1.12l-.2.06-.09.69c-.06.43,0,.88-.56,1.12-.22.1-.26.59-.39.9-1.19-.14-1.5-.46-1.81-2.06s-.53-3-.75-4.48c-.09-.66-.07-1.35-.13-2a1.12,1.12,0,0,0-1.32-1.07,2.14,2.14,0,0,0-.59.19c-.56.24-1.11.5-1.68.73-.35.15-.43-.1-.45-.37,0-.55,0-1.1-.11-1.65s-.16-1.1-.27-1.65a26.12,26.12,0,0,1-.82-4.12c-.15-4.66-.19-9.33-.19-14,0-2.57.14-5.15.27-7.72,0-1.18.23-2.36.36-3.6l.34.25a16.52,16.52,0,0,1,.43-1.84,3.32,3.32,0,0,0,0-2.18,16.51,16.51,0,0,1-.28-2.91l.28.42c.14,0,.83-16.68.69-17a8.66,8.66,0,0,0-1.4.78c-.18.14-.15.55-.2.84s.06.73-.46.84c-.12,0-.2.3-.29.45l-.77-.36c.06.09,0,.06,0,0,.06-2,.05-4,.2-5.95a51.13,51.13,0,0,1,.71-5.79c.51-2.65.15-5.29.16-7.93,0-5.18,0-10.37.11-15.56.09-3.67.31-7.34.64-11s.86-7.17,1.32-10.75a16.6,16.6,0,0,1,.4-1.83c.09-.36,0-.81.58-.93.09,0,.14-.29.18-.45.3-1.25.59-2.5.92-3.74a6.65,6.65,0,0,1,.42-1s0,0,.05.05l0,.43a1.71,1.71,0,0,0,1.47-.72,1.1,1.1,0,0,1,.9-.52,3.24,3.24,0,0,0,1.06-.63l.85.13,0-.15-.54-.48.34-1.24c.54.1.54.1,1-.77.06.1.12.2.19.3-.26-.68.39-.41.59-.54a2,2,0,0,0,.71-1c0-.11,0-.29.12-.32a6.91,6.91,0,0,1,3.37-1c.56,0,.77-.24.74-.8a1.11,1.11,0,0,1,.29-.54c.1-.14.3-.22.35-.37.27-.71.51-1.43.76-2.15h0L154,3c.28-.67.6-1.41.92-2.15a1.05,1.05,0,0,1,.25-.37.54.54,0,0,1,.39-.13c.07,0,.11.22.15.35a3.25,3.25,0,0,1,.08.38l.76-.5.1.14a13.6,13.6,0,0,1-.65,2,2.81,2.81,0,0,0-.13,1.4c0,.1.25.3.37.29a10.38,10.38,0,0,0,1.22-.21,2.15,2.15,0,0,1,.07.24,2.38,2.38,0,0,1-.9.34c-.56,0-.74.22-.72.72a11.89,11.89,0,0,0,4.53-1.07l-.61-.69a6.59,6.59,0,0,1,2.3-.62,9.08,9.08,0,0,0,2.39-.06c1.57-.21,3.16-.32,4.72-.61a52.29,52.29,0,0,1,8.83-.76c1,0,1.92-.07,2.88-.07.19,0,.38.22.58.26.42.09.85.12,1.27.18v.22c-.7.1-1.41.18-2.1.31-.17,0-.31.19-.55.35h7.73v.13L186,3.23l-1.39.11c-.49,0-1,0-1.46,0-1.16,0-2.31.08-3.46.15a5.5,5.5,0,0,0-.87.21l0,.19a3.72,3.72,0,0,0,.57.08c.49,0,1,0,1.47-.07l3.72-.32a4.86,4.86,0,0,0,.82.19c.47,0,1,0,1.42,0,1.34,0,2.67,0,4,.06s2.56,0,3.83,0c.91,0,1.82-.14,2.73-.23,7.12-.67,14.27-.58,21.41-.67a25.73,25.73,0,0,1,3.4.17c.93.13,1.83.5,2.77.67a11.92,11.92,0,0,0,1.9.09c.13,0,.3-.07.38,0a5,5,0,0,1,.58.54,1.77,1.77,0,0,1-.5.07c-.44-.07-.87-.16-1.34-.25a8.15,8.15,0,0,1-.85,0c-.53,0-1.05-.15-1.57-.19a18.27,18.27,0,0,0-3.46-.1,17.24,17.24,0,0,1-2.5-.07c-.34,0-.71.32-1,.26-1.35-.27-2.73.19-4-.07A18.67,18.67,0,0,0,209,3.89c-.84,0-1.67-.17-2.51-.18s-1.45.12-2.18.19l-1.92.2-5.24.5c-.32,0-.74-.16-.91.47,1.13-.07,2.21-.14,3.29-.19,1.71-.09,3.43-.15,5.14-.24a7.57,7.57,0,0,0,1.23-.22,4.51,4.51,0,0,1,2.15.22,6.29,6.29,0,0,0,1.68,0c.48,0,1.19-.24,1.39,0,.74.82,1.6.17,2.38.33a22.91,22.91,0,0,0,4,.08c1,0,2,.08,3,.1l4.06.1a2,2,0,0,1,.61.06,12.75,12.75,0,0,0,4.56.35c.21,0,.41-.19.62-.29l-.39-.53-.14-.22c.21,0,.4-.16.53-.12,1,.34,2.1-.36,3,.49.15-.26.36-.47.71-.19a.35.35,0,0,0,.25,0c1.18-.14,2.36-.33,3.55-.4a12.43,12.43,0,0,1,1.91.17l1.74.19c.32,0,.65,0,1,.1a.5.5,0,0,1,.32.25c.22.59.52.7,1.2.74.88,0,1.75.25,2.63.35,1.18.14,2.36.27,3.54.36s2.18.14,3.27.13,2.31-.13,3.46-.17c1.33,0,2.67,0,4-.07l.22,0c.6-.07,1.21-.16,1.82-.2.93-.06,1.87-.13,2.81-.12,1.15,0,2.29.13,3.44.14.93,0,1.87-.13,2.8-.09s1.89.21,2.84.31a1.41,1.41,0,0,0,.47-.16c-.59-.34-1.33-.31-1.58-1l.82-.18,1.69.32.12-.24c-.7-.39-1.72-.45-1.77-1.71l2.15,1.36V4.49h2.4c-.21-.16-.37-.37-.56-.41a.75.75,0,0,1-.6-.59l.1-.07c.68.17,1.36.31,2,.51a8.76,8.76,0,0,1,1.49.6c.6.31,1.06.14,1.17-.53.42.2.83.41,1.26.58.26.11.52.15.55-.28,0-.08.26-.14.4-.21s0,0,0,0c.17.4.82.57,1.46.33l-.54-.37,0-.15c.65,0,1.44-.15,1.92.16s.87.31,1.26.53a8,8,0,0,1,1.19.88,2.25,2.25,0,0,0,1.8.53c.71-.08,1.42-.21,2.13-.31.14,0,.3,0,.44,0a3.59,3.59,0,0,0,.47-.12l0-.15L294.28,5c.58-.33.93-.22,1.51.21a1.4,1.4,0,0,0,1,.13,3.6,3.6,0,0,0,.95-.4,1.59,1.59,0,0,0,.07-.26c.36.3.71.58,1.18.14l-.7-.84,1.72.47s0,.1,0,.08l1.66-.17-.09.5c.08-.1.15-.27.26-.3a1.16,1.16,0,0,1,.73,0,5.39,5.39,0,0,1,1,.75l.46-.77.57.1v.15l-.45.07V5l3.05.36-.34-.54a7.32,7.32,0,0,0,2.74.75c1,0,1.9.07,2.86.09s1.88-.14,2.82-.08v.24H313.6a1.53,1.53,0,0,0,1.59.39c.52-.28.62.23,1,.57,1.71-.16,3.51-.35,5.32-.5a13,13,0,0,0,5.3-1.18c.08.8.58.68,1,.57a12.25,12.25,0,0,0,2.3-.79,2.65,2.65,0,0,1,1.2-.18,2.71,2.71,0,0,0,1.13-.45c.09,0,.09-.34.05-.51s-.24-.1-.37-.11a2,2,0,0,0-.5,0c.17-.14.22-.21.3-.24,1.2-.38,2.41-.74,3.61-1.13a.57.57,0,0,0,.35-.29,1.81,1.81,0,0,1,2-1c.09,0,.17.18.2.28s.1.51.15.76c.42-.95,1.45-.74,2.14-1.16.15-.09.48.12.72.18v.18l.44-.55.36.24A1.22,1.22,0,0,1,342,.58a1.85,1.85,0,0,1,.55-.53c.33-.17.49,0,.43.35-.09.5-.19,1-.27,1.46h3.77c-.56.39-.85.93-1.6,1a3.22,3.22,0,0,0-1.49.74.62.62,0,0,0,0,1c.46.33.39.8.54,1.21.21.57-.39.81-.58,1.22-.4-.29-.82-.07-.88.5-.13,1.25-.23,2.49-.32,3.73-.05.73-.09,1.46-.08,2.19a5,5,0,0,0,.25,1.06h.14l.17-.41.58,1.51.14,0v-.8l.15-.08.73,1.07,0-.15c.28.09.62.09.8.27A8.42,8.42,0,0,1,345.9,17c.14.28.3.54.42.82.49,1.08,1,2.16,1.45,3.24a2.92,2.92,0,0,0,.21.32l.09,0-1.86-4.62-.32.31a4.91,4.91,0,0,0-.72-2.53c-.13-.28-.23-.57-.35-.86l.16-.07.43.77c.19.35.18.81.71,1,.12,0,.16.41.28.78a.84.84,0,0,1,.29.32c.84,2.23,1.66,4.47,2.51,6.7.38,1,.83,2,1.24,3,.09.22.27.47-.06.69-.06,0,0,.24,0,.35q1,3.22,2.05,6.46a5.58,5.58,0,0,1,.45,1.44,3.06,3.06,0,0,0,.05,1.24,10.24,10.24,0,0,1,.39,1.1c.11.33.22.66.32,1l-.18.06a2.14,2.14,0,0,0-.18-.54c-.06-.09-.24-.09-.36-.14l-.23-.09c-.34-1.28-.67-2.56-1-3.84s-.75-2.71-1.14-4.06c-.16-.58-.34-1.16-.54-1.73-.34-1-.71-1.93-1.06-2.9l-.18.05c.18.63.35,1.25.54,1.87.44,1.44.92,2.87,1.31,4.32a3.29,3.29,0,0,1-.19,1.24c0,.1-.09.21-.07.31.25,1.35.5,2.71.77,4.06a5.07,5.07,0,0,0,.31.83l.1-.5.15,0c.08.57.16,1.14.23,1.72a6.16,6.16,0,0,0,.05.75q.87,3.1,1.77,6.21c.26.91.58,1.82.83,2.74.15.58.2,1.18.3,1.77l-.17,0c-.27-1-.51-2-.82-3-.4-1.3-.86-2.59-1.3-3.88,0-.09-.13-.16-.2-.25v-.1l-.06,0,.07.06.19,1.08-.08.06a4.09,4.09,0,0,0,0,1.1c.29,1.15.65,2.28,1,3.42.05.17.09.35.13.52l-.13,0-.64-1.91-.12,0,.47,2.56c-.15.21-.29.31-.28.41,0,.5.09,1,.13,1.52,0,.33,0,.67,0,1h-.14c-.08-.39-.15-.77-.23-1.16-.21-1-.42-2.07-.62-3.1-.05-.27-.05-.55-.08-.83h0l.4.94c-.31-1.39.08-3-1.24-4.19l.55,2-.09,0-.16-.26-.2.53-1-4.16H350a4.71,4.71,0,0,0-.06.83c.07.63.2,1.25.25,1.88,0,.18-.15.38-.22.57a1,1,0,0,0-.1.37c.09.9.19,1.8.29,2.7H350c-.2-1.33-.38-2.66-.61-4a18.28,18.28,0,0,0-.61-2.53l1,11.13-.2,0c-.33-2.28-.6-4.58-1-6.85s-.95-4.5-1.56-6.73l-.1.45c-.4-.42.18-1.08-.51-1.4.05.65.09,1.25.14,1.85s.11,1.24.18,1.86c.25,2.21.53,4.42.73,6.63,0,.37.37.86-.13,1.21,0,0,0,.2,0,.2.54,0,.28.48.34.72a12.29,12.29,0,0,1,.28,1.47,2.9,2.9,0,0,1,0,.62,1.26,1.26,0,0,0,.21.14c-.07.05-.12.06-.15.09s-.32.26-.32.38a32.16,32.16,0,0,0,.72,6.48c.28,1.08.43,2.19.64,3.28a6,6,0,0,1,0,.61l-.42-.46.63,3.38-.23-.25h-.16c.19,2,.38,4.08.55,6l-.52-1.07-.11.58h-.08l-.57-4.85V65.87h-.08v2.45c0,1.6-.09,3.2,0,4.79a30.78,30.78,0,0,0,.44,3.14c0,.07,0,.18,0,.21-.72.64-.39,1.38-.23,2.11,0,.17,0,.34,0,.41l-.56.2-.19-.52h-.15a6.64,6.64,0,0,0-.1,1.53,1.16,1.16,0,0,1-.37,1.22l-.25-1-.12.75-.29-.47-.22.58-.73-1.05c-.12.74-.26,1.36-.3,2,0,.41-.2.57-.6.64.06-.82.49-1.66-.35-2.41-.07.14-.2.28-.2.44a5.34,5.34,0,0,0,.72,2.89c0,.06,0,.14.07.21l.68,1.71c.23.54.51,1.09-.24,1.53-.28-.82-.56-1.66-.85-2.5l-.24,0a16.45,16.45,0,0,1,.1,4.7L343.93,88h-.13v4.85l.11,0,.27-.52V93.5l-.65.1c-.2-2.08-.4-4.13-.6-6.18h-.22c-.15.61.38,1.36-.34,1.83a.92.92,0,0,1,.21,1.35.57.57,0,0,0-.08.41c.08.65.2,1.3.29,2a2.19,2.19,0,0,1-.07,1l-.23-.64-.11.18c.1,1.26.18,2.52.31,3.77.1.93.27,1.85.4,2.78a11.72,11.72,0,0,1,.15,1.44c0,.17-.2.34-.34.55.83.39.56,1.32.69,2.06.27,1.55.41,3.13.58,4.7a2.68,2.68,0,0,1-.14.71,2.26,2.26,0,0,1-.69-1.57,13.38,13.38,0,0,0-.29-2c-.09-.56-.17-1.12-.28-1.68s-.24-1.21-.37-1.81a18.75,18.75,0,0,1-.45-2.18,8.92,8.92,0,0,1,.15-1.69l-.88.11.15.79c.07.49.17,1,.2,1.48,0,.18-.14.36-.22.55l-.07.09.13,0c.1.09.26.17.28.27.09.69.15,1.38.22,2.12l-.37-.06.3,2.53.25-.55.2,1-.6-.25.31.44-.53.25.17,2.24h.23a5.3,5.3,0,0,0,0-.69,5.72,5.72,0,0,1-.16-1c0-.16.28-.31.43-.46.2.76-.23,1.56.19,2.33.12.21-.11.61-.21,1.09l-.3-1.08a3.62,3.62,0,0,0-.32.85,2,2,0,0,0,.16.69,1.43,1.43,0,0,0,.08.22,8.39,8.39,0,0,1,.27.85,8,8,0,0,1,.08.84c.05.36.11.72.17,1.08a1.8,1.8,0,0,1,.08.5,20.62,20.62,0,0,0,.5,4.22c.16,1.2.3,2.41.44,3.61,0,.08,0,.17-.18.27a5.36,5.36,0,0,1-.14-.54c-.27-1.38-.54-2.77-.79-4.15-.14-.73-.21-1.47-.38-2.18-.06-.24,0-.8-.56-.58-.27-.58,0-1.35-.52-1.83l-.2,0,.56,2.57.17-.81v2.47c-.37-.29-.39-.89-1-.78l-.18,2.72-.38-.73c-.05.07-.15.15-.14.21a6.54,6.54,0,0,0,.25,1.67c.75,1.94.72,4.06,1.44,6a6.08,6.08,0,0,1,.11,1.73c.61.26.61.26.77-.55.15,1,.15,1-.59,1.2-.29.54.33.7.44,1.08l.68-.13a3.19,3.19,0,0,1-.43.87,1.48,1.48,0,0,0-.36,1.4c.05.29.17.58.2.88.08.68-.06.8-.75.69l-.54-.09c.38-.38.95-.59.66-1.26l-.45.33-.2-.56-.36.17-1.1-.45.17.89-.2.06c-.17-.55-.34-1.11-.5-1.67s-.3-1.12-.45-1.68l-.17,0-.5,1.32-.12-.09c0-.33,0-.58-.42-.56a1.56,1.56,0,0,0-.5.22,6.32,6.32,0,0,0,.17,1c.25.72-.36,1.13-.54,1.69,0,.05-.29,0-.46,0l-.48.76-.15-.06.53-1.32c.15-.22.3-.44.44-.66s.14-.21.12-.3c-.06-.38-.15-.75-.22-1.11l-.34.12-.17,1.81-.6.86-.14-1.15c-.87,1.66-.07,3.2.08,4.78l.15,0c.07-.16.21-.35.17-.49-.12-.48.33-.56.52-.8a2.41,2.41,0,0,1,.42-.34v1l-.36-.31-.12.82.74.55v.57l-.45-.19-.28.54-.29-.55c.07.72-.27.84-.79.94a4,4,0,0,0-1.13.65l-.35-.48,0,.17-1.17.09.4.6-.16.12-.27-.33-2.1.53c-.73-.6-1.58-.23-2.44,0a1.69,1.69,0,0,1-.71,0c-.64-.06-1.28-.12-1.91-.22a2.38,2.38,0,0,1-.61-.35l-.18.12,1,2.27-.06.1a2.78,2.78,0,0,1-.58-.42c-.39-.46-.73-1-1.13-1.42-.2-.22-.32-.63-.79-.46-.1,0-.27-.15-.46-.27l-.1.48-1.3-.23c0,.76.72.89,1.16,1.35-.62.26-.8-.47-1.23-.48l-.5.81-.6-.49.29,1-.09.09-.54-.34.12,1.52-.78-.17c-.07.23-.18.49-.24.76,0,.07.06.25.1.25a7.87,7.87,0,0,0,.85,0l-.19.59.47.1,0,.15c-.15,0-.32.13-.44.08a1.11,1.11,0,0,0-1.06,0,1.83,1.83,0,0,1-.34.18c-.17.09-.37.25-.52.22s-.29-.25-.4-.43c.65.11.72-.47,1-.73-.91-.53-.91-.53-.92-.08a3.19,3.19,0,0,1-1.08-.08,12.4,12.4,0,0,1-1.4-.91c-.23-.14-.47-.24-.7-.36l-.12.19.84.68c-.22.16-.22.16-1.12-.37l.29.74-.44.66,1.57.13c-.42.28-.62,1.06-1.39.41l.24.85a1.42,1.42,0,0,1-.36-.09,4.6,4.6,0,0,1-.85-.59c-.2-.2-.6-.31-.44-.76a.5.5,0,0,0-.19-.45,8.45,8.45,0,0,0-1.55-1c.11.15.24.28.34.44.25.44.48.88.74,1.31a2.22,2.22,0,0,0,.45.36l-2.86.31c-1.73.2-3.46.52-5.2.59-2,.08-4,0-6.05-.1-1.26,0-2.53-.1-3.79-.18-.52,0-1-.18-1.56-.19a17.31,17.31,0,0,1-3.79-.46c-1.57-.41-3.16-.76-4.73-1.16s-3.15-.74-4.68-1.26a15.35,15.35,0,0,0-3.87-.37c-1-.1-2.1-.14-3.15-.16a24.14,24.14,0,0,0-3.9.06,7.12,7.12,0,0,1-2.48,0c-.2,0-.45.18-.69.27l0,.19,1,.46v.09l-2.38-.33-.09.09c.17.14.33.36.53.41a65.26,65.26,0,0,0,6.63,1.9c2.35.39,4.65,1.12,7.05,1.3a3.37,3.37,0,0,1,1.48.27c1.14.72,2.4.45,3.61.6,1.45.19,2.92.19,4.38.29a6,6,0,0,1,.72.11l0,.16a2.93,2.93,0,0,1-.41,0c-2.17-.12-4.34-.22-6.5-.4-1.7-.14-3.38-.4-5.07-.59a8,8,0,0,0-1.06,0l.49.94a12.59,12.59,0,0,1-4.26-.38c-1.59-.22-3.16-.56-4.75-.76a23,23,0,0,0-3.31-.2c-2,0-3.89-.34-5.85-.27a12.5,12.5,0,0,0-1.59.25,1.7,1.7,0,0,1-.55,0,10.48,10.48,0,0,0-2-.22c-1.09-.09-2.18-.26-3.27-.38s-2-.19-3-.3A2.1,2.1,0,0,1,246,146a9.89,9.89,0,0,0-2.86-.41l-.36-.14c-.42-.2-.83-.29-1.17.15-.05.06-.17.06-.25.08a10.55,10.55,0,0,1-2,.16l2-.76,0-.16c-.36,0-.73,0-1.09.12-.63.14-1.27.3-1.9.48a2.08,2.08,0,0,0-.68.3c-.34.23-.48,0-.55-.11l-2,.75-.08-.14,0,.31h-.1c-.17-.07-.32-.15-.49-.21s-.14,0-.14,0c-.39-.86-1,0-1.44-.17v-.23c.87-.21,1.74-.39,2.59-.63.54-.16,1.06-.42,1.65-.66l-1-.58c.86,0,1.62.83,2.56.09l-6-1.8.14.44a7.21,7.21,0,0,0-.83.39c-.27.17-.52.39-.74,0l-2.2,1c-.95.45-1.9.91-2.86,1.34-.15.06-.37,0-.56-.07v-.19c.76-.33,1.51-.65,2.26-1a3.94,3.94,0,0,0,.55-.35l.14,0s0-.05-.05-.05ZM216.22,59.79l-.09.1,0,0,.06-.14.12-.1a.8.8,0,0,0,1.23-.42s0-.08.08-.08c.57.05.73-.47,1.07-.75.54-.44,1.06-.91,1.61-1.33a.58.58,0,0,1,.49-.08c1.34.75,2.67,1.53,4,2.3.17.1.42.34.51,0a.78.78,0,0,0-.17-.68A8.33,8.33,0,0,1,223.3,56c-.27-.41-.58-.78-.86-1.17a4.87,4.87,0,0,1,3.34-1.34l.9-1.24,0-.07,0,.08c-.11,0-.31,0-.32,0-.08-.41-.42-.28-.63-.27-1.15,0-2.29.12-3.44.14a1,1,0,0,1-1-.68c-.16-.46-.36-.91-.53-1.37s-.33-.91-.54-1.49c-.44.48-.84.84-1.15,1.26-.12.16-.05.46-.08.7a1.12,1.12,0,0,1-.08.42,1.52,1.52,0,0,1-1.72.59,4.82,4.82,0,0,0-2.27.2c-.28.08-.47.59-.25.79.49.45,1,.87,1.53,1.28s1.49.42,1.77,1.3c0,.08.25.09.36.14l-1.84,3.82c-.08.17-.14.35-.21.52ZM162.41,5.22l-.08-.11a1.13,1.13,0,0,0-.09-.15l-.43.19-1.15.54.08.21c.76.16,1.28-.57,2-.52l0-.14Zm61.73,135.59-.12-.18c.2-.24,0-.33-.16-.45-1.49-1-3.09-.7-4.68-.4a.9.9,0,0,0-.39.22c-.08.06-.17.21-.14.27.24.44-.08.48-.37.54-1.18.23-2.36.48-3.55.66s-2.2.25-3.3.39c-.1,0-.18.15-.27.23.1.11.19.3.31.32.67.13,1.34.21,2,.32a4,4,0,0,1,.7.16,9.87,9.87,0,0,0,4.26.62,20.28,20.28,0,0,0,2.11-.52c.53-.11,1.12-.08,1.15-.83a5.79,5.79,0,0,0,2.93-.6c.22-.09.36-.37.54-.55-.23-.07-.46-.16-.7-.21A1.23,1.23,0,0,0,224.14,140.81Zm116.15-14.63.33,1.58a6.46,6.46,0,0,0-.1-2.16c-.39-1.5-.94-2.95-1.33-4.44s-.76-3.23-1.11-4.85c-.12-.58-.18-1.17-.27-1.78-.07,0-.23,0-.26.11a10.69,10.69,0,0,0-.69,1.86c-.45,2.58-1,5.17-.41,7.81-.55.09-.66.22-.68.73a3.88,3.88,0,0,1-.09.58c-.12.79-.25,1.58-.36,2.37-.05.34.09.5.47.48.62,0,1.24,0,1.93,0a.92.92,0,0,1,0,.18l-2.49.34-.11.72,3.61-.25.29.66.08-.2.86,0-.22.51.28.46c.46-.21.7-.5.47-1l-.54,0c.16-.17.41-.33.45-.53a3.43,3.43,0,0,0-.08-.89l-.18-2.17Zm-130.22-54,.08.13,0-.19c-.12-.71-.31-1.42-.36-2.15s.18-.76.81-.58A3.08,3.08,0,0,0,213,69c-.13-.06-.25-.07-.28-.13a2.08,2.08,0,0,0-1.46-1,6.54,6.54,0,0,1-1.36-.9s-.06-.1-.07-.15a3.42,3.42,0,0,1,.13-2.42.94.94,0,0,0,0-.53c-.07-.64-.15-1.28-.23-2a1.83,1.83,0,0,0-.33.24c-1,1-2.08,2.07-3.16,3.07a.81.81,0,0,1-.74.1c-.76-.35-1.46-.8-2.21-1.16-.45-.22-1-.51-1.48,0l1.26.64,0,.1-.5.06c.52.64,1,1.22,1.45,1.82a.54.54,0,0,1,0,.51c-.58.65-1.36,1.13-1.66,2,0,.06-.12.1-.17.15l-1.89,2.08a.52.52,0,0,0,.21,0l2.64-.78c.82-.25,1.64-.52,2.47-.72a2.09,2.09,0,0,1,2.12,1,5.45,5.45,0,0,1,1,2.45,2,2,0,0,0,.26.6c.63-.32.63-.32.66-1a4.36,4.36,0,0,0,0-.51C209.63,72.25,209.81,72.18,210.07,72.19Zm7.75-42.73s-.07-.05,0,0,0,0,0,0a3.12,3.12,0,0,1,.05,1.91,7.76,7.76,0,0,0-.25,1.84.88.88,0,0,1-.66,1,9.8,9.8,0,0,0-2.73,1.3,3,3,0,0,0-.4.55c1.71-.3,1.71-.3,1.7.3.34,0,.68-.07,1-.13.81-.15,1.13.09,1.19.88.1,1.43.23,2.86.37,4.47a3.58,3.58,0,0,0,.65-.57c.92-1.38,1.81-2.79,2.74-4.17.12-.17.38-.38.56-.36.73.07,1.45.21,2.18.35a9.42,9.42,0,0,0,3.92.06c.14,0,.25-.22.41-.37a11.4,11.4,0,0,0-1.45-1.14c-.94-.52-1.92-.95-2.88-1.42-.26-.13-.36-.33-.18-.6.6-.92,1.21-1.84,1.81-2.77l.15.07-.39-.55c-1.21.51-2.42,1-3.6,1.52a1.28,1.28,0,0,1-1.43-.12c-.55-.39-1.09-.79-1.61-1.22a9.17,9.17,0,0,1-.76-.8Zm-26.1,4.24-.07-.07.77-.81a1.42,1.42,0,0,0-.76.16,7.63,7.63,0,0,1-1.83.87,10.7,10.7,0,0,1-5.09-.18,3.2,3.2,0,0,0-2.32-.13,8.78,8.78,0,0,1-3.8.44.93.93,0,0,1-.61-.27,12.3,12.3,0,0,0-1.08-1.37,6.82,6.82,0,0,1-1.81-3.09c-.56-1.64-1-3.32-1.52-5-.07-.24-.19-.46-.31-.76-.25.19-.44.31-.6.46a13.62,13.62,0,0,0-2.45,3.24c-.89,1.54-1.86,3-2.77,4.55-.55.93-1,1.9-1.61,2.94,0,0-.18,0-.35,0-2-.14-4-.3-5.94-.4-1.58-.08-3.11.06-4.1,1.59a.83.83,0,0,1-.41.36c-.59.1-.74.59-1,1-.09.16-.2.3-.33.49a16.73,16.73,0,0,0,1.47.8c.5.22,1,.32,1.54.53a22,22,0,0,0,2.9,1.49c.18,0,.34.17.52.23,1.1.37,2.2.76,3.32,1.07.72.2.83.31.6,1-.45,1.48-.9,3-1.34,4.44a1.47,1.47,0,0,0,0,.42,1.86,1.86,0,0,1,0,.62c-.51,1.51-1,3-1.56,4.53a5.77,5.77,0,0,0-.16.72c0,.28-.06.57-.11,1-.26.17-.24.3.24.82-.05.16-.17.32-.13.42a.52.52,0,0,0,.35.24c1,.16,1.39-.12,1.9-1a20.85,20.85,0,0,1,1.38-1.87c.35.6.35.6,1.58-.54l.84-.2c-.5-.42-.55-.48-.19-.84.7-.7,1.47-1.33,2.22-2,.05,0,.17,0,.26,0a1.2,1.2,0,0,0,.51-.13c1-.79,2-1.59,3-2.4.34-.28.57-.83,1.19-.17l-.11-.39.09-.09c.67.63,1.33,1.27,2,1.88.44.4.9.76,1.38,1.12a6.89,6.89,0,0,1,1.62,1.2,6,6,0,0,0,2,1.69c.57.32,1.21.52,1.75.88,1.39.94,2.73,2,4.11,2.9a2.21,2.21,0,0,0,1.71.64l.14-.43.5.26.14-.13-1.05-1.28.07-.09.56.18.2.05-.13-.12a3.68,3.68,0,0,0-.4-.39,8.3,8.3,0,0,1-2-3.11h0a.87.87,0,0,0-.08-1.37,1,1,0,0,1-.24-.44c-.17-.57-.33-1.15-.49-1.73l-.12-.48.14-.05.73,1.5h.16a1.35,1.35,0,0,0,0-.45,16.67,16.67,0,0,0-.86-2.09c-.91-1.7-1.86-3.38-2.82-5-.25-.42-.23-.67.21-.9a6,6,0,0,0,.84-.58c1.34-1,2.68-2,4-3a3.49,3.49,0,0,1,.76-.33l1.38-.56L190.2,36h0c.77-.72,1.87-1.1,2.31-2.29Zm17.9-18c-1.48.55-2.49,1.63-3.78,2.32l-1.86-1c-.75-.41-1.38-.06-2.08.31l2.48,2.78c-.66.75-1.34,1.52-2,2.31a7.21,7.21,0,0,0-.64.92.45.45,0,0,0,0,.41.51.51,0,0,0,.41.07c.45-.11.89-.26,1.33-.41.11,0,.22-.09.34-.13a6.56,6.56,0,0,1,.94-.33c.47-.11,1-.14,1.44-.27.3-.08.44-.07.61.25.78,1.46,1.59,2.89,2.42,4.32.09.16.34.22.52.32a4.2,4.2,0,0,0,.08-.62,4.8,4.8,0,0,1,0-1.2,5.23,5.23,0,0,0,.24-2.6,4.8,4.8,0,0,1,0-1c.88-.12,1.74-.18,2.58-.37.43-.09,1.11.05,1.14-.76a3.06,3.06,0,0,1-2.12-.6,7.52,7.52,0,0,0-1.15-.53c-.38-.16-.91-.17-1-.69a8,8,0,0,1-.15-1.62A18.68,18.68,0,0,1,209.62,15.73Zm51.81,130.43.06-.21c-.2-.08-.4-.19-.6-.25l-3-.91-3.78-1.19c-.71-.23-1.32-.73-2.22-.48a3.62,3.62,0,0,1-1.8-.34c-.67-.2-1.31-.49-2-.73-.29-.1-.59-.15-1-.26l.35.24-1.48.66c.42-.6.33-.81-.22-.85a4.2,4.2,0,0,1-1.69-.35,2.75,2.75,0,0,0-2.12-.09c1.07,1.37,2.41,1.42,4,1a4.07,4.07,0,0,1-.65.78,3,3,0,0,1-.85.29v.19a3.7,3.7,0,0,1,1.61.42,9.43,9.43,0,0,0,1.76.43c2.08.34,4.16.71,6.26,1s4,.38,6,.56Zm32.65-2.77v.2a2.65,2.65,0,0,0,.44.17c.55.11,1.12.19,1.67.28a42.17,42.17,0,0,0,5.12.66,6.49,6.49,0,0,1,1.78.18,7.25,7.25,0,0,0,2.87.47c.7,0,1.39-.07,2.09-.08.89,0,1.79,0,2.69,0l.12-.16L309.31,143l-.11.07.25.9-.61-.36.16-.42-.49-.12c-.2,0-.48-.22-.57-.15a1.73,1.73,0,0,1-1.27.26c-1.68,0-3.36,0-5,0a3.75,3.75,0,0,0-.6.1,18.59,18.59,0,0,0-5.46-.55l1.44.86a2.77,2.77,0,0,1-.69.09c-.52-.09-1-.25-1.55-.33A2.8,2.8,0,0,0,294.08,143.39Zm-91.37-.9-.08.25c1.65.5,3.11,1.56,4.88,1.67a11.39,11.39,0,0,0,4.31-.28,1,1,0,0,0-.51-.27l-2.34-.34-1.4-.16c-.3,0-.62,0-.92-.08s-.75-.34-1.08-.27a4,4,0,0,1-1.79-.28ZM176.9,5.93l0-.26-8.75,1v.18a1.71,1.71,0,0,0,.61.21c.88,0,1.77-.12,2.65-.24,1.21-.16,2.42-.35,3.63-.54C175.64,6.16,176.27,6,176.9,5.93Zm-9.76,1.66,0-.27-4,.41c0,.75.1.75.74.6.89-.22,1.79-.36,2.69-.54A4.56,4.56,0,0,0,167.14,7.59Zm4.45,136c.62.28,1.12-.11,1.53-1.17l-1-.53Zm29.67-.94c.52.7,3.45,1.81,4.12,1.56ZM229.05,6.11c-.89-.38-2.53-.34-2.89.09A4.1,4.1,0,0,0,229.05,6.11ZM258.32,130a3.21,3.21,0,0,0,.71.18,10.4,10.4,0,0,0,1.12-.15l.13.9c.55-.28.33-.72.41-1.06C259.54,129.46,258.77,129.48,258.32,130ZM147.72,18.27c-.05.31-.09.52-.13.73a.64.64,0,0,1-.1.24c-.38.44-.07.66.25.9a1.84,1.84,0,0,0-.54-2.61Zm95.93,124.59L240.5,142C241.28,142.71,243,143.19,243.65,142.86Zm34-136.66c-.69-.6-1.53-.1-2.25-.35C275.84,6.59,276.6,6.71,277.61,6.2Zm20,139.88,0-.2-4.08-.42,0,.23ZM278.57,5c.08.21.1.45.17.46.26,0,.62.14.77,0,.39-.33.72-.18,1.08,0l.4.19.09-.2-1.48-.76C279.44,5.18,279.44,5.18,278.57,5Zm-107.2-.41,0,.2,3.28-.39,0-.29ZM313.72,141.67l-.11.12,1.43,1.72.41-.49Zm-23.46,3.47.06-.2c-.72-.07-1.25-.84-2.09-.5l-.05.19ZM347,76.51c-.42.49-.34,1.35.16,2.34Zm.69-7.54-.22,0,.14,2.32h.23ZM165,5.15c.75.53,1.42-.17,2.25-.12-.44-.39-.76-.14-1.11,0A8.7,8.7,0,0,1,165,5.15ZM333.58,126.72l-.07,1.54C334.19,127.59,334.19,127,333.58,126.72Zm-33.41-121L299.24,5l-.41.54Zm-23.33-.9c.18.72.85.5,1.23.77.06,0,.24-.09.37-.15V5.23ZM158.56,6.34V6.15h-1.49v.19ZM229,142.51l-.12-.26-1.36.59.09.21Zm112.29-28.14c.2-.21.39-.32.37-.41a3.15,3.15,0,0,0-.24-.69l-.13.06Zm11.39-66.89,0,0s0,0,0-.06,0,0,0,0Z"/><path class="cls-1" d="M216.57,148.43v.11l-.65.59a29,29,0,0,1-7.15,0c-.17,0-.32-.25-.55-.44.54-.21.94-.41,1.37,0a.29.29,0,0,0,.26.06c.78-.39,1.52.13,2.28.07a16.27,16.27,0,0,1,1.85,0,5.05,5.05,0,0,1,.77.17Z"/><path class="cls-3" d="M159.84,3.78l.61.69a11.89,11.89,0,0,1-4.53,1.07c0-.5.16-.73.72-.72a2.38,2.38,0,0,0,.9-.34,2.15,2.15,0,0,0-.07-.24l.31-.12a7.56,7.56,0,0,0,1.16,0c.23,0,.61,0,.59-.39Z"/><path class="cls-1" d="M183,148.13a59.44,59.44,0,0,1-8.39-2.28l0-.2c.22,0,.44,0,.66.1s.37.18.53.15a2.47,2.47,0,0,1,1.6.53,2.45,2.45,0,0,0,.71.28c1.14.27,2.29.51,3.43.79.5.12,1,.31,1.47.47Z"/><path class="cls-3" d="M184.63,3.56l-3.72.32c-.49,0-1,.06-1.47.07a3.72,3.72,0,0,1-.57-.08l0-.19a5.5,5.5,0,0,1,.87-.21c1.15-.07,2.3-.12,3.46-.15.48,0,1,0,1.46,0Z"/><path class="cls-1" d="M193.2,146.33c1,0,2,0,3,0,.12,0,.24.18.36.28a2.16,2.16,0,0,1-.43.14l-1.67,0c-.44,0-.89,0-1.33,0-.13,0-.25-.22-.38-.34l.4-.21Z"/><path class="cls-1" d="M344.56,125.08c-.13-1.37-.25-2.74-.39-4.18.5.5.81,2.8.54,4.17Z"/><path class="cls-1" d="M349.19,20.13c-.25,0-.65.18-.47-.39,0-.09-.34-.26-.39-.42-.12-.44-.18-.9-.26-1.34l.26-.08.86,2.25Z"/><path class="cls-3" d="M335.5,132.71l.17-1.81.34-.12c.07.36.16.73.22,1.11,0,.09-.06.21-.12.3s-.29.44-.44.66Z"/><path class="cls-1" d="M191.69,146.09c-.25.17-.49.42-.76.45s-.33-.34-.49-.52l-.08.45h-.11l-.17-.83,1.52.27Z"/><path class="cls-3" d="M341.24,115.4l-.17.81-.56-2.57.2,0c.54.48.25,1.25.52,1.83Z"/><path class="cls-1" d="M341.41,135.63l.72-1.11a5.09,5.09,0,0,1,.49.22q.44.22,0,.48a3.87,3.87,0,0,1-.55.34A3.7,3.7,0,0,1,341.41,135.63Z"/><path class="cls-3" d="M342.14,107.4c-.15.15-.42.3-.43.46a5.72,5.72,0,0,0,.16,1,5.3,5.3,0,0,1,0,.69h-.23l-.17-2.24.53-.25.37,0Z"/><path class="cls-1" d="M221.48,147.41l-.1-.56,2.08-.2,0,.18Z"/><path class="cls-1" d="M350.21,74.16,350,71.23l.23,0c.05,1,.11,2,.16,2.94Z"/><path class="cls-1" d="M183.62,148h2.08C185.45,148.59,184.69,148.6,183.62,148Z"/><path class="cls-1" d="M337.25,134.13l.75,2.58c-.36-.12-.74-1.14-.92-2.53Z"/><path class="cls-1" d="M342.47,122.27c.1.78.19,1.56.29,2.35l-.24,0-.4-2.31Z"/><path class="cls-1" d="M342,121.61l-.75-3.44.23,0,.52,3.47Z"/><path class="cls-1" d="M336.35,138.06v-.45c.39,0,.8.17,1.17-.13.09-.07.26,0,.42-.07l-.11.48-.92.19c-.15-.35-.31-.13-.46,0Z"/><path class="cls-1" d="M159.53,3.78c0,.44-.36.37-.59.39a7.56,7.56,0,0,1-1.16,0,11.31,11.31,0,0,1,1.07-.37A2.25,2.25,0,0,1,159.53,3.78Z"/><path class="cls-1" d="M345.11,116.85l-.39-2.48.22,0c.06.4.1.8.16,1.19l.21,1.26Z"/><path class="cls-1" d="M346,125.21c.7.45.57,1.06.49,1.66l-.18,0Z"/><path class="cls-1" d="M352.69,37.65l.23.09.36,2.32-.18,0Z"/><path class="cls-3" d="M348.08,68.31V65.86h.08v2.44Z"/><path class="cls-1" d="M343.58,96.11v-2h.14v2Z"/><path class="cls-1" d="M342.37,128.1v-1.61h.15l.29,1.12Z"/><path class="cls-1" d="M276.47,2.85l-1.18-.56C275.88,1.9,276.4,2.09,276.47,2.85Z"/><path class="cls-1" d="M232.82,146.06v.23l-1.45.36A1.62,1.62,0,0,1,232.82,146.06Z"/><path class="cls-1" d="M343.24,124.73l-.1-1.38C343.6,123.34,343.6,123.34,343.24,124.73Z"/><path class="cls-1" d="M228.12,4.13l1.11.21c-.35.47-.35.47-1.14,0Z"/><path class="cls-1" d="M297.16,2.34l-.81-.53.06-.18a1.94,1.94,0,0,1,.66.14c.13.08.16.33.23.5Z"/><path class="cls-1" d="M235.71,148.11l-1.39.34C234.42,148.07,235,147.92,235.71,148.11Z"/><path class="cls-1" d="M228.44,146.81l1.58-.09,0,.15-1.61.16Z"/><path class="cls-1" d="M169.71,1l-1.17.34C168.86.73,169.09.65,169.71,1Z"/><path class="cls-1" d="M242.47,145.89a.86.86,0,0,1-1.1.27c.42,0,.55-.81,1.11-.35A.08.08,0,0,1,242.47,145.89Z"/><path class="cls-1" d="M350,49.34h.16l.17,1.74-.11,0Z"/><path class="cls-2" d="M318.86,144.23c.15-.23.21-.45.32-.49s.27.14.48.27Z"/><path class="cls-2" d="M336.46,138.08c.15-.13.31-.35.46,0l-.56.1v0Z"/><path class="cls-1" d="M242.73,145.46l.36.14-.15.2-.27,0h0a.17.17,0,0,1,0-.1Z"/><path class="cls-2" d="M285,4.09c.06-.07.11-.18.2-.22s.19,0,.28,0,0,.1,0,.1l-.25.05a1.86,1.86,0,0,0-.2.1S285,4.1,285,4.09Z"/><path class="cls-2" d="M341.89,105.88l.21-.32.15.1L342,106Z"/><path class="cls-2" d="M352.56,44.4l0,.34h-.08l0-.29Z"/><path class="cls-2" d="M351.92,48.09l-.11-.35h0l.12.34Z"/><path class="cls-2" d="M351.81,47.74l-.14-.23.09,0,0,.26Z"/><path class="cls-2" d="M342,111.39s.05,0,.05.08,0,0-.06.07,0-.06,0-.09S341.94,111.41,342,111.39Z"/><path class="cls-2" d="M242.67,145.82l.27,0Z"/><path class="cls-2" d="M141.2,13.53l.06-.19.07,0a1.43,1.43,0,0,1-.08.22S141.22,13.55,141.2,13.53Z"/><path class="cls-2" d="M337.48,131.25l0-.16.12.09-.11.12S337.5,131.27,337.48,131.25Z"/><path class="cls-2" d="M153.39,3.2h-.08V3.13l.06.08Z"/><path class="cls-2" d="M242.71,145.73a.17.17,0,0,0,0,.1l-.1-.05h0Z"/><path class="cls-2" d="M242.47,145.89a.08.08,0,0,0,0-.08l.1,0h0Z"/><path class="cls-2" d="M319.57,142.13l0,.16-.12-.07Z"/><polygon class="cls-1" points="342.03 121.6 342.05 121.61 342.03 121.61 342.03 121.6"/><path class="cls-1" d="M349.19,20.15h.08l0,.07-.06-.09Z"/><path class="cls-2" d="M337.53,131.3l-.12,0,.07-.07S337.52,131.28,337.53,131.3Z"/><path class="cls-2" d="M278,3.49V3.36l.11.06Z"/><path class="cls-4" d="M186.68,51.72a8.3,8.3,0,0,0,2,3.11,3.68,3.68,0,0,1,.4.39l-.07.07-.56-.18-.07.09,1.05,1.28-.14.13-.5-.26c-.05.16-.09.3-.14.43a2.21,2.21,0,0,1-1.71-.64c-1.38-.94-2.72-2-4.11-2.9-.54-.36-1.18-.56-1.75-.88a6,6,0,0,1-2-1.69,6.89,6.89,0,0,0-1.62-1.2c-.48-.36-.94-.72-1.38-1.12-.69-.61-1.35-1.25-2-1.88l-.19-.17-.07.07.17.19.11.39c-.62-.66-.85-.11-1.19.17-1,.81-2,1.61-3,2.4a1.2,1.2,0,0,1-.51.13c-.09,0-.21,0-.26,0-.75.65-1.52,1.28-2.22,2-.36.36-.31.42.19.84l-.84.2c-1.23,1.14-1.23,1.14-1.58.54a20.85,20.85,0,0,0-1.38,1.87c-.51.88-.94,1.16-1.9,1a.52.52,0,0,1-.35-.24c0-.1.08-.26.13-.42-.48-.52-.5-.65-.24-.82.05-.43.07-.72.11-1a5.77,5.77,0,0,1,.16-.72c.52-1.51,1.05-3,1.56-4.53a1.86,1.86,0,0,0,0-.62,1.47,1.47,0,0,1,0-.42c.44-1.48.89-3,1.34-4.44.23-.73.12-.84-.6-1-1.12-.31-2.22-.7-3.32-1.07-.18-.06-.34-.19-.52-.23a22,22,0,0,1-2.9-1.49c-.5-.21-1-.31-1.54-.53a16.73,16.73,0,0,1-1.47-.8c.13-.19.24-.33.33-.49.23-.42.38-.91,1-1a.83.83,0,0,0,.41-.36c1-1.53,2.52-1.67,4.1-1.59,2,.1,4,.26,5.94.4.17,0,.34,0,.35,0,.57-1,1.06-2,1.61-2.94.91-1.53,1.88-3,2.77-4.55A13.62,13.62,0,0,1,172.69,24c.16-.15.35-.27.6-.46.12.3.24.52.31.76.51,1.67,1,3.35,1.52,5a6.82,6.82,0,0,0,1.81,3.09A12.3,12.3,0,0,1,178,33.71a.93.93,0,0,0,.61.27,8.78,8.78,0,0,0,3.8-.44,3.2,3.2,0,0,1,2.32.13,10.7,10.7,0,0,0,5.09.18,7.63,7.63,0,0,0,1.83-.87,1.42,1.42,0,0,1,.76-.16l-.77.81-.12.11.19,0,.79.06c-.44,1.19-1.54,1.57-2.31,2.29,0,0-.1,0,0,0-.08.05,0,0,0,0l.11.14-1.38.56a3.49,3.49,0,0,0-.76.33c-1.35,1-2.69,2-4,3a6,6,0,0,1-.84.58c-.44.23-.46.48-.21.9,1,1.66,1.91,3.34,2.82,5a16.67,16.67,0,0,1,.86,2.09,1.35,1.35,0,0,1,0,.45h-.16l-.73-1.5-.14.05.12.48c.16.58.32,1.16.49,1.73a1,1,0,0,0,.24.44.87.87,0,0,1,.08,1.37l0,0h0Z"/><path class="cls-4" d="M217.82,29.46l.4,0a9.17,9.17,0,0,0,.76.8c.52.43,1.06.83,1.61,1.22a1.28,1.28,0,0,0,1.43.12c1.18-.55,2.39-1,3.6-1.52l.39.55-.15-.07c-.6.93-1.21,1.85-1.81,2.77-.18.27-.08.47.18.6,1,.47,1.94.9,2.88,1.42a11.4,11.4,0,0,1,1.45,1.14c-.16.15-.27.33-.41.37a9.42,9.42,0,0,1-3.92-.06c-.73-.14-1.45-.28-2.18-.35-.18,0-.44.19-.56.36-.93,1.38-1.82,2.79-2.74,4.17a3.58,3.58,0,0,1-.65.57c-.14-1.61-.27-3-.37-4.47-.06-.79-.38-1-1.19-.88-.33.06-.67.09-1,.13,0-.6,0-.6-1.7-.3a3,3,0,0,1,.4-.55,9.8,9.8,0,0,1,2.73-1.3.88.88,0,0,0,.66-1,7.76,7.76,0,0,1,.25-1.84,3.12,3.12,0,0,0-.05-1.91Z"/><path class="cls-4" d="M209.62,15.73a18.68,18.68,0,0,0-.22,1.87,8,8,0,0,0,.15,1.62c.09.52.62.53,1,.69a7.52,7.52,0,0,1,1.15.53,3.06,3.06,0,0,0,2.12.6c0,.81-.71.67-1.14.76-.84.19-1.7.25-2.58.37a4.8,4.8,0,0,0,0,1,5.23,5.23,0,0,1-.24,2.6,4.8,4.8,0,0,0,0,1.2,4.2,4.2,0,0,1-.08.62c-.18-.1-.43-.16-.52-.32-.83-1.43-1.64-2.86-2.42-4.32-.17-.32-.31-.33-.61-.25-.47.13-1,.16-1.44.27a6.56,6.56,0,0,0-.94.33c-.12,0-.23.1-.34.13-.44.15-.88.3-1.33.41a.51.51,0,0,1-.41-.07.45.45,0,0,1,0-.41,7.21,7.21,0,0,1,.64-.92c.67-.79,1.35-1.56,2-2.31l-2.48-2.78c.7-.37,1.33-.72,2.08-.31l1.86,1C207.13,17.36,208.14,16.28,209.62,15.73Zm.43,9h0V25h0Z"/><path class="cls-4" d="M210.07,72.19c-.26,0-.44.06-.41.38a4.36,4.36,0,0,1,0,.51c0,.69,0,.69-.66,1a2,2,0,0,1-.26-.6,5.45,5.45,0,0,0-1-2.45,2.09,2.09,0,0,0-2.12-1c-.83.2-1.65.47-2.47.72l-2.64.78a.52.52,0,0,1-.21,0l1.89-2.08c.05,0,.14-.09.17-.15.3-.89,1.08-1.37,1.66-2a.54.54,0,0,0,0-.51c-.45-.6-.93-1.18-1.45-1.82l.5-.06,0-.1-1.26-.64c.53-.55,1-.26,1.48,0,.75.36,1.45.81,2.21,1.16a.81.81,0,0,0,.74-.1c1.08-1,2.11-2.05,3.16-3.07a1.83,1.83,0,0,1,.33-.24c.08.68.16,1.32.23,2a.94.94,0,0,1,0,.53,3.42,3.42,0,0,0-.13,2.42s0,.13.07.15a6.54,6.54,0,0,0,1.36.9,2.08,2.08,0,0,1,1.46,1c0,.06.15.07.28.13a3.08,3.08,0,0,1-2.44.45c-.63-.18-.85-.05-.81.58s.24,1.44.36,2.15Z"/><path class="cls-4" d="M226.68,52.29l-.9,1.24a4.87,4.87,0,0,0-3.34,1.34c.28.39.59.76.86,1.17a8.33,8.33,0,0,0,1.87,2.58.78.78,0,0,1,.17.68c-.09.37-.34.13-.51,0-1.33-.77-2.66-1.55-4-2.3a.58.58,0,0,0-.49.08c-.55.42-1.07.89-1.61,1.33-.34.28-.5.8-1.07.75,0,0-.07.05-.08.08a.8.8,0,0,1-1.23.42l-.06-.06c.07-.17.13-.35.21-.52l1.84-3.82c-.11,0-.33-.06-.36-.14-.28-.88-1.19-.86-1.77-1.3s-1-.83-1.53-1.28c-.22-.2,0-.71.25-.79a4.82,4.82,0,0,1,2.27-.2,1.52,1.52,0,0,0,1.72-.59,1.12,1.12,0,0,0,.08-.42c0-.24,0-.54.08-.7.31-.42.71-.78,1.15-1.26.21.58.37,1,.54,1.49s.37.91.53,1.37a1,1,0,0,0,1,.68c1.15,0,2.29-.11,3.44-.14.21,0,.55-.14.63.27,0,0,.21,0,.32,0Z"/><path class="cls-3" d="M340,129.88l-.86,0-.08.2-.29-.66-3.61.25.11-.72,2.49-.34a.92.92,0,0,0,0-.18c-.69,0-1.31,0-1.93,0-.38,0-.52-.14-.47-.48.11-.79.24-1.58.36-2.37a3.88,3.88,0,0,0,.09-.58c0-.51.13-.64.68-.73-.6-2.64,0-5.23.41-7.81a10.69,10.69,0,0,1,.69-1.86c0-.07.19-.08.26-.11.09.61.15,1.2.27,1.78.35,1.62.68,3.25,1.11,4.85s.94,2.94,1.33,4.44a6.46,6.46,0,0,1,.1,2.16l-.33-1.58-.11-.35-.13,0,.12.44.18,2.17a3.43,3.43,0,0,1,.08.89c0,.2-.29.36-.45.53Zm-3.42-5.32v-.13l-.09,0,.11.09.07.06v0Z"/><path class="cls-3" d="M261.43,146.16l-1.25-.13c-2-.18-4-.31-6-.56s-4.18-.64-6.26-1a9.43,9.43,0,0,1-1.76-.43,3.7,3.7,0,0,0-1.61-.42v-.19a3,3,0,0,0,.85-.29,4.07,4.07,0,0,0,.65-.78c-1.61.44-2.95.39-4-1a2.75,2.75,0,0,1,2.12.09,4.2,4.2,0,0,0,1.69.35c.55,0,.64.25.22.85l1.48-.66-.35-.24c.4.11.7.16,1,.26.66.24,1.3.53,2,.73a3.62,3.62,0,0,0,1.8.34c.9-.25,1.51.25,2.22.48l3.78,1.19,3,.91c.2.06.4.17.6.25Zm-15.57-2.75,0,.18.58-.15,0-.14Zm-.12.21,0,0-.07,0,0,0Z"/><path class="cls-3" d="M224.14,140.81a1.23,1.23,0,0,1,.33,0c.24,0,.47.14.7.21-.18.18-.32.46-.54.55a5.79,5.79,0,0,1-2.93.6c0,.75-.62.72-1.15.83a20.28,20.28,0,0,1-2.11.52,9.87,9.87,0,0,1-4.26-.62,4,4,0,0,0-.7-.16c-.67-.11-1.34-.19-2-.32-.12,0-.21-.21-.31-.32.09-.08.17-.22.27-.23,1.1-.14,2.2-.22,3.3-.39s2.37-.43,3.55-.66c.29-.06.61-.1.37-.54,0-.06.06-.21.14-.27a.9.9,0,0,1,.39-.22c1.59-.3,3.19-.55,4.68.4.19.12.36.21.16.45l-.16.23ZM215.32,142l0,.1c.76.07,1.53.14,2.3.19a.44.44,0,0,0,.31-.11c.33-.36.63-.74,1.06-1.24a5.78,5.78,0,0,1-3.7,1.06Z"/><path class="cls-3" d="M294.08,143.39a2.8,2.8,0,0,1,.7,0c.52.08,1,.24,1.55.33a2.77,2.77,0,0,0,.69-.09l-1.44-.86a18.59,18.59,0,0,1,5.46.55,3.75,3.75,0,0,1,.6-.1c1.67,0,3.35,0,5,0a1.73,1.73,0,0,0,1.27-.26c.09-.07.37.1.57.15l.49.12-.16.42.61.36-.25-.9.11-.07,1.54,2.08-.12.16c-.9,0-1.8,0-2.69,0-.7,0-1.39,0-2.09.08a7.25,7.25,0,0,1-2.87-.47,6.49,6.49,0,0,0-1.78-.18,42.17,42.17,0,0,1-5.12-.66c-.55-.09-1.12-.17-1.67-.28a2.65,2.65,0,0,1-.44-.17Z"/><path class="cls-3" d="M202.71,142.49l1.07.24a4,4,0,0,0,1.79.28c.33-.07.71.19,1.08.27s.62.05.92.08l1.4.16,2.34.34a1,1,0,0,1,.51.27,11.39,11.39,0,0,1-4.31.28c-1.77-.11-3.23-1.17-4.88-1.67Z"/><path class="cls-3" d="M176.9,5.93c-.63.11-1.26.23-1.9.33-1.21.19-2.42.38-3.63.54-.88.12-1.77.19-2.65.24a1.71,1.71,0,0,1-.61-.21V6.65l8.75-1Z"/><path class="cls-3" d="M167.14,7.59a4.56,4.56,0,0,1-.59.2c-.9.18-1.8.32-2.69.54-.64.15-.69.15-.74-.6l4-.41Z"/><path class="cls-3" d="M171.59,143.61l.54-1.7,1,.53C172.71,143.5,172.21,143.89,171.59,143.61Z"/><path class="cls-3" d="M201.26,142.67l4.12,1.56C204.71,144.48,201.78,143.37,201.26,142.67Z"/><path class="cls-5" d="M345.89,17l.32-.31,1.86,4.62-.09,0a2.92,2.92,0,0,1-.21-.32c-.48-1.08-1-2.16-1.45-3.24-.12-.28-.28-.54-.42-.82Z"/><path class="cls-3" d="M229.05,6.11a4.1,4.1,0,0,1-2.89.09C226.52,5.77,228.16,5.73,229.05,6.11Z"/><path class="cls-3" d="M258.32,130c.45-.54,1.22-.56,2.37-.13-.08.34.14.78-.41,1.06l-.13-.9a10.4,10.4,0,0,1-1.12.15A3.21,3.21,0,0,1,258.32,130Z"/><path class="cls-3" d="M147.72,18.27l-.52-.74a1.84,1.84,0,0,1,.54,2.61c-.32-.24-.63-.46-.25-.9a.64.64,0,0,0,.1-.24C147.63,18.79,147.67,18.58,147.72,18.27Z"/><path class="cls-3" d="M243.65,142.86c-.63.33-2.37-.15-3.15-.85Z"/><path class="cls-3" d="M277.61,6.2c-1,.51-1.77.39-2.25-.35C276.08,6.1,276.92,5.6,277.61,6.2Z"/><path class="cls-3" d="M297.61,146.08l-4.08-.39,0-.23,4.08.42Z"/><path class="cls-3" d="M278.57,5c.87.19.87.19,1-.33l1.48.76-.09.2-.4-.19c-.36-.15-.69-.3-1.08,0-.15.13-.51,0-.77,0C278.67,5.44,278.65,5.2,278.57,5Z"/><path class="cls-3" d="M171.37,4.58l3.26-.48,0,.29-3.28.39Z"/><path class="cls-3" d="M313.72,141.67l1.73,1.35-.41.49-1.43-1.72Z"/><path class="cls-3" d="M162.41,5.22l.31,0,0,.14c-.72,0-1.24.68-2,.52l-.08-.21,1.15-.54.43-.19a1.13,1.13,0,0,1,.09.15l-.07.1Z"/><path class="cls-3" d="M290.26,145.14l-2.08-.51.05-.19c.84-.34,1.37.43,2.09.5Z"/><path class="cls-3" d="M347,76.51l.16,2.34C346.63,77.86,346.55,77,347,76.51Z"/><path class="cls-3" d="M347.66,69l.15,2.34h-.23L347.44,69Z"/><path class="cls-3" d="M165,5.15A8.7,8.7,0,0,0,166.17,5c.35-.09.67-.34,1.11,0C166.45,5,165.78,5.68,165,5.15Z"/><path class="cls-3" d="M333.58,126.72c.61.24.61.87-.07,1.54Z"/><path class="cls-3" d="M340,129.89l.54,0c.23.49,0,.78-.47,1l-.28-.46.22-.51Z"/><path class="cls-3" d="M300.17,5.68l-1.34-.11.41-.54Z"/><path class="cls-5" d="M276.84,4.78l1.59.45V5.4c-.13.06-.31.19-.37.15C277.69,5.28,277,5.5,276.84,4.78Z"/><path class="cls-3" d="M158.56,6.34h-1.49V6.15h1.49Z"/><path class="cls-3" d="M229,142.51l-1.39.54-.09-.21,1.36-.59Z"/><path class="cls-3" d="M341.27,114.37v-1l.13-.06a3.15,3.15,0,0,1,.24.69C341.66,114.05,341.47,114.16,341.27,114.37Z"/><path class="cls-4" d="M216.23,59.79l-.06.14,0,0,.09-.1Z"/><path class="cls-5" d="M352.37,43.32l-.07-.06.06,0v.1Z"/><path class="cls-5" d="M352.66,47.48l0,0s0,0,0,0,0,0,0,.06Z"/><path class="cls-4" d="M189.09,55.22l.13.12-.2-.05Z"/><path class="cls-5" d="M228.37,144.08l.11-.08s0,0,.05.05l-.14,0Z"/><path class="cls-4" d="M217.82,29.45s-.08,0,0,0,0,0,0,0Z"/><path class="cls-4" d="M210.13,72.13l0,.19-.08-.13Z"/><path class="cls-5" d="M336.46,138.08l-.11.12v-.14Z"/><path class="cls-4" d="M226.68,52.3l0-.08,0,.07Z"/><path class="cls-4" d="M216.22,59.79a1.11,1.11,0,0,0,.07-.16l.06.06-.12.1Z"/><path class="cls-5" d="M341.41,101.56l-.13,0,.07-.09Z"/><path class="cls-2" d="M174,46.56l-.17-.19.07-.07.19.17Z"/><path class="cls-2" d="M190.2,36s-.09.06,0,0c-.09,0,0,0,0,0Z"/><path class="cls-2" d="M191.72,33.7l-.19,0,.12-.11Z"/><path class="cls-2" d="M186.68,51.72l-.06,0h0l0,0Z"/><path class="cls-2" d="M210.05,24.76V25h0v-.2Z"/><path class="cls-2" d="M340.17,126.3l-.12-.44.13,0,.11.35Z"/><path class="cls-2" d="M336.57,124.56h.08v0l-.07-.06Z"/><path class="cls-2" d="M336.58,124.55l-.11-.09.09,0v.13Z"/><path class="cls-2" d="M245.86,143.41l.59-.11,0,.14-.58.15Z"/><path class="cls-2" d="M245.74,143.62l-.08,0,0,0,.07,0Z"/><path class="cls-1" d="M215.32,142a5.78,5.78,0,0,0,3.7-1.06c-.43.5-.73.88-1.06,1.24a.44.44,0,0,1-.31.11c-.77,0-1.54-.12-2.3-.19Z"/><path class="cls-2" d="M224.14,140.81l-.28.05.16-.23Z"/><path class="cls-2" d="M162.41,5.22h-.15l.07-.1Z"/></svg>