<svg id="Слой_1" data-name="Слой 1" xmlns="http://www.w3.org/2000/svg" viewBox="0 0 500 150"><defs><style>.cls-1{fill:#f0584e;}.cls-2{fill:#ee4135;}.cls-3{fill:#0155a4;}.cls-4{fill:#0c5da8;}.cls-5{fill:#e4ecf5;}.cls-6{fill:#ef4d41;}.cls-7{fill:#236cb0;}.cls-8{fill:#fdf1f1;}.cls-9{fill:#d4e2ef;}.cls-10{fill:#fefefe;}.cls-11{fill:#f2f6fa;}</style></defs><path class="cls-1" d="M361.89,60.16l-.25-.2-.87-.8a.49.49,0,0,1,.79.05c.12.15.22.33.33.49Z"/><path class="cls-2" d="M278.49,36.38l-.55.24-.11-.09.56-1.38a3.22,3.22,0,0,0-.69,0c-.63.12-1.26.31-1.69-.39-.56.74-.68.77-1.47.38l.68-.94c.28-.39.58-.77.83-1.18s.22-.58-.23-.76a4,4,0,0,1-.8-.56l-.3.34-.37-.64-.16,0,.06.69c-.21.35-.56.3-1,.21a4.26,4.26,0,0,0-1.16.11l-.06.17c.34.14.68.3,1,.43s.82.28,1.23.42l0,.24a11.73,11.73,0,0,1-2.05,0,.86.86,0,0,1-.46-1.42c.27-.38.51-.78.8-1.14.54-.68,1.08-1.35,1.65-2,.72-.82,1.48-1.59,2.2-2.4s1.4-1.69,2.14-2.49c1-1.13,2.12-2.23,3.21-3.32.27-.27.64-.44.93-.7s.79-.8,1.19-1.2a18,18,0,0,1,2.52-2.42c.76-.51,1.27-1.25,2-1.75a17.51,17.51,0,0,0,1.91-1.38c1.34-1.23,2.6-2.55,3.93-3.8a20.42,20.42,0,0,1,4.27-3.23,3.69,3.69,0,0,0,.71-.66c.07,0,.13-.15.2-.16a1.1,1.1,0,0,0,.95-.7s.17-.08.19,0c.27.33.63,0,.89.12.61.19,1-.18,1.47-.4,1.21-.64,2.37-1.38,3.57-2a2.79,2.79,0,0,1,.93-.12l0,.15a5.64,5.64,0,0,0-.62.21,5.54,5.54,0,0,0-1,.56A1.2,1.2,0,0,0,305.49,5a1.06,1.06,0,0,1,0,.5c-.25-.07-.47-.21-.58-.14s-.44.33-.43.5a3.6,3.6,0,0,0,.25.92,9.38,9.38,0,0,0-1,1.57,2.59,2.59,0,0,0,0,1.24c0,.09.33.23.46.19a1.24,1.24,0,0,0,.53-.39c.05-.06,0-.22,0-.25,1.05-.47,2.06-.92,3.06-1.39.17-.09.28-.29.45-.4.5-.32,1-.67,1.65-.29a3,3,0,0,0,1.28.09.33.33,0,0,0,.23-.14c.43-.57.82-.55,1.25.06l-.44.55.06.16,1.47-.28-.19.93c.58-.41,1-.73,1.48-1.07.09-.07.09-.25.14-.38a2.47,2.47,0,0,0-.38,0,.76.76,0,0,1-.49-.13l2-1.35L316,6.1a2.74,2.74,0,0,0,2.6-.89c.29.76.29.76-.48,2a2,2,0,0,0,1.89.24c.62-.32,1.25-.63,1.83-1s1-.79,1.53-1.14c.15-.1.4,0,.61-.06l.62,0c0-.26-.07-.55,0-.59a3.22,3.22,0,0,1,1-.35c.09,0,.23.35.38.6-.89.15-.74.86-.87,1.38-.45.08-1-.25-1.26.35l-1.21,1c.4.09.74.27,1,.17s.2-.49.29-.76.09-.28.13-.42l.33.86c.41-.45.8-.87,1.2-1.28a4.33,4.33,0,0,1,.75-.67c.61-.41,1.24-.79,1.86-1.17.35-.21.7-.39,1.05-.58s.67-.33,1,.17.94.13,1.38-.28a3,3,0,0,1,.79-.43c.2-.11.43-.2.63-.32.6-.37,1.21-.74,1.8-1.14s.87-.17,1.49-.07a11.42,11.42,0,0,1-.78.94c-.57.56-.58.54-.12,1.14-.48,1.06-1.41,1.05-2.43,1l.32.71s.09,0,.1,0c.5-.54,1.17-.36,1.78-.48.87-.19,1.34-.28,1.41-1.42.07,0,.16-.06.2,0,.58.37,1.05,0,1.52-.24.32-.13.56-.35.85.05a.72.72,0,0,1,0,1l-.47-.93c-.52.58-.5.86-.1,1.35.09.11,0,.33.05.58.83-.28,1.44-1.11,2.55-.89l-.92.91c.1.13.29.36.45.61s.4.75.64,1.1a2.33,2.33,0,0,0,.5.4c0-.44-.37-.92.31-1,.14.61.31,1.18.39,1.77,0,.14-.32.47-.41.45-.35-.12-.37.1-.37.3a1,1,0,0,1-.6,1c-.36.19-.3.52-.32.84,0,.63.07,1.15.84,1.24a.56.56,0,0,0,.34,0c1.14-.56,2.26-1.18,3.42-1.69,1.44-.62,2.9-1.18,4.37-1.71.41-.15.9-.35,1.29.15.07.08.29.05.48.08-.43.66.13,1,.41,1.46a.94.94,0,0,1-.87.69,1.42,1.42,0,0,0-.75.38c-.35.28.06.5.1.76a.94.94,0,0,1-.09.63.92.92,0,0,0,0,1.17.56.56,0,0,0,.92.08,2.35,2.35,0,0,1,1.27-.46,7.55,7.55,0,0,0,1.81-.73,3.85,3.85,0,0,0,.68-.52l.31.52.33-.27c.15.31.31.65.76.29a.3.3,0,0,1,.3,0,1.61,1.61,0,0,1,.17,1.39l-1.5,1.94c-.32.42-.23.8.19,1l.61-.94.25.13c-.14.3-.26.62-.42.91-.5.84-1,1.66-1.52,2.51a4.3,4.3,0,0,0-.2.54l.15.1,1-1.35.18.11a1.76,1.76,0,0,1-.41,1.64,4.82,4.82,0,0,1-1.58.63c.28,1.19.58,2.5.88,3.81l-.25.06-.13-.63-.52.27-.33-.51-.94.37.95.52c0,.3.13.72-.38,1-.08.05-.12.27-.1.4a4,4,0,0,1-1,2.94,7.23,7.23,0,0,0-.76,1.7c-.12.34-.18.59-.63.64a3.93,3.93,0,0,0-1.06.54L352.17,34l-.71.28c-.34.14-.71.26-.71.72s.14.4.44.3a7.89,7.89,0,0,1,.94-.3c.62-.15.71-.06.75.67h-.95c-.06.25-.1.47-.17.68s-.18.22-.22.21c-.53-.23-.47.17-.45.45s.08.65.55.62a2,2,0,0,1,.63.19l-1.64,1.35-.27.92-.36-.29c-.38.28-.34.51.05.78a8.15,8.15,0,0,1,1.33,1.06.91.91,0,0,1,.05,1.12,3.63,3.63,0,0,0-.13.59,3.82,3.82,0,0,1-.23.51,1.54,1.54,0,0,1-.49-.32,2.09,2.09,0,0,1-.2-.55c-.31-.86-.57-.93-1.34-.31.47.5.92,1,1.41,1.5.14.14.4.16.64.25l-.63,1.34c.52,1.27-.42,2.33-.7,3.57l-.56-.75-.19.1.1.86-.41.18c0,.05,0,.12.05.15a.76.76,0,0,1,.13,1.08,6.76,6.76,0,0,0-.67,2,5.34,5.34,0,0,1-.6,1,1.31,1.31,0,0,0-.09.34.91.91,0,0,0,.33,0c.31-.15.6-.32.9-.49l-.12-.2,1.23-1a1.32,1.32,0,0,0,1.77.1c.63-.41,1.24-.85,1.9-1.2a4.79,4.79,0,0,1,1.2-.32l0,.47-.11.12c-.21.05-.48,0-.61.15s-.05.41,0,.56.33.07.49,0c.35-.1.29-.38.21-.64l0,0a3.32,3.32,0,0,0,.73.25c.46,0,.76.2.81.72s.2,1.07.29,1.61c0,.12,0,.36-.1.37-.64.13-.55.74-.78,1.12a1.22,1.22,0,0,0,.11,1.64c.31.26.91.18,1.38.19.18,0,.35-.15.53-.23-.12-.17-.24-.33-.35-.5s-.07-.12-.16-.26l2.39-.13c.39,0,.46.17.4.52s-.34.77.11,1.09c0,0,0,.11,0,.14l-1,1.4.85-.18c.16,0,.4-.1.49,0a.77.77,0,0,1,.22.54,3.65,3.65,0,0,1-.3.85c-.3-.89-.7-.55-1.06-.24s-.54.41-.63.68a.76.76,0,0,0,.42,1c.16.08.22.36.33.55-.23,0-.51.17-.66.08-.4-.23-.65-.08-.92.2l1.33.63-.09.09a1,1,0,0,0-1.27.63,1.62,1.62,0,0,1-.89.87c-.72.33-.73.46-.12,1a3,3,0,0,0,.34.23,9.73,9.73,0,0,1-1,.27A2.63,2.63,0,0,0,354.13,68c-.1.14-.34.19-.52.28a1.49,1.49,0,0,1-.26,1.65c-.27.27-.55.51-.83.76,0,0,0,0,0,.05a1.49,1.49,0,0,1-1,1.23c-.36.13-.55.76-.81,1.16a12,12,0,0,1,1.76.67,3.19,3.19,0,0,1,.84.84.46.46,0,0,1,0,.7s0,.17,0,.26h0a5.55,5.55,0,0,0-.84.68,17,17,0,0,0-1.09,1.44,5.65,5.65,0,0,0-.35.73,4.23,4.23,0,0,0,1.2,0c1.18-.42,2.1.52,3.19.53a1.68,1.68,0,0,1,.8.22c.24.15.55.42.54.62s-.28.56-.44.84l-.17-.07-.16-.52c-.17.37-.35.71-.48,1.07,0,.08.17.23.33.41l.05-.54a1.3,1.3,0,0,1,.4.09c.34.23.67.48,1,.72a.78.78,0,0,1,.12,1.31,4.43,4.43,0,0,1-.57.71,5.35,5.35,0,0,1-1.36.94c-.51.2-.37.46-.27.79s.45.3.73.18c.11,0,.18-.19.29-.24a2.84,2.84,0,0,1,.47-.15c0,.2.06.46,0,.59-.54.66-.55,1.1.08,1.69-.67.53-1.31,1.09-2,1.57a2.17,2.17,0,0,0-.88,1.92.79.79,0,0,1-.16.43c-.43.56-.88,1.11-1.33,1.66a.8.8,0,0,1-.23.22,1.61,1.61,0,0,0-1.2,1.73l-.29-.52a15.38,15.38,0,0,1-.82,1.42c-.29.4-.67.72-1,1.1a4.1,4.1,0,0,0-.42.66c-.14.25-.26.53-.42.77a.63.63,0,0,0,0,.9c.07,0,.15,0,.17-.06a1.14,1.14,0,0,1,1.12-.66.82.82,0,0,0,.72-1,4.76,4.76,0,0,1,.19-1.15l.29.06a8.81,8.81,0,0,1-.45,1.87,6.34,6.34,0,0,1-1.15,1.63,15.26,15.26,0,0,1-1.5,1.25l.52.12a1.43,1.43,0,0,1-.46,1.38,1.74,1.74,0,0,0-.67,1.6,6.17,6.17,0,0,1-.12,1.4,1,1,0,0,0,0,.3,4.22,4.22,0,0,0,.77.3,7.44,7.44,0,0,0,1.56.06c.37,0,.5,0,.68.36a2.32,2.32,0,0,0,.86.74.58.58,0,0,1,0,1.06l-.11-.54c-.44-.06-.67,0-.69.54,0,.25-.32.48-.49.73h1.17l.19-.39c.4.37.75.73,1.14,1,.2.16.49.21.69.37a1.27,1.27,0,0,1,.42.62,2.07,2.07,0,0,0-2-.59c.09.19.15.36.24.52.2.31.44.61.62.93a1.89,1.89,0,0,1,.43,1.57c-.06.2.06.45.06.67s-.06.74-.09,1.1a4.75,4.75,0,0,1-.59,1.87,3.37,3.37,0,0,0,.11,2,2.24,2.24,0,0,1-.23,2c-.08.11-.19.26-.16.36.23.73-.31,1.24-.51,1.85-.06.16-.25.27-.38.41-.08-.15-.17-.29-.24-.44s0-.08,0-.11c-.24-.48-.24-.51,0-.81-.61-.37-.8-.29-.81.39a8.45,8.45,0,0,0,.18,1.21,14.84,14.84,0,0,1-1.29,1.6,4.58,4.58,0,0,1-1.38.83c-.61.26-.68.33-.47,1,.09.27.19.53.24.68-.35.31-.62.6-.93.82s-.78.63-1.16.61a1.83,1.83,0,0,0-1.32.54c-.48.38-1,.69-1.48,1.07a1.65,1.65,0,0,0-.57.69,4.18,4.18,0,0,1-1.62,1.83,1,1,0,0,1-.62.19.76.76,0,0,0-.75.54c-.41.89-.86,1.8-1.9,2.07l-.14.62c-.67-.31-.72-.41-.4-.9l-.42-.31-1,.4c-.07,0-.16.07-.17.12-.12.63-.71.67-1.11,1a2.14,2.14,0,0,0-.7,1.26c-.17.87-.53,1.11-1.38.73a.37.37,0,0,0-.14,0c-.2.44-.42.9-.61,1.36-.32.78-.32.78-1.1.43l.37.73-1.21.71c.48.81-.27,1.32-.29,2-.66,0-1.29-.07-1.92-.13-.14,0-.36-.09-.37-.15a.92.92,0,0,1,.12-.51c.06-.13.22-.2.31-.32s.2-.31.3-.47c-.17-.09-.34-.25-.52-.25a4.56,4.56,0,0,0-1.1.15c-.08,0-.19.37-.14.43.38.42.2.64-.21.87a4.57,4.57,0,0,0-.64.52l.4.36-.85.75c-.12-.05-.24-.13-.37-.18a.86.86,0,0,0-1.24.65c-.08.37-.07.76-.63.85-.15,0-.23.52-.35.8l.16.13-.91.29a5.35,5.35,0,0,1-.2-.88,6.55,6.55,0,0,1,0-2,9.7,9.7,0,0,0,.09-3,2.57,2.57,0,0,1,.2-.85c.41-1,.86-2.09,1.25-3.15.07-.21-.14-.5-.14-.75a1.45,1.45,0,0,1,.2-.49c.06-.15.11-.3.16-.44a1,1,0,0,0-.37-.07,2.48,2.48,0,0,0-1.75,1.49c-.12.22-.41.35-.64.52.26.48-.19,1.22-1,1.51a6,6,0,0,0-.83.33c-.61.32-1.22.66-1.81,1-.15.1-.18.36-.3.5s-.45.44-.67.66l-.58-.71c-.5.31-1.31.11-2,.79l.9.06c-.06.56-.28.73-.78.58l-.33-.07c-.17-.05-.48-.09-.48-.16a1.27,1.27,0,0,1,.1-.78,5.92,5.92,0,0,0,.86-2.28,2.39,2.39,0,0,0,0-.27c-1.26.12-1.73,1.2-2.42,1.88v.58a1.29,1.29,0,0,0-.52,0c-.39.16-.86-.36-1.23.18a.74.74,0,0,1-.72.17c-.49-.32-1,0-1.34.07a4.63,4.63,0,0,0-1.38.92c-.17.13-.29.35-.48.42-.74.29-.86,1.14-1.61,1.62a2.94,2.94,0,0,1,0-1.08,3.88,3.88,0,0,1,.76-.86c-.43-.17-.94-.52-1.52-.07,0,0-.13,0-.15.07-.32.82-1.13.88-1.8,1.14-.25.1-.73-.27-.77-.66a1,1,0,0,1,.59-1.09,6.15,6.15,0,0,0,1-.75l-.07-.14a.8.8,0,0,1-.31,0,1.47,1.47,0,0,1-.36-.21,2,2,0,0,1,.26-.24c.05,0,.15,0,.22,0l.64-.23-.44-.59.82-.72c-.48-.44-.18-.79.11-1.14s.46-.54.69-.81c.05-.05.13-.12.13-.17,0-.92.64-1.56.88-2.37.06-.24.09-.49.15-.85l-.58.18c-.38.08-.77.28-1.09-.17,0,0-.22,0-.34,0,0,.12,0,.3.1.35.33.22.67.41.94.57-.26.3-.54.58-.78.89s-.46.67-.75,1.09c0-.05,0,0,0,.07.33.69.16,1-.53.83-.46-.13-.63.1-.91.24a2.8,2.8,0,0,0-.28.19l-.11-.47c-.57.26-1.16.37-1.54,1-.12.17-.72,0-1.09.05s-.65.11-1,.16l-.44,0c-.24.3-.46.62-.71.9s-.48.25-.65-.1-.53-.61-1-.31c-.08,0-.24,0-.35,0-.53-.16-1-.31-1.37.35-.49.82-1.51.94-2.3,1.36-.11.06-.35-.12-.62-.22l.18.57a5.72,5.72,0,0,1-.86.37.52.52,0,0,1-.46-.16c-.12-.28-.3-.75-.18-.88a1.38,1.38,0,0,0,.26-1.41c-.05-.26-.13-.56.32-.7.21-.07.31-.48.44-.75s.07-.45.18-.51a.77.77,0,0,0,.38-1c-.13-.81.48-1.28.73-1.92a19.57,19.57,0,0,0,.65-2.14c0-.15-.09-.34-.11-.52s0-.48-.05-.77l-1.2.92a.42.42,0,0,1-.36.08,15.06,15.06,0,0,0-1.32,1.33c-.29.37-1,.42-.92,1.09,0,.07-.15.17-.25.21-.52.21-.85.73-1.45.81-.21,0-.38.28-.61.47.28.35.35.65-.2.69l-.12.77-.23,0-.33-1.14s-.17-.06-.26,0c-.53.23-.82.14-.78-.51,0-.08-.18-.23-.3-.25-.34-.08-.78.39-.75.76,0,.06,0,.13,0,.16a4.1,4.1,0,0,0-.73-.27c-.11,0-.26.12-.35.3l.59.1a3.68,3.68,0,0,1-1.65,1l-.13-.16c.13-.13.25-.34.4-.37.47-.1.34-.38.24-.64s-.17-.66-.63-.52a2.62,2.62,0,0,0-.68.24c-.56.33-.79,0-.9-.45a1.41,1.41,0,0,1,0-.81c.07-.15.42-.17.65-.24l.37-.12a1.76,1.76,0,0,1,.7-1.94,1.16,1.16,0,0,0,.42-.57,1.37,1.37,0,0,0,0-.75c0-.08-.37-.07-.59-.1l.14-1c-.5.15-.9.23-1.26.38a6.53,6.53,0,0,0-2.31,1.77c-.38.42-.68,1-1.44,1-.43,0-.67-.24-.43-.57s.07-.72-.22-1a.81.81,0,0,1-.21-1.14c.2-.38.14-.9.35-1.29a19.9,19.9,0,0,1,1.5-2.39,6.12,6.12,0,0,0,1-2,3.1,3.1,0,0,1,1.16-1.82c.19-.14.25-.45.37-.68.49-.88,1-1.76,1.48-2.62.24-.38.57-.71.84-1.07s.56-.77.82-1.16c.41-.6.79-1.23,1.22-1.81.6-.79,1.25-1.55,1.92-2.37a2.39,2.39,0,0,1,.52-2c.17-.29.32-.59.48-.89l-.28-.15-.1-.11-.34-.71c-.22.19-.53.34-.63.58s.06.55.45.52l.11.11c-.66.55-1.22.66-1.73.32-.3-.2-.45-.43-.15-.78a.64.64,0,0,0,0-.93l-1.41.06-.08-.18.66-1c-.32-.2-.66-.38-1-.59-.13-.1-.31-.27-.3-.39.09-.85.21-1.69.35-2.52a1.2,1.2,0,0,1,.27-.71c.7-.5.67-1.36,1-2,.63-1.12,1.13-2.31,1.71-3.54-.4-.43-.76-1.08-1.54-1.22a.88.88,0,0,0-.6.07,13.16,13.16,0,0,0-2,1.43c-.59.56-1.5.82-1.71,1.77,0,.22-.25.61-.59.44.08-.5.15-1,.21-1.39s.08-.65.11-1c.06-.64-.49-.43-.58-.27-.35.56-1,.48-1.45.71a1.12,1.12,0,0,0-.71.92c-.06.42-.26.57-.64.3-.57,1-1.09,1.27-1.83.73l.2-.42.12-.09.22-.14.24-.2.14-.37.08-.08.33.22.39.24c.1-.48.2-.85.24-1.24a.65.65,0,0,0-.18-.47c-.49-.52-.47-.67-.08-1.22a14,14,0,0,0,.61-1.3,3.33,3.33,0,0,1,.63-.89c.46-.42.48-.42,0-.8a.93.93,0,0,1-.13-.18c.26-.17.51-.36.78-.5s.53-.22.8-.33l-.13-.11c.08-.17.12-.4.25-.48a3.18,3.18,0,0,0,1.3-1.53c0-.06.07-.15.12-.16.68-.15.81-.69,1.06-1.25a16.24,16.24,0,0,1,1.45-2.22,6.79,6.79,0,0,0,1.16-2.49c-.52,0-.94-.06-1,.55,0,.18-.21.33-.32.5l-.18-.07.33-1.24s0-.06-.05-.05a2.89,2.89,0,0,0-1.41,1.81A1.21,1.21,0,0,1,276.74,89a1.36,1.36,0,0,1-.87-1.35c.1-.26.16-.53.28-.78s.3-.46.43-.7a4.86,4.86,0,0,0,.47-.94c0-.11-.23-.3-.44-.56l1-1.82.42.41a2.8,2.8,0,0,0,.16-.46c.08-.7.14-1.4.22-2.1a.33.33,0,0,1,.14-.23c.68-.29.87-.9,1.11-1.53.3-.8.86-1.51,1.08-2.32a11.59,11.59,0,0,1,1.64-2.84c-.36-.07-.65-.22-.85-.14-.43.18-1.06.17-1,1a.67.67,0,0,1-.81.65c-.71-.17-.94.35-1.16.74s-.5.84-1.13.47c-.11-.07-.36.08-.59.13-.48-1-1.53-.86-2.43-1.06v-.2l1.86-.24c.4,0,.82-.06,1.22-.15.7-.15.83-.49.5-1.26-.48.11-.95.25-1.44.34-.09,0-.23-.18-.33-.28s-.32-.4-.35-.39c-.25.14-.67.37-.65.51.09.58-.3.47-.58.48a1.83,1.83,0,0,1-.81-.1c-.55-.23-.85.06-1.14.43s-.7,1.14-1.48,1.19c-.08,0-.15.18-.27.34.68-.09.76.31.73.81.25,0,.46,0,.66,0,.36,0,.49.26.45.59s-.31.35-.54.22A6.76,6.76,0,0,1,271,77a.76.76,0,0,0-.95-.17,1.6,1.6,0,0,1-2.34-1c1-.14,1.86.91,2.87.08-.28-.13-.54-.24-.78-.38a2.64,2.64,0,0,1-.39-.36c.15-.15.27-.39.44-.42a3.4,3.4,0,0,1,1.38,0c.32.09.55.09.74-.14.33-.4.62-.83.94-1.27l-2.14-.8c.06-.1.13-.3.21-.3.73,0,.95-.55,1.18-1.1.05-.13.13-.31.24-.36.85-.37,1-1.11,1.13-1.91a1.94,1.94,0,0,1,1.08-1.54.35.35,0,0,0-.17-.68,5.74,5.74,0,0,0-.83.13A14.83,14.83,0,0,1,272,67a1,1,0,0,1-.94-.77c-.19-.57-.4-1.14-.58-1.71,0-.11,0-.25,0-.37s0-.47-.07-.56-.37,0-.56,0l-.66,0v-.14c.49-.36,1-.71,1.48-1.09a.82.82,0,0,0,.32-.44c.13-.52.67-1,.27-1.6,0-.08.17-.31.23-.41l-2-1c.73-.55,1.49-.58,1.7-.12.5-.18.56-.71.07-.78a6.1,6.1,0,0,0-.87,0,2.94,2.94,0,0,1,.19-.54c.36-.59.74-1.17,1.11-1.76a.51.51,0,0,0,.1-.3,1.55,1.55,0,0,1,.68-1.56c.06-.05.16-.11.16-.16,0-.84.69-1.33,1-2,.06-.14,0-.36,0-.54a5,5,0,0,1,.1-1.17c0-.17.35-.29.56-.38.42-.18.83-.28.89-.87,0-.23.39-.41.58-.63.55-.65,1.1-1.29,1.63-2s1.05-1.07,1.1-1.65c.05-.76.72-1,.88-1.62a7.57,7.57,0,0,1,.79-1.74,1.72,1.72,0,0,0,.3-1.33.37.37,0,0,1,.19-.3c.61-.31.53-1,.75-1.47,0-.13-.11-.38-.23-.53s-.37-.54-.63-.64-.54.19-.78.14a6.09,6.09,0,0,1-1.13-.46c.55-.31,1.11-.6,1.65-.93.13-.09.18-.31.31-.56-.85.1-1,.26-1,.65ZM273.7,65.26a1.2,1.2,0,0,0,.61-1.77,3.8,3.8,0,0,1-.83.54c-.84.28-1.07.81-.59,1.55l.87-.73.1.09Zm5.42-30.06,1.34-.55a.36.36,0,0,0,.2-.24c0-.42.29-.41.58-.44a5.43,5.43,0,0,0,.67-.13c-.17-.1-.22-.15-.26-.15a5.36,5.36,0,0,0-.8,0,2.15,2.15,0,0,0-.67.19,6.87,6.87,0,0,1-.74.5C278.94,34.57,278.86,34.72,279.12,35.2ZM349.46,45a.8.8,0,0,0-1.33-.08,1.55,1.55,0,0,0-.23.42l.38.19.49.22c.11-.15.19-.31.3-.43A4.16,4.16,0,0,1,349.46,45Zm-71.83,20.6c-.39.44-.72.79-1,1.17,0,.06.18.43.27.43C277.45,67.16,277.93,66.32,277.63,65.57Zm29.45,76.5a.82.82,0,0,0-1.23.38C306.61,142.89,306.8,142.83,307.08,142.07ZM354.2,79.64l-.71,1.17.18.17a2.44,2.44,0,0,0,.8-.48C354.56,80.38,354.33,80,354.2,79.64Zm-.2,4c.27.3.66.11,1.12-.5C354.44,82.62,354.52,83.75,354,83.59Zm-73.81,22.93a.76.76,0,0,0,1-.55A.88.88,0,0,0,280.19,106.52Zm47,37.51.21.15.62-.73c-.33,0-.6-.12-.64-.06A2.17,2.17,0,0,0,327.17,144Zm28.17-63.26c.09-.12.23-.22.21-.29a1.6,1.6,0,0,0-.26-.56s-.23,0-.34,0a4.66,4.66,0,0,0,.16.49A2.55,2.55,0,0,0,355.34,80.77Zm-.63-27.88-.23-.06-.29,1,.24.07C354.77,53.65,354.73,53.27,354.71,52.89Zm-73.07,83.85.73-.39c-.08-.1-.16-.3-.24-.3C281.8,136.05,281.55,136.18,281.64,136.74Zm66.05-27.64,0,.32c.22,0,.44,0,.66-.07a1.93,1.93,0,0,0,0-.38Zm-54.28,30.64c-.1.17-.23.33-.21.37.2.29.44.55.66.82l.11-.11Z"/><path class="cls-3" d="M203.4,52.38l.86-.63.21.26c.78-.79.87-.8,1.43-.29a2.59,2.59,0,0,1,.83-.24c.37,0,.5-.11.63-.41.38-.89.84-1.14,1.89-1l-1.13,1.25c.91-.08,1-.87,1.46-1.22.27.37.26.51,0,.88l-3.91,5c-1.06,1.34-2.13,2.65-3.17,4a10.33,10.33,0,0,0-.85,1.33c-.08.15,0,.51,0,.55s.61.22.75.11a3.12,3.12,0,0,1,1.63-.81c.11,0,.21-.2.29-.33a1,1,0,0,1,1.66-.07,11.15,11.15,0,0,0,1.33,1,1.9,1.9,0,0,1,.35.52c.17.29.32.59.51.86.07.1.26.11.39.15,0-.13.09-.26.13-.39s.09-.28.13-.41a2.45,2.45,0,0,1,.26.37c0,.08,0,.22.06.27.67.55.23,1-.15,1.43a42.84,42.84,0,0,1-3.4,3.72c-1.38,1.25-2.46,2.73-3.73,4-.52.55-.49.92-.06,1.39-.73.54-.86.94-.48,1.39a.57.57,0,0,0,.32.2,2.16,2.16,0,0,0,1.55-.84,2.75,2.75,0,0,1,1.86-1.3c.14,0,.32.12.5.19l.15-.55c.17.64.7.46,1.11.58a2,2,0,0,1,.69.53,3.69,3.69,0,0,1,.65.78.66.66,0,0,1,0,.61c-.4.49-.39.5.14.84a2.58,2.58,0,0,1,.67.79c.74.31.8.45.65,1.31a5.14,5.14,0,0,0-.06,1.24c.07.91.18,1.82.28,2.76a.61.61,0,0,0,.59-.72c-.09-1.06.61-1.41,1.42-.91.16.1.42,0,.74.07v2a13.63,13.63,0,0,0,.08,3.55c.08.3-.28.72-.47,1.14l-.44-.46c-.39.17-.41.41-.25.77.08.19.16.55.07.62-.26.22-.43.69-.93.47a5.41,5.41,0,0,0-.61-.2c-.33.82,0,1.78-.54,2.4a5,5,0,0,1,.24.84,14.65,14.65,0,0,1-.07,3.5,10.6,10.6,0,0,0,.13,2.86c0,.46.51.49.9.48s.67,0,1-.07l.09.13c-.1.12-.18.31-.3.33-.37.09-.42.29-.36.63a1.68,1.68,0,0,1,0,.53h-1.27a4.53,4.53,0,0,1,0,.83,3.28,3.28,0,0,0,0,2.1c.08.2-.08.5-.08.75,0,2-.09,4-.1,6a3.82,3.82,0,0,0,.25,1c-.43.32-.35.85-.32,1.38a4.48,4.48,0,0,1-.11.72c0,.16-.12.37,0,.49.46.76.18,1.59.25,2.38a1.5,1.5,0,0,0,.16.61c.33-1.21-.18-2.53.61-3.65l-.55-.36.78-.32-.75-.46c.26-.2.52-.3.6-.48.26-.54.59-.87,1.22-.63l.19-2.09.29,0,.65,2.54-.13,0-.1-.38c-.05.08-.12.14-.12.2.11,1.62-.12,3.24,0,4.85,0,.54-.12,1-.07,1.55.06.77.1,1.55.12,2.32a4.41,4.41,0,0,1-.08.72c-.09.77-.17,1.53-.26,2.29,0,0,0,.08,0,.11-.21.45-.24.86.25,1.12-.19.13-.44.24-.43.31s-.3.6.26.57c0,0,.1.16.1.25.07.63.12,1.27.18,1.91-1.14-.13-1.21-.07-1.27,1.08,0,.65,0,1.3-.12,1.93a5.54,5.54,0,0,1-.49,1.59c-.14.29-.55.45-.92.73a7.25,7.25,0,0,1-.17-.86c0-.56-.22-1-1-.93,0-1,0-1.91-.1-2.84a7.42,7.42,0,0,0-.65-1.83c0-.1-.23-.14-.41-.24l-.07.75c-.86-.2-.81.41-.86.94-.16,2-.32,4-.49,5.94l-.51-.33-.08.1.21.37a4.53,4.53,0,0,0-.8,2.6c.06.51-.13,1.06.32,1.54.1.11-.17.58-.28.89l-.25,0c0-.54,0-1.08,0-1.63s.14-1-.58-1.13l-.49,1-.3-.25c-.46.57-.08,1.47-.82,2,.06-.59.14-1.05.14-1.51a1.84,1.84,0,0,0-.25-.63,2.46,2.46,0,0,0-.44.41,2.21,2.21,0,0,0-.18.53l-.52-.11.32.41-.29.26a3.18,3.18,0,0,0-.33-.3c-.26-.18-.56-.3-.8,0-.64.7-1.39,1.32-1.3,2.44a17.26,17.26,0,0,1-.09,2.15h-.16v-1.59l-.75.81-.06-.06a3.63,3.63,0,0,0,.15-.54c0-.45.17-.75.66-.59v-3.47a.29.29,0,0,0,0-.16c-.85-1-.76-2.33-1-3.54-.11-.62-.25-1.23-.33-1.85-.07-.43-.35-.4-.66-.42s-.45.2-.47.5c0,.62-.05,1.25-.08,1.87a.86.86,0,0,1-.2.53l-.49-1.39-.22,1.46h-.11l-.24-1.44c-1,1.53-.39,3.23-.5,5a6.25,6.25,0,0,1-.49-1.21,5.58,5.58,0,0,1,0-1.15l-.19-.08-.81,1.42-.36-.87-.26.09a2.14,2.14,0,0,0,.22.63c.3.42.23.69-.31,1l-.43-.66c-.22-.37-.42-.2-.52.06a4.27,4.27,0,0,0-.37,1.33,9,9,0,0,0,.14,1.64h.14l.06-.81.14,0,.19.58c-.38.64-.06,1.37-.14,2l-.17,0-.17-.83a3.1,3.1,0,0,0,.27,2.13,3.12,3.12,0,0,1,.21,1.57,10.8,10.8,0,0,1-.22,1.6l.18,0,.64-1.09c-.07-.26-.54-.74.21-1,.59-.19.48-.5.28-.88l-.62.36a4.37,4.37,0,0,0-.5-.91c-.37-.38-.18-.58.13-.81.21.28.12.85.77.79l-.36-1.69-.19,0,.07.6-.1.08-.08,0,0-2a1.65,1.65,0,0,1,.83-1l-.3,1.67.17,0,.15-.7.55.47-.22.35.11.09c.47-.23.59,0,.7.43a4.25,4.25,0,0,0,.61,1v-.59l.19,0,.25,1.1h-1.07l-.1-.08v.15l.64,1.57.49-.44v1.81l-.11.06-.46-.7-.23.27-.25-.87a2.46,2.46,0,0,0-1.6,2.56l-.66-.2-.59-1.56c-.15-.39-.41-.39-.65-.13a7.27,7.27,0,0,0-.61.87v-.59l-.43.46c-.54-.12-1,.26-.86.7l-1.44.39L186,144.9l.69-1.36c.75.4.4-.52.79-.77l.42,1.09c.16-.44.46-.65,0-1-.12-.09.13-.65.13-.95l-.32-3-.38.89-.27-1.32a13.57,13.57,0,0,0,.18-1.39,1.9,1.9,0,0,0-.24-.69l-.13.08-.47,1.71.09,0,.38-.46v.83l-.06.43-.56-.37.06,1-.19.09c-.17-.75-.79-.37-1.2-.52a1.46,1.46,0,0,0-.37.68,14,14,0,0,0,0,1.58c.57-.24.44-.57.38-.9,0-.1.07-.22.15-.43l.4,1a3.08,3.08,0,0,0-.57,2.74l-.19,0a3.39,3.39,0,0,1-.17-.51,26,26,0,0,1-.52-3.34,1.27,1.27,0,0,0-.56-1.19c-.21-.15-.2-.62-.27-1-.22-1.11-.42-2.23-.66-3.34a4.39,4.39,0,0,0-.42-.84,2.64,2.64,0,0,1-.19-.51c-.06-.52-.09-1-.14-1.57l-.67,1.54L181,133l-.31,1.49c-.74-.71-.7-.71-.5-1.71a5.26,5.26,0,0,0-.1-1.39c-.42.21-.7.64-1.08.12-.21.29-.45.57-.7-.05l-.11.15.42,1.13.2-.26a7.65,7.65,0,0,0,.32.71c.31.51-.54.14-.34.59l.74.07-.13.9-.4-.36-.09.57-.48-.38-.17,1.88.7-.45-.07.69-.12-.1-.57.49c-.15-.14-.34-.45-.61-.54a2.5,2.5,0,0,0-1,.13.18.18,0,0,0,0-.08c-.66-.29-.43-.86-.42-1.35s0-1.25.1-1.87a1.74,1.74,0,0,1,.21-.51,10.93,10.93,0,0,1-.42-1,11.78,11.78,0,0,1-.19-1.22c-1.09,1.51-.64,3.12-.85,4.62s-.3,3.16-.49,4.73a10.47,10.47,0,0,1-.42,1.56l-.63-.39v-8.63l-.3-.07a1.47,1.47,0,0,0-.2.42c-.12.75-.26,1.5-.33,2.25-.06.59,0,1.19,0,1.79,0,.26-.06.43-.41.48s-.39.36-.64.61l-.29-.17c-.13.75-.13.74-.88.41a1.69,1.69,0,0,0-.6,0l-.2-1.84h-.14c0,.27-.07.54-.09.81,0,.54-.08,1.05-.73,1.27a.72.72,0,0,0-.33.55,1.49,1.49,0,0,1-1.21,1.38.77.77,0,0,0-.53.64c-.19.65-.45,1.28-.7,1.91-.13.32-.35.54-.66.44l.21-1.63c-1,.41-.93,1.37-1.34,2l-.32-.5c-.17-.27-.34-.54-.5-.82s-.19-.34-.29-.5a2.36,2.36,0,0,0-.58.39,1.41,1.41,0,0,0-.2.52c-.32.87-1.16.89-1.87,1-.12,0-.52-.49-.52-.77,0-1,.08-2,.08-3a2.66,2.66,0,0,0-.24-.84,4.48,4.48,0,0,1-.16-.52c-.06-.4.17-.89-.42-1.1-.06,0-.07-.24-.08-.37a12.16,12.16,0,0,0-.58-3.44c-.12-.36-.18-.7.23-1,.1-.07.09-.32.13-.49l-.19,0-.06.41-.15,0-.52-2.17.49.18v-.31a3,3,0,0,0,.33.38c.06,0,.16,0,.24.05a.8.8,0,0,0,0-.26c-.08-.35-.17-.69-.26-1.06l-.5.34.24.34-.58.2-.39-.13c0,.53,0,1,0,1.53a5,5,0,0,1,0,.77c-.05.43-.3.53-.88.3.67-.32.66-.85.53-1.49l-.33,1-.5.09-.15-.86a6.21,6.21,0,0,1-.66.25c-.3-.6-1.34-.69-1.13-1.66l1.39,1.15.74-.93.22.57c.56-.22.57-.26.2-1.3l-.22.25a2.43,2.43,0,0,0-.14.2c-.26,0-.23-.73-.66-.25l-.1-.09a2.13,2.13,0,0,0,.42-1.75,3.41,3.41,0,0,0-.2-.68l-.74-.19-.15,1.16-.08.1.15,0,.42-.22c-.23.49-.67.87-.46,1.53-.25-.42-.49-.61-.9-.22-.09.09-.36,0-.55,0l.27-1-.16-1.6c.51.12.26-.63.69-.61v-.63c-.39.66-.6-.14-1,0,.6-.44.06-.57-.11-.78.53-.39.53-.39,1,.47a1.19,1.19,0,0,0,0-.77c-.08-.13-.41-.11-.63-.16l-.12-.09.09-1h-.14l-.2.37-.11-.47.43-.75-.23-.53-1,.49a4.51,4.51,0,0,1,.28,1.15,4.85,4.85,0,0,1-.28,1.22l.66-.22a2.19,2.19,0,0,0-.15,2l.32-.06,0-.13.16-.15.3.66a1.39,1.39,0,0,0-.45.24.42.42,0,0,0,.14.36c.52.23.33.62.27,1-.26,0-.34-.81-.76-.12l-.07-.35-.82.4c-.06-.42-.12-.82-.17-1.22-.2-1.8-.37-3.6-.64-5.39,0-.32-.52-.57-.88-.93l.11-.61,0-.43v-.9l-.87-.65-.38.53c-.06-.16-.11-.29-.15-.42-1-2.85-1-5.83-1.21-8.77-.1-1.3-.14-2.61-.25-3.91a8.12,8.12,0,0,0-.35-1.35l-.18,0-.25,1.16-.13,0c-.11-.66-.16-1.33-.31-2-.55-2.37-.33-4.78-.38-7.18,0-1.22-.17-2.43-.26-3.68l-.51.19V91.57l.43.12a1.53,1.53,0,0,0-.1-.41c-.11-.14-.37-.25-.38-.39,0-.63,0-1.28,0-1.92,0,0,.15-.09.2-.15s.26-.23.27-.36a9.26,9.26,0,0,0,0-1.58,1.53,1.53,0,0,0-.38-.8c-.4-.43-.32-.82.25-1,.22-.09.21-.5-.06-.65a.45.45,0,0,1-.12-.75c.54-.55.18-.67-.29-.79,0,0-.09-.07,0,0,0-.67.09-1.26.12-1.85a8.61,8.61,0,0,1,0-1c.07-.36.37-.73-.31-.83a4.82,4.82,0,0,1,0-1c0-.07.17-.13.31-.23l-.37-.16a11.46,11.46,0,0,1-.25-1.56c0-.62.07-1.25.11-1.88a.53.53,0,0,0,0-.21,5.05,5.05,0,0,1-.18-2.67,3.75,3.75,0,0,0-.12-.71,1.1,1.1,0,0,0,.33-1.16,12.42,12.42,0,0,1,0-1.93c0-.37.08-.77-.34-1a.31.31,0,0,1-.07-.26c.52-1,0-2,.22-3a.74.74,0,0,0-.05-.45,1.05,1.05,0,0,1,.11-1.34c-.79-.53-.72-1.35-.77-2.14-.08-1.11-.21-2.22-.26-3.33a10,10,0,0,1,.12-1.44,1.27,1.27,0,0,0,0-.27c0-.23,0-.47,0-.66a7.45,7.45,0,0,1-.27-1.31c0-1.55-.06-3.11-.08-4.66a5.46,5.46,0,0,1,0-.57c.08-.83.19-.89.91-.5l.11.05,0-.1,0-.3,1.34-.13a1.66,1.66,0,0,1,.08.31l.45-.83.31.69.28.6c.67-.62.26-1.36.51-2,.58.08.7-.27.72-.77a1.63,1.63,0,0,0-.81-1.76,6.69,6.69,0,0,1-2.37-2,2.73,2.73,0,0,1-.38-.74c-.16-.62-.28-1.25-.41-1.87a.69.69,0,0,1,0-.28c.35-1.28.12-2.7.91-3.88a5.39,5.39,0,0,0,.76-1.22c.23-.68.29-1.41.49-2.1a8.76,8.76,0,0,1,.64-1.63c.11-.23.38-.38.58-.57a5.74,5.74,0,0,0,.45-.41c.14-.15.23-.37.4-.46a3.32,3.32,0,0,0,1.33-1.82,17.23,17.23,0,0,1,1.7-3c.81-1.12,1.81-2.11,2.65-3.21a24.58,24.58,0,0,0,1.35-2.21,3.81,3.81,0,0,1,.29-.41,11.27,11.27,0,0,0,1.57-1.83,12.49,12.49,0,0,1,2.68-3.41c.63-.56,1.17-1.23,1.75-1.85.09-.09.21-.2.32-.2.49,0,.68-.41.86-.73a1.41,1.41,0,0,1,1.92-.72c.55.27,1.05.66,1.58,1a6.64,6.64,0,0,0,1,.6,1.17,1.17,0,0,0,1.53-.66.83.83,0,0,1,.19-.27c.37-.38.78-.74,1.13-1.14a.47.47,0,0,1,.61-.19c1.5.51,1.67,1.52,1.09,2.84a2.75,2.75,0,0,1-.25.38c-.21.31-.4.63-.11,1a.87.87,0,0,0,1.19-.08c.44-.73,1.2-.91,1.82-1.33a2.32,2.32,0,0,0,.67-1c.12-.27.13-.56.54-.49.07,0,.22-.06.23-.11.11-.59.61-.61,1-.81a7,7,0,0,0,1.3-1c.34-.29.69-.57,1.06-.83a.47.47,0,0,1,.4,0,1.81,1.81,0,0,1,.52.43c.85,1,1.69,2.1,2.53,3.17.24.31.32.72.77.91s.92.13,1-.39a.81.81,0,0,1,.77-.73,1,1,0,0,0,.85-1.3,1,1,0,0,0,1.54.13l-.48-1.64,1.09,1.2h.15c0-.62.36-.84.89-.91.19,0,.36-.23.55-.36C191,7.42,192,8.58,193.07,9.75a1.37,1.37,0,0,0,1,.62c.18,0,.39.27.54.45a.47.47,0,0,0,.69.14c.32-.19.67-.33,1-.52s.65-.37,1-.11a.59.59,0,0,0,.55-.11.63.63,0,0,0-.06-.56c-.47-.77-1-1.51-1.49-2.27a1.13,1.13,0,0,1-.13-1.26c.38.59.75,1.11,1.07,1.65s.63,1.22.94,1.84.63.44,1,.27a5.57,5.57,0,0,1,1.26-.33,3.65,3.65,0,0,0,2.4-1.67,1.39,1.39,0,0,1,.53-.38,7.64,7.64,0,0,1,1.11-.46c.65-.18,1.31-.31,2-.45a3.1,3.1,0,0,0,.76-.13,1.36,1.36,0,0,1,1.3-.13c.7.29,1.23.67,1.18,1.42s.52,1,1,1.24c0,1.15,0,2.26,0,3.38,0,.63.1.73.72.61a11.8,11.8,0,0,0,2-.39c1-.36,1.95-.75,2.25-1.92,0-.07.06-.12.14-.27.05.34.09.57.13.8.1.57.29.7.76.4a1.78,1.78,0,0,1,1.27-.24,21.93,21.93,0,0,0,2.29.1.51.51,0,0,1,.56.44c.11.41.25.83.4,1.23a.59.59,0,0,0,.3.28,6.67,6.67,0,0,0,.74.29,1,1,0,0,0,1-.13,3,3,0,0,1,2.9-.45.42.42,0,0,0,.38-.08c.59-.94,1.62-1.07,2.55-1.39l.45-.16.87,4.08-1.6-1.08-.21.14a3,3,0,0,1,.08.59,7.14,7.14,0,0,1-.15.78,2.52,2.52,0,0,1-.64-.3,7.11,7.11,0,0,1-.61-.81l-.48.6a10.73,10.73,0,0,0-1-.56,4.1,4.1,0,0,0-.32.52l1.71.82,0,.24a5,5,0,0,1-1.39,0c-.52-.12-1.25-.3-1.42-.68-.36-.77-1.24-.8-1.64-1.46a1.08,1.08,0,0,0-1.32-.39l2,2.34-.08.13a2.7,2.7,0,0,0-2.18.33c-.1.05-.25.1-.27.18-.15.61-.57.42-.93.3s-.75-.29-1.13-.38c-.19,0-.5,0-.6.09a.92.92,0,0,0-.22.7,1.36,1.36,0,0,1-1.15,1.8,1,1,0,0,0-.89.67,2.5,2.5,0,0,0,0,.48,4.92,4.92,0,0,1-.14.55l-.05,0a3.09,3.09,0,0,1-1.77.62l.45.88c-.12,0-.24.14-.34.12-.62-.12-.8.28-.94.74s-.21.61-.68.69-.61.44-.92.67a1,1,0,0,1-1.36,0c-.08-.07-.24-.16-.3-.12-.62.33-.93,0-1.2-.56l-.14.08c0,.17,0,.39.11.5A8.4,8.4,0,0,0,209.85,26a3.45,3.45,0,0,1,1.32,1.78c.26.75.74.87,1.39.3.36.74,1.12,1.26.83,2.28a1.89,1.89,0,0,0,.18,1.25,6.62,6.62,0,0,1,.41,2.78l-.49-.2a6.5,6.5,0,0,1,.32.59c.14.36.27.72-.16,1a.58.58,0,0,0-.22.31q-.27,1.53-.51,3.06a1,1,0,0,0,.12.49c.21.4.16.65-.48.63l.43.61c-.66.77-1.32,1.57-2,2.35s-1.5,1.68-2.22,2.54-1.4,1.73-2.11,2.58c-.2.24-.47.43-.7.66a5.63,5.63,0,0,0-.36.46c-.12.15-.23.32-.35.47l-1.94,2.35,0,.11ZM191,135.66c-.46-.17-.57-.47-.39-.95a5.32,5.32,0,0,0,.16-.69l-.2,0c-.58.74,0,1.6-.22,2.37l.18.08.46-.79c.36-.32.14-.6,0-.88h-.15ZM211,33c0,.19,0,.42.12.56.42.56.87,1.09,1.32,1.62a3.3,3.3,0,0,0,.4.32A4.62,4.62,0,0,0,213,35a3.61,3.61,0,0,1,.09-.67c0-.14.23-.23.36-.36a4,4,0,0,0-.38-.74,1.09,1.09,0,0,0-.52-.28c-.25-.07-.51-.08-.77-.13s-.41-.11-.61-.16-.39-.37-.38-.53c.08-.95-.69-1.49-1.05-2.21-.23-.48-1-.71-1.51-1.05l-.14.11,1.09,1.37-.61.22a6.23,6.23,0,0,0,.61.79C209.78,31.93,210.39,32.46,211,33ZM188.16,135.15a3.21,3.21,0,0,0-.08,3.59,5,5,0,0,0-.1-.87c0-.25-.12-.58,0-.74.27-.34.38-.58,0-.89-.08-.06,0-.31,0-.47S188.1,135.35,188.16,135.15Zm-35.52-16.7c0,.2,0,.39,0,.58s0,.43-.12.46c-.65.27-.42.87-.58,1.35A2.22,2.22,0,0,0,152.64,118.45Zm8.75,13.07,0-.17-1.22.12c0,.05,0,.16.1.2.38.29.4.51-.07.72-.11.05-.15.24-.3.5l1-.5C160.42,131.75,161,131.71,161.39,131.52Zm24.87,3.6-.57,1,.57,1Zm5.44-2c-.46.37-.07.69,0,1s.08.69.13,1.16A2.12,2.12,0,0,0,191.7,133.14Zm-38.44-5.81-.73-.3-.15.77.19.08Zm2.85-1.8c-.19.12-.49.23-.48.3.05.32,0,.73.41.86Zm34.07,9.61-.25,0-.38,1.59.18,0ZM145.77,74l.33,0,.1-1-.3,0Zm21.33,49.28.85-1C167.14,122.35,167,122.52,167.1,123.26Zm-14.29-1.42c.33-.9.33-.9-.27-1.41Zm7.26,7.73c-.3.44-.36.74,0,1C160.66,130.21,160.1,130,160.07,129.57Z"/><path class="cls-4" d="M142.43,62.44c.47-.16.51.23.53.68.1,2,.25,4,.31,6a10.31,10.31,0,0,0,.09,2c.06.28-.13.62-.2.94a.83.83,0,0,0,0,.35c.12.42.25.83-.11,1.21,0,0,0,.23.07.34a3.56,3.56,0,0,1,.27.86c0,.71-.28.89-1,.6-.16.31-.08.48.26.57s.5.28.34.62l-1.16-1.06-.2.11c.25-.66.51-1.23.06-1.84a1.2,1.2,0,0,1-.11-.72c0-.72-.13-1.49-.05-2.17.16-1.43-.27-2.83,0-4.26a8.12,8.12,0,0,0-.14-2.29,19.57,19.57,0,0,1-.19-4.46,9.82,9.82,0,0,0-.17-2.28l.19-.09.57.74.2-1.2.05,0c.21,1.45.45,2.9.61,4.35A2.71,2.71,0,0,1,142.43,62.44Zm0-.66c-.17-.37-.35-.65-.69-.36l.08.73Zm-.25-2.28-.87-.09.87.77Z"/><path class="cls-4" d="M216.29,133.2l-.75-.23c.12.2.17.29.23.37.8.95.61,1.67.14,2.7a.54.54,0,0,1-.38.23c-.08,0-.23-.21-.24-.33-.06-1.37-.11-2.75-.13-4.12,0-.19.18-.39.26-.57C216.17,131.7,216.1,132.47,216.29,133.2Z"/><path class="cls-5" d="M191.63,141.21c-.31.23-.5.43-.13.81a4.37,4.37,0,0,1,.5.91l.62-.36c.2.38.31.69-.28.88-.75.24-.28.72-.21,1l-.64,1.09-.18,0a10.8,10.8,0,0,0,.22-1.6,3.12,3.12,0,0,0-.21-1.57,3.1,3.1,0,0,1-.27-2.13l.17.83.17,0c.08-.67-.24-1.4.14-2h.19l0,2Z"/><path class="cls-6" d="M266.76,77.53a1.19,1.19,0,0,1,1.31.44c.32.37.57.46,1,.13a5.15,5.15,0,0,1,1.25-.52l.09.16c-.22.38-.43.76-.68,1.12a.78.78,0,0,1-1.07.29A3.59,3.59,0,0,1,266.76,77.53Z"/><path class="cls-6" d="M269.6,81.48l-.77-.45a7.75,7.75,0,0,1,1.13-1.2,8.16,8.16,0,0,1,1.51-.65C271.11,80.19,270.18,80.65,269.6,81.48Z"/><path class="cls-4" d="M218.16,136.83s0-.1,0-.11c-.67-.34-.44-1-.57-1.56,0-.18-.11-.35-.14-.45l-.63,0,0-.24c.61-.16,1.08.32,1.7.44l-.24,1.93Z"/><path class="cls-6" d="M270.31,104.4a12.17,12.17,0,0,1-1.29,1.16c-.12.08-.48-.14-.69-.28s-.23-.4.05-.53a12,12,0,0,1,1.28-.54C269.79,104.17,270,104.3,270.31,104.4Z"/><path class="cls-7" d="M152.42,131.87l.51.07.16,1c-.75-.36-1.21-3.25-.53-3.91a3.59,3.59,0,0,0,.31,2.49Z"/><path class="cls-6" d="M261.3,59l.23,1.37c-.37.27-.65.49-1,.68-.09.06-.3.1-.33.06s-.13-.34-.08-.38c.31-.23.23-.77.76-.85C261.05,59.88,261.12,59.44,261.3,59Z"/><path class="cls-6" d="M306.33,145.71a9.08,9.08,0,0,1,.2-1.18A1,1,0,0,1,307,144c.09,0,.39.13.47.28a.59.59,0,0,1-.06.53,11.11,11.11,0,0,1-.95,1Z"/><path class="cls-1" d="M260.67,56.67c-.12-.23-.39-.51-.33-.68a19.36,19.36,0,0,1,.81-1.88l.19.08-.51,2.43Z"/><path class="cls-6" d="M353.24,75.62l.75-.43c.26.85-.23,1.37-1.35,1.46l.6-1Z"/><path class="cls-4" d="M214.51,128.5c.88.57,1.08,1,.75,1.6C214.5,129.62,214.28,129.14,214.51,128.5Z"/><path class="cls-8" d="M278.49,36.38l1.11-.7c0-.39.15-.55,1-.65-.13.25-.18.47-.31.56-.54.33-1.1.62-1.65.93Z"/><path class="cls-6" d="M274.24,75.39c.06.65-.65,1.42-1.13,1.34-.09,0-.22-.39-.18-.42C273.33,76,273.76,75.72,274.24,75.39Z"/><path class="cls-9" d="M186.87,138.62v-.83l-.38.46-.09,0,.47-1.71.13-.08a1.9,1.9,0,0,1,.24.69,13.57,13.57,0,0,1-.18,1.39Z"/><path class="cls-7" d="M142.28,79.74l-.07-1.3h.52l.15-.84c.54.36.33.92.48,1.36l-.27-.33-.66.15-.07,1Z"/><path class="cls-7" d="M189.84,145.55l-.23,1.95C189,146.47,189.11,145.68,189.84,145.55Z"/><path class="cls-7" d="M150.56,120l0,.43-.78,1.19-.23-1.4Z"/><path class="cls-6" d="M324.92,147.58a4.93,4.93,0,0,1,0-.91c0-.28.2-.54.25-.83.08-.51.36-.4.77-.26C325,146,325.67,146.94,324.92,147.58Z"/><path class="cls-7" d="M154.24,132.4l.24-.39-.68.06-.18-1.06c.27-.31.46,0,.63.23.44.6.46,1,.09,1.25Z"/><path class="cls-8" d="M324,6.61c0,.14-.08.28-.13.42s-.12.69-.29.76-.57-.08-1-.17l1.21-1Z"/><path class="cls-7" d="M186.79,143a3.08,3.08,0,0,1-.47-1,1.47,1.47,0,0,1,.45-.9l.13,1.93Z"/><path class="cls-5" d="M157.84,130.53l.58-.2-.24-.34.5-.34c.09.37.18.71.26,1.06a.8.8,0,0,1,0,.26c-.08,0-.18,0-.24-.05a3,3,0,0,1-.33-.38v.31l-.49-.18Z"/><path class="cls-6" d="M269.29,65.06a6.37,6.37,0,0,1-.45.78.53.53,0,0,1-.39.21.55.55,0,0,1-.36-.31.43.43,0,0,1,.17-.36A9.15,9.15,0,0,1,269.29,65.06Z"/><path class="cls-6" d="M276.17,113.16a3.82,3.82,0,0,0,.68-.06,1.19,1.19,0,0,0,.44-.27,2.34,2.34,0,0,0,.32-.31l.2.18c-.22.3-.39.73-.69.85s-.65-.15-1-.25Z"/><path class="cls-6" d="M273.78,38.31c-.56.34-1,.5-1.34-.25C272.74,37.74,272.89,37.76,273.78,38.31Z"/><path class="cls-1" d="M278.81,37.31a3.06,3.06,0,0,1-.17,1c-.06.1-.49,0-.88,0Z"/><path class="cls-1" d="M358.94,65.15l.87-1-.33,1.67Z"/><path class="cls-7" d="M153.76,130l-.72,1-.1-.06a3.37,3.37,0,0,0,.12-.55,2.24,2.24,0,0,0,0-.51l.15,0,.3.28.1-.21Z"/><path class="cls-1" d="M273,77.83l1.61.44A1.35,1.35,0,0,1,273,78Z"/><path class="cls-9" d="M153.76,128.61c.06-.37.25-.76-.27-1a.42.42,0,0,1-.14-.36,1.39,1.39,0,0,1,.45-.24h0l.16,1.6Z"/><path class="cls-7" d="M155.87,134.75l-.08-.54-.28.07,0-.08c.13-.11.25-.28.4-.3s.34.1.52.15l-.32.77Z"/><path class="cls-1" d="M279.2,41.9c-.27-.74-.24-.77.65-.82Z"/><path class="cls-7" d="M177.91,138c-.16-.26-.34-.52-.48-.8,0,0,.09-.18.13-.27.1.07.26.11.29.2.09.25.14.53.21.79Z"/><path class="cls-7" d="M142.39,82.44l-.18-.42.07-.06.57.54-.61.4-.12-.05.14-.39Z"/><path class="cls-1" d="M274.67,33.09l.74.4-.7.28-.21-.62Z"/><path class="cls-1" d="M274.53,89.13l.16-.92.29,0-.13.93Z"/><path class="cls-7" d="M186.46,140.83l.21-1.11C187.1,140.15,187.07,140.33,186.46,140.83Z"/><path class="cls-7" d="M141.92,77l.64.22-.41.55-.15-.06Z"/><path class="cls-3" d="M155.87,130l-.2.74-.44-.27.54-.56Z"/><path class="cls-7" d="M154.34,132.49l-.44.41-.14-.16.48-.34Z"/><path class="cls-2" d="M283.36,111.74l-.51.39-.11-.11.52-.39Z"/><path class="cls-3" d="M178.87,135.58l0,.38-.11,0-.11-.36Z"/><path class="cls-2" d="M359.22,63.85l.2.33-.14.08-.15-.32Z"/><path class="cls-6" d="M271.7,101.57l-.24.2Z"/><path class="cls-3" d="M153.36,128.74l-.28,0v-.07h.29Z"/><path class="cls-3" d="M156.93,130.33l0,.18h0a1.1,1.1,0,0,1,0-.18Z"/><path class="cls-6" d="M271.24,101.91l-.12.09Z"/><path class="cls-3" d="M197.9,141.14l-.08.1,0-.16Z"/><path class="cls-2" d="M354.78,51.68l.06.17,0,0-.13-.09Z"/><path class="cls-6" d="M271.92,101.12l-.08.08Z"/><path class="cls-8" d="M273.7,65.26l.16-.32-.1-.09-.87.73c-.48-.74-.25-1.27.59-1.55a3.8,3.8,0,0,0,.83-.54A1.2,1.2,0,0,1,273.7,65.26Z"/><path class="cls-8" d="M279.12,35.2c-.26-.48-.18-.63.32-.83a6.87,6.87,0,0,0,.74-.5,2.15,2.15,0,0,1,.67-.19,5.36,5.36,0,0,1,.8,0s.09.05.26.15a5.43,5.43,0,0,1-.67.13c-.29,0-.58,0-.58.44a.36.36,0,0,1-.2.24Z"/><path class="cls-8" d="M349.46,45a4.16,4.16,0,0,0-.39.32c-.11.12-.19.28-.3.43l-.49-.22-.38-.19a1.55,1.55,0,0,1,.23-.42A.8.8,0,0,1,349.46,45Z"/><path class="cls-8" d="M277.63,65.57c.3.75-.18,1.59-.73,1.6-.09,0-.31-.37-.27-.43C276.91,66.36,277.24,66,277.63,65.57Z"/><path class="cls-8" d="M283.26,111.63l-.52.39c-.39,0-.56-.24-.45-.52s.41-.39.63-.58Z"/><path class="cls-8" d="M354.67,51.8l.13.09c.08.27.14.55-.21.65-.16,0-.44.05-.49,0s-.13-.47,0-.56S354.46,51.85,354.67,51.8Z"/><path class="cls-10" d="M307.08,142.07c-.28.76-.47.82-1.23.38A.82.82,0,0,1,307.08,142.07Z"/><path class="cls-8" d="M354.2,79.64c.13.39.36.74.27.86a2.44,2.44,0,0,1-.8.48l-.18-.17Z"/><path class="cls-8" d="M354,83.59c.52.16.44-1,1.12-.5C354.66,83.7,354.27,83.89,354,83.59Z"/><path class="cls-8" d="M280.19,106.52a.88.88,0,0,1,1-.55A.76.76,0,0,1,280.19,106.52Z"/><path class="cls-8" d="M327.17,144a2.17,2.17,0,0,1,.19-.64c0-.06.31,0,.64.06l-.62.73Z"/><path class="cls-8" d="M355.34,80.77a2.55,2.55,0,0,1-.23-.34,4.66,4.66,0,0,1-.16-.49c.11,0,.3-.07.34,0a1.6,1.6,0,0,1,.26.56C355.57,80.55,355.43,80.65,355.34,80.77Z"/><path class="cls-8" d="M354.71,52.89c0,.38.06.76-.28,1l-.24-.07.29-1Z"/><path class="cls-8" d="M281.64,136.74c-.09-.56.16-.69.49-.69.08,0,.16.2.24.3Z"/><path class="cls-8" d="M347.69,109.1l.68-.13a1.93,1.93,0,0,1,0,.38c-.22,0-.44.05-.66.07Z"/><path class="cls-8" d="M293.41,139.74l.56,1.08-.11.11c-.22-.27-.46-.53-.66-.82C293.18,140.07,293.31,139.91,293.41,139.74Z"/><path class="cls-11" d="M211,33c-.6-.53-1.21-1.06-1.79-1.61a6.23,6.23,0,0,1-.61-.79l.61-.22L208.11,29l.14-.11c.52.34,1.28.57,1.51,1.05.36.72,1.13,1.26,1.05,2.21,0,.16.25.35.38.53Z"/><path class="cls-10" d="M211,33l.2-.31c.2,0,.41.12.61.16s.52.06.77.13a1.09,1.09,0,0,1,.52.28,4,4,0,0,1,.38.74c-.13.13-.31.22-.36.36A3.61,3.61,0,0,0,213,35a4.62,4.62,0,0,1-.19.47,3.3,3.3,0,0,1-.4-.32c-.45-.53-.9-1.06-1.32-1.62C211,33.41,211,33.18,211,33Z"/><path class="cls-5" d="M153.79,127h0l-.3-.66-.13-.35-.08,0,.05.48,0,.13-.32.06a2.19,2.19,0,0,1,.15-2h0l.23-.92v0l.2-.37h.14l-.09,1-.09.15.21-.06c.22,0,.55,0,.63.16a1.19,1.19,0,0,1,0,.77c-.5-.86-.5-.86-1-.47.17.21.71.34.11.78.39-.14.6.66,1,0v.63C154.05,126.38,154.3,127.13,153.79,127Z"/><path class="cls-5" d="M153.19,124.74l-.66.22a4.85,4.85,0,0,0,.28-1.22,4.51,4.51,0,0,0-.28-1.15l1-.49.23.53-.43.75h0c-.1.09-.29.18-.29.26,0,.37.11.75.17,1.12Z"/><path class="cls-5" d="M188.16,135.15c-.06.2-.14.41-.19.62s-.09.41,0,.47c.4.31.29.55,0,.89-.12.16,0,.49,0,.74a5,5,0,0,1,.1.87A3.21,3.21,0,0,1,188.16,135.15Z"/><path class="cls-9" d="M190.94,135.65l-.46.79-.18-.08c.25-.77-.36-1.63.22-2.37l.2,0a5.32,5.32,0,0,1-.16.69c-.18.48-.07.78.39.95Z"/><path class="cls-5" d="M152.64,118.45a2.22,2.22,0,0,1-.7,2.39c.16-.48-.07-1.08.58-1.35.09,0,.1-.3.12-.46S152.64,118.65,152.64,118.45Z"/><path class="cls-9" d="M161.39,131.52c-.37.19-1,.23-.57.87l-1,.5c.15-.26.19-.45.3-.5.47-.21.45-.43.07-.72-.06,0-.07-.15-.1-.2l1.22-.12Z"/><path class="cls-5" d="M186.26,135.12v2l-.57-1Z"/><path class="cls-9" d="M191.7,133.14a2.12,2.12,0,0,1,.11,2.18c-.05-.47-.07-.81-.13-1.16S191.24,133.51,191.7,133.14Z"/><path class="cls-9" d="M191.63,141.21l.11-.22.08,0,.08.28H192l-.05-.35-.07-.6.19,0,.36,1.69C191.75,142.06,191.84,141.49,191.63,141.21Z"/><path class="cls-5" d="M153.26,127.33l-.69.55-.19-.08.15-.77Z"/><path class="cls-9" d="M156.11,125.53l-.07,1.16c-.42-.13-.36-.54-.41-.86C155.62,125.76,155.92,125.65,156.11,125.53Z"/><path class="cls-9" d="M190.18,135.14l-.45,1.58-.18,0,.38-1.59Z"/><path class="cls-5" d="M145.77,74l.13-1,.3,0-.1,1Z"/><path class="cls-5" d="M167.1,123.26c-.1-.74,0-.91.85-1Z"/><path class="cls-9" d="M152.81,121.84l-.27-1.41C153.14,120.94,153.14,120.94,152.81,121.84Z"/><path class="cls-5" d="M160.07,129.57c0,.39.59.64,0,1C159.71,130.31,159.77,130,160.07,129.57Z"/><path class="cls-9" d="M191,135.66l-.12-.88H191c.1.28.32.56,0,.88Z"/><path class="cls-5" d="M153.29,123.38l.11.47v0c0-.15-.07-.3-.11-.46Z"/><path class="cls-10" d="M155.17,128.55l-.15,0,.08-.1Z"/><path class="cls-10" d="M203.4,52.38h-.13l0-.11Z"/><path class="cls-10" d="M193.59,141.85v-.15l.1.08Z"/><path class="cls-10" d="M144.34,46.6l0,.1-.11-.05Z"/><path class="cls-5" d="M142.39,61.78l-.61.37-.08-.73C142,61.13,142.22,61.41,142.39,61.78Z"/><path class="cls-5" d="M142.14,59.5v.68l-.87-.77Z"/><path class="cls-3" d="M153.3,123.37c0,.16.07.31.11.46l-.23.92c-.06-.37-.14-.75-.17-1.12C153,123.55,153.2,123.46,153.3,123.37Z"/><path class="cls-3" d="M153.34,126.51l-.05-.48.08,0,.13.35Z"/><path class="cls-3" d="M153.77,124.53l-.21.06.09-.15Z"/><path class="cls-3" d="M191.92,141l.05.35h-.07l-.08-.28Z"/></svg>