<svg id="Слой_1" data-name="Слой 1" xmlns="http://www.w3.org/2000/svg" viewBox="0 0 500 150"><defs><style>.cls-1{fill:#da0315;}.cls-2{fill:#020202;}.cls-3{fill:#fdcd30;}.cls-4{fill:#1c1c1c;}.cls-5{fill:#dfdfdf;}.cls-6{fill:#fefaed;}.cls-7{fill:#fdcf3b;}</style></defs><path class="cls-1" d="M341.7,53.67c2,.19,3.61,2.89,6,.83a2.48,2.48,0,0,1,2.39.37c2.72,3.77,7.13,3.28,10.83,4.56.45.15.56,1.13,1,1.44,1.58,1.06,2.4,2.49,5.06,2.85,5.25.7,10.23,3.53,15.32,5.5a32.35,32.35,0,0,1,4.37,1.85c.8.46,1.34,1.4,2.65,2.85h-5.53l-.33,1,6.73,3.15L378.51,79.3l8.91,2.78c-4.25,1.39-2.63,2.41-.47,3.71l-8.25-.63-.29,1.14,4.88,2.62c-2.08,1.37-4,2.57-5.86,3.92a1.7,1.7,0,0,0-.18,1.65,9.33,9.33,0,0,0,2.48,1.37c1.25.56,2.54,1,3.6,1.45l-4.05,4.12c-1.13,0-2.25,0-3.38,0q-127.33,0-254.67,0c-1.12,0-2.24-.06-3.37-.1L119.27,99l-3.75-1.4,8.81-1.91-.41-.92c.8-.52,1.61-1.5,2.4-1.49,3.37,0,6.4-.51,9-3.44l-3.73-.6,11.18-5.55,10.56,1.7.21-1.14-6.73-3.37,3.51-.54,11.22,1.42c-.59-3.77-2.46-4.37-5.1-4.38a41.54,41.54,0,0,1-6.39-1l.06,0-14.89-4.19L138,69.9l-4.68-3.81,4.57-1.15.14-1.16-8.29-1.32,8-9.61q88.2,0,176.41,0C323.3,52.87,332.5,53.39,341.7,53.67Z"/><path class="cls-2" d="M341.7,53.67c-9.2-.28-18.4-.8-27.6-.81q-88.2-.11-176.41,0L132,50.76c3.76-1.94.12-2.16-2-3.42l13.53-3.81A7.6,7.6,0,0,0,136.23,37c-1.08,0-2.61-.61-3-1.4s.22-2.37.92-3.08c2.09-2.12,4.47-4,6.68-6a5.06,5.06,0,0,0,.77-1.6,9.85,9.85,0,0,0,2.55,1.36c.68.14,1.5-.36,2.25-.58-.26-.72-.37-2-.79-2.08-3.5-1-1.7-3.07-1.22-4.91.7-2.44.93-5.57,4.86-3.36.2.11.65.15.72,0,2.26-3.27,5.24-.71,7.8-1.13S162.6,12.15,165,11a9.72,9.72,0,0,1,1.76-.42c-.14-4.66,3.64-5.37,7.05-6.51l2.39,3.82c2.29-2.26,4.29-1.84,6.83-.7s5.45,1.2,8.85,1.86l-6.5,3.44h4.79l3.63,0,6.13,0,2.18-.17,5.27,0,1.46.16,1.61.05,6,.5,3.72.16,8.93,1.54c4-.29,8-.47,12-.91,2.3-.25,4.55-.92,6.82-1.4l.93,2.06c.39-.22,1.15-.56,1.12-.64-.28-.81-.68-1.58-1-2.36l.6-.65L251,9.28l3.11-1.46L260,11.38l-5.22.91-1.52-.06L252.1,12l1,1.07,1.63.79c4.05.83,8.11,2.13,11.54-1.75.54-.62,2.06-.59,3.09-.5,3.11.26,6.19,1,8.41-2.35.38-.57,2.54-.52,3.48,0,1.41.76,2.15,2.73,4,.24.49-.66,3.13.28,4.78.48l.05.89,2.12,1.47-3.68,2a84,84,0,0,1,8.75,1.75c4.2,1.36,8.27,3.11,12.42,4.6,3.44,1.23,6.93,2.33,10.39,3.49l.67-.66.15-1.47,9.7,1.48c2-1.43,2.88.33,4.13,1.4s2.19,3.92,4.93,2.34l3.65.92,1.5.63c.51.53,1,1.05,1.52,1.58l1.54.53,3,.93c.59.91,1,2.34,1.79,2.63,3.61,1.27,7.16,3.87,11.24,1.15a2,2,0,0,1,1.7.31c2.2,1.57,4.33,3.23,6.43,4.83-1.72,2.22-3.71,2.49-7.18,1.21-3.75-1.37-8.24-.72-12.4-.94l-14-4-.79,1.05c.9.94,1.66,2.44,2.72,2.7,3.94,1,8,1.51,12,2.22,7.84.51,15.59,1.27,20.77,8Z"/><path class="cls-3" d="M117.86,101.37c1.13,0,2.25.1,3.37.1q127.34,0,254.67,0c1.13,0,2.25,0,3.38,0l-5.5,3.26,3,1.21-15.82,2.94,10.5,2.59-1.06.68h.05c-.71-.1-1.43-.17-2.14-.31-2.95-.56-7.14,2-7.76,4.76l-2.77-2.27-2.37-1.43-1.51,0-2.95,1.49c-6.12.85-12.25,1.63-18.35,2.58-4.94.77-9.84,1.75-14.76,2.64l-3.59,1.53a.86.86,0,0,0-.21.61l-1.73.47.1.46,1.7-.2,1.41.72-1.83.46.08.68,1.88.12L329.83,121l1.45.1a22.47,22.47,0,0,0,4.39.24c.63-.08,1.12-1.18,1.67-1.82a.28.28,0,0,1,.42-.09l2,2.21.58-2,2.26-.12c2.85.76,5.64,3,8.62.32,4.87,2,9.56-1.19,14.35-.48,1,.16,1.94,1.23,3.67,2.39-3.38,1-5.61,1.65-7.85,2.29-.36.1-1,0-1.08.16-2,4.42-5.23,1.53-8.14,1.64-6,.23-11.95,1.43-17.93,2.11-13.38,1.51-26.79,2.72-40.14,4.47s-26.83,3.5-40.05,6.19c-15.26,3.11-30.55,5.5-46.12,5.83-6.94.14-13.89-.28-20.83-.31a7.59,7.59,0,0,0-2.73,1l-3.27-5.26-3-2.41-.87,1,1.57,2.18c-2.15,0-4.3-.21-6.43-.06-4,.28-8,.81-12,1.12a28.24,28.24,0,0,1-6.56,0c-1.56-.24-3.82-.09-3.8-3,0-.73-2.25-1.46-3.46-2.19l0-1.16,7.52-1.45c1.7.27,3.42.46,5.1.81,4.56,1,9.1,2,13.67,3,.65.13,1.41-.33,2.12-.52l-.08-1.05a22.08,22.08,0,0,1-4.23-.07,9.75,9.75,0,0,1-2.94-1.57c-1.35-.85-2.58-2.38-4-2.55a80.11,80.11,0,0,0-9.68-.07l-5.19-.31.8-1.37,2.76-.27.06-1-4.37-.27c-1.73-2.72-2.39-.65-3.21.71l-13.34-2.12c-1.93-3-2.49-3.08-5.7-.75l4.16,2.91-10.53-.48-.09-1,3-1.22c-.79-2.21-1.53-4.26-2.46-6.84l-4.55-2.34,4.55-.24.1-.51-3-1.07.21-.93,12.11,3,3-2.48c3.56,0,7.12,0,10.67,0a12.21,12.21,0,0,0,2.36-.48c-.41-.88-.61-2.15-1.3-2.55a7.33,7.33,0,0,0-3.8-.86c-2.68.13-5.33.58-8,.9l-3.55-3.13h-8.46c-.46-1.2-.93-2.4-1.37-3.53l3.29-1.56-.63-1.28-4.28,1.94-7.33-.42-.18-1Z"/><path class="cls-4" d="M339.64,27.26c-2.74,1.58-3.54-1.15-4.93-2.34s-2.09-2.83-4.13-1.4c-1.43-1.46-2.81-3-4.32-4.35a35.34,35.34,0,0,0-3.23-2.4c-1.21,0-2.49.09-3.75,0a24.83,24.83,0,0,1-3.14-.69c.3-1.1.6-2.2,1-3.54,7.43-1.6,12.94,4,19.41,6.81a39.47,39.47,0,0,0,6.69,1.9c1.62.39,3.29.57,4.94.83,1.21.2,2.43.37,3.65.55-.17,0-.47.06-.48.13-.17.8-.3,1.6-.43,2.4l-1.39-.45.54,2.56-6.61-2C341.74,25.13,339.31,23.6,339.64,27.26Z"/><path class="cls-5" d="M316.14,16.05a24.83,24.83,0,0,0,3.14.69c1.26.12,2.54,0,3.75,0a35.34,35.34,0,0,1,3.23,2.4c1.51,1.38,2.89,2.89,4.32,4.35L320.88,22l-9.69-3.74Z"/><path class="cls-6" d="M154.05,131.84a80.11,80.11,0,0,1,9.68.07c1.41.17,2.64,1.7,4,2.55a9.75,9.75,0,0,0,2.94,1.57,22.08,22.08,0,0,0,4.23.07l.08,1.05c-.71.19-1.47.65-2.12.52-4.57-.92-9.11-2-13.67-3-1.68-.35-3.4-.54-5.1-.81Z"/><path class="cls-5" d="M352.38,43c-4-.71-8.05-1.26-12-2.22-1.06-.26-1.82-1.76-2.72-2.7l.79-1.05,14,4Z"/><path class="cls-5" d="M150.32,80.32l-3.51.54,6.73,3.37-.21,1.14-10.56-1.7,2.5-1.39V77.22l4.83-.88-.06,0C150.13,77.69,150.22,79,150.32,80.32Z"/><path class="cls-6" d="M132.27,112.23c2.67-.32,5.32-.77,8-.9a7.33,7.33,0,0,1,3.8.86c.69.4.89,1.67,1.3,2.55a12.21,12.21,0,0,1-2.36.48c-3.55,0-7.11,0-10.67,0C132.32,114.23,132.3,113.23,132.27,112.23Z"/><path class="cls-4" d="M229.14,14.68l-8.93-1.54,8.27-2.05-3-.9-1.25-1.38,1.27-.43c2.53,0,5.3-.37,5.66,2.16Z"/><path class="cls-5" d="M225.45,8.38l-1.27.43,1.25,1.38-7.91.56-.6-1.05C218.58,8.08,220,6.12,222,5c1.07-.62,3,.16,4.95.35Z"/><path class="cls-4" d="M144.36,18.78c-.48,1.84-2.28,4,1.22,4.91.42.12.53,1.36.79,2.08-.75.22-1.57.72-2.25.58A9.85,9.85,0,0,1,141.57,25l-2.37-1.06C139.07,20.38,142.48,20.32,144.36,18.78Z"/><path class="cls-6" d="M117.27,104.67l4.28-1.94.63,1.28-3.29,1.56c.44,1.13.91,2.33,1.37,3.53H110.05Z"/><path class="cls-6" d="M360.52,116.55c.62-2.75,4.81-5.32,7.76-4.76.71.14,1.43.21,2.15.31l-.8,3,.06,0-3,.73Z"/><path class="cls-6" d="M355.38,112.85l2.37,1.43c.09,1,.19,2.08.3,3.33h-8.53l-.1-1.26,5.33-.65Z"/><path class="cls-4" d="M260,11.38l-5.87-3.56c2.42-3.14,3.87.82,5.87.81l.81.62Z"/><path class="cls-7" d="M165,144.09l-3.15,1.83,0-.74H154l-.07-1,11-1.08Z"/><path class="cls-7" d="M130,129.34l-4.16-2.91c3.21-2.33,3.77-2.23,5.7.75Z"/><path class="cls-5" d="M350,27.24l-.54-2.56,1.39.45L352.75,28c-.63,1.28-1.27,2.58-1.92,3.88l-3-.93a11.89,11.89,0,0,0,1.66-1.75A6.62,6.62,0,0,0,350,27.24Z"/><path class="cls-7" d="M369.63,115.13c.27-1,.53-2,.8-3h-.06l1.53-.14,4,.25.23.73Z"/><path class="cls-5" d="M299.73,11.55,302,13.8l-1.49,1.43-2.19-2.88Z"/><path class="cls-7" d="M337.34,119.5c-.55.64-1,1.74-1.67,1.82a22.47,22.47,0,0,1-4.39-.24l.3-1.37Z"/><path class="cls-4" d="M216.49,13l-6-.5Z"/><path class="cls-4" d="M290.06,10.83,290,9.94,294.38,9l.27,1-1.6.82Z"/><path class="cls-7" d="M178.87,140.64l-1.57-2.18.87-1,3,2.41Z"/><path class="cls-6" d="M149.66,130.16l-.8,1.37L145,132.58l-.29-1.1Z"/><path class="cls-4" d="M249,11.43c.36.78.76,1.55,1,2.36,0,.08-.73.42-1.12.64L248,12.37Z"/><path class="cls-4" d="M202.13,12.3l-2.18.17a4.93,4.93,0,0,0,.91-.48,5.63,5.63,0,0,0,.7-.76,1.94,1.94,0,0,0-.07.33c0,.12,0,.27.08.34A5.66,5.66,0,0,0,202.13,12.3Z"/><path class="cls-4" d="M193.82,12.52l-3.63,0Z"/><path class="cls-6" d="M314.22,121.12l3.59-1.53Z"/><path class="cls-6" d="M144.9,129.3c.82-1.36,1.48-3.43,3.21-.71Z"/><path class="cls-6" d="M342.62,119.46l-2.26.12c0-.21,0-.41,0-.62l1.23-1.48Z"/><path class="cls-7" d="M340.32,119c0,.21,0,.41,0,.62l-.58,2-2-2.21Z"/><path class="cls-5" d="M290.06,10.83l3,0-.87,1.43Z"/><path class="cls-6" d="M350.92,114.37l2.95-1.49Z"/><path class="cls-2" d="M296,12.13l-.72,3.2-2-2L296,11.72A.53.53,0,0,0,296,12.13Z"/><path class="cls-5" d="M260.76,9.25,260,8.63l1.61-.9.32.48Z"/><path class="cls-6" d="M315.62,124.44l-1.88-.12-.08-.68,1.83-.46Z"/><path class="cls-7" d="M146.56,135.35l0,1.16-1.17-1Z"/><path class="cls-4" d="M296,12.13a.53.53,0,0,1,0-.41l3.72-.17-1.45.8Z"/><path class="cls-6" d="M346.56,117.44l.76.82c-.23.18-.49.52-.68.48s-.48-.37-.72-.58Z"/><path class="cls-7" d="M366.72,115.82l3-.73Z"/><path class="cls-4" d="M251,9.28l-1.41,1.5Z"/><path class="cls-5" d="M254.7,13.83,253.07,13l.14-.81,1.52.06Z"/><path class="cls-4" d="M208.86,12.43l-1.46-.16Z"/><path class="cls-4" d="M253.21,12.23l-.14.81-1-1.07Z"/></svg>