<svg id="Слой_1" data-name="Слой 1" xmlns="http://www.w3.org/2000/svg" viewBox="0 0 258.89 150"><defs><style>.cls-1{fill:#d03843;}.cls-2{fill:#cd2b37;}.cls-3{fill:#f0f1f0;}.cls-4{fill:#019246;}.cls-5{fill:#0f9851;}.cls-6{fill:#f5faf8;}</style></defs><path class="cls-1" d="M165.48,144.43l-.44-.87.19-.1c.48.14.46.56.49,1Z"/><path class="cls-2" d="M235.48,67.58l.3,0-.73,1.32.1.08.41-.21.12.08-.63,1,.65-.08.06.15a1.58,1.58,0,0,0-.39.24,2.83,2.83,0,0,0-.76,1.94c0,.41-.31.82,0,1.23l-.47.32c0,.68-.07,1.36-.11,2a1.94,1.94,0,0,1-.52,1,7.81,7.81,0,0,0-.72,2l.7-.62.18.13c-.22.37-.48.73-.67,1.11s-.88.86-.65,1.55a6.1,6.1,0,0,0,.38.82c-.66.34-.62.77.17,1.34-.57.16-.63.51-.53,1a1.15,1.15,0,0,1-.2.84A1.94,1.94,0,0,0,231.9,86a5.91,5.91,0,0,1-.68,3.08,8.75,8.75,0,0,0-.57,2.65,8.57,8.57,0,0,0-.21,1c-.05.89-.07,1.78-.11,2.66a5.14,5.14,0,0,1-.13,1.37c-.14.41-.18.74.14,1s.26.59,0,.72c-.48.3-.36.68-.3,1.08a2.38,2.38,0,0,0,.22.83l.49-.46c.15-.13.29-.27.38-.36.07.42.12.72.15,1s0,.32,0,.48c.09.39.18.79.3,1.17,0,0,.28.1.33,0a1.19,1.19,0,0,0,.21-.42l.3.16c0,.23.05.51-.06.67-.64,1-.29,1.9-.09,2.87a2.64,2.64,0,0,1-.06,1.08c0,.11-.26.17-.52.32,0,0,0,.15,0,.31a3.88,3.88,0,0,1,.11.75c0,.44-.22.68-.7.56v0s0,0,0,0a.06.06,0,0,1,0,.1h0c-.27.23-.52.54-.9.11-.15.6,0,.85.59,1,.37.11.87.24,1,.88l-.38-.17-.63.73-.19-.16c.09-.12.23-.23.26-.36a5.93,5.93,0,0,0,0-.73c-.19.08-.37.16-.56.22a1.34,1.34,0,0,0-.87,1.12l-.16,0-.29-.61.49-.4-.14-.14-.45.43c-.29.32-.22.6.34,1l-.55.13.1.11.72.08.07.18-.66.47c-.4.17-.5.48-.34,1l.41-.87c.24.25.5.49.16.85,0,0-.05.08,0,.1.58.85-.44.51-.6.8l-.2-.18c-.52.45-.14,1-.05,1.45s-.32,1.22-.76,1.09-.73-.09-.84.34a3.74,3.74,0,0,0,0,.94,1.31,1.31,0,0,1,0,.17l-.6-.16.26.52h-.32l.15.08c-.55,1-.63,2.22-1.62,2.79l-.14,1.58.36-.81.14,0c0,.18-.1.37-.16.56a4.61,4.61,0,0,0-.3.83c-.06.46-.13.84-.56.82l-1.28,2-.15-.74-1.42,1.51c-.63-.49-1.23-.13-1.88,0l-.16-.4c-.54.11-1.31,0-1.06,1.07l-.62-.41-.18.35-.13,0-.22.78.18.05c.06-.27.12-.53.17-.79.73.5.8,1.07,0,1.71l-1.1-.7-.13,2.18c-.39-.24-.6-.28-.63.17a5,5,0,0,1-.19.9l.35,0-.08.71-.62-.71-.61,1.52-.36-.06-.07-.06.16-.5L214,133l-.55.47c.06-.33.11-.5.12-.67a1.68,1.68,0,0,0,0-.81c-.13-.22-.89,0-1,.25a9.7,9.7,0,0,0-.58,1.22,1.52,1.52,0,0,1-1.66,1c-.2,0-.37-.37-.47-.6-.28-.62-.51-1.27-.8-2a1.06,1.06,0,0,0-.15,1.49,1.54,1.54,0,0,1,0,1.63l-.44-1.94-1.08,1c-.46-1-.6-1-1.5-.25a1.4,1.4,0,0,0-.31.28,2.11,2.11,0,0,1-1.89,1.12c-.23,0-.46.26-.79.47a2.71,2.71,0,0,0-.94-.42,1.33,1.33,0,0,0-.9.4c-.3.32-.51.43-.91.21a.76.76,0,0,0-.64,0c-.84.51-1.69,1-2.48,1.62a5.9,5.9,0,0,0-.85,1.06,2.92,2.92,0,0,1-1.61,1.1,4,4,0,0,0-.78.41c-.16-.18-.43-.59-.93-.2-.5-.45-.6.12-.9.29a2.6,2.6,0,0,1-1,.13l-.36.07.18-.58c.16.1.29.24.38.23a3.61,3.61,0,0,0,.61-.26c-.12-.14-.23-.29-.36-.42s-.32-.22-.39-.37-.2-.59-.32-.88a4.6,4.6,0,0,0-.32-.45l-.51.39c-.23-.24-.48-.51-.74-.76s-.32-.35-.39-.32-.43.29-.42.43c.06.77-.55.78-1,1a.86.86,0,0,0-.43.48l-1,.25.09-.74-.15-.09-.65.56.72.27a2.86,2.86,0,0,1-2.34,1.3,5.12,5.12,0,0,1-1.75-.06c-.42-.12-.74-.57-1.1-.91-.15-.11-.29-.3-.46-.32a3,3,0,0,0-.84.11c-.22-1-.46-2-.67-3-.06-.29,0-.62-.06-.91a1.79,1.79,0,0,0-.35-.54c.09-.13.32-.3.31-.46a2,2,0,0,0-.28-.71c-.28.21-.65.36-.81.64a11.54,11.54,0,0,0-.61,1.42l.23.5c-.13,0-.27.13-.4.1a1.64,1.64,0,0,0-1.64.74,1.31,1.31,0,0,1-.7.46c-.49.11-.6-.06-.49-.55a3.42,3.42,0,0,0,.54-.18s0-.26,0-.26a5.17,5.17,0,0,0-.55-.07c-.2,0-.39,0-.59,0h-1.55l-.77-.86a1.35,1.35,0,0,0,0,2c.19.27.11.73.16,1.1l-.16.1a7.8,7.8,0,0,1-.57-.58,11.34,11.34,0,0,1-1.06-1.34c-.25-.41-.35-.92-.6-1.34a3.47,3.47,0,0,0-.72-.71c.3-.41.26-.58-.3-.92-.57.5-.59.9-.17,1.23l-.34,1.46a6.05,6.05,0,0,0-1,0,4,4,0,0,0,0,.63l-.71.05c.29,1.06-.94,1-1.13,1.74-.66-.25-1.32-.36-1.51-1.16a4.46,4.46,0,0,0-1.09,0l-.72-2.29-.65.45-.18-.17c.16-.17.3-.35.46-.51.31-.27,1-.29.56-1-.11-.21.13-.67-.24-.91l-.47.53-.15,0-.09-1.1-.4.18-1-.19c-.27.79-1,.91-1.67,1.09l-.37-.51a2.58,2.58,0,0,0-.51.59,9,9,0,0,0-.36,1.29l-.22-.43a3.64,3.64,0,0,0-.44,1.16,5.37,5.37,0,0,0,.37,1.31,2.43,2.43,0,0,1,0,.47,1.79,1.79,0,0,0-.46,0,2.75,2.75,0,0,0-1,.21c-.32.2-.56.38-1,.19a2.15,2.15,0,0,0-.77,0l0-.52c-.37.14-.7.29-1,.39,0,0-.15-.19-.31-.4.84,0,1.09-.46,1.36-1.08.07.15.21.31.2.46,0,.58.18.88.84.84.34-.16-.12-1,.66-1l-.22-.9H152.6l-.44-.62a1.58,1.58,0,0,0,.37-1.8l-.47.74-.15-.07c0-.14.07-.28.11-.41s.15-.27.13-.39c-.21-1.35-.45-2.71-.68-4.07-.14-.6-.48-1.18-.23-1.83.56-1.46.34-3,.48-4.51.17-.74.35-1.49.54-2.28-.06-.13-.25-.36-.24-.57a6.08,6.08,0,0,0-.76-3c0-.81.07-1.63.12-2.44a.94.94,0,0,1,.14-.5c.29-.43.61-.84.94-1.27l-.22-.11.23-.83-.21-.06-.18.38-.16,0a4.2,4.2,0,0,1,.17-1,4.13,4.13,0,0,1,.63-.83l-.57.1,0-.1.69-.28a1.71,1.71,0,0,1-.08-.47c.08-.69.25-1.37.27-2.06,0-1-.05-2.11,0-3.16,0-1.67.09-3.34.13-5v0l.05-.55c.23-1.7.48-3.4.68-5.11.1-.86.1-1.73.15-2.59,0-.43.12-.86.13-1.29,0-1.08-.06-2.15,0-3.22a4.57,4.57,0,0,0-.27-2.4c.09-1.22.09-2.47.27-3.68.2-1.38-.25-2.81.3-4.16,0,0,0,0,0-.06,0-.4.07-.81.11-1.21.05-.56.12-1.12.15-1.68,0-.13-.12-.27-.18-.41s-.13-.24-.09-.33c.66-1.58.3-3.26.52-4.89.19-1.45.23-2.93.36-4.39.07-.84.17-1.67.31-2.49a7.35,7.35,0,0,0,.07-3.81.67.67,0,0,1,.12-.5,2.74,2.74,0,0,0,.08-2.82.74.74,0,0,1,.08-.65c.1-.1.41,0,.71,0l.24-.66c-.43.19-1,0-1.1-.25s-.25-.65-.44-1.13l.85-.63-.6-.74-.24.9-.45-.39c-.16.41-.3.78-.43,1.14-.33.9-.19,1.22.7,1.55-.11.39-.32.57-.74.38a6,6,0,0,1-.79-.33c-.41-.25-.79-.53-1.28-.87l.81-.23h.3l.42.1c.41-1.14.41-1.18,0-1.41l.47-1c-1.82-.21-1.85,1.18-2.08,2.23l-.85-.08c.25-.55.5-1,.71-1.57.08-.21.19-.57.09-.66-1.07-1-.4-2.17-.37-3.26a13.8,13.8,0,0,1,.3-1.39,1.8,1.8,0,0,1,.71-1.42c.17-.11.22-.43.28-.67s-.06-.52.05-.71a1.7,1.7,0,0,0-.11-1.79,1.13,1.13,0,0,1,0-.75,4,4,0,0,1,.39-.74c.47.22.44-.21.49-.49.13-.65.24-1.31.36-2l1.45.2a.43.43,0,0,0-.1-.69.49.49,0,0,1-.1-.45,7.25,7.25,0,0,1,.57-.81l-.07-1.22-.69.4h-.07c0-.77.32-1.05,1-1,.12,0,.28-.14.4-.24.39-.35.77-.71,1.15-1.07l.09.08-.19.71c1.07-.54,2.4-.44,2.93-1.73l.21.45.84-.68.46.23-.19-.83.53-.23c.2-.18.49-.33.58-.55.36-.93.66-1.88,1-2.82h0c.23-.41.44-.84.7-1.24s.48-.61.76-1c0-1.07.87-1.89,1.18-2.94h0l.06.55c.1-.41.67-.65.28-1.23-.23-.35.14-.69,1-1l.11,1.4-.27-.35-.17.08a2.35,2.35,0,0,0,.35.71c.07.07.42-.05.59-.17.79-.51,1.54-1.07,2.33-1.58.35-.22.64-.41.47-.71l1.82-1.13c.44-.27.86-.56,1.32-.79.15-.07.39.06.59.09a1.73,1.73,0,0,1-.3.43c-.35.25-.75.45-1.1.71a.58.58,0,0,0-.09,1c.44-.13.84-.26,1.26-.37a1,1,0,0,1,.42,0,1.15,1.15,0,0,0,1.39-.66,8.42,8.42,0,0,0,.42-.92,4.19,4.19,0,0,0,.15-.8l-.14-.08c.12-.05.24-.14.35-.13a.67.67,0,0,0,.74-.5c.14-.32.62-.5,1-.71.07,0,.29,0,.31.08a.4.4,0,0,1,0,.37,7.25,7.25,0,0,1-.77.6,10.82,10.82,0,0,0,1.45.28c.2,0,.41-.23.61-.36l-.05-.16,1.14.23.05-.08-.44-.29.86-.44a2.34,2.34,0,0,1,.17-.92c.25-.41.29-.66-.3-.85l.79-.62v1.56l.46-.85.67,1.47-1,.35.07.21c.13,0,.25,0,.37-.06.85-.21,1.69-.44,2.54-.63a1,1,0,0,0,.89-.94c0-.67.22-1.28,1.17-1.22-.09.12-.16.29-.28.34-.66.27-.71.39-.34,1a.46.46,0,0,0,.21.21l.06-.7.45,0c.67,0,.89-.34.75-1,0-.17.11-.37.17-.56a4.25,4.25,0,0,1,.52.27c.19.13.34.32.53.43a1.29,1.29,0,0,1,.68,1.42l.43-.38c.29-.24.53-.16.77.1s.59.55.9.83c-.28.19-.36.43-.15.92.11.29-.31.86-.6,1.22s-.95.77-.84,1.49l1.5-1-.12,1.2c-.19.34-.41.56-.41.77s.73.54,1.1.42l-1.14.55c.51.48,1,.4,1.79-.3l-.47-.27c.48,0,.72-.25.69-.77a2.88,2.88,0,0,1,.12-.74c.42.58.42.58.08,1.73l3.89-.36,0-.17-1.19.17-.07-.13.8-.44c0-.37-.9-.2-.6-.89a1.74,1.74,0,0,0,1.88.6c1.06-.14,2.11-.41,3.18-.48s1.95-.05,2.92-.19a1.44,1.44,0,0,1,.88.24c-.13,0-.28.11-.4.08a1.44,1.44,0,0,0-1.27.2c-.12.09-.37,0-.55,0l-3.62.5v.2l.64.14-1.46.51.05.18c1.17,0,2.28-.45,3.47-.45a14.25,14.25,0,0,1,3.53.37c1.16.3,2.27.78,3.46,1.2l-.38.62.08.17c.22-.08.44-.18.66-.25a4.2,4.2,0,0,1,.59-.14,10.17,10.17,0,0,0,1.11-.11c.56-.13,1.1-.32,1.65-.47.08,0,.19,0,.3.17l-1,.25,0,.09,1.46-.08,0,.24-.8.26,0,.13c.49,0,1,.11,1.48.11,1.35,0,2.7-.07,4.05-.07a5.1,5.1,0,0,1,2.19.13c1.39.7,2.78.4,4.19.4.24,0,.53.29.7.52a.62.62,0,0,1-.15.58,11.69,11.69,0,0,1-1.26.74v-.77l-1.6-.45s-.06.09-.08.13a2.54,2.54,0,0,1,.56.44c0,.06-.17.3-.29.51-.28-.24-.35-.86-.84-.32a1.46,1.46,0,0,0-1.63-1.11c-.86,0-1.71-.08-2.57-.1a6.16,6.16,0,0,0-.77.12,2,2,0,0,0,1.5.57c.48,0,1-.06.91.73,0,.07.24.2.39.26.62.24,1.25.45,1.87.68l0,.19L221.5,25l-3-.29a.67.67,0,0,0-.4.06,1.55,1.55,0,0,0-.31.36,1.64,1.64,0,0,0,.4.12,10.27,10.27,0,0,1,2.21-.06c.39.07.77.37,1.23.37s1,0,1.49.06a.6.6,0,0,0,.39-.08c.46-.45.76-.26,1.13.14a1.47,1.47,0,0,0,.87.4c.66.06,1.32,0,2,0a.44.44,0,0,1,.36.15l-.62.22-.06.2,1.16.42-.26.42c.75.31,1.62-.33,2.3.34.55-.45.8-.42,1.09,0l3.56-.31c0,1.24,1.33.56,1.86,1.17-.14.11-.29.2-.41.31-.51.49-.81.5-1.37.06-.16-.13-.46-.27-.6-.21a1.56,1.56,0,0,1-1,0,3.68,3.68,0,0,0-1.81.47,3.55,3.55,0,0,0,3.3.39s0,0,.05.05c-.38.33-.29.6.14.72a12.91,12.91,0,0,0,2,.4c.2,0,.43-.26.68-.43.06.07.17.13.18.21.1.51.44.51.86.5a6.49,6.49,0,0,1,1.15.16l0,.17c-.43,0-.85,0-1.28,0s-.58.1-.54.44c0,.13.3.31.47.33a2,2,0,0,1,1.61.86c.07.11.27.13.41.19.37.16.88.23,1.08.51a4.27,4.27,0,0,0,1.93,1.22c.5.25.92.65,1.4.94a4.15,4.15,0,0,0,1,.48,1.27,1.27,0,0,1,.9,1.38c-.75-.42-1.5-.8-2.39-.16l1,1.05-.08.09c-.06,0-.15,0-.18,0-.45-.61-.94-.33-1.5,0a3.74,3.74,0,0,1,2.21,1.51,7.25,7.25,0,0,1,.75,1.19c.23.44.44.89.63,1.34a9.81,9.81,0,0,1,.37,1.08c.05.21,0,.46.1.64a.68.68,0,0,1-.09.85,1.12,1.12,0,0,0-.09.67c0,.27.07.55.11.87l-.68.05.18.78-.82.17a6.64,6.64,0,0,1-.1,1,7.47,7.47,0,0,1-.38,1c-.24.61-.5,1.21-.69,1.83,0,.15.11.41.23.57a.65.65,0,0,1,0,1c-.4.46-1,.79-1.05,1.53,0,.23-.63.4-.42.81l-1.37,1.71.05-.48c-.41.44-.83.83-1.18,1.27a1.71,1.71,0,0,0-.21.66c-.13.46-.24.93-.39,1.39s-.38,1.2-.59,1.78a5.52,5.52,0,0,1-.35.68c.37.37-.16.67-.3,1.06l-.4-1.49h-.26a8.72,8.72,0,0,1,0,.89c-.06.47.55,1.08-.26,1.43-.05,0,0,.24,0,.36s0,.47.08.72l-.78-.27-.21-.68-.16.05.16.42h-.42A1.89,1.89,0,0,1,236.05,67c-.3.09-.65.15-.61.59l-.07.09Zm-80.69-22,.39-.16-.55-.56V43.2l-.18,0c-.13.85-1.46,1.09-1,2.32l.68-.94.15.06c0,.2-.09.39-.1.58a3,3,0,0,0,.09.52l-.17.15c-.74-.3-.79.57-1.28.69v.16l1.3.3.16.88h.2l.06-1.11,1.17-.62L155.6,46l-.72.1-.2-.36Zm67.73-17.36a1.37,1.37,0,0,1,.19-.48c.39-.4.14-.51-.24-.62a2.56,2.56,0,0,0-2.32.36.74.74,0,0,0-.32.49c0,.28.1.6.51.58s.94,0,1-.6ZM158.17,40l-.2-.11-.57,1c-.21.13-.43.18-.47.3-.18.53-.31,1.07-.46,1.62C157.29,42.8,158.22,41.22,158.17,40Zm-2.3,7.2.21-.07a3.22,3.22,0,0,0,.68.17.41.41,0,0,0,.34-.22,11.26,11.26,0,0,0,.11-1.14c-.53-.26-.82.06-1,.37A2.94,2.94,0,0,0,155.87,47.24Zm53.7-26.1-.1-.22-.81.47-.39.21a2,2,0,0,0-.54.31.7.7,0,0,1-.87.22,6.64,6.64,0,0,0-1-.15l0,.18,1.33.32a.27.27,0,0,0,.17,0l1.87-.76-.14-.25ZM156.79,52.39c.67-.89-.06-1.65.05-2.45h-.22l-.1,1.56.29.14-.55.47Zm30.5-36,.11-.27-.83-.79-1,.71ZM215,26.9v.15c.64,0,1.28.08,1.92.09,0,0,.18-.25.16-.37s-.21-.28-.3-.27C216.17,26.61,215.58,26.76,215,26.9ZM158.66,131.69c.08.68.69.64,1.12.88C159.87,131.84,159.55,131.6,158.66,131.69Zm-5.37-82.13.4-1.41a3.94,3.94,0,0,1-.62.2,3.77,3.77,0,0,1-.65,0Zm88.1-13.4-.12.18a2.89,2.89,0,0,0,.67.6c.15.06.41-.12.62-.19-.13-.14-.24-.35-.4-.42A3.2,3.2,0,0,0,241.39,36.16ZM166.82,22.64l.24.18c.29-.35.6-.68.87-1.05,0-.07,0-.24,0-.36s-.31,0-.36.06C167.27,21.85,167.05,22.25,166.82,22.64ZM159,33.14c-.43.21-.86.4-1.27.63-.08,0-.08.23-.11.35.3,0,.67.05.88-.1S158.82,33.47,159,33.14Zm80.52,26.67,1.05-.74-1.44-.2Zm5.1-21.64,0-.14-1.11-.76.13.9Zm-91.68,9.09-.81.65.08.17,1.36-.55-.05-.16Zm64-22.36-.7.9,1.16.06Zm2.91,1.42.06-.17c-.14-.07-.33-.24-.42-.2a9,9,0,0,0-1,.58C219.13,27.1,219.39,26.19,219.85,26.32Zm3.85,1.57.78-.81-.12-.22-.89.38Zm6.62,80.27,0,.26,1.25-.18,0-.24C231.17,108.32,230.71,107.46,230.32,108.16ZM156.71,33.75a1.1,1.1,0,0,0,.91-1.3ZM164.07,138c.81-.3,1-.62.73-1.24Zm74.24-74.6-.18-.14-.47.59.65.26Zm-15.59,62,.15,0,0-1c-.12.08-.33.16-.33.23A6.12,6.12,0,0,0,222.72,125.44Z"/><path class="cls-3" d="M157.93,31.42c-.38.36-.76.72-1.15,1.07-.12.1-.28.25-.4.24-.72-.07-1,.21-1,1-.09.24-.17.49-.27.81l.74-.21-.4-.6.69-.4.07,1.22a7.25,7.25,0,0,0-.57.81.49.49,0,0,0,.1.45.43.43,0,0,1,.1.69l-1.45-.2c-.12.72-.23,1.38-.36,2-.05.28,0,.71-.49.49a4,4,0,0,0-.39.74,1.13,1.13,0,0,0,0,.75,1.7,1.7,0,0,1,.11,1.79c-.11.19,0,.48-.05.71s-.11.56-.28.67a1.8,1.8,0,0,0-.71,1.42,13.8,13.8,0,0,0-.3,1.39c0,1.09-.7,2.27.37,3.26.1.09,0,.45-.09.66-.21.52-.46,1-.71,1.57l.85.08c.23-1.05.26-2.44,2.08-2.23l-.47,1c.42.23.42.27,0,1.41l-.42-.1V50.14l-.18,0L153,51l.16,0-.29.37.29.45-.81.23c.49.34.87.62,1.28.87a6,6,0,0,0,.79.33c.42.19.63,0,.74-.38-.89-.33-1-.65-.7-1.55.13-.36.27-.73.43-1.14l.45.39.24-.9.6.74-.85.63c.19.48.32.81.44,1.13s.67.44,1.1.25l-.24.66c-.3,0-.61-.08-.71,0a.74.74,0,0,0-.08.65,2.74,2.74,0,0,1-.08,2.82.67.67,0,0,0-.12.5,7.35,7.35,0,0,1-.07,3.81c-.14.82-.24,1.65-.31,2.49-.13,1.46-.17,2.94-.36,4.39-.22,1.63.14,3.31-.52,4.89,0,.09.05.22.09.33s.19.28.18.41c0,.56-.1,1.12-.15,1.68,0,.4-.07.81-.11,1.21,0,0,0,0,0,.06-.55,1.35-.1,2.78-.3,4.16-.18,1.21-.18,2.46-.27,3.68l-.48,1.21-.12-.21a1.2,1.2,0,0,0-.09,1.48c.1.19.25.45.19.6-.27.68.24,1.2.32,1.83a1.74,1.74,0,0,0-.91,1.82,1.93,1.93,0,0,1,0,.41c-.08,1.26-.16,2.51-.25,3.9l-.84.18c.16.22.41.43.44.65a11.44,11.44,0,0,1,.09,2.26c-.08.91,0,1.06.9,1.08,0,1.67-.11,3.34-.13,5,0,1,.07,2.11,0,3.16,0,.69-.19,1.37-.27,2.06a1.71,1.71,0,0,0,.08.47l-.69.28,0,.1.57-.1a4.13,4.13,0,0,0-.63.83,4.2,4.2,0,0,0-.17,1l.16,0,.18-.38.21.06-.23.83.22.11c-.33.43-.65.84-.94,1.27a.94.94,0,0,0-.14.5c0,.81-.09,1.63-.12,2.44a7,7,0,0,0-.06,2.23,11.67,11.67,0,0,1,.29,2.81,3,3,0,0,0,.23.76c-.14,1.51.08,3-.48,4.51-.25.65.09,1.23.23,1.83-.65.4-1.55.18-2.12.9-.15.19-.77.16-1.1,0a8.82,8.82,0,0,0-3.07-.18c-.08,0-.27.19-.25.26,0,.22.13.53.29.6.35.16.38.31.32.68a2.06,2.06,0,0,1-1,1.78c.4.34.73.6,1,.89a4,4,0,0,1,.29.49,7.57,7.57,0,0,0,.81,1c.1.09.4,0,.6,0a2.53,2.53,0,0,0,.36-.12,5,5,0,0,1,.2.66c0,.07-.11.22-.2.24a13.32,13.32,0,0,1-2.24.47,6.07,6.07,0,0,1-1.52-.32c-.24,0-.5-.08-.74-.11l-.77-.11-.25.86-.33-.5a2.06,2.06,0,0,1-1.47,1c-.28.06-.58,0-.86.07a1.32,1.32,0,0,0-.55.31c-1.23,0-2.33-1.25-3.71-.28a2.19,2.19,0,0,1-.07-.37.71.71,0,0,1,0-.21c-.06,0-.09-.08-.12-.08-1.09-.05-2.18-.12-3.28-.13a13.24,13.24,0,0,0-6.8,2,2.55,2.55,0,0,1-1.59.59.61.61,0,0,0-.43.15,4.57,4.57,0,0,1-3,.9,2.44,2.44,0,0,1-2-.88,7,7,0,0,0-1.76-1.27,7.13,7.13,0,0,1-2.32-2.18c-.74-1-1.41-2.09-2.1-3.14a2.16,2.16,0,0,0-1.32-1,1.18,1.18,0,0,1-.54-.35c-.74-.69-1.46-1.4-2.2-2.1a.7.7,0,0,0-.34-.2,2.94,2.94,0,0,0-.59,0c.13.13.25.27.39.39l.92.86c.46.41.93.83,1.41,1.22a7,7,0,0,0,.72.49l0,.17c-.16,0-.35.09-.46,0-.86-.47-1.71-1-2.55-1.45a4.85,4.85,0,0,0-.84-.55c-.84-.29-1.69-.52-2.54-.77a2.66,2.66,0,0,1-.5-.16,4.59,4.59,0,0,0-2.51-.29c-.67.07-.91.47-.77,1.12.25,1.16-.06,1.74-1.26,2.23-.64.26-1.24.48-1.4,1.28-.07.34-1.27.66-1.66.57a11.33,11.33,0,0,0-1.3-.2c-.59-.08-1.18-.13-1.89-.21-.27.24-.27.24-1.75.21,0-.22,0-.45,0-.68a.89.89,0,0,0-.18-.47c-.59-.55-.6-.54-.34-1.27l-.6-.3c.13-.09.22-.11.25-.17s.13-.3.2-.45a2.17,2.17,0,0,0-.57,0c-.11,0-.17.25-.28.28a.48.48,0,0,1-.43-.08.71.71,0,0,1-.15-.52c.11-.5.32-1,.41-1.49a.74.74,0,0,0-.3-.61c-.17-.1-.47,0-.79,0-1-1-.47-2.3-.4-3.55,0-.86.1-1.72.21-2.57.07-.62.29-1.22.36-1.84a2,2,0,0,0-.22-.91c-.13-.32-.39-.6-.51-.93-.06-.17.06-.41.09-.62a1.21,1.21,0,0,0,0-.42c-.15-.82-.34-1.64-.5-2.46,0-.21,0-.44,0-.66-.09-1.17-.19-2.34-.29-3.51-.06-1.76-.12-3.51-.19-5.26a.2.2,0,0,0,0-.11,1.07,1.07,0,0,1,0-1.14,7.41,7.41,0,0,0,.58-2.71,16,16,0,0,0-.35-2.84c-.48-.13-1,.2-1.44-.36l.83.09.28-2.14.51-1.55c.11.69.49.67.83.55s.33-.47.27-.84A8.67,8.67,0,0,1,88,93.31a10.62,10.62,0,0,0,.16-3A5.94,5.94,0,0,1,88,88.07a17.32,17.32,0,0,0,.07-2.5c0-.11-.27-.22-.41-.33a3.75,3.75,0,0,0,0-.95c-.32-1.1-.71-2.17-1-3.27-.44-1.55-.85-3.1-1.23-4.67s-.74-3.2-1.07-4.82c-.1-.52-.3-1.21-.06-1.56a4.7,4.7,0,0,0,.5-1.85c0-.17.3-.28.43-.43a2.1,2.1,0,0,0,.5-.67,7.57,7.57,0,0,0,.19-1.44c.12-1.67.77-3.28.5-5A13.07,13.07,0,0,1,86.4,58a1.9,1.9,0,0,1,.1-.28c.12-.33.27-.67.36-1a2.17,2.17,0,0,1,1.07-1.27,2.46,2.46,0,0,0,.73-1.06,3,3,0,0,0,.06-.85c.09-.71.22-1.41.29-2.12,0-.28-.09-.58-.07-.87.08-.73.2-1.46.3-2.19a1,1,0,0,0-.28-1c-.15-.13-.14-.44-.23-.76l.77.13.08-1.61-.6,0c.86-.22,1.11-.77.79-1.41,0,0,.07-.16.11-.24l0,.1.06-.06-.09,0c.07-.12.12-.33.22-.35.53-.11.47-.56.58-.91s.13-.44.19-.65c-.43,0-.45,0-.4.46.07.64-.1.83-.62.66l.24-.67-.37-.3c.41,0,.4-.25.35-.56a3.82,3.82,0,0,0,.64.13,3,3,0,0,0,.58-.12l-.42-.45.79-.5c-.16-.33,0-.53.29-.67a.89.89,0,0,0,.7-.82c0-.24.3-.48.49-.7.46-.52,1.22-.79,1.36-1.58a5,5,0,0,0,2.36-2.68c.07-.21.4-.37.63-.48s.5-.38.32-.77l-1.2.51a.28.28,0,0,0-.13.19c0,.43-.11.73-.6.78-.06,0-.1.19-.15.3-.47.22-1.11-.41-1.48.41l-.13-.7c-.37.29-.79.46-.9.75-.19.5-.53.56-.94.59s-.87.08-1.31.08a3.49,3.49,0,0,1-.73-.14c.38-1.25,1.77-1.66,2.09-2.85a2.65,2.65,0,0,0,.75-.38c.7-.65,1.36-1.34,2-2a1.83,1.83,0,0,0,.51-.83c.09-.53.2-.93.85-.91.07,0,.15-.14.22-.22.35-.58.73-1.15,1-1.76.19-.41.28-.76.86-.81.28,0,.52-.52.77-.81.66-.74,1.31-1.5,2-2.24a4,4,0,0,1,.52-.45c-.37-.47-.15-.73.33-.91.68-.25,1.35-.51,2-.82.19-.09.28-.39.44-.56a3,3,0,0,1,.57-.49,1.56,1.56,0,0,1,.59-.22,2,2,0,0,1,1.07,0,.82.82,0,0,0,1-.05,4,4,0,0,1,2-.89c.2,0,.43-.35.6-.57,0,0-.2-.27-.37-.49l1.67-1.23c.16.34.37.5.75.17.13-.12.37-.11.56-.16-.09-.51-.11-.52-.72-.35.06-.28.57-.61.85-.48s.53.29.15.6c0,0,0,.11,0,.15.35.39,0,.47-.25.64a1.59,1.59,0,0,0-.44.49s.22.32.29.3a1.85,1.85,0,0,0,.71-.33,12.13,12.13,0,0,1,1.18-1,.62.62,0,0,1,.92.24c.06.14.17.34.28.36.52.1,1,.82,1.6.14l-.26-.4A1.87,1.87,0,0,0,118,16c.12-.05.19-.22.28-.33s.1-.24.19-.27a.47.47,0,0,1,.37,0c.27.14.52.32.79.48l-1.54,2c.57.63,1,.65,1.2.06.13-.34.3-.47.59-.37s.28.28.48.5c.07-.09.17-.24.29-.37s.41-.38.62-.57.28-.16.3-.26c.17-.85.74-.42,1.2-.5-.11.63-1.25.48-.92,1.3l2.53-1.15c.36.4.33.55-.31,1l.91.15c.27-.46-.46-1.11.44-1.32l-.08-.65a3.34,3.34,0,0,1,.8.23c.37.2.71.47,1.12.75-.17.38.1.61.57.74.69.19,1.36.41,2,.58a.5.5,0,0,0,.42-.1c.16-.51.44-.25.77-.24a2.78,2.78,0,0,0,1.32-.45c.27-.15.42-.4.72,0,.08.11.37.11.56.11l4.39-.25c-.15-.8,0-1,.66-.94,1.34.08,2.68.22,4,.32a2.35,2.35,0,0,0,.57-.11L142,15l.11-.21c1.26.43,2.5.67,3.63-.33l-.29-.34c.16-.27,1.58.3,1.86.75l-1,.09-.11.15a3,3,0,0,0,.65.5c.44.16.67,0,1-.53.56.15.69.35.49.81l1-.65.17.13c-.58.41-.31.84-.15,1.29,0,.12-.1.3-.17.47l.88.51.33-.65c.25.46-.26,1.18.41,1.22a3.43,3.43,0,0,0,.73-.39.57.57,0,0,0,.1-.5,3.93,3.93,0,0,0-.48-.75l.8-.59-.3-.43h.26c1.17.09,1.7.91,2.08,1.87.07.18,0,.44-.09.78l.46-.36a4.79,4.79,0,0,0,.91.49,4,4,0,0,0,1,0c.63-.68.76-.66,1.1.32l.52-.43.11,0-.55,1.36-.61-.42-.14.52-.78-.16h0l-.38-.94-.21.05c0,.54,0,1.08,0,1.62a.29.29,0,0,0,.16.21c.57.13.55.54.52,1-.74.07-.81.16-.61.91.1.36.24.71.36,1l-.29.38h.42c.87,0,1.39-.69,2.05-1.1,0,0,0,0,0,0l1.33-.28c.11.27-.72.62.09.79l-.15.49,1-.76.73.12.15-1.06,1.08,1.51a4.59,4.59,0,0,1,0,1.29,6.68,6.68,0,0,1-.72,1.34c-.05.09-.2.13-.26.22a4.79,4.79,0,0,0,0,2.32h1.15l.2.75-.53.23.19.83-.46-.23-.84.68-.21-.45c-.53,1.29-1.86,1.19-2.93,1.73.08-.28.13-.49.19-.71,0-.05,0-.09,0-.14ZM105,129c-.23-.75-.32-1.49-1.22-1.52a5.52,5.52,0,0,0-1.21.12c-.5.1-1,.32-1.49-.45a4.19,4.19,0,0,0-.52.78.88.88,0,0,0,0,.7c.12.13.46.13.69.11.91-.11,1.81-.53,2.75-.19C104.3,128.62,104.59,128.78,105,129ZM154.86,63l.2-.05a1.74,1.74,0,0,0,0-.51c-.41-1.32-.84-2.64-1.25-4a6.45,6.45,0,0,1-.11-.73l-.3-.08,0,.06C153.39,59.66,154.26,61.3,154.86,63Zm-.31-8a3.47,3.47,0,0,0,0-.89,2,2,0,0,0-.32-.59c-.15.16-.37.29-.44.47C153.66,54.51,154,54.91,154.55,55Zm1.92-25.11-.11,0-.79,2.38.17.1c.17-.2.46-.37.51-.59C156.37,31.13,156.4,30.5,156.47,29.89Zm-6.11,93.59L150,125l.21.12a5.08,5.08,0,0,0,.71-1C151,124,150.59,123.72,150.36,123.48ZM146,54.07c.37.09.55-.12.67-.45l.43-1.17c-.13.06-.44.1-.53.27A9,9,0,0,0,146,54.07ZM152.83,60l.3-.11-.34-1,.29-.24-.72-.1Zm7.24-29.53c-1.17.26-1.18.28-.87,1Z"/><path class="cls-4" d="M96.67,28c-.07.08-.15.23-.22.22-.65,0-.76.38-.85.91a1.83,1.83,0,0,1-.51.83c-.64.69-1.3,1.38-2,2a2.65,2.65,0,0,1-.75.38C92,33.54,90.63,34,90.25,35.2a3.49,3.49,0,0,0,.73.14c.44,0,.87,0,1.31-.08s.75-.09.94-.59c.11-.29.53-.46.9-.75l.13.7c.37-.82,1-.19,1.48-.41l-.13.84-.14-.15a3,3,0,0,0-1.08.5c-.14.16.07.63.12,1-.14.79-.9,1.06-1.36,1.58-.19.22-.47.46-.49.7a.89.89,0,0,1-.7.82c-.34.14-.45.34-.29.67l-.79.5.42.45a3,3,0,0,1-.58.12,3.82,3.82,0,0,1-.64-.13c0,.31.06.58-.35.56l.37.3-.24.67c.52.17.69,0,.62-.66,0-.44,0-.46.4-.46-.06.21-.13.43-.19.65s0,.8-.58.91c-.1,0-.15.23-.22.35h0c0,.08-.14.19-.11.24.32.64.07,1.19-.79,1.41l.6,0L89.5,46.7l-.77-.13c.09.32.08.63.23.76a1,1,0,0,1,.28,1c-.1.73-.22,1.46-.3,2.19,0,.29.1.59.07.87-.07.71-.2,1.41-.29,2.12a3,3,0,0,1-.06.85,2.46,2.46,0,0,1-.73,1.06,2.17,2.17,0,0,0-1.07,1.27c-.09.34-.24.68-.36,1a1.9,1.9,0,0,0-.1.28,13.07,13.07,0,0,0-.08,2.57c.27,1.73-.38,3.34-.5,5A7.57,7.57,0,0,1,85.63,67a2.1,2.1,0,0,1-.5.67c-.13.15-.39.26-.43.43A4.7,4.7,0,0,1,84.2,70c-.24.35,0,1,.06,1.56.33,1.62.68,3.23,1.07,4.82s.79,3.12,1.23,4.67c.31,1.1.7,2.17,1,3.27a3.75,3.75,0,0,1,0,.95,3.47,3.47,0,0,1-1,2c.64.11.58.6.57,1.06a8.94,8.94,0,0,0-.08,1.36,2.56,2.56,0,0,1,0,1.23l-.3.82-.17,0c0-.24,0-.47,0-.71s0-.45-.07-.71a1.77,1.77,0,0,0-.07,2.05l-.9,1.16c.46.45.63-.17.91-.33-.09,1.2-.18,2.37-.27,3.54,0,.06.08.12.12.18L86.13,99l-.83-.09c.44.56,1,.23,1.44.36a16,16,0,0,1,.35,2.84,7.41,7.41,0,0,1-.58,2.71,1.07,1.07,0,0,0,0,1.14.2.2,0,0,1,0,.11c.07,1.75.13,3.5.19,5.26l-.18.61c-.06.19-.14.38-.2.56l-.6-.53c0,.32-.06.57,0,.81s.06.6.09.9l-.15,0L86,114a1.91,1.91,0,0,1-1.4.65,8.47,8.47,0,0,0-1-.19l.06,1.22h.15l.29-.71.27.23-.23-.33c.06,0,.09-.06.12,0,.58.11.15.59.37.89l-1.1.33a2.79,2.79,0,0,0,1.26,2.13l.16,1.38a9.88,9.88,0,0,0-.61-1.05,6.09,6.09,0,0,0-.77-.75l-.44.59-.16-.1.66-1.15-.13-.08-.9.41c-.13.54-.28,1.11-.4,1.69-.06.34.07.78-.11,1-.33.43-.06.77,0,1.15a2.27,2.27,0,0,1-.1,1.17c-.34.6.32.9.29,1.38,0,0,.25.12.5.24-.65.3-1,.72-.92,1.41h0l-.14.13h0c-.42,0-.63.43-.55,1s.13,1.15.2,1.72l-.3.1L79.81,126l.19-.46,1.13.25a5.26,5.26,0,0,1-.27-.59.49.49,0,0,1,.42-.69c.17,0,.42-.22.42-.32a.78.78,0,0,0-.3-.55c-1-.65-1-.63-.75-1.83,0,0,0-.11,0-.17l-.18,0c-.07.23-.13.47-.21.71a1.83,1.83,0,0,1-.25.57c0,.06-.32,0-.36,0a1.31,1.31,0,0,1-.18-.58c0-.42,0-.84,0-1.27l1,.4a2.42,2.42,0,0,0-.18-.74c-.23-.34-.32-.59.17-.69l-.38-1.49a3.73,3.73,0,0,0-.07-2.59l-.77.58.12.05-.6,1-.19,0c.1-1-.74-.65-1.17-.92-.1.38.62.69.09,1l.44,1.57-.46,1.44c.24.29,1-.06.83.78a4.28,4.28,0,0,0,.48-.29c.19-.14.52-.19.62-.06a9.46,9.46,0,0,0-.74,1c-.29.52.18.53.52.59a1.94,1.94,0,0,0-.2.42c-.07.72-.12,1.43-.18,2.15a.66.66,0,0,0,0,.28.94.94,0,0,1-.51,1.41c.25.83.16,1-.45.9a5.19,5.19,0,0,1-.74,1.49,6.76,6.76,0,0,1-1.57.89l1.18.69a2.83,2.83,0,0,1-1.68.89l.29-.54-.58-.37a8.77,8.77,0,0,1-.76-.56c-.1-.08-.21-.27-.18-.35.21-.49-.15-.67-.47-1v1l-.18.08-.75-1.48.23-.64.61.27.7-.81-.93-.3c-.26.74-.4.78-.93.26.53-.28.53-.28.4-.64-.58.31-1.06.27-1.33-.14s.37-.55.39-.92c.55.38,1.48-.25,1.72.76l.08-.61.53.24,0-.57H72.2l-.06-.18a3.06,3.06,0,0,1,.85-.42,1.18,1.18,0,0,0,.9-1.72,3.22,3.22,0,0,0-.21-.34c.44-.12.91-.22.46-.79,0-.06.1-.28.15-.42l.31-.88a4.08,4.08,0,0,0-1.48.11,1.62,1.62,0,0,0-.66,1.06,6.66,6.66,0,0,0,0,1.46l-1.05,1.27L70,123.61l-.42.52,1,.52-.44.47.41.23c-.7.52-1.39,1-1.15,2-1,.22-.7,1.27-1.21,1.65l-.73-.77-.22.76a1,1,0,0,0-1.14-.87c.14.32.26.63.42.92s.65.4.21.9l-1.2-.7c-.29.52-.62,1.07-.9,1.64a.55.55,0,0,0,.06.53c.31.3.58.7,1.14.59a7.75,7.75,0,0,1,1.27-.09c.27,0,.54.13.71-.25.06-.13.32-.23.5-.26.67-.13,1.35-.22,2-.33l0,.16-.45.31.5.42c-.43.35-.83.72-1.27,1a.5.5,0,0,1-.43-.07c-.06-.41-.34-.31-.59-.31a16.6,16.6,0,0,0-2.23,0,3.06,3.06,0,0,0-1.26.63,8.71,8.71,0,0,0,3.7-.21,5.64,5.64,0,0,1-4.65.64l-.21-.64a6.4,6.4,0,0,1-.51.4,1.11,1.11,0,0,1-.52.15c-.35,0-.69-.11-1-.11-.57,0-1.16.14-1.62-.41l-.3.5v-.17c-.4,0-.81-.08-1.22-.1s-1,0-1.44-.05-1.09-.11-1.64-.17l-.07.17c0-.12-.09-.24-.12-.36-.13-.43-.69-.85-1.09-.69-.68.26-1.11-.15-1.61-.44a3.57,3.57,0,0,0-.45-.19l-.08.14.51.44-.46.59c-.21-.53-.7-.33-1.09-.4a1.56,1.56,0,0,0-.71,0c-.17.06-.27.29-.41.45l-.07.11,0,0,.08-.12.47.21-.48.72.45.25L49.76,135l.44.31.41-.54a8.25,8.25,0,0,1,.52.67.5.5,0,0,1,.06.42c-.31.48-.63,1-1.31,1a10,10,0,0,1-1.54-.11c-.63-.11-.19-.56-.21-.89l-.41.24V135l.26-.12.45.79.19-.8L49,135c0-.09,0-.16-.07-.19a2.87,2.87,0,0,0-2.19-1,.67.67,0,0,1-.78-.5,3.07,3.07,0,0,0-.4-.59c.32-.37.27-.64-.21-.61a12.41,12.41,0,0,0-1.85.32c-.1.64-.17,1.11-.22,1.58a2,2,0,0,0,0,.48l.48-.19c.3.47.51.94-.07,1.44l-.23-.35-.35.93a5.35,5.35,0,0,1-1.17-.65,1.75,1.75,0,0,1-.4-.93c-.07-.33,0-.68-.09-1a1.32,1.32,0,0,0-.37,1.55l-.27-.54-.51.85,1,.76-.51.17-.05.16,1.52.65-.87.21c.23.83,0,1.07-.88.89s-1.41-.28-2.13-.39c-.09,0-.29.16-.32.27a4,4,0,0,0,0,.78,15.43,15.43,0,0,0-2.08-.21,1.76,1.76,0,0,1-1.42-.35c.54-.63,1.17-.4,1.79-.25l.11.06,0-.11-.59-.78c.55-.35.44-.47.19-1.14-.31-.85-.91-.8-1.55-.82l-2.26-.11-.07-.19,1-.39-1-.32c-.72-.23-.83-.51-.43-1.13.49-.79.49-.79-.44-1.22l-.21,2.08a3.79,3.79,0,0,1-.71-.4c-.14-.13-.33-.36-.31-.51a.87.87,0,0,0-.52-1c-.52-.27-1-.57-1.63-.91v-.41l.63.4.41-.89-.8-.08c.18-.23.4-.39.46-.59.26-.83-.49-1.52-1.42-1.35s-1.65.27-2.57.42c-.23.63,0,1,.92.87-.18.22-.26.42-.37.44-.27,0-.71.1-.79,0-.32-.5-.84-.37-1.27-.49-.09,0-.28.29-.43.45-.5-.67-.44-1.13.21-1.48-.74-.54-.79-1.18-.13-2l-.95-.67c-.3.17-.57.34-.85.48s-.67,0-.68-.39.1-.93.11-1.39-.08-.7-.1-1a2.73,2.73,0,0,1,.08-.94c-.27-.42-.11-.72.42-1-.55-.16-1.11-.21-1.09-.88a2.46,2.46,0,0,1,.67.08,10.15,10.15,0,0,1,1.09.55c-.12-.72-.6-1.12-1.5-1.39l-.44.74-1.11-1.08-.14.55-.38-.2c-.17-.23,0-.83-.81-.46l.41.23c-.58.19-.62.63-.68,1.12,0,.22-.33.41-.54.64a1.15,1.15,0,0,1-.19-1.46,6,6,0,0,0,.46-1c.11-.32,0-.55-.38-.4-.54.21-.87.11-1-.49,0-.14-.28-.25-.45-.33-.49-.22-1-.41-1.59-.66l.73-.79.78-.83-.71.06-.06-.11.76-.54.17.07c0,.31-.07.62-.14.93s-.17.6-.26.89l.18.16c.21-.21.43-.41.63-.63s.14-.24.23-.34c.34-.4.69-.79,1-1.19a4.16,4.16,0,0,1-.13,2.3l.2,0c.24-.51.48-1,.71-1.51a.24.24,0,0,0,0-.18c-.85-.92.15-1.64.34-2.4a7.47,7.47,0,0,0,.36-2.34c0-.56,0-1.16-.91-1.19l.1-.18a5.57,5.57,0,0,1,1.06-.17c.51,0,.66-.25.67-.69-.51-.33-.51-.58-.08-1a.89.89,0,0,0,.23-.57A7.72,7.72,0,0,0,19,106c0-.22-.13-.51,0-.64.63-.8-.14-1.26-.39-1.84-.06-.14-.18-.29-.15-.41.14-.6.33-1.18.48-1.77.08-.33.24-.72.13-1-.27-.63,0-1,.53-1.29-.29-.26-.49-.36-.12-.82a4.84,4.84,0,0,0,.54-2c0-.11-.07-.25-.11-.37l.17-.11c.08.13.23.25.24.39.06.71.09,1.43.13,2.17l.72-.76a1.42,1.42,0,0,1-.31-.36,1.1,1.1,0,0,1-.18-.7c0-.15.37-.22.57-.32s.29-.09.33-.18-.07-.23-.12-.34l-.41-1-.28.24c-.68-.4-.91-.5-1-.45-.21-.36-.42-.72-.62-1.09a.27.27,0,0,1,0-.26.31.31,0,0,1,.27,0,5.38,5.38,0,0,1,.52.32,4.89,4.89,0,0,0-.11-.75,5.88,5.88,0,0,1-.19-3.4,1.85,1.85,0,0,0-1-2.25c-.54-.34-.56-.45-.17-1l.53-.72c.07-.1.18-.2.19-.3a1.29,1.29,0,0,0-.11-.59.48.48,0,0,0-.39-.15,2.17,2.17,0,0,0-.29.64l-.18-.57-.53,1.19.43.29-.83.51c.2.18.34.41.53.46s.49.26.38.54a1.44,1.44,0,0,1-.5.48,2,2,0,0,1-.42.18c0,.12,0,.22,0,.27.81.89.21,1.69-.13,2.53s-.53,1.48-.82,2.31c0-.5,0-1,0-1.42a3.38,3.38,0,0,0,.05-.94c-.14-.43-.15-.72.21-.79a16.53,16.53,0,0,0,0-2,12.73,12.73,0,0,0-.45-1.82,1.7,1.7,0,0,0-.17-.51,5.23,5.23,0,0,0-.4-.56c-.2.21-.4.41-.59.63a.61.61,0,0,1-.16.26,15,15,0,0,0-.92-1.42,6.07,6.07,0,0,0-.89-.78c-.1-.09-.29-.17-.28-.23a1.67,1.67,0,0,1,.27-.5l.41.7L14,83l.74,0,.17.37c.11-.07.28-.11.32-.21a.76.76,0,0,0,0-.55,15.43,15.43,0,0,1-.9-1.27,2,2,0,0,1-.06-1c0-.07.37-.1.57-.14l.54,0v-.19l-.54-.09a5.78,5.78,0,0,1,.83-.64c.13-.06.43.08.55.22s0,.34,0,.69l1.21-.4h0l.75-.22L18,78.93l1.48-.54L18.81,77l.19-.1.61.68.39-.61.4.32.27-.54-.61-.95a2.64,2.64,0,0,0,.72.09c.06,0,.07-.3.15-.62a3.78,3.78,0,0,0-.93.33,2.2,2.2,0,0,1-2.17-.07c-.35-.14-.52-.77-.77-1.18s-.34-.6-.55-1l.29-.25c.1.13.27.24.31.39.11.45.18.84.83.78.28,0,.58.28.89.4a.9.9,0,0,0,.62,0c-.64-.26-.73-1.22-1.63-1.14l0,.47c-.14-.13-.31-.26-.3-.29.39-.78-.25-1-.72-1.32.35,0,.67-.55,1.07,0,.07.1.67-.15,1-.31.8.16,1.09,0,1.23-.79L18.23,71c-.32-.05-.62-.1-.7-.52,0-.12-.25-.21-.41-.29a6.21,6.21,0,0,0-.6-.27l.51-.87-1.42.15,0-.27a3.41,3.41,0,0,1,1.27-.17c.35.09.62.5,1,.77-.22-.39-.37-.73.18-1,.33.44.61,1,1.29.83s1.38-.07,2-.51c-.23-.12-.48-.18-.49-.26a16.38,16.38,0,0,1-.12-1.7c0-.07.27-.23.28-.21a6.39,6.39,0,0,1,.48.58l.69,0a1.63,1.63,0,0,0-.88-1.57c.25-.39.38-.75-.26-.87-.11,0-.19-.2-.28-.31-.55-.76-1.1-1.52-1.64-2.29a.67.67,0,0,1-.09-.21,1.13,1.13,0,0,1,1.46.81c.07.47.48.5.74.71a2.66,2.66,0,0,0,.75.3c.46-.29-.07-.74,0-1.12a3.49,3.49,0,0,0-.43-.15l-1-1.82,1.06.29.07,1,.21,0,.37-1.37a1.57,1.57,0,0,1-.08-1.93l.39.36c.09-.29.32-.62.25-.85-.18-.54-.59-.21-.85-.08a11.4,11.4,0,0,1-.45-1.41,1.11,1.11,0,0,1,.18-.73c.28-.42.15-.67-.26-.88l1-.89.09.09.5,1.34a9,9,0,0,0,0-4l-.48,1.93h-.18l-1-6.95-.27,0-.33,1.18c-.17-.69-.36-1.3-.45-1.92-.06-.46.21-.64.68-.54,1.23.28,1.21.28,1.33-1a3.94,3.94,0,0,0-.8-2.69,7.11,7.11,0,0,0,.32-1.12c.07-1,.1-2.08.14-3.13a2.37,2.37,0,0,0,0-.65,3.34,3.34,0,0,1,.69-3,2.46,2.46,0,0,0,.3-1.12c.35-.18.4-.43.18-.8a.55.55,0,0,1,0-.5c.53-.83.17-1.8.41-2.68,0-.09-.17-.23-.26-.35-.27-.38-.57-.75-.82-1.15a.77.77,0,0,1,0-.5c.12-.39.27-.77.42-1.15s.4-.9.59-1.35a4.13,4.13,0,0,0,.39-1.1c0-.48-.26-1,.44-1.28.3-.13.3-1.27.08-1.63A2.14,2.14,0,0,1,26,19.92a24.5,24.5,0,0,0,2.7.44c1.24.19,2.48.35,3.71.6.48.1.59-.09.77-.46.62-1.26,1.25-2.52,2-3.73.39-.65.75-.62,1.3-.09.17.17.33.35.48.53a2.15,2.15,0,0,0,1.76.85,1.79,1.79,0,0,1,.86.24l-.93.47a.59.59,0,0,0-.24.23c-.06.12-.06.27-.11.4-.29.94-.27.89.7,1.25a1.62,1.62,0,0,0,1.54-.11A4.72,4.72,0,0,1,42.08,20a1.84,1.84,0,0,0,1.55-1.51,4.68,4.68,0,0,1,.4-.81l.2.08a1.2,1.2,0,0,1,0,.3c-.51.17-.34.64-.47,1a13.72,13.72,0,0,0-.62,2l2.62-4.44.19.5a8.27,8.27,0,0,0,1.35-.25,9.33,9.33,0,0,0,1.24-.73A6.93,6.93,0,0,0,47.06,15a.56.56,0,0,1-.4-.52l.06-.08c.1,0,.22,0,.27.09.41.48.65.47.9-.07.68.2,1.47.17,2,.9l-1,.4.19.46c.5,0,.94-.12,1.39-.14a1.12,1.12,0,0,1,.88,1.14.45.45,0,0,1-.34.19,1.46,1.46,0,0,1-.43-.18l-.1.06-.38.64a4.05,4.05,0,0,1,.7.32,1.34,1.34,0,0,1,.31.42l-.46.45.68.53.81-.52.14.25c-.33.15-.64.32-1,.46a.67.67,0,0,0-.28,1,.45.45,0,0,0,.78.1,1.43,1.43,0,0,1,.37-.19l1-.48c.69.36,1.22,0,1.21-.92,0-.65.23-1,1-1.21a6.12,6.12,0,0,0,.06.63,2.45,2.45,0,0,0,.17.45c.09-.13.18-.25.26-.38a.46.46,0,0,1,.24-.24L56,19.75l.12.08L58.37,16l.16.05.07.6a1,1,0,0,0,.59-1.18.75.75,0,0,1,.43-.93h0a3,3,0,0,0,.13,1.77c.11.25-.09.63-.13.8-.29-.09-.67-.33-.85-.22s-.39.56-.6.89l.43.21c-.79.42-.8,1.23-1.15,1.91.56.1.71-.21.86-.55.08-.18.18-.34.27-.52.15.15.3.29.44.45s.06.13.12.27c.35-.4,1.06-.15,1.23-.83,0-.06.26-.05.38-.11a1.78,1.78,0,0,0,.49-.36c.13-.15,0-.56.41-.45a.58.58,0,0,0,.1-.3c0-.08-.16-.12-.23-.2s-.3-.33-.44-.5h0a2.81,2.81,0,0,0,1,0c.26-.11.42-.46.63-.7l.18.13-.71,1.31,1.25.6c.1-.58.17-1,.26-1.5,0-.09.07-.23.13-.25.42-.07.5-.37.54-.73,0-.11.15-.2.24-.3l.37.46,3.3-1-.14.92.11,0,.71-1.16c-.51-.43-.91-.08-1.34.13-.59.28-.85.17-1.31-.5l-.26.22L65.54,14l2-.63.57-.89-.36-.5L69,11.5c-1.12-.53-.53-1.57-1-2.3a3.16,3.16,0,0,1,1.7,1.73.94.94,0,0,1-.06.28c-.05.18-.12.36-.23.67l.68-.19a13.5,13.5,0,0,1,1.06,1.21c.36.55.46.54,1.07.26A5.09,5.09,0,0,1,73.75,13l-.54.6a1.18,1.18,0,0,0,.43.11,7.06,7.06,0,0,0,1.6-.29c.5-.19,1-.36,1.4,0s1,.19.92.82h0c-.29,0-.57-.08-.86-.1a1.1,1.1,0,0,0-.55,0,6.23,6.23,0,0,0-.78.69c.24.12.53.4.75.35a4.3,4.3,0,0,1,1.79.34h.14c.08.34-.25,1,.57.76a3.08,3.08,0,0,1,0,.38c0,.72.21.93.9.78a.54.54,0,0,1,.74.45c.12.47.45.59.85.72a13.7,13.7,0,0,1,1.55.58c.13.05.21.22.31.33l-.09.12-1-.36.25,2.49.24-.72c.63-.09.48.49.66.77a5.77,5.77,0,0,0,.84-.49A.57.57,0,0,0,84,20.9c-.06-.37.11-.52.45-.51l1.55.08-.28.81a8.74,8.74,0,0,0,.89.17c.21,0,.5.06.6-.05a.83.83,0,0,0,.19-.68,5.05,5.05,0,0,0-.49-.87c-.08-.16-.17-.39-.11-.51s.31-.2.48-.23.36.06.53.05.61,0,.63-.09a1.37,1.37,0,0,0,0-.85A10.65,10.65,0,0,0,87.73,17c.44,0,.81,0,1.17.08,1.37.21,2.74.44,4.12.64.38.06.52.18.4.59A1.27,1.27,0,0,0,94.26,20a5.52,5.52,0,0,1,.93.39,1.37,1.37,0,0,1,.56.69,1.08,1.08,0,0,0,.92.94,5.34,5.34,0,0,1,.76.28l0,.16c-.17.09-.35.27-.51.26-1.23-.1-1.5.82-1.83,1.68A4.56,4.56,0,0,0,95,25c-.1.43,0,.67.48.81a11.11,11.11,0,0,1,1.49.69l0,.2-1.39.22C95.44,27.68,96.26,27.66,96.67,28Zm-21,100.85-.72.55.43.5.36-1,.08-.1ZM16.48,80.54c.61.31,1.08.7.95,1.49,0,.1.25.33.4.34.9.11,1,.18,1.11,1.11-.21-.16-.35-.39-.55-.53a1.71,1.71,0,0,0-.58-.16l-.06.45c0,.18-.07.36-.13.69.44,0,.91,0,1.39-.08s.91-.17,1.33-.25l.39.31.15-.8h.23l.2.81c.28-.66.63-1.24.15-2l-.38.61c-.35-.37-.25-.68.07-.87.65-.4.71-.8.13-1.39l-.06.57-.75.12.44-.73a1.63,1.63,0,0,1-1.15-1.55,4.18,4.18,0,0,0-.6.48,1.44,1.44,0,0,0-.19.46l.44.1.06.14c-.2.07-.43.23-.6.18A2.62,2.62,0,0,0,16.48,80.54ZM60,130.75l.1.19-.69,1,0,.18c.74,0,1.47-.07,2.2-.13a2.09,2.09,0,0,0,1.11-1.43c0-.12-.2-.21-.27-.33a.91.91,0,0,1-.16-.47,9.57,9.57,0,0,1,.31-1l-.3-.15a9.74,9.74,0,0,0-.77,1c-.44.75-.5.78-1.15.2a1.08,1.08,0,0,0-.22-.12.89.89,0,0,1-1.18.54,3.37,3.37,0,0,0-.71-.09,1.38,1.38,0,0,0-1.46.93C58,131.59,59,131,60,130.75Zm-39.42-25.5-.16,0a13.68,13.68,0,0,0-.54,1.6,1.27,1.27,0,0,0,.61,1.48c-1,.41-1,.58-.59,1.41.45-.29,1.2-.34.8-1.21,0,0,0-.08,0-.12C20.72,107.35,20.67,106.3,20.62,105.25Zm.47-16.54c.16-.84-.41-.75-.85-.86-.67,1.49,0,2.88.26,4.3a6.85,6.85,0,0,0,.39-1.39c.07-.34.06-.34.38-.22,0,0,0,0,0,0l-.08.07.24-.68-.49.44c-.81-.63-.63-1.2-.08-2.1ZM90.46,36.44l-.12-.65a2.91,2.91,0,0,0-.33.26c-.17.2-.33.41-.51.64l.42.5-1.55.7c.2.38.43.14.65,0,.75-.5,1.72-.64,2.34-1.43.11-.14.42-.93,1-.29-.08-.66-.08-.66-1.34-.46Zm-64,86.18a.86.86,0,0,1,.35,1c-.07.18.16.48.28.71,0,0,.29,0,.3,0a1.71,1.71,0,0,0,.13-.7c0-.15-.18-.29-.28-.44h.17l.06-.65h-.62l-.62-.59c-.35.47-.69.89-1,1.33a4.53,4.53,0,0,0-.28.59l.14.1ZM41.41,22l.51.33c.27-.76,1-1.31.69-2.34a5.21,5.21,0,0,0-1.32.87,5.63,5.63,0,0,0-.59,1.54ZM21.14,116.89l.15-.08c0-.15,0-.36-.06-.45a1,1,0,0,1-.12-1.14,1.3,1.3,0,0,0,.11-.61c0-.44-.12-.88-.19-1.31-.31.81-.88,1.59-.31,2.36l-.68.4,0,.21C20.72,116,20.93,116.43,21.14,116.89Zm65-94.35c.5,1.27.5,1.27,1.1,1a6.09,6.09,0,0,1-.42-.8c-.26-.77-.26-.78-1.12-.61l.06,1Zm-50.32-5c-.38.2-.8.29-1,.56a4.14,4.14,0,0,0-.45,1.17C35.65,18.66,36.21,18,35.83,17.5ZM89.37,43.92c-.32,0-.72-.27-.89.45-.08.38-.59.7-1,1s-.46.52-.2.88ZM64.62,19l.64-1.63c-.49.09-.8.12-1.1.2-.1,0-.25.23-.22.28C64.12,18.21,64.34,18.55,64.62,19Zm-43,101.74.72.51H23.6A1.65,1.65,0,0,0,21.66,120.75ZM84,76.33a2.73,2.73,0,0,0-.74-2.23A3.5,3.5,0,0,0,84,76.33ZM23.64,59.81c-.2-.09-.42-.22-.45-.19a3.14,3.14,0,0,0-.6.77c0,.08.22.31.34.47Zm.47,60c.1.12.25.43.42.44.67,0,.82-.52,1-1ZM76.53,16.58l1,1.06.1-.11-.1-1.14ZM77.05,19c.15-.37.69-.66.21-1s-.7.11-1,.46ZM43.11,132.88c-.79-.29-1.06,0-1,.91C42.77,133.82,42.86,133.28,43.11,132.88ZM26.59,119.77c-.22.34-.43.63-.6,1,0,.1,0,.25,0,.37a1.05,1.05,0,0,0,.36-.08C26.86,120.7,26.86,120.27,26.59,119.77ZM65.84,18.44c1.11.41,1.11.41,1.34-.15l-.4-.38Zm-2,113.72c.63-.16.34-.6.34-.89a1.6,1.6,0,0,0-.34-.71,1.43,1.43,0,0,0-.35.13s0,.07,0,.13l.37,0ZM20.64,78.7l0,.22a1.89,1.89,0,0,0,.69-.1c.12-.08.11-.38.11-.59a.32.32,0,0,0-.25-.16,3.42,3.42,0,0,0-.55.26l.38.27Zm.52,5.51c.15.87.26.89,1.24.29Zm6.4-20.74a.89.89,0,0,0-1.47.27Zm45.31,55.84-.18-.28-.77.39.35.5Zm-46.92,7c-.57.59-.12.89.19,1.23l.17,0ZM76.61,17.71l.23-.22a8.22,8.22,0,0,0-.66-.66s-.2,0-.24.06,0,.22,0,.26C76.15,17.35,76.38,17.53,76.61,17.71ZM35.09,134c-.08-.25-.08-.39-.15-.44a3,3,0,0,0-.61-.33.72.72,0,0,0-.14.2,6.12,6.12,0,0,0,.5.39A2.39,2.39,0,0,0,35.09,134ZM89.68,42.38c-.8.08-.57.53-.55.88l.19.08Zm-40.87-23c.4-.62.31-1-.27-1.19Zm13.65.74a4.11,4.11,0,0,0,.37-.71c0-.05-.21-.16-.32-.24a2.16,2.16,0,0,0-.33.48C62.15,19.7,62.3,19.84,62.46,20.09ZM48.37,16.91c-.16.25-.32.39-.32.54s.19.22.3.33c.12-.12.3-.23.34-.38S48.54,17.15,48.37,16.91ZM46.9,19.24l.06.25a2.86,2.86,0,0,0,.73-.12c.11,0,.14-.27.21-.41l-.12-.1Zm14.26.16c.53.26.77.06.8-.71Zm14.13,89.69-.85-.6C74.86,109.4,74.86,109.4,75.29,109.09Zm-16,19.64-.12-.1-.72.79C59.29,129.64,59,128.93,59.31,128.73ZM19.53,70.63l.06-.35-.77-.18a1.59,1.59,0,0,0,0,.41A4.63,4.63,0,0,0,19.53,70.63Zm1.55,9c.24.08.43.16.63.21a1.06,1.06,0,0,0,.29,0c0-.11,0-.25-.08-.31C21.59,79.1,21.36,79.36,21.08,79.58Zm38.85-58.9.33,0v-.78l-.35,0C59.91,20.16,59.92,20.42,59.93,20.68ZM20.66,71.19l-.22,0a3,3,0,0,0,0,.67c0,.1.23.16.35.24L20.9,72Z"/><path class="cls-4" d="M25.87,138.88a1.08,1.08,0,0,1,1.63-.7,16.68,16.68,0,0,0,2.22.53,6.42,6.42,0,0,1,.63.15l2.75.95a.81.81,0,0,0,.39-.07c.09,0,.23-.11.26-.08.71.63,2,.21,2.46,1.28.06.13.32.17.42.3a.43.43,0,0,1,.1.41.48.48,0,0,1-.4.16c-1.21-.12-2.43-.23-3.64-.39a2.12,2.12,0,0,1-.74-.36c-.42-.24-.83-.51-1.25-.75s-1.15-.58-1.7-.92a1.6,1.6,0,0,0-1.58-.14c-.35.17-.64.26-.93-.14C26.38,139,26.08,139,25.87,138.88Z"/><path class="cls-1" d="M182.63,7.35l-.81.56c.23-.76,1-1.19,1.49-1a2.94,2.94,0,0,1,.41.31l-.39.39a1.53,1.53,0,0,1-.23.15.84.84,0,0,0,1.17.16,5.34,5.34,0,0,1,.8-.38l.16.22-.86.87.63.5,0,.1a1.48,1.48,0,0,0-.42-.17.47.47,0,0,0-.38.13c-.14.21.42,1.07.67,1.15a3.77,3.77,0,0,1,.59.32l.16-.4h.13l.21,1-.28,0-.14,1.63-.73-.05-.22,1.19c-.36-.46-.29-1.19-1.21-.89.18-.35.24-.64.37-.67s.41.1.68.18l.47-.55-1.13-.06-.16-.26c-.55.43-.66.39-1-.37.34-.08.79-.07,1-.29s.14-.63.13-1-.67-.86-1-.84l-.07.58-.19,0c.05-.71-.33-1.48.44-2.07Z"/><path class="cls-1" d="M174.32,12c-.1.25-.12.51-.26.64-.69.6-1.41,1.17-2.12,1.76a3.55,3.55,0,0,0-.33.34L170.54,16A1.32,1.32,0,0,1,171,14.2c.32-.24.82-.44.83-1,0-.1.25-.24.41-.3.7-.3,1.1-1,1.77-1.37l.18.22,1-1.05a.41.41,0,0,1,.24-.15c.39-.07.79-.09,1.18-.16.61-.12.72-.62.88-1.11l3-.4,0,.26c-.84-.16-1.48.47-2.25.6a2.54,2.54,0,0,0-.81.43c-.16.1-.31.24-.47.34-.7.42-1.4.84-2.1,1.24A5.71,5.71,0,0,1,174.32,12Z"/><path class="cls-5" d="M15.56,76.19l.44.75L16.11,78l.43-.45c.4.77,1.15-.08,1.81.27-.17.2-.29.48-.45.51-.88.15-1.64.94-2.6.57A10.51,10.51,0,0,1,14,78.17l.24-.68c.6.11.6.11,1,1a1.16,1.16,0,0,0-.33-1.43.66.66,0,0,1,.06-.6C15.1,76.34,15.36,76.29,15.56,76.19Z"/><path class="cls-5" d="M62.12,15.18l-.48-.68.87-1.16-.12-.16c-.13.09-.26.19-.4.27a1.86,1.86,0,0,1-.31.1c0-.12-.11-.3-.06-.35a1.76,1.76,0,0,1,.56-.42,1.18,1.18,0,0,1,.59,0c.85.12,1.33-.5,1.89-.93a.6.6,0,0,1,.8,0,3.8,3.8,0,0,0,.9.26l-.26.13-2.69,1c-.08,0-.19.12-.19.18C63.22,14.23,62.36,14.52,62.12,15.18Z"/><path class="cls-5" d="M15.48,72.54l-.39,1.6-.29,0c-.58-1.48-.12-2.93.36-4.38v1.14l.46-.49a7,7,0,0,1,.34.87C16.13,72,16,72.29,15.48,72.54Z"/><path class="cls-5" d="M40.22,141.5a1.83,1.83,0,0,1-1.75,0c-.49-.39-1.13-.78-1.16-1.51l.15-.11.32.36c.59-.4.48-1.07.64-1.68.14.43.51.63.55,1.19A1.78,1.78,0,0,0,40.22,141.5Z"/><path class="cls-5" d="M18.88,137l.35.74c-1.8.45-1.8.45-2.21-.28.44-.68.89-1.35,1.34-2l.18.1-.09.81.94-.37.14.11Z"/><path class="cls-5" d="M54.79,17.86c.14-.41.25-.59.23-.74-.09-.61.28-.72.74-.71s1,.05,1.57.09l-.45.57c.1.11.27.22.25.28s-.16.28-.27.29c-.43.05-.88,0-1.31.08A6.72,6.72,0,0,0,54.79,17.86Z"/><path class="cls-5" d="M18.91,60.6c-.82-.45-1.59-.07-2.36.13s-1,.12-1.37-.74A3.2,3.2,0,0,1,18.91,60.6Z"/><path class="cls-5" d="M58.25,136.37c.65-.3,4.69-.1,5,.24C61.75,137,58.88,136.83,58.25,136.37Z"/><path class="cls-5" d="M16.07,110.92a3.81,3.81,0,0,1,.79.61c.08.11-.12.4-.19.6l-.18.06-.16-.51c-.63.86-.59,2-1.81,2.2a1.51,1.51,0,0,1,.14-.38,2.49,2.49,0,0,1,.4-.52,2.14,2.14,0,0,0,.72-2.48,3.08,3.08,0,0,1-.06-.93C16.09,110,16.09,110,16.07,110.92Z"/><path class="cls-5" d="M28.42,16.27l3.59.79C31.35,17.88,28.85,17.32,28.42,16.27Z"/><path class="cls-1" d="M177.79,15.17l-1.14.43.61.86-.29-.18-.88.79.34.19a4.56,4.56,0,0,0-.45-.77.55.55,0,0,1,0-.87A1.71,1.71,0,0,1,177.79,15.17Z"/><path class="cls-5" d="M86.15,117.82l.72.74c-.1.37-.42.47-1.23.21l-.09.88h-.11v-1.81l.91-.23Z"/><path class="cls-5" d="M51.64,135.91c0-.06.07-.12.09-.12,1.18-.07,2.36-.14,3.54-.19.08,0,.24.17.25.26s-.16.27-.24.27c-1.18,0-2.36-.07-3.54-.11C51.71,136,51.69,136,51.64,135.91Z"/><path class="cls-5" d="M22.63,139l-3.11-.84.16-.9,3,1.64Z"/><path class="cls-5" d="M97.17,25.35l-.37-1.57c.73.31,1.56,0,2.14.93a3.25,3.25,0,0,0-1.13-.06C97.56,24.74,97.4,25.08,97.17,25.35Z"/><path class="cls-5" d="M52.49,17.11a4.67,4.67,0,0,1-.76-.4,3.9,3.9,0,0,1-.54-.72c.64,0,1.17-.09,1.7-.06s.34.32.16.56S52.63,17,52.49,17.11Z"/><path class="cls-5" d="M100.14,22.79c-.62,0-1.24-.06-1.85-.15-.14,0-.26-.24-.39-.38a1.56,1.56,0,0,1,.44-.3c.73-.16,1.23.35,1.84.54Z"/><path class="cls-5" d="M80.21,129.1l-2.8,1.2C78.16,128.92,78.47,128.78,80.21,129.1Z"/><path class="cls-1" d="M204,140.12l-.87-.08c-.35,0-.63-.57-.37-.71.62-.35.4-.9.54-1.4Z"/><path class="cls-5" d="M17.33,67.51c-.89.47-1.89.21-2.36,1.12l-.14-.06c.05-.21,0-.49.15-.63s.32-.83.93-.54c.16.08.42-.09.63-.08A5,5,0,0,1,17.33,67.51Z"/><path class="cls-5" d="M63.73,14.24l.64,0v-.46l.41.12.73.2-1.37,1.22Z"/><path class="cls-1" d="M240.28,29.92l-2.93-1.1v-.09c.37.05.75.1,1.12.17.56.09,1.11.2,1.75.32Z"/><path class="cls-5" d="M29.34,141.28l2.19.34C31,142.3,30.11,142.16,29.34,141.28Z"/><path class="cls-6" d="M19.55,120.75,20,120c.9.27,1.38.67,1.5,1.39a10.15,10.15,0,0,0-1.09-.55,2.46,2.46,0,0,0-.67-.08Z"/><path class="cls-5" d="M15.57,90a4.41,4.41,0,0,1-.42-.64,3.78,3.78,0,0,1-.11-.77,2.44,2.44,0,0,1,.33,2.85L15.06,90l.37.11Z"/><path class="cls-5" d="M75.14,136l-1.71.22-.26-.72C74,135.32,74.14,135.36,75.14,136Z"/><path class="cls-5" d="M26.66,133.5a8,8,0,0,1,.95.41,11.37,11.37,0,0,1,1.2.74c.09,0,.1.21.15.32-.1,0-.24.07-.31,0l-2.07-1.35Z"/><path class="cls-1" d="M164.17,26.05l-.29.32-1.51.22a.88.88,0,0,1,1.12-.6l.4-.35.27.42Z"/><path class="cls-5" d="M81.15,124.1l-.6.08c-.13,0-.27,0-.4,0a5.9,5.9,0,0,0-.6.17c0-.24,0-.49.06-.73,0-.07.09-.12,0-.06l1.49.37Z"/><path class="cls-5" d="M68.14,130.73l-1.52.33c-.33-.44.35-.64.35-1l1.14.51Z"/><path class="cls-3" d="M193.82,19.36l.47.27c-.82.7-1.28.78-1.79.3l1.14-.55Z"/><path class="cls-1" d="M248.24,39.41l-1.41-1C247.68,38,248.17,38.27,248.24,39.41Z"/><path class="cls-5" d="M81.52,130.69c-.29-.47-.34-.7.15-.92a6.3,6.3,0,0,0,1.1-.86l.13.12Z"/><path class="cls-5" d="M78.05,15.54h-.14l-.35-1.31h0s.09.1.11.09c.63-.18.91.07.9.65Z"/><path class="cls-5" d="M67.68,8.71c.29-.26.46-.54.62-.53a1,1,0,0,1,1,.74Z"/><path class="cls-5" d="M73.42,124.24a1.8,1.8,0,0,1-.4-1.87,7.88,7.88,0,0,1,.59,1.13C73.68,123.67,73.51,123.94,73.42,124.24Z"/><path class="cls-5" d="M61.61,12.27l.74-1.09.17.09c-.08.2-.23.43-.19.61s.3.24.64.49l-1.31.13Z"/><path class="cls-1" d="M189.94,6.34l-.64-1,.13-.17,1.42.56-.07.21L190,5.84l0,.47Z"/><path class="cls-5" d="M14.82,66.55l-.1-1.15,1,.09,0,.13-.54.26-.2.71Z"/><path class="cls-5" d="M17.72,120.84c.44.76-.21,1.17-.47,1.79C16.71,121.77,17.7,121.45,17.72,120.84Z"/><path class="cls-1" d="M189.66,10.38h-.58c.2-.46-.71-.61-.27-1.09.13-.14.49-.07.89-.12C189.39,9.64,189.17,10,189.66,10.38Z"/><path class="cls-1" d="M243,31.85,241,30.58l.05-.11a17,17,0,0,1,1.65.7C242.87,31.24,242.88,31.56,243,31.85Z"/><path class="cls-2" d="M214,133.69a9.55,9.55,0,0,0,0,1.07,2.83,2.83,0,0,0,.23.7c-.51.3-.67-.18-.9-.54.22-.44.42-.86.62-1.29Z"/><path class="cls-5" d="M17.88,94.65l1.15-.5.16.12-.53.88Z"/><path class="cls-5" d="M74.86,140.22c-.5.49-.4,1.37-1.16,1.7l-.15-.1,1.09-1.75Z"/><path class="cls-1" d="M181.88,9.23l-.67.36c-.12-.3-.26-.59-.36-.9,0-.07.12-.26.2-.27s.32.14.32.15C181.16,9.05,181.67,9,181.88,9.23Z"/><path class="cls-5" d="M81.21,14.14c-.68-.15-1.12-.49-1.12-.85C80.74,13.24,81.05,13.46,81.21,14.14Z"/><path class="cls-1" d="M160.27,22.93l-1,.76.15-.49,1.28-1.05.14.14Z"/><path class="cls-5" d="M71.93,129.32l-1.36,1.18C70.39,130,70.9,129.5,71.93,129.32Z"/><path class="cls-5" d="M72,127.93l-1.29-.13C71.07,127.11,71.38,127.13,72,127.93Z"/><path class="cls-5" d="M78.26,133.16l-1.5.55-.09-.23,1.47-.62Z"/><path class="cls-5" d="M27.72,131l-1.5-.34C26.59,130.28,27.25,130.44,27.72,131Z"/><path class="cls-1" d="M159.21,133.71l-.82.66-.18-.12a2.11,2.11,0,0,1,.39-.67c.12-.11.38-.06.58-.09Z"/><path class="cls-5" d="M63.51,136.13l1.43-.49.06.17c-.36.5-.92.45-1.44.51Z"/><path class="cls-5" d="M52.46,19.57l-.18-1.29C53,18.59,53.1,19,52.46,19.57Z"/><path class="cls-5" d="M86.18,122l.13,1.3c-.53-.22-.73-.38-.42-.77A1.42,1.42,0,0,0,86,122Z"/><path class="cls-5" d="M72.55,143.38l.65-.91C73.42,143.11,73.26,143.38,72.55,143.38Z"/><path class="cls-5" d="M19,89.36l-.71-1,.08-.13c.17.07.42.09.49.22a5,5,0,0,1,.3.9Z"/><path class="cls-1" d="M169.75,17.6,169,18.7l-.24-.16.7-1.13Z"/><path class="cls-5" d="M30.44,135.28,29.31,135l.5-.66Z"/><path class="cls-5" d="M86.61,116.18c-.18,1.06-.28,1.14-.93.68Z"/><path class="cls-5" d="M87.16,119.35l-.35.71-.76-.49Z"/><path class="cls-5" d="M69.31,135.35,68.09,135l.07-.22,1.24.32Z"/><path class="cls-1" d="M178.22,7.89l1.6-.47.07.24-1.59.43Z"/><path class="cls-5" d="M61.08,16.83l-.77.87-.16-.11L61,16.33l.13.08c0,.14,0,.29,0,.43Z"/><path class="cls-5" d="M18.27,95.69l.68-.44-.12,1.11h-.2Z"/><path class="cls-5" d="M18.87,76.05l1.08.21c-.34.44-.68.42-1.11,0Z"/><path class="cls-5" d="M62.49,9.35c-.05.38.24.92-.61,1l.43-1Z"/><path class="cls-5" d="M17.26,92.56a.91.91,0,0,1,.25,1.37Z"/><path class="cls-5" d="M56.4,135c-.79.45-1,.4-1.08-.29Z"/><path class="cls-5" d="M66.59,10.27c-.26.28-.53.53-1,0l.91-.26Z"/><path class="cls-5" d="M17.77,107l.26,1.33c-.77-.36-.42-.86-.44-1.28Z"/><path class="cls-5" d="M81.75,125.42l.55-.22-.31,1h-.21l-.15-.67h0l.14-.13Z"/><path class="cls-5" d="M19.15,66.31l-.94.2-.09-.12.77-.54Z"/><path class="cls-5" d="M83.05,120.74l-.61,1-.1,0,.31-1.06Z"/><path class="cls-5" d="M68.85,128.4c.31,0,.58-.12.61-.07a3.58,3.58,0,0,1,.24.72l-.15.09Z"/><path class="cls-5" d="M65.88,130.75a4.44,4.44,0,0,1-.72-.27s.07-.32.14-.61l.65.76Z"/><path class="cls-5" d="M46.65,134.78l.69.21-.28.81-.4-1Z"/><path class="cls-4" d="M58.65,15.75l.3-.23.09.11-.29.25Z"/><path class="cls-4" d="M22.35,54.32l.26-.19s.07.14.06.15-.15.08-.23.13Z"/><path class="cls-2" d="M166.8,20.92l0-.15,0,.06-.09.08Z"/><path class="cls-4" d="M46.66,14.52l-.11-.14.17.06Z"/><path class="cls-2" d="M235,29.75l.2-.1,0,.07-.18.08S235,29.76,235,29.75Z"/><path class="cls-2" d="M245.69,38.77l.14.17-.22-.08Z"/><path class="cls-4" d="M58.59,15.92h0s0,0,0,0h-.07Z"/><path class="cls-3" d="M155.91,19.6l0,0,0,0Z"/><path class="cls-4" d="M59.62,14.58l.06-.07v.07h-.07Z"/><path class="cls-2" d="M231.26,108.68l0,0s0,0,0,0l0-.07Z"/><path class="cls-5" d="M46.66,134.77v0Z"/><path class="cls-1" d="M153.2,51.9l-.29-.45.29-.37L153,51l.28-.93.18,0v1.75Z"/><path class="cls-1" d="M155.41,33.71l.4.6-.74.21c.1-.32.18-.57.27-.81Z"/><path class="cls-1" d="M154.86,63c-.6-1.73-1.47-3.37-1.5-5.27l0-.06.3.08a6.45,6.45,0,0,0,.11.73c.41,1.32.84,2.64,1.25,4a1.74,1.74,0,0,1,0,.51Z"/><path class="cls-1" d="M154.55,55c-.59-.09-.89-.49-.71-1,.07-.18.29-.31.44-.47a2,2,0,0,1,.32.59A3.47,3.47,0,0,1,154.55,55Z"/><path class="cls-1" d="M156.47,29.89c-.07.61-.1,1.24-.22,1.85-.05.22-.34.39-.51.59l-.17-.1.79-2.38Z"/><path class="cls-1" d="M150.36,123.48c.23.24.64.53.6.63a5.08,5.08,0,0,1-.71,1L150,125Z"/><path class="cls-1" d="M146,54.07a9,9,0,0,1,.57-1.35c.09-.17.4-.21.53-.27l-.43,1.17C146.59,54,146.41,54.16,146,54.07Z"/><path class="cls-1" d="M152.83,60l-.47-1.49.72.1-.29.24.34,1Z"/><path class="cls-1" d="M160.07,30.48l-.87,1C158.89,30.76,158.9,30.74,160.07,30.48Z"/><path class="cls-2" d="M157.93,31.42l.11-.06c0,.05,0,.09,0,.14Z"/><path class="cls-4" d="M89.89,43.39l.09,0-.06.06,0-.1Z"/><path class="cls-2" d="M154.23,45.7l.07.22-.24-.07Z"/><path class="cls-2" d="M154.68,45.69l-.06-.18.17.07Z"/><path class="cls-4" d="M20.57,81.08l-.33.1,0-.14.33-.11Z"/></svg>