<svg id="Слой_1" data-name="Слой 1" xmlns="http://www.w3.org/2000/svg" viewBox="0 0 500 150"><defs><style>.cls-1{fill:#e90102;}.cls-2{fill:#f6ebe7;}.cls-3{fill:#ed6464;}.cls-4{fill:#f4a5a2;}.cls-5{fill:#ec3b3c;}.cls-6{fill:#f6cccb;}.cls-7{fill:#fefdfd;}</style></defs><path class="cls-1" d="M182.74,85.26l-.11-.28-.89.09-1.5.19,1-.83L182,84l.41-.17v-.43h0v-.64l-.22-1.48-1.22.22-.06-.15.84-.45-.65-.13.84-.4.12-1.06,0-.81a6.17,6.17,0,0,0,.36-1.21c.06-.63,0-1.27,0-2.13l.66.52.22,1.28v2h.29l.32-1.72.06,1L184,79l.28,0,0-.75,0-.62-.07-2-.08-1h-.17l-.44.17-.41,0c-.64-.39-.87-.18-.89.53s-.13,1.49-.2,2.24a15.48,15.48,0,0,0-.07-1.81c-.07-.46.45-1.35-.7-1.2l.13-.63.45-.18h0c.11-.77.21-1.53.31-2.3h.22v2.61l2-.52-.58-.26c.18-.23.46-.44.49-.67a17,17,0,0,0,0-1.89,1.11,1.11,0,0,0,0-.17s-.05-.05-.07-.05L182.4,71l-1.63-.51.8-.39-.72-.68h0l.41-.21.64-.21.22-.22h0l.88-.18,1-.47.27-1.21-.5-.12.9-.34.09-1.59h0l.15-.78,0,0h-.24l-1.88.71-.67.07-2.36.8h-.24c0-1,.81-1.18,1.54-1.43.46-.16.94-.3,1.39-.5.15-.07.23-.31.48-.67l-1.89.47v-.22l1.45-.47.77.11c0,.16-.13.44-.09.46a1.61,1.61,0,0,0,2.06-1l-1.35.31-.27-.27.81-.27,1.15-.22-.45-1,.2-.72-.19-.24-1.78,1.16a.29.29,0,0,0-.16,0c-.52-.69-1,.15-1.46.07L181.46,60l0,0,.26-.14,1.91-.87,1.3-.41,1.39-.63.33-1.29.94-2-1.22-.91.1-.21H188l-.25-.74,1.22-.84v-.42c-1.66.77-1.88-.78-2.56-1.44-.39-.38-.27-1.29-.38-2L187.72,47l.49-1.14a.26.26,0,0,0,.11-.07c.47-.33.44-.51-.16-1l-.42,0-.88,0-1.25.21.63-1.14,1.27-.34,1.26-.23,0-.22-1.23.08-.83.07V42.9l1.71-.44.42-.2h0l.44-.2h0l.73-1.68-2.46.6a.24.24,0,0,0-.2,0l-.91,0-.17-.67c1.89-1.6,4.5-1.65,6.91-2.27s4.74-.87,6.89-1.81c1.32-.57,2.67-.8,4-1.29a4.82,4.82,0,0,0-1.1-.45,6,6,0,0,0-1.27.1l-2.41-1.06h0l-.63-.46h0l1-.08v-.21l-.63-.31-.16-1.26,1.29-.59.6-.33,1.43-.3L202,29l1.3-.59c-.45-1-.85-1.15-2.35-.68l-2.74.47-.27,0h0l.87-.66,4.28-1.61-3.18.37-.24-.26c1-.21,1.94-.39,2.9-.65a5.55,5.55,0,0,0,1-.6l.36-1.06.42-.35-.08-.16-3.78.9-.22,0-.29.05-.32.1.88-.74-.47-.27c1.9-.67,3.81-1.33,5.71-2a5.67,5.67,0,0,0,1.46-.77c1.27-1,2.5-2,3.74-3l2.82-1.92c1.79-1.13,3.59-2.24,5.36-3.41.67-.44,1.27-1,1.9-1.52,1.12-.29,2.26-.52,3.35-.89,2.31-.77,4.59-1.62,6.88-2.44l1.72-.47,2.37-.49.23,0L236,6.2l1.2-.2.68-.11.38-.06.43-.13.22,0c1.89-1.39,4.12-.82,6.2-1,2.55-.22,5.11-.23,7.67-.32a58.94,58.94,0,0,1,16.3,2c-.48.45,0,.51.27.61s.9,0,.59.66h-1.48l.3.52-1,.26,3,.72c.23.08.47.15.7.25,2.08.94,4.17,1.37,6.3.15l.92-.28.41-.17.24.49-3.48,1.2a2.68,2.68,0,0,0,2.46.49,7.06,7.06,0,0,1,2.35-.08c.78,0,1.57.1,2.65.18l-.58.33c-.72.21-1.69-.61-2.18.53l-.22.09-.92.32.79.27L280,14c-1.1-.57-1.92,0-2.77.56l.1.4,2.86-.72,2.36.89h0l.42.39-.41.11.42.34.22.26,0,.23-.21,0-.1,0,.09.13h0c.13.14.25.29.37.43-.06.15-.12.29-.19.44l-2.73,1.33-.8.34.52.9-1.68,1,.09.25.68.1.27.26.24,0,4-1.13,0,.47c-.74.43-1.46.93-2.24,1.29-1.07.48-2.2.86-3.3,1.28l.07.21,2.64-.69.27.26-3.62,1.53-1.69,1.1.81.58-.58.32.1.24L281,25.12l1.47-.49-.29.78c0-.06.06.06.15.18-.73.5-1.45,1-2.21,1.5a8.87,8.87,0,0,1-1.24.6l-2.06.82-1.58.52.07.23,1.65-.54,2.15-.79c2.53-.83,5.05-1.67,7.58-2.48,1.31-.42,2.64-.79,4-1.18.18,0,.44-.09.51,0,.71.86,1.13,0,1.63-.3l-1.27.26,0-.21.47-.37,4.72-1.27.83.18-1.11.88.16.26a23.56,23.56,0,0,1,6.75-.52l.71.48-4.77,1.55.07.26,3-.68.05.3-1.16.49-1.51.45,0,.33c.84-.08,1.69-.2,2.54-.21.29,0,.58.28.87.43l1.67.89-.58.29.15.2.44,1.67-1.49.65-.65.45,0,.43-.18.08.34.08s.06.05.07.08,0,.09,0,.1l-2.07,1.11.76.43c.62,0,1.25,0,1.86-.1.89-.13,1.76-.32,2.64-.48-1.43,1.37-3.31,1.85-5.06,2.65l2.05-.36.45.22-2.32.82c-.45.26-.93.47-1.35.77-.62.45-.43.71.26.78a1.23,1.23,0,0,1,0,.19l-.8.34.09.26,3.95-1.28,1-.19c0,.31-.11.61-.17.92a5.37,5.37,0,0,1-1.15.84c-3.41,1.23-6.84,2.42-10.27,3.62l-.59.23-3,1-1,.28.06.23,1.05-.3,2.14-.61c2.3-.58,4.66-1,6.89-1.8a17.83,17.83,0,0,1,3.62-.76h1.29c.42.44.61.41,1.37-.33l-1.39.34.45-.64,4-.89.68-.08.6-.06,0,.38-.7.75.14.23c1.18-.12,2.36-.16,3.51-.36,1.5-.26,2.86.4,4.29.54.08,0,.13.23.24.45l-1.06.15c-.48-.83-.77-.22-1.09.14h0l-3.31.73.05.29,3.06-.54.06.26-.69.37-.63.15-.23,0-1.18.31a2.48,2.48,0,0,0,2.83,0l2,1.72c-.57.59.1,1,.44,1.58a10.61,10.61,0,0,1-1,.67c-.54.3-1.11.54-1.66.81h0l-.41.08v.11h.4l.22.26-.4.06V48l.37,0c0,.14,0,.38-.08.41-.45.19-.92.33-1.39.48-.1.17-.32.39-.27.5.34.76,1,.57,1.55.36l2.57-.5.52.26h-.06l0,0c-1.19,1.15-2.78,1.3-4.27,1.72l-.81.21,0,.19.77,0,1.68-.22.25.25-3.09,1.2,1.38.47.06.31,1.45-.15,1.69-.12-1.27.47.41.38-1.12.81-.38.35c.87.64.23.79-.31,1-.7.33-1.37.72-2.06,1.08l.69.38-.66.2,0,0,0,0,.64-.21,1.08.65-3,.68c.75,1.27,1.62.58,2.41.44.45-.08.89-.24,1.33-.36l.45-.19.25-.05.16.41c-1.24,1.36-3.08,1.53-4.56,2.5L314,61v.67c-.8.16-1.62.27-2.39.5a1.91,1.91,0,0,0-.85.82c2.6,0,5.15-.41,7.53.85l0,.23-.22.06c-1.81-.62-3.22.89-4.95.66l.07.4,3.13-.49-.44.61-2.44.42,0,.32c.88,0,1.76,0,2.63,0a1.1,1.1,0,0,1,.61.29c-.16.72.6.37.76.68l.13.26a.27.27,0,0,0,.1.15l-.32.65.47.07.25.61L318,69l.32,0,.11.1a8.65,8.65,0,0,1-.91.81c-.45.29-.94.51-1.41.76l-.37.57.7.18-2.12.76c.28,1.09.82,1.27,1.6.86.73-.13,1.44-.29,2.17-.38a2.65,2.65,0,0,1,.82.13l-1.3,1.06-3.61.76,0,.27,2.45-.24.27.27-2.76.68-.9.38a.28.28,0,0,0-.15.08l-.27,1.22-.52.11,0,.17.92-.08.89-.17,2.76-.66a.34.34,0,0,0,.2,0l.9-.12a.51.51,0,0,1,0,.13l-1.15.51.45.35-.4.41,0,.43,0,0-.7.17H316l-.07,0-.94.14c.51.88-.32,1-.89,1.33l1.13.13-1,.37-.72.24,0,.17.68-.08.45-.11.2,0,1.49-.26,1.06-.19.74-.14c1-.15,2-.38,2.94-.44a17,17,0,0,1,2.35.13l.6.67a.64.64,0,0,0-.2,0l-.3.06-.32.09a4.48,4.48,0,0,0-1.36-.29c-1.12.13-2.23.38-3.34.59l-2.67.7-2.29.55-1,.17.05.28.94-.22.85,0-.68.59-1.12.29,0,.21,1.36.19.63,0a.54.54,0,0,1,0,.18l-.12.18.1,0,1.73-.17v.16a1.29,1.29,0,0,0-.21.06,3.51,3.51,0,0,0-.32.36l6.95-1.25,1.06.67-.15,1.21-3.46.85.23,1.45-2.38.11-.05,0h.07l-2.67.34,1.32.71.26.51-1,0,.37.75h0a3.1,3.1,0,0,0,.18.55c.51-.08,1-.21,1.51-.32l5.11-.89,1.09.66-3,.68c-2-.53-3.88.45-5.83.74l.65.27-.18,0-.78.09.05.23.7-.11,1.46,0,.9.14-.45.18-2.46.47.07.37,2.42-.52L317.71,94l1-.21,4-.79c.32-.06.65-.14.51.39h-.75l0,.24.69-.26c0,.11.05.3,0,.32l-4.3,1.6-2.6.58-1.27.27c-1,.25-2,.47-3,.77-.29.09-.49.44-.74.66l.94.3-1.12.42.09.3,2-.5.23-.22H314l.89-.17c.74-.17.33.53.56.75l0,.27.2.46,0,0c.21.23-.45.93.43.8v0l.19.2-2.07,1.6.51,1.14-3.45,1,.08.5h1.13l.05.23-1.35,1h0l-.4.5.65.4c1.72-.66,3.45-1.31,5.17-2,.68-.27,1.32-.79,2.07-.18L316.12,106l-2.77.84-.2,0-.61.18.36.43-.32.18c.15.08.33.25.44.21a6.93,6.93,0,0,0,.93-.41l.46.23-1.6.74.12.25,1.48-.69a7.17,7.17,0,0,0,.29,1.15c0,.1.37.07.57.09l3-1.3a3.37,3.37,0,0,1-1.91,2.58l-3.91,1.86c-1.94.91-3.87,1.83-5.81,2.73-1.35.62-2.73,1.2-4.09,1.83a7.45,7.45,0,0,0-1,.6l-1.76.43.11-.53.09.22-2.47,1.62-.47.18-.35.15-.7.33-2.21,1.69.13.25,3-.66c-.09,1.44-1.13,2.32-2,3.31l-.23.3v0l-.19.07-.39.85L286.82,131l-1.31,1,0,0-.41.05-.46.38h0l-.23.26.23.58-1.27.91-1.3.82-2.52,1.36,1,.43-1.59.84.09.2,1.8-.81,3.52-1.66,5.13-3,.77-.54.81-.46.45,1.08a51.36,51.36,0,0,1-10.31,6.25l-1.24.61-1.82.77h-.07l-.05,0-.63.26L272.8,142h0l-4.09.93c-1.28.29-2.58.5-3.85.84-2.9.76-5.91.76-8.85,1.26l-.23,0-7,.13-.47,0-.44,0-1.69-.12-.63,0-.46-.08c-.9-.12-1.79-.26-2.69-.32-.22,0-.47.25-.7.39l-.45-.1-.23,0-.94.1-.14-.12-4-1-.92-.24c.4-.54-.11-.51-.38-.6-2.4-.81-4.81-1.62-7.22-2.41a1.81,1.81,0,0,0-.57,0l-.43-.38a20.75,20.75,0,0,1-2.31-1,1.38,1.38,0,0,0-1.52,0h-1.68l-1.3.39-.66.19h0l-.61.11-.42.09-.22,0h0l-.25,0-.52,0-.55,0-.39,0a1.48,1.48,0,0,0,0-.21l.88-.78c-1.86-.23-3.55-.15-5.08-1l-.24-.71h.31c.12.12.28.37.36.34.89-.24,1.77-.53,2.65-.81l-.06-.26-2,.44c-.19-.39-.16-.65.36-.7s.95-.17,1.73-.31c-.57-.27-.94-.6-1.18-.52-1.08.36-1.46-.45-2-1s-.28-1.63-.82-2.29a5.24,5.24,0,0,0-.92-1,14.39,14.39,0,0,1-1.55-.86c-1.3-1.21-2.53-2.49-3.79-3.75l-.83-.45h-.65l-.21-.42.05-.79c-2.28-.24-4.58.07-6.65-1.62h2.89l-1.19-.9,2.19-.34c-.23-.27-.37-.57-.57-.62a9.56,9.56,0,0,1-1.34-.11c-.3-.11-.49-.51-.73-.79.18-1-.7-1.72-.72-2.68,0-.18-.35-.35-.53-.52-1.79.32-3.31-.46-5.16-1.16l3.08-.24c-.33-.41-.5-.61-.66-.82,0,0,0-.07,0-.08a.21.21,0,0,1,.1,0l1.19-.19-1.84-1.51-1.22-.63a3,3,0,0,0,0-1c-.46-1-1-1.92-1.49-2.88l-.47-1.25-.56-1.21-2.12.71-1.61-.36.87-.36,2.51-.88-.35-.92-.19-.2-.26-.42-.64-1.07-.29.11c-.92.34-1.83.73-2.65-.06l.07-1.14,2.06-.92L186,98.33l-.23-.45-.21-.82-1.81.53-.17-.2-.36-.35,1.88-.88-.2-.87-1-.4-.65-.2L182,94.43v-.6a.5.5,0,0,1,.21,0c.35.67.84.35,1.1,0a3.82,3.82,0,0,0,.42-1.26l.42-.61-1.3-.49h0l-.64-.38-.56-.83.64-.28-.86-.25,0,0-.13-1.33,1.91-1Zm104.73,42.65-.21.18h0l-.64.42-.94.76.71.08H287c2.75-1.38,7.63-5,8.64-6.32l-2.17.58c-.49.16-1,.51-1.46.44-.88-.12-1,.17-.72.88l-.42.15-.07-.27-.05-.76-1.15.85c0,.43-.88.72-.22,1.26l-1.18,1.35-.07,0-.64.35ZM266.88,9.57l.46.15.18,0-.19.42-.43,0-.24,0-.4-.11-1.09-.23-.05.22,1.12.6h0l.87.2h0l.51.78-.08.25a.61.61,0,0,1-.14.07l-.13.07.15,0a3.83,3.83,0,0,0,3.38-.12l.95-.46,1.41-.43,0-.48-4.92-1L266.9,9.3l-1.55-.43-.08.3,1.59.38ZM185.2,78.26l.39.17.64-.23.44-.2,1.26-.17V75.2c-.2-.25.56-1-.43-.86L186,74.16l-.15,0h-.43c-.74.42-.62.93-.14,1.48l.09.31,0,.74,0,.43Zm1.93-14.78h0l-.42,0c-.3.18-.82.33-.86.56-.17.87-.19,1.77-.28,2.76l1.94-.84h0a1.3,1.3,0,0,0,.41-.09c.25-.18.49-.39.73-.59l-.87-.36a3.56,3.56,0,0,0-.35-.07c.68-.53,2-.54,1.54-1.79l-1,.16a.19.19,0,0,0-.19,0ZM216.19,53l1-.22-.24-.46-.8.68-.07,0a.07.07,0,0,0,0,0Zm69.24-24.22-1.95.31,0,.3,2-.36,1.23-.32-.08-.29Zm-91.92,74.73-.65-.86.23,0,.22.37.11-.13c-.08-.09-.18-.17-.27-.26l.11-.55-.4-1.12-1,.26.12.41v.64l.4.47a4,4,0,0,0,.38,1c0,.07.46-.1.7-.16l.05-.08Zm62.87-88.28-.48.23,0,.21,1.54-.13.39-.9a3.85,3.85,0,0,0-.87.15A3.19,3.19,0,0,0,256.38,15.19ZM274.05,30.8l1.87-.38-.06-.25-1.9.34-1.27.59.17.34Zm3.13,17.68-1.11.58-3.38.71-2.24.56h-.23l-1.3.13-.38-.13c.08.19.2.45.3.71l-.26.12s0,0,.05.05l2.75-.64,1.08-.17-.24.36.13.19,2.47-1a30.39,30.39,0,0,0,7.09-1.29c2.85-1,5.84-1.64,8.76-2.45a7.18,7.18,0,0,0,.87-.35l-.1-.31c-.73.2-1.45.43-2.18.61-3.31.78-6.63,1.54-9.95,2.31Zm5.32-2.13.62-.49-.2-.31-1.23.8-1.15.67.16.3ZM304,115.06a10.08,10.08,0,0,0,1.52-.72c.16-.11.11-.53.16-.81l-2.44.8.14.35,1.71-.73-1.14,1-.27.12s.06.08.07.07ZM285.08,45.5l-1.44.33.15.45,1.29-.63,1.8-.11,0-.34ZM221.33,51l-3.13.68.13.45,3-1.14.23-.15ZM280,29.19l2.09-.53-.12-.44-2,.58-2,.58.08.28ZM261.28,14.44l.62-1.39-.18-.23-1.21.72.63.9-.73.31.55.45Zm12.23-2.39-.18.3.42.15,1.72-.62.95.39.12-.29-1.09-.52a2.44,2.44,0,0,0-.91-.25C274.08,11.28,273.39,11.21,273.51,12.05Zm-87,60.73.37-.17c.38-.19,1-.32,1.08-.57a5.55,5.55,0,0,0-.11-1.94c0-.24-.35-.65-.48-.62a5.92,5.92,0,0,0-1.91.55c-.23.12-.19.73-.27,1.12s-.15.93-.19,1.4c-.06.68.24.9.87.59A6.88,6.88,0,0,0,186.48,72.78Zm14.3-17.89.91-.7-.1-.16-1.54.63,0,.17.7.06c-.41.13-.82.28-1.24.4-.07,0-.18-.12-.27-.18l-.21.74,3.82-1.1-.1-.34Zm65.69-20.18c.64.71,1.15,0,1.71-.15a9.42,9.42,0,0,0,1.77-.23c2-.65,3.91-1.36,5.86-2,1.31-.46,2.62-.9,3.92-1.37a4,4,0,0,0,.7-.38l-.14-.3c-.68.26-1.35.53-2,.75-2.9.94-5.81,1.86-8.71,2.78l-1.13-.08L264,34.94l.11.39ZM188.16,57.47l1.26-.46.89-.44,1.07-.15,0-.2-.39-.08a1,1,0,0,1,0-.16l.86-.72-.14-.24-3.23.56-.17-1.28-1.1,3.57Zm67-48.41,2.2,1.39.54-2-2.74.27h-1.52l-.39,1.05.66.3C254.21,9.51,254,8.32,255.14,9.06ZM211.76,49.13l-.15-.56-9,2.31.11.41Zm41.66,3.29-.12-.34-5.94,1.58.07.26ZM290,44.34l.06.31,3.3-.56-.11-.51Zm-15,88.73c-1.11-.85-1.83-.72-2.28.48Zm34.3-60.77v.3l3-.42,0-.28Zm-3.68.54,0,.36,2.22-.41,0-.21Zm-98-19.69-.06-.33-2.52.75.07.25Zm64-21.26-.14-.42-1.67.81.09.21ZM241.2,56.73l.1.35,2.08-.51-.07-.28Zm55.1-12.22.08.31,1.88-.48-.08-.32ZM239.15,57.76l.08.32,1.57-.34-.12-.46Zm37.3-44.11.09.29,1.71-.51-.11-.33ZM227.49,63l.08.31,1.94-.47-.07-.31ZM200.9,122.74l0-.33-1.52.15,0,.3Zm84-45.3v-.35l-1.83.14,0,.4Zm7.53-1.2,0-.36-1.3.1,0,.38Zm5.84,40.29.1.3,1.07-.33-.1-.3ZM185.82,80.12l-.36,0,.22,1.59.31,0Zm1-.23c-.55.12-.55.12,0,1.3Zm88.68-1.18.13.39,1.29-.61-.11-.25ZM198.39,51.89v.24l2.18-.19,0-.26Zm45.33,7.23-.06-.28-1.3.28.06.28Zm69,40.94,0-.32-1.43.54.12.31ZM201.49,52.62l.07.34,1.29-.34,0-.23Zm-6.76,54.18-.29.21.78,1,.27-.22Zm81.65-29,.1.33,1.28-.38-.1-.32Zm-18.8-22.53-.16-.23-1.09.51.12.26Zm-12,2.76,0-.22-1-.05V58Zm-32-9.51.07.32,1.06-.38-.05-.2Zm-23.67,4.58v-.31l-.77.07,0,.24Zm101.94,64.3-.13-.26-1,.46.13.26ZM187,61.06l.1.27,1-.34L188,60.7Zm79.52-8.92.09.33.67-.31-.1-.23Zm14.92-4.37-.05-.32-.82.17,0,.22ZM197.9,56l-.09-.2-.82.35.1.22Zm108.64,57.32.2.2.36-.43-.15-.14ZM256.32,14.34l-.17-.09-.22.46.14.06ZM246,57.59s0-.06,0-.07l-.09,0,0,.12ZM230,62.5l.08,0s0,0,0-.07l-.08,0S230.05,62.48,230,62.5Z"/><path class="cls-2" d="M283.39,134.09l1.27-.91c2.55-1.63,5.12-3.24,7.65-4.91a22.52,22.52,0,0,0,2-1.68h0l.64-.64h0l3.42-2.93-.21-.26-.56.24-.38-.07.31-.39s.06,0,.05-.07a.75.75,0,0,0,0-.16h0l.61-.25.26,0c.82.57.71-.46,1.1-.65H301l-1.31,1.47.15.13,1.35-1.18c0,.44.07.88.11,1.31l-2.67,1-.87.43h0L296.35,126l.1.12-1.2.57,0,.18,1-.17.76,1.45-1.51.53-1.27.18-3.2,2.37-.81.46-.33,0,.18-.24s0-.06.06-.34l-1.22,1h0l-1.08.65h0l-.87.43h0l-.65.43h0l-.45.23h0l-1.09.66,0,0-1.31.65h0l-.39,0Z"/><path class="cls-2" d="M183.88,94.89l1,.4-2.51,1.14-.67.41.13.21,1-.42a18.39,18.39,0,0,1,1.73-.84c.12-.05.36.24.55.37l-1.88.88h0l-.45.23h0l-.66.31c-1.17.07-1.56-.39-1.38-1.63l-1,.22-.11-.28a3.31,3.31,0,0,0,.71-.49c.21-.24.48-.6.42-.84-.13-.56,0-.73.55-.71l0,.75.62-.15,1.28.26c-.09.11-.19.22-.28.34l-.46.17.06.13.49-.19Z"/><path class="cls-3" d="M313.14,98.13l-2,.5-.09-.3,1.12-.42-.94-.3c.25-.22.45-.57.74-.66,1-.3,2-.52,3.05-.77h1.59l0-.2-.31-.07,2.6-.58.83.25,0,.31-5.19,1,.3.6,0,0-.54.08,0,.11h.48l.08.09-.89.17h-.63L313,98Z"/><path class="cls-4" d="M180.85,69.42l.72.68-.8.39,1.63.51.64.16.26.19.12-.4.8-.24a17,17,0,0,1,0,1.89c0,.23-.31.44-.49.67l.58.26-2,.52V71.44h-.22c-.1.77-.2,1.53-.31,2.3a9.92,9.92,0,0,0-.06-2c-.08-.36-.48-.67-.79-1a1.41,1.41,0,0,0-.57-.21Z"/><path class="cls-5" d="M231.38,7.28c-2.29.82-4.57,1.67-6.88,2.44-1.09.37-2.23.6-3.35.89a47.46,47.46,0,0,1,8.95-3.46c.83-.27,1.71-.42,2.56-.62Z"/><path class="cls-2" d="M183.23,97l.36.35-.4.17.05.15.52-.12,1.81-.53.21.82-1.48.67h0l-.65.21.13.72c-1.73.2-2.45-.1-2.84-1.14.61-.15,1.22-.3,1.82-.47,0,0,0-.23,0-.36s.06-.06.05-.08a.55.55,0,0,0-.05-.17h0l.45-.23Z"/><path class="cls-5" d="M200.15,30.59l-1.29.59c0,.4.1.83.16,1.26h-.2l-1.13-1.93a8.16,8.16,0,0,0,1.29,0c.2,0,.39-.27.56-.44s.38-.43.57-.65l.2-.18-.16-.13-.21-.27.62-.05L202,29l.14,1-1.43.3-.79.07Z"/><path class="cls-3" d="M182.74,85.26l.39,2.11-1.91,1,.13,1.33-1.48-1.93,1.53-.23.53-1.15-1.48.17a1.11,1.11,0,0,0,0-.19,14.09,14.09,0,0,0,1.6-.48C182.33,85.77,182.52,85.47,182.74,85.26Z"/><path class="cls-3" d="M226.86,140.45a1.81,1.81,0,0,1,.57,0c2.41.79,4.82,1.6,7.22,2.41.27.09.78.06.38.6l-8.39-2.75Z"/><path class="cls-6" d="M303,34.74,301,35.1c1.75-.8,3.63-1.28,5.06-2.65l1.07-.05.21,1.42-.67-.33Z"/><path class="cls-5" d="M317.81,92.18l.45-.18-.9-.14a1,1,0,0,1,.05-.16L322.3,91l.67.22-3.9.83c0,.38.72,1.07-.37,1-.11,0-.28.31-.36.5,0,0,.23.19.35.29l-1,.21c.05-.61.09-1.07.13-1.54Z"/><path class="cls-5" d="M278.68,9.2l-.92.28-1-.39h0l-5.34-1.77c-.62-.61-1,.3-1.53.25.31-.67-.26-.55-.59-.66s-.75-.16-.27-.61l8.42,2.6C277.86,9,278.27,9.1,278.68,9.2Z"/><path class="cls-6" d="M316.49,74.71,314,75l0-.27,3.61-.76c.64-.11,1.32-.18,1.48-1,1.22-.22,1.41-.07,1.29,1.22l-.25-.62-.6.62c-.21-.06-.45-.23-.63-.18C318.09,74.17,317.29,74.45,316.49,74.71Z"/><path class="cls-3" d="M317.4,83.28l5.8-1.11c-.23.33-.36.51-.48.7l-.22.21h0L317.2,84Z"/><path class="cls-2" d="M200,26.25l3.18-.37-4.28,1.61-2.56.22,0-.44Z"/><path class="cls-4" d="M312.29,57.89l-.69-.38c.69-.36,1.36-.75,2.06-1.08.54-.25,1.18-.4.31-1l.38-.35.71,1.12-.15.45-.3-.2-.2.4a.14.14,0,0,1,0,.11,1.07,1.07,0,0,0-.63,1.19l.4.19-.84.23-1.08-.65Z"/><path class="cls-6" d="M312.92,51.27c1.49-.42,3.08-.57,4.27-1.72l1.31.24.59.54-.82.06-3.68,1-1.68.22Z"/><path class="cls-6" d="M297.54,119.31l2.47-1.62-.09-.22-.11.53,1.76-.43c-.24.59-.58.9-1.28.68-.18,0-.52.15-.69.33a8.84,8.84,0,0,0-.76,1.08l1.33.06,0,.35-1,.1Z"/><path class="cls-6" d="M181.09,63.47,183,63c-.25.36-.33.6-.48.67-.45.2-.93.34-1.39.5-.73.25-1.5.44-1.54,1.43L178,65.46l.34-.66Z"/><path class="cls-5" d="M196.32,117.14c.18.17.52.34.53.52,0,1,.9,1.68.72,2.68l-.93-.84.5-.88-3.48.52-.08-.21a13.55,13.55,0,0,1,1.3-.47c.51-.12,1-.16,1.69-.25Z"/><path class="cls-4" d="M301.15,25.57l1.16-.49-.05-.3-3,.68-.07-.26L304,23.65l-.71-.48a3,3,0,0,1,.79,0c.18.05.44.26.45.41s-.21.42-.38.47a11.52,11.52,0,0,1-1.44.31C302.9,25.72,301.85,25.41,301.15,25.57Z"/><path class="cls-3" d="M273.3,142.38l-7.42,2.08-.14-.44c.26-.07.53-.12.78-.2l5.63-1.57a4.4,4.4,0,0,1,.73-.07Z"/><path class="cls-3" d="M315.92,73.11c-.78.41-1.32.23-1.6-.86l2.12-.76-.7-.18.37-.57.49,0,.18.19.44.44,2.2.27c-1.25.18-2.56.34-3.85.57-.29,0-.53.36-.67.78Z"/><path class="cls-3" d="M316.75,78.4l0-.43.2,0,.44.17,0-.09-.27-.1L322,77l.09.43C320.45,78.54,318.5,78,316.75,78.4Z"/><path class="cls-3" d="M279.24,21.29l-.68-.1-.09-.25,1.68-1,1.83-.63.76-.23h0l2-.25,0,.11c-1.46.47-2.93.91-4.37,1.44A5.1,5.1,0,0,0,279.24,21.29Z"/><path class="cls-6" d="M313.15,106.91l.2,0a2.56,2.56,0,0,0,.16.33c.88-.38,1.74-.78,2.61-1.17l2.55-1.49.51.37-.05,0-2,1.25L314,107.5a6.93,6.93,0,0,1-.93.41c-.11,0-.29-.13-.44-.21l.32-.18Z"/><path class="cls-3" d="M315.85,81.74l2.67-.7.41.2.4.37v.23h0l-1,.07-2.85.61s0,.24,0,.37l-1.45.27-.27-.07.68-.59,2.29-.57Z"/><path class="cls-5" d="M291.06,131.26l3.2-2.37-.09.56-.09.54-2.57,2.35Z"/><path class="cls-2" d="M297.54,119.31l1.69.86v.23l-.63,1-.24.3,0,0-.41,0-.88-.55.76-1.08a11.74,11.74,0,0,1-1.25.18c-.19,0-.38-.16-.57-.25l.7-.33.35-.15Z"/><path class="cls-5" d="M184.83,64.86l-.09,1.59v-1c-2.18.46-2.39.69-2,2.12-.08.39-.83.92.23,1.06l-.88.18c-.13-.39.24-1-.39-1.14.76,0,.38-.87.6-1.36l-.37-.42c.56-.25.64-.59.19-1l.67-.07.08.87Z"/><path class="cls-5" d="M316.11,91.66l-.65-.27c2-.29,3.8-1.27,5.83-.74l-3.87.86Z"/><path class="cls-3" d="M276.74,26.41l-.81-.58,1.69-1.1c0,.12,0,.25.05.37s.06.26.08.38l-.46.17,0,.11.51-.17,3.35-1.12.08.19-.63.32Z"/><path class="cls-5" d="M314,61.7V61c.26-.11.58-.15.74-.34.47-.52,1.41-.37,1.63-1.21l-.21-.29c.16.06.43.1.45.19s.08.55,0,.68a5.24,5.24,0,0,1-1,.66l.89.51-.05.3h-1.17l.48-.1,0-.1-.45.2-.1,0-.09,0-.42-.16,0,.21Z"/><path class="cls-3" d="M327.2,91.51l-6.79,1.07-.05-.34,6.79-1Z"/><path class="cls-6" d="M316.35,80.53l-1.49.26-.2,0-.45.11V80.6l1-.37-1.13-.13c.57-.34,1.4-.45.89-1.33l.94-.14-.27,1,.89.41Z"/><path class="cls-3" d="M282.51,15.09l-2.36-.89L280,14l.24-1.11-.79-.27.92-.32c0,.41.83.64.24,1.16.22.11.44.31.66.31a6,6,0,0,1,.93-.12l-.68.59Z"/><path class="cls-4" d="M314.17,47.38c.55-.27,1.12-.51,1.66-.81a10.61,10.61,0,0,0,1-.67l1.14,1-1.74.23-.72.89-.64-.41.32-.11,0-.1-.47,0Z"/><path class="cls-5" d="M314,107.5l3.21-1.3.24.24-2,1c-.08.43-.17.72-.19,1a5.56,5.56,0,0,0,.08.82c-.2,0-.53,0-.57-.09a7.17,7.17,0,0,1-.29-1.15v-.3Z"/><path class="cls-4" d="M317.22,71.39l-.44-.44.39-.19h-.57l-.49,0c.47-.25,1-.47,1.41-.76a8.65,8.65,0,0,0,.91-.81l1,1.26-1.55.22Z"/><path class="cls-5" d="M301.55,33l-.76-.43,2.07-1.11s0-.07,0-.1,0-.05-.07-.08l-.16-.16,0-.43.66-.11.43.74a3.1,3.1,0,0,0,.6,0,2.62,2.62,0,0,1,1.18,0,22.88,22.88,0,0,1-2.8.69C302.05,32.19,301.69,32.41,301.55,33Z"/><path class="cls-6" d="M317.2,84l5.28-.91.27.25-6.95,1.25a3.51,3.51,0,0,1,.32-.36,1.29,1.29,0,0,1,.21-.06l.24-.18h.63Z"/><path class="cls-3" d="M182.86,62.38a1.76,1.76,0,0,0-.63-.08c-1.53.43-3.06.9-4.6,1.33a1.33,1.33,0,0,1-.88-.11L183,61.71Z"/><path class="cls-4" d="M189.86,107.32l.47,1.25-3,.7-.17-.36c.51-.26,1-.51,1.51-.8S189.46,107.58,189.86,107.32Z"/><path class="cls-5" d="M202.92,125.51l.21.42-4.9.49C199.67,125.44,201.36,125.81,202.92,125.51Z"/><path class="cls-4" d="M315.88,65.34l.44-.61-3.13.49-.07-.4c1.73.23,3.14-1.28,4.95-.66a3.28,3.28,0,0,0-.9.2c-.24.13-.37.45-.59.63A3.27,3.27,0,0,1,315.88,65.34Z"/><path class="cls-5" d="M282,19.36l-1.83.63-.52-.9.8-.34a7.38,7.38,0,0,1,.94,0c.44,0,.88.12,1.32.18,0,.05,0,.11,0,.17s.05.05.07.07h0Z"/><path class="cls-3" d="M314.85,47.63l.64.41s-.09,0-.1,0a1.11,1.11,0,0,0-.07.16l1.89-.19,0,.28-3.89.61-.44,0c.47-.15.94-.29,1.39-.48.07,0,.06-.27.08-.41a.88.88,0,0,0,0-.16l-.22-.26v-.2h0l.51.06Z"/><path class="cls-3" d="M318.69,88.71l5.67-.79.05.28-5.31.87Z"/><path class="cls-5" d="M314.59,51.42l3.68-1L317,51.72a.27.27,0,0,0,0,.07s.06,0,.1,0a.94.94,0,0,0,.1.1l-1.11.56v-.35l.55-.55-.21-.22-1.63.31Z"/><path class="cls-3" d="M315.45,98.49c-.23-.22.18-.92-.56-.75l-.08-.09a.15.15,0,0,0,0-.19l0,0c.66,0,1.33.12,2,.12a5.56,5.56,0,0,0,1.07-.18c-.11.15-.25.56-.5.65A13.94,13.94,0,0,1,315.45,98.49Z"/><path class="cls-5" d="M310.57,38.42l3.57-1c-.9,1-2.17.92-3.32,1.19Z"/><path class="cls-3" d="M187.51,102.61l.64,1.07-2.52.64-.14-.23,2.12-1.24s0-.07,0-.09A1.58,1.58,0,0,0,187.51,102.61Z"/><path class="cls-3" d="M188.21,45.83,187.72,47l-.42-.42-.23-.24-2.43-.18v-.3Z"/><path class="cls-6" d="M276.74,26.41l3.9-1.43.36.14L276.26,27l-.1-.24Z"/><path class="cls-6" d="M187.51,41l2.46-.6-.73,1.68-1.3-.64h0Zm1.39.05,0,.15.41-.07V41Z"/><path class="cls-5" d="M281.24,23.2l-.27-.26,4.33-1.81.09.26Z"/><path class="cls-3" d="M202,29l-1.48-.2a8.23,8.23,0,0,0,1.24-.22,4.52,4.52,0,0,0,.94-.51l-.12-.34H201c1.5-.47,1.9-.36,2.35.68Z"/><path class="cls-6" d="M213.89,15.54l-2.82,1.92-.37-.23,1-1.08.16.2.05-.21h0l1.08-.65h0l.66-.21Z"/><path class="cls-4" d="M313.56,42.06l.69-.37-.06-.26-3.06.54-.05-.29,3.31-.73c.1.28.21.56.37,1Z"/><path class="cls-4" d="M183.91,57.7l.81-2.25.41-.36-.39,2.77Z"/><path class="cls-5" d="M298.39,22l3.49-1.18c-.81,1.12-2.09,1.06-3.21,1.42Z"/><path class="cls-4" d="M282.69,18.9c-.44-.06-.88-.14-1.32-.18a7.38,7.38,0,0,0-.94,0l2.73-1.33h.45l-.2.61C282.61,17.85,283,18.63,282.69,18.9Z"/><path class="cls-5" d="M216,139.64a1.48,1.48,0,0,1,0,.21l-2.93.73C213.83,139.56,215,139.81,216,139.64Z"/><path class="cls-3" d="M181.46,60l.33,1.19c-.62.14-1.29,1.06-1.85-.1Z"/><path class="cls-3" d="M282.33,25.59c-.09-.12-.19-.24-.15-.18l.29-.78a4.83,4.83,0,0,1,1.13-.33,3.25,3.25,0,0,1,1,.29Z"/><path class="cls-6" d="M312.44,112.41l3.91-1.86c0,.11,0,.23,0,.34l-.61.5h0l-2.35,1.07h0l-.43.22h-.21Z"/><path class="cls-3" d="M193.06,113.1l1.84,1.51-1.19.19.45-.42-1.72-.27Z"/><path class="cls-4" d="M318.93,81.24l-.41-.2c1.11-.21,2.22-.46,3.34-.59a4.48,4.48,0,0,1,1.36.29l-1.09.26a4.15,4.15,0,0,0-1-.13C320.37,81,319.66,81.11,318.93,81.24Z"/><path class="cls-5" d="M182.38,82.71v.64l-3.16,1-.1-.28Z"/><path class="cls-5" d="M318.69,88.71l.41.36-1,.14-.67-.57.22.68-.64,0a.67.67,0,0,0,0-.2l-.26-.51,2.55-.55.05.16-.62.26-.08,0Z"/><path class="cls-3" d="M183.91,57.7l.83.16c.72-.3,1.68-.23,1.93-1.25l-.33,1.29-1.82.24,0,.34.39.05-1.3.41v-.66Z"/><path class="cls-3" d="M313.78,104.32l2.51-.8c.37-.11.75-.19,1.12-.29a.37.37,0,0,0,0,.18l-3.61,1.51Z"/><path class="cls-3" d="M200,26.25l-3.63,1A6.23,6.23,0,0,1,199.71,26Z"/><path class="cls-4" d="M241.69,144.91c.23-.14.48-.41.7-.39.9.06,1.79.2,2.69.32l-.2.31-.21.23h-.25l-1.45-.22Z"/><path class="cls-3" d="M181.28,84.43l-1,.83H178.7l0-.2,2.25-.82Z"/><path class="cls-4" d="M187.3,46.55l.42.42L186,48l-.28-.3,1-1.39Z"/><path class="cls-6" d="M303.3,36.84l-3.95,1.28-.09-.26.8-.34,3.22-1.05Z"/><path class="cls-6" d="M200.58,24.07l3.78-.9.08.16-.42.35-2.39.72Z"/><path class="cls-3" d="M323,91.25,322.3,91l3-.85.12.43Z"/><path class="cls-5" d="M303,34.74l3.62-1.25c-.8,1-2.06,1.09-3.17,1.47Z"/><path class="cls-3" d="M182,77.57c.07-.75.18-1.49.2-2.24s.25-.92.89-.53v.83l-.66-.52c0,.86,0,1.5,0,2.13a6.17,6.17,0,0,1-.36,1.21Z"/><path class="cls-3" d="M304.77,29.62,304.33,28c.27.31.54.62.78.95s.49.67.82,1.14h-1.34Z"/><path class="cls-3" d="M199.25,33.51l2.41,1.06c-.65.69-1.46.44-2.27.39l.53-.59Z"/><path class="cls-4" d="M315.45,82.88c0-.13,0-.36,0-.37l2.85-.61,0,.58Z"/><path class="cls-4" d="M313.1,76l.9-.38-.27,1.11-.17.37.45.23-.89.17-.44-.2.27-1.22.33.26.09-.11Z"/><path class="cls-5" d="M238.22,5.83l-.38.06-.68.11-1.2.2c0-.17,0-.33,0-.59C236.67,5.73,237.51,4.68,238.22,5.83Z"/><path class="cls-6" d="M314,77.37l-.45-.23,2.28-.57-.58-.11,1.51.25Z"/><path class="cls-4" d="M284.82,16.73l3.05-.84.09.36-3,.83Z"/><path class="cls-3" d="M324.25,90l-1.09-.66h2.67l0,.42Z"/><path class="cls-4" d="M222.6,139a1.38,1.38,0,0,1,1.52,0,20.75,20.75,0,0,0,2.31,1l-.63.21h0l-1.09-.43h0l-1.29-.44Z"/><path class="cls-6" d="M318.73,106.49c.15-.1.31-.2.45-.31l.57-.47-.66-.34,0-.42.05,0,1.77,1.32-1.85.43Z"/><path class="cls-4" d="M200.16,23.23l.47.27-.88.74-1.32-.32,0-.19Z"/><path class="cls-3" d="M195,25.83l3.38-.43,0,.28L195,26.1Z"/><path class="cls-4" d="M304.77,29.62l-.18.42c-.58.24.07,1.3-.87,1.31l-.43-.74.58-.34h-.59Z"/><path class="cls-5" d="M318.93,81.24c.73-.13,1.44-.29,2.17-.37a4.15,4.15,0,0,1,1,.13l-.63.23-.23.07-.64.15-1.3.16Z"/><path class="cls-4" d="M291.94,23.64l-.47.37,0,.21,1.27-.26c-.5.31-.92,1.16-1.63.3-.07-.08-.33,0-.51,0C290.75,23.38,291.51,23.84,291.94,23.64Z"/><path class="cls-5" d="M181.09,63.47l-2.8,1.33c.64-1,1.75-1.25,2.81-1.55Z"/><path class="cls-3" d="M318.73,106.49l.37.17-2.89,1.27-.14-.29,2.19-1,.46-.17Z"/><path class="cls-3" d="M283.8,20.85l0-.47v0l.47-.05v-.09l-.4,0,2.54-.13-.42.35-.44.2h0Z"/><path class="cls-4" d="M212.79,136.82l2-.44.06.26c-.88.28-1.76.57-2.65.81-.08,0-.24-.22-.36-.34Z"/><path class="cls-6" d="M298.59,121.36l.63-1c.67.12.82.47.45,1h-.19l-1.1.65-.26,0,.25-.42,0,0Z"/><path class="cls-6" d="M300.08,37.33c-.69-.07-.88-.33-.26-.78.42-.3.9-.51,1.35-.77l-.65,1.28Z"/><path class="cls-3" d="M183.68,92.58a3.82,3.82,0,0,1-.42,1.26c-.26.33-.75.65-1.1,0,.39-.29,1.15-.22,1-1A3.74,3.74,0,0,1,183.68,92.58Z"/><path class="cls-5" d="M316.49,74.71c.8-.26,1.6-.54,2.41-.76.18,0,.42.12.63.18l-2.77.85Z"/><path class="cls-4" d="M304.17,37.57c.06-.31.12-.61.17-.92v0l.6-.08-.17-.24a3.85,3.85,0,0,0,.61.24,1.28,1.28,0,0,1,.67.15Z"/><path class="cls-3" d="M177.19,83.3l2.94-.62.06.28-2.94.63Z"/><path class="cls-3" d="M300.08,37.33l.44-.27,2.71-.75s.06,0,.07.06,0,.07,0,.1l-3.22,1.05A1.23,1.23,0,0,0,300.08,37.33Z"/><path class="cls-3" d="M186.24,43.87,185.61,45l-1-.53.93-.74h0Z"/><path class="cls-5" d="M186.66,42.9v.33l-1.1.52h0l-1,.23-.11-.32Z"/><path class="cls-4" d="M179.75,88.71l-2.37.42,0-.32,2.35-.49Z"/><path class="cls-4" d="M320.25,46.05l-2.47.28,0-.33,2.49-.31Z"/><path class="cls-4" d="M190.55,110.48l-2.59.2,0-.32,2.6-.25Z"/><path class="cls-6" d="M291.49,42.89l-2.14.61-.14-.21,3-1c-.24.12-.49.23-.72.37C291.42,42.65,291.47,42.8,291.49,42.89Z"/><path class="cls-4" d="M317.19,77.56l-.45-.35,1.15-.51,1.18.3Z"/><path class="cls-4" d="M315.47,54.23l-.41-.38,1.27-.47.81.15.06.16Z"/><path class="cls-3" d="M294.08,130l.09-.54.09-.56,1.27-.18-.48.6-.5.48Z"/><path class="cls-3" d="M185.57,106.46l1.61.36c-.61,0-1.21,0-1.81,0a2,2,0,0,1-.7-.35l.66-.45a.19.19,0,0,1,.12.07l.13.39Z"/><path class="cls-4" d="M321.7,69.65l-2.27.2,0-.33,2.3-.24Z"/><path class="cls-3" d="M199.94,28.82l.21.27-2.45.37,0-.15Z"/><path class="cls-4" d="M321.27,81.3l.23-.07.89.38-3.06.68v-.46h0l1.33-.25Z"/><path class="cls-4" d="M180.24,66.64l-2,.54-.09-.41,2.07-.32Z"/><path class="cls-3" d="M181.38,89.73l.86.25-.64.28.56.83-1.22-.64Z"/><path class="cls-3" d="M280.55,12.17c.49-1.14,1.46-.32,2.18-.53Z"/><path class="cls-4" d="M319.09,72.91c-.16.83-.84.9-1.48,1l1.3-1.06Z"/><path class="cls-3" d="M301.15,121.87l-1.35,1.18-.15-.13,1.31-1.47,1-.83.12.2Z"/><path class="cls-3" d="M196.29,27.71l2.56-.22-.87.66Z"/><path class="cls-3" d="M311.19,105.79l1.35-1,.38.41Z"/><path class="cls-3" d="M319.13,105l0,.42-1.69,1.07-.24-.24Z"/><path class="cls-3" d="M201.63,24.4l2.39-.72-.36,1.06c-.09-.37-.09-.78-.7-.57A8.21,8.21,0,0,1,201.63,24.4Z"/><path class="cls-2" d="M298.38,124.43l.58,1-1.45-.09-.09-.11c.1-.18.2-.37.31-.55h0Z"/><path class="cls-6" d="M312.92,48.89l.44,0c0,.24-.06.48-.09.74l.93.08c-.6.21-1.21.4-1.55-.36C312.6,49.28,312.82,49.06,312.92,48.89Z"/><path class="cls-6" d="M244.88,145.15l.2-.31.46.08.63,0,1.69.12-.41.3-1.13-.14Z"/><path class="cls-5" d="M182.86,62.38l.15-.67.24-.62a.29.29,0,0,1,.16,0l.26,1.31.27.27-.62.23-.77-.11Z"/><path class="cls-3" d="M180.24,66.64v-.19l1.74-.6.37.42Z"/><path class="cls-3" d="M286.22,22.07l1.9-.55.08.21-1.87.68Z"/><path class="cls-3" d="M318.21,42.81l1.41-.83C319.82,42.91,319.2,43,318.21,42.81Z"/><path class="cls-4" d="M246.32,145.24l1.13.14h2.14l0,.37-3.21-.3C246.35,145.38,246.33,145.31,246.32,145.24Z"/><path class="cls-4" d="M316.87,102.08l-1.68.46-.09-.33,1.68-.47Z"/><path class="cls-4" d="M279.11,27.93l-2.15.79-.14-.21,2.06-.82Z"/><path class="cls-5" d="M312.92,105.2l-.38-.41c0-.07,0-.15-.05-.23l1.29-.24,0,.6a.26.26,0,0,1-.19,0l-.45.18A.35.35,0,0,1,312.92,105.2Z"/><path class="cls-4" d="M316.33,84l-1.73.17-.1,0,.12-.18,1.27-.47.48-.13.19.62h0Z"/><path class="cls-1" d="M240.07,144.87l-1.94,1-.18-.42,2-.69Z"/><path class="cls-3" d="M287,12.94l-1.52.54-.13-.34,1.53-.54Z"/><path class="cls-4" d="M313.35,112.46l2.35-1.07Z"/><path class="cls-2" d="M186.65,105.51c0-.25,0-.49.07-.73l.37,0h0l1.49-.19-1.75,1Z"/><path class="cls-4" d="M313.73,83.08l.27.07v.62l-1.36-.19,0-.21Z"/><path class="cls-3" d="M317,89.16a.67.67,0,0,1,0,.2l-.62.6-.37-.75Z"/><path class="cls-3" d="M182.71,104.51l-1.31.38-.1-.3,1.29-.45Z"/><path class="cls-3" d="M196.35,34.82l-1.43.26-.07-.31,1.42-.32Z"/><path class="cls-3" d="M320.14,51.46l-1.43.33-.08-.32,1.46-.26Z"/><path class="cls-4" d="M317.85,68.19l-.47-.07.32-.65.72.07Z"/><path class="cls-4" d="M208.62,131.55h1.48l0,.24-1.48.11Z"/><path class="cls-3" d="M179.29,92.18l-1.28.3-.08-.31,1.28-.34Z"/><path class="cls-3" d="M189.69,113.9l-1.3.15,0-.29,1.3-.22Z"/><path class="cls-3" d="M179,72.29l-1.17.3-.09-.27,1.18-.41Z"/><path class="cls-5" d="M186.65,105.51l.16,0,.07.07-.44.49-.87.36h0l-.13-.39a.19.19,0,0,0-.12-.07Z"/><path class="cls-4" d="M303.29,40.33H302a1.69,1.69,0,0,1,1.72-.63l-.45.64Z"/><path class="cls-4" d="M183.66,42.47l1.8-.29,0,.4-1.21.11Z"/><path class="cls-5" d="M315.26,76.46l.58.11-2.28.57.17-.37Z"/><path class="cls-3" d="M310.57,38.42l.25.24-1.76.39,0-.38Z"/><path class="cls-3" d="M317,61l1.47-.36.07.24-1.41.45Z"/><path class="cls-4" d="M183.64,58.28v.27L182,59.1l-.09-.26Z"/><path class="cls-3" d="M284.34,22.61l1.41-.38.07.26-1.37.42Z"/><path class="cls-3" d="M316.14,59.19l.21.29-1.35,0-.16-.41Z"/><path class="cls-3" d="M320.18,75l1.27-.2.05.31-1.33.14Z"/><path class="cls-3" d="M326,82.53l1.31-.15.05.28-1.3.26Z"/><path class="cls-4" d="M324,80.56l-.6-.67.92,0Z"/><path class="cls-4" d="M185.35,48l-1.64.1,0-.22,1.61-.25Z"/><path class="cls-4" d="M209.16,136c-.2-1.24-.2-1.24.61-1.18Z"/><path class="cls-4" d="M284,17.33h.93l0,.29-1.21.35Z"/><path class="cls-3" d="M298.39,22l.28.24-1.18.32-.83-.18Z"/><path class="cls-3" d="M306.91,34.87l-1.06.21-.07-.25,1.09-.29Z"/><path class="cls-4" d="M314.39,41c.32-.36.61-1,1.09-.14Z"/><path class="cls-4" d="M320.18,75v.25l-1.5.26-.05-.4Z"/><path class="cls-6" d="M314.64,53.5l-1.45.15,1.18-.66Z"/><path class="cls-4" d="M317.13,55.69l-1.46.33-.06-.33,1.51-.22Z"/><path class="cls-6" d="M278.14,140l1.82-.77a1.34,1.34,0,0,0,0,.2l-.65.45h0l-.85.21Z"/><path class="cls-3" d="M320,66.09l1.16-.16.07.26-1.17.31Z"/><path class="cls-3" d="M182,94.43l-.62.15,0-.75H182Z"/><path class="cls-3" d="M318.05,90.2c-.5.11-1,.24-1.51.32a3.1,3.1,0,0,1-.18-.55Z"/><path class="cls-4" d="M306.15,29.07H308l-1.89.35Z"/><path class="cls-3" d="M184.3,98.55l1.48-.67.23.45Z"/><path class="cls-3" d="M314.37,53l-1.18.66-.06-.31Z"/><path class="cls-5" d="M316.56,84l-.19-.62,1-.1-.2.72Z"/><path class="cls-3" d="M316.09,100.06c-.88.13-.22-.57-.43-.8C316.4,99.2,316.38,99.55,316.09,100.06Z"/><path class="cls-4" d="M273.3,142.38l-.42-.2a1.8,1.8,0,0,1-.08-.21h0l1.47-.11.06.22Z"/><path class="cls-4" d="M319.72,95.89l0-.31,1.32-.24.06.26Z"/><path class="cls-4" d="M315.7,111.39l.61-.5.73-.16.08.29Z"/><path class="cls-4" d="M180.47,86.37a1.11,1.11,0,0,1,0,.19l-1.09.4-.09-.31Z"/><path class="cls-6" d="M316.11,91.66l1.31-.15a1.21,1.21,0,0,0,0,.19,1,1,0,0,0-.05.16l-1.46,0a.76.76,0,0,1,0-.21Z"/><path class="cls-4" d="M219.62,139.42l1.3-.39c-.15.93-.87.44-1.35.54A.88.88,0,0,1,219.62,139.42Z"/><path class="cls-4" d="M231.38,7.28l1.28-.75.44.28Z"/><path class="cls-4" d="M279.33,9.52,279.09,9l.92-.37.18.28Z"/><path class="cls-6" d="M319.33,81.83v.46l-1.07.19,0-.58Z"/><path class="cls-3" d="M318.5,49.79l-1.31-.24,0,0h.06l.35,0,.84,0S318.49,49.7,318.5,49.79Z"/><path class="cls-6" d="M314.91,56.61l.15-.45c.49,0,.71.19.29.56-.21.18-.61.14-.93.2a.14.14,0,0,0,0-.11Z"/><path class="cls-3" d="M195,120.92l-1.08.1,0-.3,1.08-.13Z"/><path class="cls-3" d="M188.56,104.56l-1.49.19,1.34-.65.19.2Z"/><path class="cls-4" d="M317.37,103.41a.37.37,0,0,1,0-.18l1.19-.49.11.32Z"/><path class="cls-3" d="M243,145.16l1.45.22Z"/><path class="cls-3" d="M311.43,106.7l-.65-.4.4-.5Z"/><path class="cls-3" d="M198.82,32.44h.2l.63.31V33l-1,.08Z"/><path class="cls-3" d="M285.39,21.39l-.09-.26.23-.49h0l.44,0C286.5,21.42,285.52,21.09,285.39,21.39Z"/><path class="cls-6" d="M186.4,41l.91,0,.63.4h0l-1.48-.21s.06-.07,0-.09a.55.55,0,0,0-.08-.15Z"/><path class="cls-5" d="M223.45,139.42l1.29.44Z"/><path class="cls-3" d="M184.23,51.14,185,51l.06.3-.83.16Z"/><path class="cls-3" d="M185.13,55.09l-.41.36.21-1,.2,0Z"/><path class="cls-5" d="M284,17.33l-.24.64-.35.06.2-.61Z"/><path class="cls-5" d="M317.13,51.82l.94-.28.07.28-.91.1A.94.94,0,0,1,317.13,51.82Z"/><path class="cls-4" d="M211.54,137.12l.24.71-.66-.37Z"/><path class="cls-4" d="M197,29.51l-.78.11-.06-.3.79-.16Z"/><path class="cls-5" d="M225.8,140.28l.63-.21.43.38-.22.27Z"/><path class="cls-3" d="M188.16,44.78c.6.47.63.65.16,1Z"/><path class="cls-5" d="M213.62,15.29l-.66.21.67-.47Z"/><path class="cls-4" d="M284.17,15l.78-.11.06.24-.77.22Z"/><path class="cls-3" d="M282.94,15.49l-.42-.39.76-.16.13.18Z"/><path class="cls-5" d="M315.89,83.51l-1.27.47a.54.54,0,0,0,0-.18Z"/><path class="cls-5" d="M213,15.49l-1.08.65Z"/><path class="cls-4" d="M197,32.92l.63,0v.24l-.63,0Z"/><path class="cls-3" d="M246.32,145.24c0,.07,0,.14,0,.21l-.41,0h-.24l-1,0,.21-.23Z"/><path class="cls-5" d="M203.78,125.93l.83.46Z"/><path class="cls-5" d="M181.28,84.43l-.38-.19L182,84Z"/><path class="cls-5" d="M224.73,139.86l1.09.43Z"/><path class="cls-4" d="M302,120.62l.64-.5.05,0-.57.65Z"/><path class="cls-2" d="M294.55,129.79l.5-.48Z"/><path class="cls-6" d="M317.64,49.48l-.35,0-.52-.26Z"/><path class="cls-3" d="M298.38,124.43l-.66.22.87-.43Z"/><path class="cls-3" d="M317.62,89.32l-.22-.68.67.57Z"/><path class="cls-3" d="M198.63,33.05l.63.46a3,3,0,0,1-.6-.07S198.63,33.18,198.63,33.05Z"/><path class="cls-4" d="M279.32,139.85l.65-.45Z"/><path class="cls-1" d="M314.19,58.3l-.4-.19.81-.09Z"/><path class="cls-3" d="M183.66,42.47l.64.22-.78-.11,0-.07Z"/><path class="cls-3" d="M182,79.26l-.12,1.06Z"/><path class="cls-4" d="M283.6,16.56l.34.23-.25.25Z"/><path class="cls-3" d="M181.74,85.07l.89-.09Z"/><path class="cls-4" d="M278.48,140.06l.85-.21Z"/><path class="cls-3" d="M186.86,44.8l.88,0Z"/><path class="cls-3" d="M315.62,99.22l-.2-.46Z"/><path class="cls-5" d="M283.6,16.56l.09.48,0,.06a.19.19,0,0,0-.19,0l-.11-.08c-.12-.14-.24-.29-.37-.43l.24-.14Z"/><path class="cls-4" d="M318.32,69.07,318,69l.1-.22Z"/><path class="cls-4" d="M317.87,76.57l-.9.12Z"/><path class="cls-1" d="M317.19,78l.27.1,0,.09L317,78Z"/><path class="cls-1" d="M283.84,20.23l.4,0v.09l-.47.05Z"/><path class="cls-6" d="M316.07,78.6l.7-.17Z"/><path class="cls-1" d="M314.68,61.57l0-.21.42.16Z"/><path class="cls-4" d="M312.71,112.67h.22l-.35.23Z"/><path class="cls-3" d="M183.66,98.75l.65-.21Z"/><path class="cls-1" d="M186.43,41a.55.55,0,0,1,.08.15s0,.06,0,.09l-.49,0V41Z"/><path class="cls-3" d="M308.44,38.73l-.68.08Z"/><path class="cls-6" d="M318.15,80.2l-.74.14Z"/><path class="cls-1" d="M304.77,36.36l.17.24-.6.08Z"/><path class="cls-5" d="M283.61,17.43h-.45c.07-.15.13-.29.19-.44l.11.08.19.11Z"/><path class="cls-2" d="M296.89,125.74l-.44.41-.1-.11.49-.34Z"/><path class="cls-3" d="M313.12,105.15l.45-.18Z"/><path class="cls-4" d="M221.31,139h0Z"/><path class="cls-5" d="M219.62,139.42a.88.88,0,0,0-.05.15l-.61,0Z"/><path class="cls-5" d="M218.33,139.72l.61-.11Z"/><path class="cls-6" d="M277.39,140.27,278,140Z"/><path class="cls-1" d="M187.3,46.55l-.61-.2.38,0Z"/><path class="cls-1" d="M182.81,97.25a.55.55,0,0,1,.05.17s0,0-.05.08l-.66.06Z"/><path class="cls-5" d="M182.38,83.35v0Z"/><path class="cls-2" d="M297.51,125.3l-.4.24,0,0,.34-.31Z"/><path class="cls-4" d="M181.28,69.2l-.41.21Z"/><path class="cls-4" d="M283.17,16.2l-.22-.26Z"/><path class="cls-3" d="M314.59,59.1l-.45.19Z"/><path class="cls-3" d="M316.13,52.13v.35l-.22-.11Z"/><path class="cls-5" d="M216.36,139.87l.55,0Z"/><path class="cls-3" d="M187.09,104.74l-.37,0Z"/><path class="cls-6" d="M318.72,106.49l-.46.17Z"/><path class="cls-6" d="M188.79,42.26l-.42.2Z"/><path class="cls-6" d="M189.24,42.06l-.44.2Z"/><path class="cls-4" d="M181.76,73.75l-.45.18Z"/><path class="cls-4" d="M312.92,112.68l.43-.22Z"/><path class="cls-6" d="M248.3,145.12l.47,0Z"/><path class="cls-4" d="M302.61,120.12l.25-.39h0l-.19.45Z"/><path class="cls-6" d="M286,20.62l-.44,0,.44-.2A.48.48,0,0,0,286,20.62Z"/><path class="cls-2" d="M297.11,125.54l-.22.2-.05,0,.24-.2Z"/><path class="cls-5" d="M235.7,6.28l-.23,0Z"/><path class="cls-5" d="M238.87,5.66l-.22,0Z"/><path class="cls-1" d="M182.8,91.48l-.07.14-.07-.11.14,0Z"/><path class="cls-3" d="M279.75,21.51l-.24,0Z"/><path class="cls-3" d="M316.29,100.28l-.19-.2Z"/><path class="cls-3" d="M181.74,59.81l-.26.14Z"/><path class="cls-6" d="M322.5,83.08l.22-.21Z"/><path class="cls-5" d="M182.14,68.77l-.22.22Z"/><path class="cls-5" d="M211.9,16.14l-.05.21-.16-.2Z"/><path class="cls-4" d="M200.07,24.14l.29-.05Z"/><path class="cls-4" d="M317.6,67.32l-.13-.26Z"/><path class="cls-5" d="M217.69,139.84l.22,0Z"/><path class="cls-5" d="M217.43,139.88l.25,0Z"/><path class="cls-4" d="M283.65,17.17l-.19-.11a.19.19,0,0,1,.19,0Z"/><path class="cls-3" d="M198,28.15l.27,0Z"/><path class="cls-6" d="M179.59,65.61h0Z"/><path class="cls-3" d="M200.31,29.22l-.2.18Z"/><path class="cls-4" d="M318.29,64.1l0-.23.17.14Z"/><path class="cls-4" d="M303.07,119.51l-.22.21h0l.22-.21Z"/><path class="cls-4" d="M241,144.77l.23,0Z"/><path class="cls-4" d="M303.08,119.52l0-.08-.05.07Z"/><path class="cls-4" d="M323.54,80.65l.3-.06Z"/><path class="cls-4" d="M312.7,42.25l.23,0Z"/><path class="cls-6" d="M255.77,145l.23,0Z"/><path class="cls-4" d="M283.22,16.41l-.24.14h0a.17.17,0,0,0,0-.17l.21,0Z"/><path class="cls-4" d="M245.71,145.42h0Z"/><path class="cls-2" d="M271.43,7.33l5.34,1.77-.17.05.16-.06,1,.39c-2.13,1.22-4.22.79-6.3-.15-.23-.1-.47-.17-.7-.25l-.06-1.23Z"/><path class="cls-6" d="M279.31,48.48c3.32-.77,6.64-1.53,9.95-2.31.73-.18,1.45-.41,2.18-.61l.1.31a7.18,7.18,0,0,1-.87.35c-2.92.81-5.91,1.45-8.76,2.45A30.39,30.39,0,0,1,274.82,50l1.1-.63.64.21.62-.19,2.15-.89Z"/><path class="cls-2" d="M293.48,123.6l2.17-.58c-1,1.37-5.89,4.94-8.64,6.32l.24-1.25h0l.21-.18,0,0,.64-.35.07,0,3.1-2s.05,0,.05-.08a.83.83,0,0,0,0-.15h0l2.38-1.24Z"/><path class="cls-6" d="M269.54,33.76c2.9-.92,5.81-1.84,8.71-2.78.69-.22,1.36-.49,2-.75l.14.3a4,4,0,0,1-.7.38c-1.3.47-2.61.91-3.92,1.37-1.95.69-3.89,1.4-5.86,2a9.42,9.42,0,0,1-1.77.23Z"/><path class="cls-6" d="M297.21,122.92l.38.07c-.88,1-1.76,2-2.65,3h0l-.64.64h0c-.92.59-1.82,1.2-2.76,1.76-2,1.21-4,2.39-6,3.58l1.31-1,7.31-5.24.67-.6a8.67,8.67,0,0,0,.82-.65C296.16,124,296.68,123.44,297.21,122.92Z"/><path class="cls-5" d="M185.33,76.71l0-.74.18-1.79h.3c.08.49-.46,1.16.41,1.43.69-.06.73-.47.53-1.07l-.56.23-.23-.61,1.51.18c.14.29.29.58.43.86v2.63l-1.26.17.23-1.68-.35-.06c-.68.5-.24,1.29-.32,1.94l-.64.23Z"/><path class="cls-3" d="M187.49,66l-1.94.84c.09-1,.11-1.89.28-2.76,0-.23.56-.38.86-.56l-.21,1,.63-.23c.78.07.76-.5.81-1l1-.16c.47,1.25-.86,1.26-1.54,1.79a3.56,3.56,0,0,1,.35.07l.87.36c-.24.2-.48.41-.73.59a1.3,1.3,0,0,1-.41.09l.08-1-1,.67Z"/><path class="cls-6" d="M211.76,49.13l-9,2.16-.11-.41,9-2.31Z"/><path class="cls-5" d="M285.51,131.93c2-1.19,4-2.37,6-3.58.94-.56,1.84-1.17,2.76-1.76a22.52,22.52,0,0,1-2,1.68c-2.53,1.67-5.1,3.28-7.65,4.91-.08-.19-.15-.39-.23-.58l.23-.26h0l.43-.1.44-.33Z"/><path class="cls-5" d="M185.16,71.15c.08-.39,0-1,.27-1.12a5.92,5.92,0,0,1,1.91-.55c.13,0,.44.38.48.62a5.55,5.55,0,0,1,.11,1.94c-.05.25-.7.38-1.08.57l-.41-.82h0a1,1,0,0,1,0-.17l.86-.42-.11-.42-1,.14-1,.27Z"/><path class="cls-6" d="M285.53,20.64l-.23.49L281,22.94l-2.64.69-.07-.21c1.1-.42,2.23-.8,3.3-1.28.78-.36,1.5-.86,2.24-1.29Z"/><path class="cls-6" d="M296,120c.19.09.38.25.57.25a11.74,11.74,0,0,0,1.25-.18l-.76,1.08-.16.13-3,.66-.13-.25Z"/><path class="cls-6" d="M315,59.46l1.35,0c-.22.84-1.16.69-1.63,1.21-.16.19-.48.23-.74.34l-3.54.93C311.92,61,313.76,60.82,315,59.46Z"/><path class="cls-3" d="M268.19,9.51l4.92,1,0,.48-1.41.43-2-.65h0l1-.64h-1l-1.5-.43h0Z"/><path class="cls-2" d="M255.14,8.67l2.74-.27-.54,2-2.2-1.39Z"/><path class="cls-4" d="M271.43,7.33l-.73.52.06,1.23-3-.72,1-.26-.3-.52h1.48C270.43,7.63,270.81,6.72,271.43,7.33Z"/><path class="cls-6" d="M182.79,67.53c-.44-1.43-.23-1.66,2-2.12v1l-.9.34.5.12-.27,1.21c-.1-.18-.19-.36-.3-.53s-.27-.47-.31-.46A4.56,4.56,0,0,0,182.79,67.53Z"/><path class="cls-5" d="M190.31,56.57l-.89.44c-.1-.88-.59-.2-.84-.15s-1,0-.42.61l-1,.4,1.1-3.57.17,1.28-.24.75,2.75-.35a1,1,0,0,0,0,.16Z"/><path class="cls-2" d="M275.92,49.33l-1.1.63-2.47,1-.13-.19.24-.36.23-.62,3.38-.71.24.21Z"/><path class="cls-2" d="M269.7,10.79l2,.65-.95.46-3.69-1.09h0l-.87-.2h0l0-.59.4.11.24,0,.43,0Z"/><path class="cls-4" d="M280.83,136.93l-1.8.81-.09-.2,1.59-.84-1-.43,2.52-1.36.23.72-.44.37h0l-.44.23h0l-.44.33Z"/><path class="cls-2" d="M190.94,56l-2.75.35.24-.75,3.23-.56.14.24Z"/><path class="cls-4" d="M291.31,125.52l-3.1,2,1.18-1.35h0l.7-.44c.65-.74-.6-.39-.47-.83l1.15-.85c0,.38,0,.57.05.76l-.22.21.29.06.42-.15v.38h0Z"/><path class="cls-6" d="M183.67,62.39l-.26-1.31,1.78-1.16.19.24-.2.72-1,.51.09.2.76-.2,0,.06.06,0-.55.7Z"/><path class="cls-4" d="M267.1,10.81l3.69,1.09a3.83,3.83,0,0,1-3.38.12.14.14,0,0,0,0-.11.61.61,0,0,0,.14-.07l.82.1.56.13,0-.17-.5-.07-.83-.24Z"/><path class="cls-4" d="M296.92,121.25l.16-.13.88.55-.45.64h0l-.17.07.16.16-.31.39c-.53.52-1,1-1.59,1.56a8.67,8.67,0,0,1-.82.65.86.86,0,0,1-.14-.13,1.33,1.33,0,0,0,0-.19v0l.23-.3C295.79,123.57,296.83,122.69,296.92,121.25Z"/><path class="cls-4" d="M253.42,52.42l-6,1.5-.07-.26,5.94-1.58Z"/><path class="cls-2" d="M280,14l.19.24-2.86.72-.1-.4C278,14,278.86,13.39,280,14Z"/><path class="cls-6" d="M266.47,34.71l-2.39.62-.11-.39,4.44-1.26Z"/><path class="cls-6" d="M289.48,132.26l-5.13,3-.18-.22.72-.57,0,0,1.09-.66h0l.45-.23h0l.65-.43h0l.87-.43h0l1.08-.65h0l.38-.08Z"/><path class="cls-2" d="M184.83,64.86l-1.91.76-.08-.87,1.88-.71H185l0,0-.15.78Z"/><path class="cls-5" d="M291.3,125.3v-.38c-.26-.71-.16-1,.72-.88.46.07,1-.28,1.46-.44l.2.46Z"/><path class="cls-6" d="M290,44.34l3.25-.76.11.51-3.3.56Z"/><path class="cls-6" d="M183.32,62.89l.62-.23,1.35-.31a1.61,1.61,0,0,1-2.06,1S183.28,63.05,183.32,62.89Z"/><path class="cls-4" d="M200.78,54.89l2-.48.1.34-3.82,1.1.21-.74c.09.06.2.2.27.18.42-.12.83-.27,1.24-.4Z"/><path class="cls-6" d="M271.38,50.56l-2.75.64c-.07-.08-.06-.05-.05-.05l.26-.12c-.1-.26-.22-.52-.3-.71l.38.13,1.3-.13h.23Z"/><path class="cls-3" d="M183.86,77.15l-.32,1.72h-.29v-2l.2-2.15.44-.17,0,1.85v.31Z"/><path class="cls-2" d="M275,133.07l-2.28.48C273.18,132.35,273.9,132.22,275,133.07Z"/><path class="cls-5" d="M186.48,72.78a6.88,6.88,0,0,1-.64.36c-.63.31-.93.09-.87-.59,0-.47.12-.94.19-1.4l0,0c0,.39.06.78.08,1l1.17-.41h0l-.44.31Z"/><path class="cls-2" d="M182.79,67.53a4.56,4.56,0,0,1,.67-.4s.21.3.31.46.2.35.3.53l-1,.47C182,68.45,182.71,67.92,182.79,67.53Z"/><path class="cls-6" d="M255.14,8.67v.39c-1.18-.74-.93.45-1.25,1l-.66-.3.39-1.05Z"/><path class="cls-3" d="M275.47,11.88l-1.72.62v-.42l.5,0-.05-.17-.44.22-.25,0c-.12-.84.57-.77,1-.84a2.44,2.44,0,0,1,.91.25Z"/><path class="cls-3" d="M269.7,10.79l-2.37-.61.19-.42.67,0h0l1.5.43h0v.64Z"/><path class="cls-5" d="M266.47,34.71l1.94-1,1.13.08-1.36.8C267.62,34.73,267.11,35.42,266.47,34.71Z"/><path class="cls-3" d="M316.12,106c-.87.39-1.73.79-2.61,1.17a2.56,2.56,0,0,1-.16-.33Z"/><path class="cls-6" d="M280.83,136.93l.2-.39.44-.33h0l.44-.23h0l1.72-.88h0l.59-.08.18.22Z"/><path class="cls-6" d="M282.32,135.63l-.23-.72,1.3-.82-.18,1.07Z"/><path class="cls-4" d="M309.31,72.3l3-.4,0,.28-3,.42Z"/><path class="cls-5" d="M182.4,96.43l2.51-1.14.2.87c-.19-.13-.43-.42-.55-.37a18.39,18.39,0,0,0-1.73.84Z"/><path class="cls-3" d="M261.14,14.44l-.63-.9,1.21-.72.18.23c-.2.46-.41.92-.62,1.39A.14.14,0,0,1,261.14,14.44Z"/><path class="cls-6" d="M280,28.8l2-.58.12.44-2.09.53Z"/><path class="cls-6" d="M305.05,114l-1.71.73-.14-.35,2.44-.8Z"/><path class="cls-5" d="M221.32,51l-3,1.14-.13-.45,3.13-.68Z"/><path class="cls-4" d="M315.85,81.74l.85.18-2.29.57-.85,0v-.23Z"/><path class="cls-3" d="M184.48,62.12c.19-.23.37-.47.55-.7l0,0-.76.2-.09-.2,1-.51.45,1Z"/><path class="cls-4" d="M305.63,72.84l2.24-.26,0,.21-2.22.41Z"/><path class="cls-5" d="M192,102.19v-.64l.85-.67.4,1.12Z"/><path class="cls-6" d="M285.08,45.65l-1.29.63-.15-.45,1.44-.33A.38.38,0,0,0,285.08,45.65Z"/><path class="cls-3" d="M207.62,53.15l-2.51.67-.07-.25,2.52-.75Z"/><path class="cls-3" d="M305.05,114l.59-.42c-.05.28,0,.7-.16.81a10.08,10.08,0,0,1-1.52.72l0-.06Z"/><path class="cls-2" d="M186.23,78.2c.08-.65-.36-1.44.32-1.94l.35.06L186.67,78Z"/><path class="cls-3" d="M317.81,92.18l0,.32-2.42.52-.07-.37Z"/><path class="cls-4" d="M282.5,46.35l-1.8,1-.16-.3,1.15-.67Z"/><path class="cls-6" d="M277.18,48.48h2.13l0,0c-.14,0-.31-.14-.42-.1-.49.17-1,.39-1.45.59Z"/><path class="cls-5" d="M188.56,104.56l0-.26c.12.31.24.62.35.92l-2.07.39-.07-.07Z"/><path class="cls-4" d="M280,28.8v.39l-1.92.47-.08-.28Z"/><path class="cls-6" d="M271.62,31.89l-1.72.6-.09-.21,1.67-.81Z"/><path class="cls-3" d="M241.2,56.73l2.11-.44.07.28-2.08.51Z"/><path class="cls-3" d="M296.3,44.51l1.88-.49.08.32-1.88.48Z"/><path class="cls-4" d="M271.38,50.56l-.93-.23,2.24-.56-.23.62Z"/><path class="cls-5" d="M239.15,57.76l1.53-.48.12.46-1.57.34Z"/><path class="cls-4" d="M277.18,48.48l.28.47-.69.29.41.11-.62.19-.25-.27-.24-.21Z"/><path class="cls-4" d="M276.45,13.65l1.69-.55.11.33-1.71.51Z"/><path class="cls-7" d="M185.57,43.75l1.1-.52.83-.07v.37l-1.27.34Z"/><path class="cls-4" d="M274,30.51l1.9-.34.06.25-1.87.38Z"/><path class="cls-2" d="M183,71.16,182.4,71l1.77-.51s.07,0,.07.05a1.11,1.11,0,0,1,0,.17l-.8.24Z"/><path class="cls-4" d="M186.88,105.61l2.07-.39-2.51.88Z"/><path class="cls-5" d="M227.49,63l1.95-.47.07.31-1.94.47Z"/><path class="cls-6" d="M274,30.51l.09.29-1.19.64-.17-.34Z"/><path class="cls-4" d="M200.9,122.74l-1.52.12,0-.3,1.52-.15Z"/><path class="cls-4" d="M287.25,128.09l-.24,1.25h-.64l.23-.34v-.51Z"/><path class="cls-4" d="M285.08,45.65a.38.38,0,0,1,0-.15l1.76-.3,0,.34Z"/><path class="cls-6" d="M188.16,57.47c-.54-.66.25-.57.42-.61s.74-.73.84.15Z"/><path class="cls-2" d="M185,58.53l-.39-.05,0-.34,1.82-.24Z"/><path class="cls-3" d="M284.89,77.44l-1.78.19,0-.4,1.83-.14Z"/><path class="cls-4" d="M314.41,107.73v.3l-1.48.69-.12-.25Z"/><path class="cls-3" d="M289.61,124.89c-.13.44,1.12.09.47.83l-.7.44h0C288.73,125.61,289.57,125.32,289.61,124.89Z"/><path class="cls-4" d="M292.42,76.24l-1.3.12,0-.38,1.3-.1Z"/><path class="cls-2" d="M183.45,74.76l-.2,2.15L183,75.63V74.8Z"/><path class="cls-3" d="M256.38,15.19a3.19,3.19,0,0,1,.62-.44,3.85,3.85,0,0,1,.87-.15l-.39.9C257.35,14.58,256.73,15.36,256.38,15.19Z"/><path class="cls-4" d="M298.26,116.53l1.07-.33.1.3-1.07.33Z"/><path class="cls-5" d="M185.82,80.12l.17,1.6-.31,0-.22-1.59Z"/><path class="cls-3" d="M186.82,79.89v1.3C186.27,80,186.27,80,186.82,79.89Z"/><path class="cls-3" d="M200.8,54.89l-.7-.06,0-.17,1.54-.63.1.16-.91.7Z"/><path class="cls-4" d="M266.26,10l0,.59-1.12-.6.05-.22Z"/><path class="cls-6" d="M192,102.19l1.24-.19c0,.18-.07.37-.11.55l-.06,0-.23,0-.44,0Z"/><path class="cls-3" d="M275.5,78.71l1.31-.47.11.25-1.29.61Z"/><path class="cls-5" d="M192.42,102.66l.44,0,.65.86h0c-.24.06-.65.23-.7.16A4,4,0,0,1,192.42,102.66Z"/><path class="cls-2" d="M187.92,63.25c0,.51,0,1.08-.81,1v-.77h0l.6-.24A.19.19,0,0,1,187.92,63.25Z"/><path class="cls-5" d="M198.39,51.89l2.17-.21,0,.26-2.18.19Z"/><path class="cls-4" d="M243.72,59.12l-1.3.28-.06-.28,1.3-.28Z"/><path class="cls-6" d="M256.38,15.19c.35.17,1-.61,1.1.31l-1.54.13,0-.21Z"/><path class="cls-3" d="M186.48,72.78,186,72.1l.44-.31.41.82Z"/><path class="cls-5" d="M282.5,46.35h-.81l1.23-.8.2.31Z"/><path class="cls-4" d="M303.27,40.34l1.39-.34c-.76.74-1,.77-1.37.33Z"/><path class="cls-5" d="M185.27,75.66c-.48-.55-.6-1.06.14-1.48Z"/><path class="cls-5" d="M312.71,100.06l-1.35.53-.12-.31,1.43-.54Z"/><path class="cls-3" d="M277,28.72l-1.65.54-.07-.23,1.58-.52Z"/><path class="cls-4" d="M201.49,52.62l1.31-.23,0,.23-1.29.34Z"/><path class="cls-4" d="M194.73,106.8l.76,1-.27.22-.78-1Z"/><path class="cls-5" d="M285.52,29l-2,.36,0-.3,1.95-.31Z"/><path class="cls-3" d="M276.38,77.77l1.28-.37.1.32-1.28.38Z"/><path class="cls-3" d="M266.86,9.55l-1.59-.38.08-.3,1.55.43Z"/><path class="cls-3" d="M216.19,53l.8-.68.24.46-1,.22Z"/><path class="cls-6" d="M187.51,43.53v-.37l1.23-.08,0,.22Z"/><path class="cls-4" d="M187.11,63.49v.77l-.63.23.21-1Z"/><path class="cls-2" d="M183.92,76.44l0-1.85h0l.08,0,.07,0c0,.33.05.67.08,1Z"/><path class="cls-4" d="M257.58,55.24l-1.13.54-.12-.26,1.09-.51Z"/><path class="cls-5" d="M245.56,58h-1v-.27l1,.05Z"/><path class="cls-3" d="M213.59,48.49l1.08-.26.05.2-1.06.38Z"/><path class="cls-4" d="M186,74.16l.23.61,0,.84c-.87-.27-.33-.94-.41-1.43Z"/><path class="cls-3" d="M285.52,29l-.09-.25,1.24-.36.08.29Z"/><path class="cls-6" d="M286.61,128.51V129l-.23.34h0l-.71-.08Z"/><path class="cls-3" d="M190.31,56.57l.65-.43.39.08,0,.2Z"/><path class="cls-4" d="M189.92,53.07h-.75l0-.24.77-.07Z"/><path class="cls-4" d="M183.92,76.44l.22-.85c0,.66.05,1.32.07,2l-.3-.82Z"/><path class="cls-5" d="M291.86,117.37l-1,.46-.13-.26,1-.46Z"/><path class="cls-2" d="M183.91,76.75l.3.82,0,.62h-.32l-.06-1Z"/><path class="cls-7" d="M316.31,95.91l.31.07,0,.2h-1.59Z"/><path class="cls-4" d="M261.14,14.44a.14.14,0,0,0,.14,0c-.11.25-.21.51-.32.76l-.55-.45Z"/><path class="cls-5" d="M275.47,11.88l0-.42,1.09.52-.12.29Z"/><path class="cls-4" d="M192.86,100.88l-.85.67-.12-.41Z"/><path class="cls-3" d="M187,61.06l1-.36.11.29-1,.34Z"/><path class="cls-4" d="M294.8,125.13l-.67.6.39-.85a.16.16,0,0,0,.14.12A.86.86,0,0,0,294.8,125.13Z"/><path class="cls-3" d="M313.56,82.29v.23l-.94.22-.05-.28Z"/><path class="cls-5" d="M266.52,52.14l.66-.21.1.23-.67.31Z"/><path class="cls-2" d="M185.33,76.71l.26,1.72-.39-.17.09-1.12Z"/><path class="cls-3" d="M289.35,43.5l-1.05.3-.06-.23,1-.28Z"/><path class="cls-3" d="M281.44,47.77l-.83.07,0-.22.82-.17Z"/><path class="cls-6" d="M185.27,75.66l.14-1.48h.13L185.36,76Z"/><path class="cls-6" d="M303.28,30.27h.59l-.58.34-.66.11Z"/><path class="cls-3" d="M187.93,75.2c-.14-.28-.29-.57-.43-.86C188.49,74.2,187.73,75,187.93,75.2Z"/><path class="cls-4" d="M183.92,78.19h.32l0,.75L184,79Z"/><path class="cls-5" d="M197.9,56l-.81.37-.1-.22.82-.35Z"/><path class="cls-4" d="M266.86,9.55l0-.25,1.29.21v.22l-.67,0-.18,0-.46-.15Z"/><path class="cls-6" d="M312.68,77.34l.44.2-.92.08,0-.17Z"/><path class="cls-4" d="M312.92,51.27v.37l-.77,0,0-.19Z"/><path class="cls-5" d="M306.54,113.29l.41-.37.15.14-.36.43Z"/><path class="cls-4" d="M270.22,50.32l-1.3.13Z"/><path class="cls-5" d="M315.93,91.7a.76.76,0,0,0,0,.21l-.7.11-.05-.23Z"/><path class="cls-3" d="M313.15,106.91l-.25.61-.36-.43Z"/><path class="cls-4" d="M314.21,80.6v.33l-.68.08,0-.17Z"/><path class="cls-6" d="M289.92,131.68l.33,0-.77.54-.16-.19Z"/><path class="cls-3" d="M183,95l.28-.34.65.2-.84.25Z"/><path class="cls-4" d="M288.14,127.54l-.64.35Z"/><path class="cls-7" d="M187.94,41.4l-.63-.4a.24.24,0,0,1,.2,0Z"/><path class="cls-3" d="M256.32,14.34l-.25.43-.14-.06.22-.46Z"/><path class="cls-5" d="M185.29,77.14l-.09,1.12Z"/><path class="cls-7" d="M200.15,30.59l-.19-.26.79-.07Z"/><path class="cls-5" d="M193.09,102.57l.06,0c.09.09.19.17.27.26l-.11.13Z"/><path class="cls-5" d="M267.61,11.59l.83.24-.09.11-.82-.1Z"/><path class="cls-4" d="M266.24,10.61l.87.2Z"/><path class="cls-4" d="M273.51,12.05l.25,0h0v.42l-.42-.15Z"/><path class="cls-3" d="M285.09,132.24l-.43.1.46-.38Z"/><path class="cls-7" d="M323.2,93.41l-.69.26,0-.24h.75Z"/><path class="cls-5" d="M184.85,64.85l.15-.78Z"/><path class="cls-7" d="M313.34,97.92h0Z"/><path class="cls-7" d="M237.16,6l.68-.11Z"/><path class="cls-4" d="M312.27,57.88l-.64.21h0l.67-.2Z"/><path class="cls-4" d="M302.65,31.15l.16.16-.34-.08Z"/><path class="cls-7" d="M313.1,76l.27.23-.09.11-.33-.26A.28.28,0,0,1,313.1,76Z"/><path class="cls-4" d="M314.41,47.84a.88.88,0,0,1,0,.16L314,48V47.9Z"/><path class="cls-4" d="M314.19,47.38v.2h-.4v-.11Z"/><path class="cls-4" d="M187.73,63.24l-.6.24Z"/><path class="cls-4" d="M246.17,145l-.63,0Z"/><path class="cls-5" d="M290.88,125.07l-.29-.06.22-.21C290.83,124.89,290.86,125,290.88,125.07Z"/><path class="cls-7" d="M318.07,87.6H318l.05,0Z"/><path class="cls-6" d="M285.09,132.24l0-.28.41-.05Z"/><path class="cls-3" d="M284.66,132.34l-.23.26Z"/><path class="cls-3" d="M266.88,9.57l.46.15Z"/><path class="cls-7" d="M313.14,98.13,313,98l.36-.08Z"/><path class="cls-5" d="M246,57.59l-.07,0,0-.12.09,0S246,57.57,246,57.59Z"/><path class="cls-5" d="M221.33,51l.22-.16-.23.15Z"/><path class="cls-3" d="M304,115.06l-.25.13s0,0-.07-.07l.27-.12Z"/><path class="cls-5" d="M230,62.5s0-.06,0-.06l.08,0s0,.07,0,.07Z"/><path class="cls-5" d="M193.51,103.47l0-.09-.05.08Z"/><polygon class="cls-4" points="311.63 58.09 311.6 58.12 311.63 58.09 311.63 58.09"/><path class="cls-6" d="M294.93,124.56l-.23.3Z"/><path class="cls-4" d="M184.06,74.59l-.07,0-.08,0Z"/><path class="cls-4" d="M266.9,10.16l-.24,0Z"/><path class="cls-5" d="M283,16.39a.17.17,0,0,1,0,.17l-.09-.13Z"/><path class="cls-5" d="M316.33,84l.24,0-.24.18Z"/><path class="cls-4" d="M287.47,127.91l-.21.18Z"/><path class="cls-6" d="M297.07,119.49l-.35.15Z"/><path class="cls-6" d="M294.66,125a.16.16,0,0,1-.14-.12l.19-.07A1.33,1.33,0,0,1,294.66,125Z"/><path class="cls-5" d="M185,64h0Z"/><path class="cls-4" d="M314.66,80.82l.2,0Z"/><path class="cls-3" d="M216.19,53l-.08.09a.07.07,0,0,1,0,0l.07,0Z"/><path class="cls-5" d="M267.39,11.91a.14.14,0,0,1,0,.11l-.15,0Z"/><path class="cls-5" d="M294.94,125.94c.89-1,1.77-2,2.65-3l.56-.24.21.26Z"/><path class="cls-3" d="M297.08,125.5l-.24.2-.49.34,1.38-1.4c-.11.18-.21.37-.31.55Z"/><path class="cls-5" d="M282.32,135.63l.89-.47.39,0-1.72.88Z"/><path class="cls-3" d="M289.92,131.68l-.6.39-.38.07,1.22-1c-.05.28-.05.32-.06.34Z"/><path class="cls-5" d="M298.38,122.08l1.1-.65C299.09,121.62,299.2,122.65,298.38,122.08Z"/><path class="cls-5" d="M284.17,135.05l-.59.08,1.31-.65Z"/><path class="cls-3" d="M289,132.13l-1.08.65Z"/><path class="cls-5" d="M286,133.84l-1.09.66Z"/><path class="cls-5" d="M294.31,126.58l.64-.64Z"/><path class="cls-5" d="M297.51,122.31l.45-.64.41,0-.25.42Z"/><path class="cls-3" d="M287.88,132.77l-.87.43Z"/><path class="cls-3" d="M287,133.2l-.65.43Z"/><path class="cls-5" d="M286.39,133.62l-.45.23Z"/><path class="cls-5" d="M297.52,122.53l-.16-.16.17-.07a.75.75,0,0,1,0,.16S297.54,122.51,297.52,122.53Z"/><path class="cls-3" d="M182.4,96.43l.43.2-1,.42-.13-.21Z"/><path class="cls-3" d="M183,95.14l-.49.19-.06-.13L183,95Z"/><path class="cls-1" d="M183.24,97l-.45.23Z"/><path class="cls-7" d="M314.85,97.46a.15.15,0,0,1,0,.19h-.48l0-.11Z"/><path class="cls-1" d="M183,71.16l.38-.21-.12.4Z"/><path class="cls-1" d="M183.76,97.59l-.52.12-.05-.15.4-.17Z"/><path class="cls-1" d="M314.91,56.61l-.5.2.2-.4Z"/><path class="cls-1" d="M316.6,70.76h.57l-.39.19Z"/><path class="cls-7" d="M282,19.36l.76-.23Z"/><path class="cls-6" d="M320.65,81.59l-1.33.25v-.23l1.3-.16A.68.68,0,0,0,320.65,81.59Z"/><path class="cls-5" d="M298.59,121.36l-.24.3Z"/><path class="cls-7" d="M277.84,25.59l-.51.17,0-.11.46-.17Z"/><path class="cls-1" d="M315.25,61.53l.45-.2,0,.1-.48.1Z"/><path class="cls-1" d="M314.85,47.63l-.17-.19.47,0,0,.1Z"/><path class="cls-1" d="M188.9,41l.45,0v.11l-.41.07Z"/><path class="cls-7" d="M320.65,81.59a.68.68,0,0,1,0-.14l.64-.15Z"/><path class="cls-1" d="M185.45,106.08l.13.39Z"/><path class="cls-5" d="M276.76,9.09l-.16.06.17-.05Z"/><path class="cls-1" d="M277.18,49.35l-.41-.11.69-.29c.48-.2,1-.42,1.45-.59.11,0,.28.06.42.1Z"/><path class="cls-1" d="M276.31,49.27l.25.27-.64-.21Z"/><path class="cls-5" d="M291.31,125.52v-.23a.83.83,0,0,1,0,.15S291.33,125.49,291.31,125.52Z"/><path class="cls-2" d="M186.25,75.61l0-.84.56-.23C187,75.14,186.94,75.55,186.25,75.61Z"/><path class="cls-6" d="M187.49,66l-.93-.32,1-.67-.08,1Z"/><path class="cls-3" d="M186.45,71.79l-1.17.41c0-.23-.05-.62-.08-1l1-.27.27.7A1,1,0,0,0,186.45,71.79Z"/><path class="cls-6" d="M186.45,71.62l-.27-.7,1-.14.11.42Z"/><path class="cls-4" d="M269.69,10.8v-.64h1Z"/><path class="cls-4" d="M269.69,10.16l-1.5-.43Z"/><path class="cls-5" d="M281.9,136l-.44.23Z"/><path class="cls-5" d="M281.47,136.21l-.44.33Z"/><path class="cls-1" d="M289.38,126.16l.7-.44Z"/><path class="cls-5" d="M268.44,11.83l.5.07,0,.17-.56-.13Z"/><path class="cls-4" d="M273.76,12.09l.44-.22.05.17-.5,0Z"/><polygon class="cls-1" points="185 61.39 185.03 61.42 184.97 61.45 185 61.39"/><path class="cls-1" d="M286.37,129.36l.23-.34Z"/></svg>