<svg id="Слой_1" data-name="Слой 1" xmlns="http://www.w3.org/2000/svg" viewBox="0 0 500 150"><defs><style>.cls-1{fill:#0139a5;}.cls-2{fill:#d42b1e;}.cls-3{fill:#0d43aa;}.cls-4{fill:#d83d31;}.cls-5{fill:#f9e2e0;}.cls-6{fill:#d94439;}.cls-7{fill:#e2e8f4;}.cls-8{fill:#dd564c;}.cls-9{fill:#ebeff7;}.cls-10{fill:#fefefe;}.cls-11{fill:#faebea;}</style></defs><path class="cls-1" d="M376,56.9l-1.61.61,1.48.43-.48.87.67.46-5.36,1.61a4.63,4.63,0,0,1,.82.69,3.27,3.27,0,0,1,.17,1,11,11,0,0,1,2,0,12.57,12.57,0,0,1,2.36.72c1.15.42,2.14,1.23,3.39,1.43.28,0,.58.19.83.12.87-.25,1.46.36,2.39.63a6.5,6.5,0,0,0-1,.43,2.25,2.25,0,0,0-.43.57,3.51,3.51,0,0,0,.6.26.92.92,0,0,0,.49,0,12,12,0,0,1,4-.39,2.75,2.75,0,0,1,.89,0l-.75.74c.21.28.45.25.83.06a1.25,1.25,0,0,1,.94.12l-.74.33.11.38c-.1,0-.18.06-.23,0a3.06,3.06,0,0,0-2.36.4,8.43,8.43,0,0,1-1.68.4,1.1,1.1,0,0,1-1.14.66,27,27,0,0,0-2.7.05c-1,.11-2,.41-3,.54-3.23.44-6.46.83-9.68,1.24a5.77,5.77,0,0,0-1.49.39,3.1,3.1,0,0,1,.51.27c.22.19.62.47.58.63-.15.76.35.67.79.74,1.27.21,2.55.43,3.81.69.8.17,1.07.89,1.36,1.53a.86.86,0,0,1-.23.74,9.6,9.6,0,0,1-1.16.81l-1.61,1.16.06.35a4.07,4.07,0,0,0,1.11.23,20,20,0,0,0,2-.4l.91-.16a1.71,1.71,0,0,1,1.85.83c-.76.44-1.84.07-2.42,1,1.41-.22,2.79-.81,4.39.13-.34.16-.55.35-.75.35-.92,0-1.82-.39-2.73.24a4.58,4.58,0,0,1-1.58.36c-.57.13-1.14.28-1.81.45a3.67,3.67,0,0,1,.38.62c.15.58.5.55,1,.41a3.83,3.83,0,0,1,1,0l0,.28c-.22.09-.43.19-.65.26-1.33.42-2.68.8-4,1.28a5.25,5.25,0,0,0-1.09.83,4.36,4.36,0,0,1-1.14.72c-1,.3-2.12.49-3.17.76a1.39,1.39,0,0,0-.53.42c-.16.17-.3.37-.5.63.1.4.47.51.95.46.94-.11,1.88-.27,2.83-.29a4.64,4.64,0,0,1,1.64.32,1,1,0,0,1,.48.63c.24,1,.61,1.14,1.51.71a2.3,2.3,0,0,1,.28-.06c.08.92-.13,1.18-.94,1.27a7.69,7.69,0,0,0-2.17.31,3.87,3.87,0,0,1-1.7.23c-.05,0-.11,0-.14,0-1.16,1.07-2.62.55-3.94.7-2.8.33-5.62.52-8.43.78a4.56,4.56,0,0,0-.62.13c-.38,0-.76,0-1.14.07-2.24.27-4.48.57-6.71.85-1.56.19-3.11.46-4.66.5s-3.16.37-4.77.35c-2.08,0-4.16.23-6.24.33-1.56.08-3.12.09-4.67.16-.53,0-1.06.18-1.59.19-1.41,0-2.82,0-4.23,0-1.12,0-2.23.3-3.35.38-2.9.21-5.81.38-8.71.56-2.4.15-4.79.32-7.19.45-1.25.06-2.5,0-3.74.11-2,.12-4,.31-5.95.42-1.46.08-2.93.07-4.4.12-5.22.2-10.45.42-15.68.61-2,.07-4.09,0-6.13.15-.71,0-1.42.46-2.12.43-4.2-.19-8.4.26-12.6-.14l-.28,0c-1.44.11-2.88.33-4.32.32-5.21,0-10.42-.13-15.62-.21l-9.39-.11c-1.29,0-2.57,0-3.86,0-7.65.08-15.31.32-23-.14-.84,0-1.76-.31-2.55.3a.27.27,0,0,1-.2,0,3.65,3.65,0,0,0-1.21-.11,39.82,39.82,0,0,1-5.23.83c-1.4.15-2.8.31-4.2.42a37.9,37.9,0,0,1-4.21.4c-2.92-.07-5.84-.28-8.75-.52s-5.87-.49-8.79-.88q-6.67-.88-13.31-2c-2.85-.48-5.67-1.13-8.5-1.71a33.24,33.24,0,0,0-10.27-1.16,3,3,0,0,1-1.23-.21c1.36-.51,2.81-.15,4.34-.51-.34-.16-.55-.28-.78-.36a1.34,1.34,0,0,1-.85-.81,2.08,2.08,0,0,0-1.23-.9,16.12,16.12,0,0,0-2.4-.28,13.5,13.5,0,0,0,1.15-1.34,1,1,0,0,0,.06-.85c0-.12-.44-.15-.68-.15l-7.13,0a2.78,2.78,0,0,1-.71-.19l0-.23a5.26,5.26,0,0,1,.93-.29c1.49-.15,3-.25,4.47-.41a9.66,9.66,0,0,0,1.38-.36l0-.18h-1.53l-.3-.67-1.16.18c-.53-.9-1.59,0-2.25-.64l.45-.68h-1.13l.08-.16-1.83-.9-.07,0c-1.06-.9-2.18-.42-3.3-.17a1.76,1.76,0,0,1-1-.14,2.34,2.34,0,0,1,.56-.26c1.52-.25,3-.47,4.56-.71a8.52,8.52,0,0,0,.87-.22l0-.3H112.2c.7-.58,6.09-.95,7.17-.59l-.9.49h1.1l0-.61c1.78-.09,3.53-.2,5.28-.23s3.54,0,5.31-.09a2,2,0,0,0-1.58-.75,24,24,0,0,1-3.34-.41,4.19,4.19,0,0,0-1.58,0c-.89.27-1.68-.48-2.65,0-.72.35-1.73,0-2.61.09-1.61.11-3.21.23-4.81.42-1.43.17-2.1-.29-2.19-1.72l1.78-.39,0-.15a9.28,9.28,0,0,0-1.37-.29c-2.58-.11-5.17-.18-7.76-.29-.17,0-.33-.17-.5-.26a1.78,1.78,0,0,1,.38-.5,1.31,1.31,0,0,1,.63-.09c4.52-.08,9-.15,13.55-.24,1.21,0,2.42-.15,3.63-.15,1.87,0,3.75.07,5.62.11a.84.84,0,0,0,.42,0,2,2,0,0,0,.41-.36c-.14-.12-.28-.35-.42-.35-3.63,0-7.26,0-10.89,0-1.48,0-2.93,0-4.4-.14A35.33,35.33,0,0,0,107,76c-.78.07-.87-.24-1-.73.39-.28.74-.56,1.11-.79a.69.69,0,0,1,.57-.07,1.06,1.06,0,0,0,1.3-.13,1.94,1.94,0,0,1,1-.35,28.4,28.4,0,0,1,6,.11,32,32,0,0,0,4.8.13c1,0,2,0,3.09,0l-1-.31,0-.16,2.1-.86v-.15l-2.36-.13c1.71-1,3.63-.66,5.43-1v-.27l-2.87-.13,0-.29,2-.57v-.18c-.66-.17-1.55.13-1.84-.8v-.4l.22-.19s0-.09,0-.2c-2-.17-4.07.38-5.92-1a5.06,5.06,0,0,1,1.21-.34c2-.13,3.94-.27,5.91-.3a49.78,49.78,0,0,1,5.33.18c1.4.13,2-.85,2.29-2.27a2.56,2.56,0,0,0-.47,0c-3.24.14-6.47.24-9.69.44a26,26,0,0,0-3,.62,1.43,1.43,0,0,1-.56-.11,3.73,3.73,0,0,1,.48-.33,3.78,3.78,0,0,1,.65-.22l-.28-.46A17,17,0,0,1,128.16,63c2.1-.07,4.19-.44,6.29-.69a.55.55,0,0,0,.35-.19c.26-.38.5-.79.76-1.22a1.42,1.42,0,0,0-.39-.14,7.16,7.16,0,0,1-3.27-1,5.3,5.3,0,0,0-1.43-.38c-1-.21-2-.39-3-.62a2.52,2.52,0,0,1-.61-.35l-1.5-.9.4-.33c.11-.09.25-.25.33-.22.79.25,1.28-.38,1.88-.63.2-.08.31-.4.51-.69l.44,0s.08-.08.08-.11a.59.59,0,0,1,.6-.71c.64-.08,1.19-.27,1-1.27,1,.13,1.83.28,2.69.32a9.39,9.39,0,0,0,1.65-.24l-.12,1.18c.34-.07.82.71,1-.25l1-.22-.15.52c1,.51,1.35-.14,1.62-1l-1.06.37c-.78-.31-1.24-.23-1.46.38l-.78-.72.1-.18a4.07,4.07,0,0,0,.59.06c.21,0,.53,0,.61-.16.42-.7,1.12-.64,1.77-.73h0c.12.1.23.28.36.29,1.77.21,3.54.37,5.3.61.54.08,1,.41,1.58.53.82.19,1.66.3,2.5.43.1,0,.29,0,.31-.06.32-.75.88-.26,1.32-.25a5.58,5.58,0,0,1,1,.22c.11,0,.29.07.3.12.18,1.23,1.17.42,1.72.68a3.5,3.5,0,0,0,1.08.19c.6,0,1.2.1,1.8.11,1.12,0,2.24-.07,3.35,0s2.46.44,3.69.66a7.4,7.4,0,0,0,1.53.25c1.81,0,3.62-.12,5.43-.1,4.92.07,9.83.19,14.75.3.27,0,.53.2.8.23a2.62,2.62,0,0,0,1.11-.11l.67.41.1-.11-.19-.27a6,6,0,0,1,3.81.28l.1-.77c.21.24.3.41.44.47s.51.16.54.11c.44-.87.91-.25,1.14-.16a10.87,10.87,0,0,1,1.61-.35c1.17-.06,2.33,0,3.5-.05.12,0,.3,0,.34,0,.37.54.73.2,1.09,0l.42-.22.15.66c.15-.26.22-.52.39-.61s.42,0,.56,0l.07.78.19,0c.15-.85.29-1,1.22-.9.71.07,1.41.23,2.12.25a7.67,7.67,0,0,0,1.22-.28,20.12,20.12,0,0,1,2.56-.23A9,9,0,0,0,212,54.75a13.1,13.1,0,0,1,2.89-.68c.88-.17,1.77-.31,2.65-.48.39-.07.77-.18,1.26-.3l-.19.68.82-.16-.32-1.28a3.51,3.51,0,0,1,.66-.17c2.67-.14,5.35-.37,8-.37,4.87,0,9.74.14,14.62.22a1.24,1.24,0,0,1,1.34,1.28c.06.77.06.77.46.92,0-.38.06-.78.08-1.17,0-.87.6-1,1.32-1,3.44,0,6.89,0,10.34,0,2,0,4,0,6.06,0s4.14,0,6.21,0c3.35,0,6.7-.06,10.05-.06.55,0,1.1.21,1.65.25.22,0,.45-.26.68-.26,2.12,0,4.23,0,6.35,0,.06,0,.12.11.19.17h-1.46l0,.25a7.88,7.88,0,0,0,2.63.6l.11-1c1.29,0,2.57,0,3.85.12.2,0,.38.27.61.45.3-.86,1.05-.57,1.71-.56,1.47,0,2.94,0,4.41,0a5.39,5.39,0,0,1,1,.2l-.64.55,1,.87V52.36a7.61,7.61,0,0,1,1.12-.14c1.85,0,3.7,0,5.56,0,.87,0,1.74-.09,2.61-.11.6,0,1.19.35,1.82,0,.14-.08.43.17.67.21a2.17,2.17,0,0,0,.72,0c.5-.08,1-.19,1.48-.29v.24l-.37.19-.25.09,0,.11.24-.14.46-.11a1.94,1.94,0,0,0,.24-.15c.64-.45.64-.46,1.4.35l-.34.23s0,0,0,0l.52.44c.32-.25.32-.25-.18-1.34a1.31,1.31,0,0,1,.45-.1c.63.1,1.25.29,1.88.35a9.81,9.81,0,0,0,1.42-.11C320.92,52.05,322,52,323,52a.47.47,0,0,1,.37.21c.12.62.52.46.95.35l-.28-.46c.47,0,.86,0,1.24,0a5,5,0,0,0,.76-.13,4.12,4.12,0,0,1,.47-.13c.77,0,1.54,0,2.31,0,1.2,0,2.4.08,3.6,0,4.52-.15,9-.34,13.55-.5,2.45-.09,4.9-.11,7.34-.21,1.47-.06,2.94-.18,4.41-.33.3,0,.57-.31.86-.47a2.77,2.77,0,0,1,.91-.48c3.08-.27,6.15-.5,9.23-.73.45,0,.85,0,1.12-.56.1-.19.58-.24.89-.28a1.59,1.59,0,0,0,1.3-.72A1.49,1.49,0,0,1,373,47a20.28,20.28,0,0,1,2.68-.27c.29,0,.58.27.9.42-.6.76-1,1.59-2.07,1.54-.25,0-.52.34-.78.53l.14.18-.92-.16-.1.26a4.53,4.53,0,0,0,1.34.63,16.32,16.32,0,0,0,3.2.1c1.17-.1,2.15.48,3.23.65.38.06.75.19,1.22.31-.49.86-1.11-.12-1.59.35-.08.22-.12.72-.33.81a5.91,5.91,0,0,1-1.59.32c-1.56.23-3.12.48-4.7.64-.65.07-.57.68-1,1l1.25.26v.12l-.88.16,2.47.69.08-.22-.68-.45c.87-.42,1.48-.15,1.61.71a1,1,0,0,0-1.16.94c0,.06.41.18.63.27ZM135.29,82.36v-.27a4.36,4.36,0,0,0-.62-.07c-1.77,0-3.55,0-5.33,0l-8.62,0a6,6,0,0,0-.83.15l0,.2Zm81.07-24.87a3.84,3.84,0,0,1,.91-.35c.8,0,1.61,0,2.41-.07a2.4,2.4,0,0,0,.89-.19c.14-.06.19-.32.29-.5a3.46,3.46,0,0,0-.53-.14c-.38-.05-.76-.07-1.14-.11a3.2,3.2,0,0,0-.41-.07c-1.08.1-2.16.22-3.24.34-.31,0-.61.13-.92.2l0,.31Zm140.27,15v.33c.52.13,1.06.23,1.57.4.72.24,1.48-.08,2.2.23a1.1,1.1,0,0,0,.82-.11c.75-.34-.11-.56-.1-1l1.83-.19v-.2a6.15,6.15,0,0,0-2,.14,4.37,4.37,0,0,1-1.81.23C358.28,72.26,357.46,72.38,356.63,72.45ZM123.2,84.82l0,.18a38.31,38.31,0,0,0,8.76.06v-.24ZM364.35,62.09V62a9.06,9.06,0,0,0-1,.34c-.12,0-.18.25-.26.38a1.89,1.89,0,0,0,.51.12c.19,0,.38-.21.56-.2,1.18.08,2.36-.2,3.55,0a5.58,5.58,0,0,0,.71,0c.16,0,.32-.24.48-.37-.16-.11-.32-.31-.46-.3-.89.08-1.77.25-2.65.31A7.91,7.91,0,0,1,364.35,62.09ZM257.83,58.42c-.6-.88-2.6-.83-3.43-.1.52,0,1.07.08,1.62.1Zm104.91,4.06-3.17.27A2.48,2.48,0,0,0,362.74,62.48Zm-.5,10.83,2.41-.35V72.8l-2.72-.29ZM116,82.2l0,.21c1.13.34,1.83.27,2.3-.43Zm13.31-5.76,0,.27,2.56-.26A3.14,3.14,0,0,0,129.29,76.44ZM373.74,63.73c-.8,0-1.6-.78-2.41,0ZM147.53,55.32l0,.28,2.5.71,0-.19Zm113.06,3.26.07-.18a3.56,3.56,0,0,0-.86-.31c-.15,0-.33.2-.5.32.18.1.35.28.54.3A2.88,2.88,0,0,0,260.59,58.58ZM367.2,89.39l.08-.36-1.64-.19,0,.25ZM253.49,58.12l-.11-.29-1.48.59.11.26Z"/><path class="cls-2" d="M134.1,95.25c2.83.58,5.65,1.23,8.5,1.71q6.63,1.11,13.31,2c2.92.39,5.85.65,8.79.88s5.83.45,8.75.52a37.9,37.9,0,0,0,4.21-.4c1.4-.11,2.8-.27,4.2-.42a39.82,39.82,0,0,0,5.23-.83,3.65,3.65,0,0,1,1.21.11.27.27,0,0,0,.2,0c.79-.61,1.71-.35,2.55-.3,7.66.46,15.32.22,23,.14,1.29,0,2.57,0,3.86,0l9.39.11c5.2.08,10.41.18,15.62.21,1.44,0,2.88-.21,4.32-.32l.28,0c4.2.4,8.4,0,12.6.14.7,0,1.41-.4,2.12-.43,2-.1,4.09-.08,6.13-.15,5.23-.19,10.46-.41,15.68-.61,1.47,0,2.94,0,4.4-.12,2-.11,4-.3,5.95-.42,1.24-.07,2.49-.05,3.74-.11,2.4-.13,4.79-.3,7.19-.45,2.9-.18,5.81-.35,8.71-.56,1.12-.08,2.23-.33,3.35-.38,1.41-.07,2.82,0,4.23,0,.53,0,1.06-.17,1.59-.19,1.55-.07,3.11-.08,4.67-.16,2.08-.1,4.16-.37,6.24-.33,1.61,0,3.17-.31,4.77-.35s3.1-.31,4.66-.5c2.23-.28,4.47-.58,6.71-.85.38,0,.76,0,1.14-.07.76.23,1.51.48,2.27.69a16.57,16.57,0,0,0,3.52.65,37.75,37.75,0,0,1,4.67.82c1.79.31,3.58.61,5.37.87,1.17.17,2.37.17,3.53.41,1.66.34,3.3.82,4.94,1.25a1.58,1.58,0,0,1,.46.28l-.05.19c-.46-.08-.91-.19-1.38-.23-.86-.07-1.72-.11-2.58-.14a9.48,9.48,0,0,1-1.06,0c-.48-.07-.65.2-.81.55s-.34.64-.62,1.16c-.25-1.08-1-.77-1.66-1l.55-.22a.88.88,0,0,0-.08-.14,6.38,6.38,0,0,0-.9.32c-.31.16-.26.15-.59-.15a1.28,1.28,0,0,0-.77-.31c-.93,0-1.86,0-2.78,0a2.9,2.9,0,0,0-.69.29c-.33.13-.74.43-1,.33-1-.4-1.59.44-2.47.7l.95,1.42c.24.52.34,1.28.72,1.46.83.4,1.73,1,2.56.57l1,.46c.28.14.56.27.82.43a10,10,0,0,0,.86.58c.37.17.7.13.75-.4.14,0,.37,0,.41.09a1.31,1.31,0,0,0,1.78.74c.11,0,.27.06.41.09l5.19,1-.73,1.37.34.88-1,0c.33.79.77,1,1.75.91l-.79-.33.34-1,.72,1,.13-.76c.61.44,1.22.78,1.79,0,.38,1-.53,1-1,1.5l2.37.6a6.37,6.37,0,0,1-.6.26,5.78,5.78,0,0,1-.57.12l.55.35.21.11-.69.36.55.69.19-.4,1.3.1a7.2,7.2,0,0,1-.44.88c-.06.1-.25.14-.39.17l-.89.16a9,9,0,0,0,.18.9,1,1,0,0,0,.21.33l2.21-.74v.15L379,114l2.85.64.05.19a2.08,2.08,0,0,1-.64.13c-1.11-.13-2.22-.32-3.34-.4a4.74,4.74,0,0,0-1.28.33l0,.31,2.51.48,0,.12-.62.06V116l1.75.08.95,1.07-1.49.39-1.56-.91-.87-.47-.11.32.92.21c0,.42.36,1-.26,1.11a1.88,1.88,0,0,1,.24.61,8.35,8.35,0,0,1-.11,1.5,1.71,1.71,0,0,1-.36.8c-.34.43-.67.79,0,1.19.1,0,.15.28.12.41a.39.39,0,0,1-.3.24,7.06,7.06,0,0,1-3.49-.45v-.38l1.19.38-.59-1.51h1.12l0-.12-1.41-.55.35-.62-.12-.16-1.43.26,0,.24c1.08.13,1,1,1.41,1.82l-.58-.1c-.08.19-.17.38-.26.58l-1.09.58a2.43,2.43,0,0,1,.63,2.37c-.19.56-.46,1.22-1.45,1.09l.73-1c-1.39-.63-2.44-.45-2.66.51l-.8-.2-.84-.19-.35,1-.19-.38c-.28,0-.48,1.46-.28,2.09l.35-.56v.9c.95-.2,1.8.73,2.89,0,.06.4.22.75.13,1s-.5.22-.78.29a13.09,13.09,0,0,1-1.41.31c-.13,0-.29-.15-.31-.16-.26.14-.45.34-.62.33-.95-.07-.95-.09-1.11-1-1.12,1.18-1.48,2.37.09,3.66l-2.25.35-.06-.29,1.17-.5-.93-.74c-.33.64-.54,1.08-.78,1.5-.33.61-.67,1.21-1.49,1.23s-1.08.58-1.36,1.1a.9.9,0,0,1-.89.52c-.85.06-1.71.08-2.56.18-1.34.15-2.67.36-4,.62.78.4,1.78-.21,2.63.7l-1.84-.12.32.5-.57.1,0,.11,1.71.39.05.16c-.16.06-.32.18-.47.16-.81-.13-1.63-.27-2.43-.45-.54-.12-1.06-.32-1.59-.48l.29-.21-1.2-.21-.05.17.65.24-1,.34,0,.11H352l.09.11-1.15.28-1.33.36c.17-.54-.22-.94-.77-1.25l.23-.37c-.91-.13-1.2.24-1,1.3l.54-.46.12.08-.16.38.49.18-1.39.51.16.25c-.24.45-1-.3-1.16.58l1.25.21,1.58.48c-.89,1.12-1.58,1.33-2.53.7l1.11.07c-1-.77-1.64-.68-3.15.49l1.1.06,0,.25-3.52-.18c-.12.58-1,.86-1.75.41-.29-.17-.61-.43-.9-.4s-.95-.26-1.2.43c-.06.15-.63.19-.95.16a5.18,5.18,0,0,1-1.07-.3l-.18.14.35.77a8.66,8.66,0,0,0-1.11,0c-.1,0-.17.27-.24.41l1.4.43.49-.31a1.6,1.6,0,0,0,.29.44c.1.08.28.07.43.1,0-.76.27-.21.5-.15a11.75,11.75,0,0,0,1.21.22l1,.16c-.22.16-.44.27-.43.34.07.5-.25.38-.52.35-1-.12-2-.27-2.93-.32-.24,0-.5.26-.82.45l-1.75.43c-.17.45-.17,1.18-1,.74a4.3,4.3,0,0,0,.36-.91c.06-.39-.58-.74-1-.58a5.24,5.24,0,0,1-.78.19c.12.53,1,.09,1.32.69a12.06,12.06,0,0,1-2.31-.26c-.76-.25-1.41-.62-1.66.28l-2-.61,2.19-.84,0-.19a4.42,4.42,0,0,1-.63,0,1,1,0,0,1-.57-.19c-.63-.61-.62-.62-.94.3l-.11-.44h-2.5c0-1.31-1.27-.23-1.63-.88.52-.75,1.25-.17,1.89-.2.38,0,.75.26.66-.42,0-.06.21-.14.32-.22a1.82,1.82,0,0,0,.57-.54,4.4,4.4,0,0,1-2.85.59c-.2-.17-.41-.5-.64-.52a4.24,4.24,0,0,1-1.86-.31s-.21.22-.35.27c-.3.11-.61.51-.92,0-.08-.15-.46-.13-.69-.19l-.09.15,1,.91c-.48-.09-.9.17-1-.49,0-.09-.4-.11-.61-.18s-.2-.1-.19-.14c.05-.72-.25-.33-.61-.28a8.55,8.55,0,0,1-1.73-.15c-.8-.06-1.59-.13-2.39-.14a10.55,10.55,0,0,0-1.39.2,4.14,4.14,0,0,0-.91-.28,13.33,13.33,0,0,0-3.55-.17,12.85,12.85,0,0,1-2.84,0c-.92,0-1.85-.12-2.77-.19-2.19-.16-4.38-.34-6.56-.49q-2.28-.16-4.56-.27c-1.63-.07-3.27-.1-4.9-.14l-26.75-.58c-2.29,0-4.59,0-6.87-.24-4.19-.41-8.38-.45-12.58-.58-1.08,0-2.17-.08-3.25-.21s-2.21,0-3.31-.06-2,0-2.95,0a17.21,17.21,0,0,0-3.05.07c-.32,0-.52.41-.79-.26l-.25.77-.53-.49a2.32,2.32,0,0,1-2.25-.13c-.12-.06-.32,0-.48.05l-2.13.56c-.45.11-.91.19-1.37.27a.58.58,0,0,1-.26-.09l-1.06-.52c-.08,0-.21-.07-.27,0-1.34.88-2.81,0-4.21.34a18.1,18.1,0,0,1-2.86.07c-.66,0-1.31.26-2,.31a4.29,4.29,0,0,1-1-.19,8.67,8.67,0,0,0-1.33-.18c-1.57,0-3.14.07-4.71.1l-5.19.1a3.24,3.24,0,0,0-.64.17l1.88.21c-1.43.14-2.87.6-4.23-.2a.79.79,0,0,0-.48-.06,49.31,49.31,0,0,1-5.29.37,41.18,41.18,0,0,1-5.65-.26,6.48,6.48,0,0,0-2.39-.07,6.41,6.41,0,0,1-2.4.23c-1.27,0-2.54-.09-3.81-.19-.25,0-.49-.26-.8-.43l-.63,1.07c-.65-.84-1.42-.27-2.2-.13-.55.1-1.11.12-1.66.18l-.25-.05,0,.06.19.08c-.15.09-.33.28-.45.26-.49-.12-1-.36-1.45-.45-.22,0-.49.18-.76.3l-.16-.36c-.08.18-.16.28-.15.37.09.69.57.35,1,.33V141a2.21,2.21,0,0,0-2.21.21c-.15.1-.49-.08-.73-.2a1.86,1.86,0,0,0-2.05,1.53l-.32-.49-1.59.36v.12l.69.07v.08a3.77,3.77,0,0,0-.76.13c-.22.08-.41.26-.63.36s-.66.24-1,.37l-1.16.49c1.31.44,1.83.34,2.13-.1l2.07-.35v0c.15.1.32.29.45.27a25.51,25.51,0,0,0,3-.72,7.56,7.56,0,0,0,1.6-1c.37.24.42.53-.14.71-1.41.45-2.84.9-4.27,1.31s-3,.83-4.57,1.22a7.78,7.78,0,0,1-1,.11,5,5,0,0,0,.53-1.16c0-.33-.46-.42-.79-.23a8.46,8.46,0,0,1-2,.87l.34-.79-.13-.09a10.32,10.32,0,0,1-.68,1,1.06,1.06,0,0,1-.57.23c-.56-.88-1.15-.5-1.76-.09-.05,0-.13,0-.28,0,.24-.83.94-.78,1.58-1.08l-1.52-.61.46.56c-.77-.05-1.44,0-1.81-.75,0-.08,0-.23,0-.24-.75-.31-.89-.47-.82-1l0,0h0c-.48.82-1.39.63-2.08.92a2.66,2.66,0,0,0-2.25.42l.14.63.33-.31.11.1c.11.79.59.68,1.14.48.32-.11.66-.17,1-.26v-.39l.7.77c.07-.29.1-.42.12-.56a1.1,1.1,0,0,0,0-.26l-.18.11-.6-.81c.78.05,1.44-.39,1.74.44l.59.85-5.2.59,0-.21.61-.19,0-.15h-2l-.42-.31c-.06-.06-.13-.11-.19-.18s-.39-.32-.41-.51.27-.29.52-.52l-.29-.58.45-.77,1.53.36-.36-.85.15-.19,1,.7,1.4-.3h1.5l.11-.22L146,139.54l-.9.52c-.11.75-.11.75-.58.57l.48-.28-1-.54,0,.22c-.37,0-.75,0-1.13,0s-.48.08-.72.09-.39.5-.67.1l-.4.45a2.31,2.31,0,0,0-.52,0c-.3,0-.28.06-.24-.26a.39.39,0,0,0-.13-.29s-.18,0-.27.07l-1.55.46-.31,0-1.29-.45c.21-.76-.41-.88-.89-1.12a6.35,6.35,0,0,0-.84-.38c-.1,0-.24.05-.36.08l-.43.15c-.1,0-.23.06-.29.14-.45.63-.75.69-1.4.25.33-.2,1,.33,1-.41,0-.24-.51-.48-.88-.8,0-.31,0-.31,1.27-.49l-.71-.47,1.47-.14c0-.37,0-.65-.48-.7a6.48,6.48,0,0,1-1-.22c-.11,0-.29,0-.33-.1-.65-1.23-1.55-.28-2.33-.24a9,9,0,0,0-1.48.34l.16-.38H128l0-.56a1,1,0,0,0-.21,0,11.15,11.15,0,0,0-1.84.14,3.87,3.87,0,0,0-1.49.67.92.92,0,0,1-1.49-.18c.46-.5.44-.57-.34-.83l1.12-.34,1.07-.3.55.67.26,0c-.56-.65.09-.8.42-1.16l-1-.15-.21-1.08.79-.51-.27-.39.54-.12v-.13h-1l.26-.91-.17-.21.91-.07,0-.11-2.54-.57c.3-1.27.85-1.77,2-1.81-.09-.31-.09-.31-1.56.17l-.18.1-.26-.11,0-.16,1.39-.64,0-.05c.51-.12,1-.23,1.54-.39.07,0,0-.35.07-.57l.65-.17,0-.15-.51,0-.14-.16,1.41-1.15.52.66.82-.22-.21-.88-.75-.2a4.35,4.35,0,0,1,.47-.94,6.76,6.76,0,0,1,.84-.78,2.26,2.26,0,0,0,.6.35c.06,0,.31-.28.28-.34a2.41,2.41,0,0,0-.45-.56,2.52,2.52,0,0,0-.49-.37,3.38,3.38,0,0,0-.72-.34,4.32,4.32,0,0,0-.68-.13l.59-.82.55.13.79-.61-.09.85a11.28,11.28,0,0,0,1.63-.59,2.89,2.89,0,0,1,1.69-.12.76.76,0,0,0,.89-.58c.08-.21.31-.36.4-.46h-2.69l.77-1.49c-1-.07-.9-1.75-2.17-1.3l1.65-.26v-.22a1.15,1.15,0,0,0-.47-.07c-.67.23-1.49,0-2,.74-.06.08-.31,0-.48,0-1,0-2.09,0-3.13.07a3.2,3.2,0,0,0-.81.26l-1-1c0,.15-.06.35-.17.43a2.53,2.53,0,0,1-.61.32c0-.14,0-.27,0-.41l.24-.23-.13-.12-.19.24-.25,0-.1-.09v-1h1l-.06-.77.93-.61.26.07-.08-.18,1.94-.88-.07-.22-1.72.11c-.24,0-.52.13-.7,0a3.65,3.65,0,0,1-.73-.64,4.65,4.65,0,0,1,.61-.36,7.83,7.83,0,0,1,2.47-.73c.1,0,.17-.29.31-.55h-1.67l-.06.13.58.3a11.61,11.61,0,0,0-1.2.13,4.89,4.89,0,0,1-1.16.25L124,110l-.11-.16-1,.54c0-1,.71-1.56,1.45-2.3-1.2-.45-2.26-.82-3.3-1.26a4.8,4.8,0,0,1-.94-.74l.61-.32a.86.86,0,0,0,.07.1l.66.68a6.6,6.6,0,0,0-.11-1.56c-.1-.27-.49-.47-.79-.61s-.41,0-.62,0v-.11a6.35,6.35,0,0,1,3.25-.55c.3.07.66-.19,1-.3l.13.17,0-.26-.13-.56.67.33a1.35,1.35,0,0,1-1.61,1.11v.19l1.16.65-1.29.2c-.48-.67-1-.56-1.47.36l.52.29c.09-.65.47-.73,1-.65-.05.24.17.68-.4.53l-.14-.07,0,.16c.52.26,1,.68,1.57-.12l.47.67,1.14-.93s0-.06-.08-.07c-.25-.1-.72-.21-.72-.3,0-.5.41-.48.78-.43l1,.16c.16-.11.36-.84.84-.1,0,.07.38-.07.59-.09.61,0,1.22,0,1.82-.16.22,0,.4-.34.72-.65l-.06.83,1.24-.28.07.08,0,0-.07-.08c0-.43-.11-.76-.74-.66l.27.24,0,.11c-.16-.06-.44-.1-.46-.19-.11-.56-.39-.22-.66-.18a9,9,0,0,1-1.27.07,13.76,13.76,0,0,1-1.7,0,2.85,2.85,0,0,1-.84-.44l1-.49c-.08-.65-.55-1-1-.6-.65.52-.58.09-.6-.46-1.21.82-2.15.13-3.22-.52h1.84V101l-1.11-.06.88-.51-1.71-.84.17-.18-.56-.9c.71-.14,1.12-.08,1.34.54.06.16.44.25.69.28.8.11,1.62.17,2.43.28a2.7,2.7,0,0,1,.71.37c-.81,0-1.47,0-2.13,0a2.17,2.17,0,0,0-.71.33,2.91,2.91,0,0,0,.56.38,7.53,7.53,0,0,0,3.77.34,9.53,9.53,0,0,1,2.2.33,1.68,1.68,0,0,0,.59-.14,4.38,4.38,0,0,1,.85-.26c.61,0,.74-.29.53-.88s0-.83.51-.84c-.68-.25-1.37-.55-2.08-.75s-1.22,0-1.4.86c-.37-.9-.7-1.81-1.9-1.29a1.49,1.49,0,0,1,1-1.64,5.89,5.89,0,0,1,1.31-.28,3.59,3.59,0,0,0,1.79-.54A4.74,4.74,0,0,1,134.1,95.25Zm2.75,21.18-1-.34,1.2-.8c-1,0-1.49.4-1.47,1.43l1.7.27-.48-.58.11-.06-.09,0Zm1.37,2.5-.66.11,0-.15.73-.27v-.12l-1.75-.12.38-.18c-.24-.13-.48-.27-.74-.39-.58-.29-.89.06-.55.61l.63-.45c-.26,1.35.91.55,1.33,1.07l-1.25.17,0,.26c.56,0,1.13-.09,1.68-.18.11,0,.19-.19.29-.29l.08-.12Zm-8.92,4.64c.19.28.3.41.39.57a1.26,1.26,0,0,0,1.09.43l2.72-1.36,0-.19h-2.7l1.31-.72-.76-.44.16-.21.84.34c0-.17.11-.42.07-.45a2.76,2.76,0,0,0-2.22-.4l1,1a4.53,4.53,0,0,0-1,.53c-.16.15-.17.48-.24.73l.19.12Zm2.63-8.76.6-.14c-.25-.48,0-.64.41-.7a3,3,0,0,0,.6-.23l-.07-.19-2,.24,0-.26,2-.38.07-.22a2.82,2.82,0,0,0-.69-.43c-.1,0-.29.24-.46.4l-1.73-.21,0,.21.67.2v.23H129l-.07.34a9.11,9.11,0,0,0,1,.47,7.72,7.72,0,0,0,.93.21,3.42,3.42,0,0,1,.85-.13C131.8,114.24,131.83,114.53,131.93,114.81ZM342,138.36l-.06.15a12.28,12.28,0,0,0,1.45.36c.42,0,.86,0,1.29,0a3.46,3.46,0,0,1,.64.13l.08-.24a5.6,5.6,0,0,0-1.1-.69,6,6,0,0,0-1.28-.14l0,.19.83.1,0,.14Zm-215-8.07-.71,1.45c1.21.14.65-.84,1-1.14l.86.57.11-.17-1.49-1.76-.39.54Zm-1-14.54.75-.34c-.12-.2-.2-.52-.37-.58a8.75,8.75,0,0,0-1.53-.37s-.18.45-.12.49A14.69,14.69,0,0,0,126,115.75Zm28.07,27.43a2.76,2.76,0,0,0,2.59-.91C155.84,142.65,154.68,142.08,154.05,143.18ZM374,118.73l3.24.24-.23-.84c-.67.74-1.39.4-2.07.23C374.49,118.26,374.18,118.24,374,118.73ZM134.62,104.25c.49,0,1,.11,1.43.12a.42.42,0,0,0,.34-.25.51.51,0,0,0-.19-.4,2.69,2.69,0,0,0-.5-.26ZM135.7,113l.55.51.28-.26.26.4.49-.59C136.74,112.86,136.26,112.15,135.7,113Zm-9-2.13a2.4,2.4,0,0,1,.64.29c.13.12.15.35.22.53l.37-.48.23-.33-.46-.57Zm2.32-7.81,2.58-.15,0-.2C130.75,102.69,129.84,102.26,129.06,103.08Zm206.09,40.49c-.38-.9-1.42-1.15-1.89-.6Zm40.49-27.8-.2.13c.11.19.18.49.34.55.4.16.85.26,1.17-.22-.07-.08-.1-.17-.16-.18ZM134,119.59c.48,0,.78,0,1.08-.08.52-.07.59-.19.43-.67,0,0-.08,0-.12-.06l.06.17Zm-2.76-7.34c-.49-.54-1.09-.53-1.91,0ZM368.92,129v-.32l-1.77.07V129ZM128.58,115.7l0-.29c-.44-.11-.88-.6-1.43.14Zm239.29-10v-.38h-1.52v.13Zm-240.09,8.7H129C128.52,113.48,128.41,113.49,127.78,114.37Zm216.57,27.31.15-.29-1.05-.74.23,1ZM137,104l.06.28c.42,0,.9.23,1.21-.28l-.06-.26Zm-9.24,22,.13-.37-.71-.25-.12.31Zm-2.17,1.62-.06.13.39.2.07-.14Zm.16,7.15v.08h.34v-.06Z"/><path class="cls-3" d="M135,51.85l-.05-.73c-.39.8-.89.69-1.43.41.44-1.05.78-1.23,1.82-1,.81.2,1.61.39,2.41.61.4.12.79.24.94.75,0,.14.37.25.58.28.87.12,1.74.19,2.61.31.16,0,.3.23.45.34-.16.07-.32.2-.47.18-.74-.08-1.49-.18-2.23-.32C138.13,52.45,136.61,52.15,135,51.85Z"/><path class="cls-3" d="M130,47.77c.79-.3,2.28-.14,2.57.38s.34,1.14.63,1.64a1.16,1.16,0,0,1-.28,1.57l-.83-.31c-.28-.12-.55-.25-.94-.44l.81-.54-2.21-1.14c.57-.12.8-.55,1-1.09Z"/><path class="cls-4" d="M357.5,140.38l-.92.05a6.11,6.11,0,0,0-2.8,1,2.8,2.8,0,0,1-.95.16l.25-.66,1.81-.76-.44-.66a2.25,2.25,0,0,1,.73.2c.59.47,1.15.74,1.86.21.06-.05.35.19.53.29Z"/><path class="cls-3" d="M125.28,68.91v.4l-2.6.37-.38.74c-.41-.27-.73-.47-1-.7-.08-.06-.16-.26-.13-.29a.77.77,0,0,1,.39-.24c.66-.07,1.32-.12,2-.16Z"/><path class="cls-5" d="M373.64,122c.09-.2.18-.39.26-.58l.58.1c-.41-.77-.33-1.69-1.41-1.82l0-.24,1.43-.26.12.16-.35.62,1.41.55,0,.12h-1.12l.59,1.51-1.19-.38v.38Z"/><path class="cls-6" d="M139.46,146.06c.46,0,.93,0,1.39,0s.76.32.87-.44l.71.74c.42,0,.9-.54,1.41.08-1.52.8-2.94,0-4.38,0Z"/><path class="cls-4" d="M371.52,128.24l1-.34-.87-.35,2.46-.71.1.23c-.61.49-1.73.54-1.38,1.86l-.2-.09-1.13-.41Z"/><path class="cls-4" d="M120,104.31v.11a16.74,16.74,0,0,0-1.6.55,3.43,3.43,0,0,0-.69.61c-.63-.36-.67-.73.05-1.13.43-.24.91-.42,1.47-.67v.53Z"/><path class="cls-5" d="M146.26,143c.69-.29,1.6-.1,2.08-.92h0l0,0c-.07.51.07.67.82,1,0,0,0,.16,0,.24l-.54,0c-.3-.83-1-.39-1.74-.44l.6.81.18-.11a1.1,1.1,0,0,1,0,.26c0,.14-.05.27-.12.56l-.7-.77h0l-.3-.29Z"/><path class="cls-7" d="M288.44,52.2l-.11,1a7.88,7.88,0,0,1-2.63-.6l0-.25h1.46a.09.09,0,0,1,.1,0h.9Z"/><path class="cls-4" d="M131.56,117l-.6.22.25.3c-.85-.72-1.72-.16-2.67-.05,0-.21-.12-.51,0-.61s.42-.08.63-.08h2.4Z"/><path class="cls-4" d="M121.5,114l.55.38a2.28,2.28,0,0,1-.7.05c-.18-.05-.47-.26-.45-.33a5.8,5.8,0,0,1,.41-.95l-.63-.22,0-.21,1.61.28,0,.13h-.45l.43.51Z"/><path class="cls-4" d="M137.41,143.89c.55,0,.94,0,1.32-.1.21,0,.39-.21.6-.24s.49,0,.52.12a.73.73,0,0,1-.1.55c-.67.07-1.34.09-2,.1C137.67,144.32,137.61,144.15,137.41,143.89Z"/><path class="cls-6" d="M341.93,146.53l-3.63-.38A4.26,4.26,0,0,1,341.93,146.53Z"/><path class="cls-4" d="M130.16,117.66l-.71,1s-.54-.92-.52.1l-1-.15A2.07,2.07,0,0,1,130.16,117.66Z"/><path class="cls-6" d="M382,114.11a1.8,1.8,0,0,0,2.45,0,.72.72,0,0,0-.1-.18,1.47,1.47,0,0,0-.29-.16l.74-.21c.06.7-.09,1.18-.75,1.31C382.73,115.1,382.22,115,382,114.11Z"/><path class="cls-3" d="M123.56,93l-3.18.34c.52-.7,2.25-.92,3.17-.56Z"/><path class="cls-4" d="M130.36,140.42l-.81.74c-.52-.61-1.09-.47-1.81-.08,0-.3,0-.61.07-.63a3.09,3.09,0,0,1,1-.18C129.28,140.28,129.76,140.36,130.36,140.42Z"/><path class="cls-8" d="M142.14,144l.42.31-.73,1.08L141,145l.1-.63.12.13Z"/><path class="cls-6" d="M380.35,110.82l-.89-1.14.56-.06,1.06.93a.52.52,0,0,1-.61.57s0,0,0-.05,0-.08,0-.13l.15-.34-.11,0A1.53,1.53,0,0,0,380.35,110.82Z"/><path class="cls-3" d="M376.6,48l1.37-.2.06-.2-1-.48V47a5.44,5.44,0,0,1,1.16.26c.36.15.3.44,0,.65A1.45,1.45,0,0,1,376.6,48Z"/><path class="cls-6" d="M121,135.77l-.25.94.66-.15,0,.15c-.41.17-.81.34-1.23.47a.69.69,0,0,1-.26-.45,3,3,0,0,1,.29-.74Z"/><path class="cls-8" d="M326.17,145.2h-2.41c0-.76,1,.3.8-.44l1.64.24Z"/><path class="cls-8" d="M125.28,137.4c.62-.11,1.23-.24,1.85-.3.2,0,.43.14.7.24l-.19.67a.8.8,0,0,0-1.29-.41c-.45.3-.73.07-1.08,0Z"/><path class="cls-8" d="M136.11,142.36a5.07,5.07,0,0,0,0-.68c-.09-.46-.2-.92-.3-1.38l.24-.09.63.68-.43,1.53A.17.17,0,0,1,136.11,142.36Z"/><path class="cls-6" d="M144.6,147.76l.39-.44c.06.12.12.19.11.23-.29.72-.48.75-1,.27a2.29,2.29,0,0,0-.79-.25C143.65,147.12,143.9,147.16,144.6,147.76Z"/><path class="cls-6" d="M340.52,143.73c-.69.37-1.29,0-2-.25C339.34,142.81,339.89,143.56,340.52,143.73Z"/><path class="cls-6" d="M131.46,137c-.93.5-1.57.33-2-.68l1.1.77.45-.58Z"/><path class="cls-4" d="M125.28,137.4v.17l-1.3.09-.13-1Z"/><path class="cls-6" d="M380.53,113.28v-.15a1.46,1.46,0,0,1,1.14-1.28H382v0c.18.24.14.51-.07.48C381.18,112.24,380.91,112.83,380.53,113.28Z"/><path class="cls-6" d="M138,140.67l.31,0c.07.21.13.43.21.63a4,4,0,0,0,.22.34,1.43,1.43,0,0,0-.36,0,3.46,3.46,0,0,0-.42.26C137.45,141.48,137.77,141.08,138,140.67Z"/><path class="cls-3" d="M376,56.9v-.12l2-.91.12.27A6.86,6.86,0,0,1,376,56.9Z"/><path class="cls-4" d="M118.25,134.93c-.16-.77.35-1.37,1.4-1.38Z"/><path class="cls-7" d="M130,47.77l.75.07c-.2.54-.43,1-1,1.09h0v-.87h0l.15-.23A.1.1,0,0,1,130,47.77Z"/><path class="cls-8" d="M123.2,132.42c0-.4.92-.14.46-.81l1.06,1.09Z"/><path class="cls-8" d="M166.39,142.15l2.2-.78.07.18-2.12.89Z"/><path class="cls-3" d="M376.5,54.53A1.36,1.36,0,0,1,378,55.72l-1.48-1.2Z"/><path class="cls-8" d="M381.75,111.85h-.09l-.22-1,.59.4.38-.36.13.65-.51.35v0Z"/><path class="cls-4" d="M342.68,145.44l-1.9-.11v-.2h1.9Z"/><path class="cls-8" d="M123.42,127.68l0,.16-1.16,1C122.34,128,122.53,127.82,123.42,127.68Z"/><path class="cls-6" d="M136.21,142.42a6.36,6.36,0,0,1-.85.25c-.34.06-.69.08-1,.11l-.05-.19c.33-.08.67-.2,1-.25a5.62,5.62,0,0,1,.82,0A.17.17,0,0,0,136.21,142.42Z"/><path class="cls-4" d="M115.84,105.62l.36,1.2-.1.13a2.62,2.62,0,0,1-.66-.62C115.38,106.23,115.65,105.94,115.84,105.62Z"/><path class="cls-8" d="M335.78,146.3a6.42,6.42,0,0,0,.69-.58c.27-.29.51-.36.8-.05h0l-1.39.74Z"/><path class="cls-6" d="M121.6,112.51l1.34-.4.1.58h-1.41Z"/><path class="cls-6" d="M189.94,140l-1.4.92C188.76,140.2,189.18,139.86,189.94,140Z"/><path class="cls-6" d="M342.52,144.49c.61-.52,1-.43,1.3.15Z"/><path class="cls-2" d="M367,103.92l-1.24-.13C366.3,103.25,366.53,103.26,367,103.92Z"/><path class="cls-8" d="M335.87,146.41l.27.52-1.08-.21v-.13l.73-.29Z"/><path class="cls-6" d="M123.73,113.14l-.36-.16a1.92,1.92,0,0,1-.21-.16s0-.07,0-.08l.57-.47Z"/><path class="cls-3" d="M129.7,48.06v.87C129.23,48.53,129.23,48.39,129.7,48.06Z"/><path class="cls-1" d="M288.18,52.34h0Z"/><path class="cls-2" d="M123,115.45l-.14.17c0-.09,0-.18,0-.26Z"/><path class="cls-2" d="M120.79,105.77l.3-.07,0,.1-.25.07A.86.86,0,0,1,120.79,105.77Z"/><path class="cls-2" d="M160.69,143.54l0-.29.18.22-.23.05Z"/><path class="cls-2" d="M352,138.08l.21-.07-.12.18Z"/><polygon class="cls-2" points="375.34 107.83 375.32 107.79 375.36 107.79 375.34 107.83"/><polygon class="cls-3" points="138.13 52.77 138.14 52.76 138.14 52.77 138.13 52.77"/><path class="cls-3" d="M129.85,47.84l-.15.23Z"/><path class="cls-8" d="M123.71,128l.18-.1Z"/><polygon class="cls-8" points="337.27 145.66 337.29 145.65 337.26 145.67 337.27 145.66"/><polygon class="cls-3" points="376.5 54.52 376.51 54.48 376.5 54.53 376.5 54.52"/><path class="cls-2" d="M380.57,114l0,0,0,.06s0,0,0,0S380.55,114.05,380.57,114Z"/><path class="cls-9" d="M135.29,82.36H119.92l0-.2a6,6,0,0,1,.83-.15l8.62,0c1.78,0,3.56,0,5.33,0a4.36,4.36,0,0,1,.62.07Z"/><path class="cls-9" d="M216.36,57.49l-1.78-.58,0-.31c.31-.07.61-.16.92-.2,1.08-.12,2.16-.24,3.24-.34a3.2,3.2,0,0,1,.41.07c.38,0,.76.06,1.14.11a3.46,3.46,0,0,1,.53.14c-.1.18-.15.44-.29.5a2.4,2.4,0,0,1-.89.19c-.8,0-1.61,0-2.41.07A3.84,3.84,0,0,0,216.36,57.49Z"/><path class="cls-9" d="M356.63,72.45c.83-.07,1.65-.19,2.48-.19a4.37,4.37,0,0,0,1.81-.23,6.15,6.15,0,0,1,2-.14v.2l-1.83.19c0,.46.85.68.1,1a1.1,1.1,0,0,1-.82.11c-.72-.31-1.48,0-2.2-.23-.51-.17-1.05-.27-1.57-.4Z"/><path class="cls-9" d="M123.2,84.82h8.74v.24a38.31,38.31,0,0,1-8.76-.06Z"/><path class="cls-7" d="M364.35,62.09a7.91,7.91,0,0,0,1.45.14c.88-.06,1.76-.23,2.65-.31.14,0,.3.19.46.3-.16.13-.32.37-.48.37a5.58,5.58,0,0,1-.71,0c-1.19-.15-2.37.13-3.55,0-.18,0-.37.18-.56.2a1.89,1.89,0,0,1-.51-.12c.08-.13.14-.33.26-.38a9.06,9.06,0,0,1,1-.34Z"/><path class="cls-7" d="M257.83,58.42H256c-.55,0-1.1-.07-1.62-.1C255.23,57.59,257.23,57.54,257.83,58.42Z"/><path class="cls-7" d="M135.84,54.5c.22-.61.68-.69,1.46-.38l1.06-.37c-.27.9-.63,1.55-1.62,1l.15-.52-1,.22Z"/><path class="cls-7" d="M362.74,62.48a2.48,2.48,0,0,1-3.17.27Z"/><path class="cls-7" d="M362.24,73.31l-.3-.8,2.72.29V73Z"/><path class="cls-9" d="M116,82.2,118.3,82c-.47.7-1.17.77-2.3.43Z"/><path class="cls-7" d="M129.29,76.44a3.14,3.14,0,0,1,2.58,0l-2.56.26Z"/><path class="cls-7" d="M373.74,63.73h-2.41C372.14,63,372.94,63.74,373.74,63.73Z"/><path class="cls-7" d="M147.53,55.32l2.51.8,0,.19-2.5-.71Z"/><path class="cls-7" d="M260.59,58.58a2.88,2.88,0,0,1-.75.13c-.19,0-.36-.2-.54-.3.17-.12.35-.33.5-.32a3.56,3.56,0,0,1,.86.31Z"/><path class="cls-7" d="M367.2,89.39l-1.6-.3,0-.25,1.64.19Z"/><path class="cls-7" d="M253.49,58.12l-1.48.56-.11-.26,1.48-.59Z"/><path class="cls-10" d="M314.47,52.39l-.46.11,0-.06.37-.19Z"/><path class="cls-10" d="M314,52.5l-.24.14,0-.11.25-.09Z"/><path class="cls-11" d="M129.3,123.57h.82l-.19-.12c.07-.25.08-.58.24-.73a4.53,4.53,0,0,1,1-.53l-1-1a2.76,2.76,0,0,1,2.22.4s0,.28-.07.45l-.84-.34-.16.21.76.44-1.31.72h2.7l0,.19-2.72,1.36a1.26,1.26,0,0,1-1.09-.43C129.6,124,129.49,123.85,129.3,123.57Z"/><path class="cls-11" d="M131.93,114.81c-.1-.28-.13-.57-.22-.59a3.42,3.42,0,0,0-.85.13,7.72,7.72,0,0,1-.93-.21,9.11,9.11,0,0,1-1-.47l.07-.34h2.27v-.23l-.67-.2,0-.21,1.73.21c.17-.16.36-.43.46-.4a2.82,2.82,0,0,1,.69.43l-.07.22-2,.38,0,.26,2-.24.07.19a3,3,0,0,1-.6.23c-.45.06-.66.22-.41.7Z"/><path class="cls-11" d="M146.26,143l.21.37.3.29h0v.39c-.38.09-.72.15-1,.26-.55.2-1,.31-1.14-.48l.24-.13-.1-.15-.25.18-.33.31-.14-.63A2.66,2.66,0,0,1,146.26,143Z"/><path class="cls-5" d="M138.29,119c-.1.1-.18.28-.29.29-.55.09-1.12.13-1.68.18l0-.26,1.25-.17c-.42-.52-1.59.28-1.33-1.07l-.63.45c-.34-.55,0-.9.55-.61.26.12.5.26.74.39l-.38.18,1.75.12v.12l-.73.27,0,.15.66-.11Z"/><path class="cls-5" d="M342,138.36h1.8l0-.14-.83-.1,0-.19a6,6,0,0,1,1.28.14,5.6,5.6,0,0,1,1.1.69l-.08.24a3.46,3.46,0,0,0-.64-.13c-.43,0-.87,0-1.29,0a12.28,12.28,0,0,1-1.45-.36Z"/><path class="cls-11" d="M127,130.29l-.61-.51.39-.54,1.49,1.76-.11.17-.86-.57c-.36.3.2,1.28-1,1.14Z"/><path class="cls-11" d="M126,115.75a14.69,14.69,0,0,1-1.27-.8c-.06,0,.11-.49.12-.49a8.75,8.75,0,0,1,1.53.37c.17.06.25.38.37.58Z"/><path class="cls-11" d="M154.05,143.18c.63-1.1,1.79-.53,2.59-.91A2.76,2.76,0,0,1,154.05,143.18Z"/><path class="cls-5" d="M374,118.73c.21-.49.52-.47.94-.37.68.17,1.4.51,2.07-.23l.23.84Z"/><path class="cls-5" d="M136.84,116.41l.48.58-1.7-.27c0-1,.44-1.45,1.47-1.43l-1.2.8,1,.34Z"/><path class="cls-5" d="M134.62,104.25l1.08-.79a2.69,2.69,0,0,1,.5.26.51.51,0,0,1,.19.4.42.42,0,0,1-.34.25C135.58,104.36,135.11,104.3,134.62,104.25Z"/><path class="cls-11" d="M135.7,113c.56-.87,1-.16,1.58.06l-.49.59-.26-.4-.28.26Z"/><path class="cls-11" d="M126.74,110.89l1-.56.46.57-.23.33-.37.48c-.07-.18-.09-.41-.22-.53A2.4,2.4,0,0,0,126.74,110.89Z"/><path class="cls-5" d="M129.06,103.08c.78-.82,1.69-.39,2.56-.35l0,.2Z"/><path class="cls-5" d="M335.15,143.57l-1.89-.6C333.73,142.42,334.77,142.67,335.15,143.57Z"/><path class="cls-11" d="M375.64,115.77l1.15.28c.06,0,.09.1.16.18-.32.48-.77.38-1.17.22-.16-.06-.23-.36-.34-.55Z"/><path class="cls-5" d="M123.15,105.29c-.48-.08-.86,0-1,.65l-.52-.29c.49-.92,1-1,1.47-.36Z"/><path class="cls-5" d="M134,119.59l1.45-.64-.06-.17s.11,0,.12.06c.16.48.09.6-.43.67C134.74,119.55,134.44,119.56,134,119.59Z"/><path class="cls-5" d="M131.2,112.25h-1.91C130.11,111.72,130.71,111.71,131.2,112.25Z"/><path class="cls-5" d="M368.92,129h-1.75v-.25l1.77-.07Z"/><path class="cls-5" d="M128.58,115.7l-1.4-.15c.55-.74,1-.25,1.43-.14Z"/><path class="cls-5" d="M367.87,105.67l-1.52-.25v-.13h1.52Z"/><path class="cls-11" d="M127.78,114.37c.63-.88.74-.89,1.21,0Z"/><path class="cls-5" d="M344.35,141.68l-.67,0-.23-1,1.05.74Z"/><path class="cls-11" d="M137,104l1.21-.26.06.26c-.31.51-.79.28-1.21.28Z"/><path class="cls-10" d="M127.75,126.06l-.7-.31.12-.31.71.25Z"/><path class="cls-10" d="M378.08,116.72l-.92-.21.11-.32.87.47Z"/><path class="cls-10" d="M125.58,127.68l.4.19-.07.14-.39-.2Z"/><path class="cls-10" d="M123.28,115.41l.19-.24.13.12-.24.23A.44.44,0,0,1,123.28,115.41Z"/><path class="cls-10" d="M125.74,134.83l.34,0v.06h-.34Z"/><path class="cls-10" d="M124.36,103.37l0,.26-.13-.17Z"/><path class="cls-10" d="M168.23,140l-.19-.08,0-.06.25.05Z"/><path class="cls-5" d="M138.22,118.93l.15-.05-.08.12Z"/><path class="cls-10" d="M122.66,105.91l0-.16.14.07Z"/><path class="cls-5" d="M136.85,116.43v-.11l.09,0-.11.06Z"/><path class="cls-10" d="M132,104.4l.07.08,0,0-.07-.08Z"/><path class="cls-2" d="M146.77,143.68l-.3-.29Z"/><path class="cls-10" d="M380.35,110.82a1.53,1.53,0,0,1,.17-.27l.11,0-.15.34Z"/><path class="cls-10" d="M381.75,111.85h0Z"/><path class="cls-2" d="M144.48,143.76l.25-.18.1.15-.24.13Z"/></svg>