<svg id="Слой_1" data-name="Слой 1" xmlns="http://www.w3.org/2000/svg" viewBox="0 0 500 150"><defs><style>.cls-1{fill:none;}.cls-2{fill:#1b191a;}.cls-3{fill:#1b1a1a;}.cls-4{fill:#a91c36;}.cls-5{fill:#a81c37;}.cls-6{fill:#a81d36;}.cls-7{fill:#a91f39;}.cls-8{fill:#191718;}.cls-9{fill:#a92039;}.cls-10{fill:#a91a36;}.cls-11{fill:#1e1d1e;}.cls-12{fill:#211f20;}.cls-13{fill:#a8213a;}.cls-14{fill:#1f1d1e;}</style></defs><path class="cls-1" d="M130.55,70.45c-9,.44-13.7,6.49-12.71,16.63H146C146.05,74.93,141.32,69.93,130.55,70.45Z"/><path class="cls-1" d="M369.47,70.39c-8.46-.54-13.12,5.11-13.62,12.31a103.31,103.31,0,0,0,.06,14.72c.3,4,1.84,7.68,5.44,10,9.13,5.89,20.63.83,21.92-9.91a64.89,64.89,0,0,0,0-15.13C382.39,74.69,378.5,70,369.47,70.39Z"/><path class="cls-1" d="M29.23,79.2c6.31-.35,10.12-4.7,10.28-10.92.16-6.54-2.79-10.69-9-11.18-6.66-.52-13.35-.1-20.21-.1V79.27C16.86,79.27,23.07,79.54,29.23,79.2Z"/><path class="cls-1" d="M248.32,70.4C241.14,70.56,237,74,235.67,81a49.71,49.71,0,0,0-.21,16.64c1.26,8.2,6.65,13.45,17.52,11.52a10.77,10.77,0,0,0,9.18-8.49,101.55,101.55,0,0,0,1.59-10.42,99.22,99.22,0,0,0-1.35-10C260.65,72.77,256.8,70.21,248.32,70.4Z"/><path class="cls-1" d="M32,83.27c-6.91-1.06-14-.78-21.59-1.12v26H25.87a46.35,46.35,0,0,0,5.4-.22c3.87-.47,7.33-1.74,9.4-5.42C45.31,94.26,41.33,84.71,32,83.27Z"/><path class="cls-1" d="M448.81,72.22a15.35,15.35,0,0,0-16.76.87c-4.7,3.26-5.33,8.52-5.15,14h28.38C455.22,80.83,454.36,75.28,448.81,72.22Z"/><path class="cls-2" d="M477.5,38.05a9.88,9.88,0,0,0-.11-1.08l-47-9.64c3.5-3.65,6.15-6.46,8.85-9.22,3-3.07,6-6.14,5.38-11l-2-2.24c-3.1-3.56-5.17-4.14-9.5-2.55a32.47,32.47,0,0,0-4,1.78C419.71,9,410.28,14,400.89,19c-5,2.69-10,5.55-15,8.37-1.93-7.32-3.24-8.26-10.17-7.46C370.87,13.8,366,7.66,360.89,1.26l-5.55,2.2c1.86,8.54,4.72,16.54,5.75,25-1.18.22-1.8.4-2.42.45-8.51.67-17,1.28-25.51,2a15.35,15.35,0,0,0-3.59,1.33c9,3.47,17.95,3,27,3.94.46,1.31.88,2.5,1.29,3.69l9,1.67c-1.57,2-3.23.9-4.82.66-1.77-.27-3.56-.33-5.35-.49a1.76,1.76,0,0,1-.79,0l-5.13-.63c-4.88.22-9.8-1.67-14.68.21,6.65,1.86,13.32,3.31,20,4.54,3,.54,5.7,1.27,7.71,4.12,5.31.35,10.7.62,16.09,1.06,6,.5,11.1-1.45,16.2-4.57C400,44,404.59,42.56,409,41.1s8.79-2.37,13.22-3.4A19,19,0,0,1,428,37c7.15.57,14.28,1.38,21.41,2.1.49,0,1.07.27,1.45.09,4.29-2,8.68-.65,13-.43,2.95.14,5.9.49,8.85.43A22,22,0,0,0,477.5,38.05Z"/><path class="cls-3" d="M35.54,80.68c.86-.6,1.25-.89,1.65-1.16C42.78,75.71,44,70.38,42.85,64s-5.63-8.81-11.34-9.87a13.36,13.36,0,0,0-2.43-.38H6.53v57.12a13.59,13.59,0,0,0,2.09.34q10.83,0,21.66-.21a22.82,22.82,0,0,0,4.33-.75C44,108.23,47,100,45.93,92.32,45.09,86.51,41.52,82.81,35.54,80.68ZM10.3,57c6.86,0,13.55-.4,20.16.12,6.26.49,9.21,4.64,9,11.18-.16,6.22-4,10.57-10.28,10.92s-12.37.07-18.93.07Zm30.38,45.5c-2.07,3.68-5.53,5-9.4,5.42a46.35,46.35,0,0,1-5.4.22H10.42v-26C18,82.48,25.1,82.2,32,83.26c9.32,1.45,13.3,11,8.67,19.22Z"/><path class="cls-4" d="M229.42,53.85h-5c-3,3.17-6.34,6.79-9.78,10.3s-7,7-10.52,10.36-6.51,7-11.21,10.41v-31h-3.38v57.34l3.62-.44v-21l9.36-9c1.8,2.34,3.21,4.14,4.59,6,5.65,7.43,11.33,14.84,16.93,22.32,1.49,2,3,3.2,6,1.84L205.36,78.34Z"/><path class="cls-5" d="M371.45,67.31H367c-7.29.36-12,3.82-14.14,10.75C351,84.29,351,90.6,351.81,97c1.29,9.88,6.92,15.34,16.8,15.67a35.72,35.72,0,0,0,5.84-.53c6.18-.84,10.12-4.49,11.85-10.28a108.53,108.53,0,0,0,2.17-11c-.52-4-.72-7.42-1.46-10.75C385.16,71.68,380,67.57,371.45,67.31Zm11.82,30.2c-1.29,10.74-12.79,15.8-21.92,9.91-3.6-2.32-5.14-6-5.44-10a103.31,103.31,0,0,1-.06-14.72c.5-7.2,5.16-12.85,13.62-12.31,9-.42,12.92,4.3,13.82,12a64.8,64.8,0,0,1,0,15.12Z"/><path class="cls-4" d="M266.11,78.2a14.41,14.41,0,0,0-13.59-10.8,52.07,52.07,0,0,0-6.37,0c-6.81.38-11.4,3.73-13.47,10.22a40.82,40.82,0,0,0-.37,23.18c1.78,6.75,6.08,10.72,13,11.49a37.58,37.58,0,0,0,8.74-.16c6.38-.79,10.31-4.71,12-10.71a91.67,91.67,0,0,0,1.73-10c-.25-3.41-.38-6.19-.68-9A25.6,25.6,0,0,0,266.11,78.2Zm-3.95,22.45a10.77,10.77,0,0,1-9.18,8.49c-10.87,1.93-16.26-3.32-17.52-11.52A49.86,49.86,0,0,1,235.67,81c1.29-7,5.47-10.42,12.65-10.58,8.48-.19,12.33,2.37,14.08,9.83a99.22,99.22,0,0,1,1.35,10,101.59,101.59,0,0,1-1.59,10.4Z"/><path class="cls-6" d="M438.76,67.36a7.27,7.27,0,0,0-1.47.1c-6.15.91-10.55,3.89-12.74,10-2.35,6.55-2.31,13.29-1.27,19.89,1.58,10.13,6.39,14.29,16.21,15.26a4.46,4.46,0,0,0,1.39-.58,5.62,5.62,0,0,0,0-1.42,5.72,5.72,0,0,0-.7-1.19c-10-1.36-14.59-7.89-12.9-19h32.08c0-1.7.07-3,0-4.24C458.49,74.28,453.78,65.92,438.76,67.36ZM426.9,87.14c-.18-5.53.45-10.79,5.15-14a15.35,15.35,0,0,1,16.76-.87c5.55,3.06,6.41,8.61,6.47,14.92Z"/><path class="cls-7" d="M310.44,76.89a11.31,11.31,0,0,0-8.63-9.14c-4.33-1-8.79-1-12.78,1.71-2.42,1.65-4.91,3.18-7.53,4.87-.74-2.14-1.35-3.94-2-5.85l-2.12.36v42.09l3.63.17V78.54c3.76-2.41,7.25-5.23,11.2-7.06,6.14-2.85,13.59-.63,14.68,7a72.45,72.45,0,0,1,.54,9.77c.07,7.51,0,15,0,22.66h3.94c0-8.79.07-17.29,0-25.79A42.19,42.19,0,0,0,310.44,76.89Z"/><path class="cls-8" d="M134.49,67.33c-1.47-.06-3,0-4.43,0-8.34.29-13.89,4.9-15.56,13a47.12,47.12,0,0,0,0,19c1.59,7.87,7.38,12.87,15,13,.83,0,1.68-.74,2.53-1.14l-.34-1.27c-4.45-1.12-9.2-1.74-11.6-6.37-2.12-4.1-3.37-8.37-2.25-13.46h32a28.25,28.25,0,0,0-1.78-13.4C145.62,70.61,141,67.61,134.49,67.33ZM117.84,87.08c-1-10.14,3.7-16.19,12.71-16.63,10.77-.52,15.5,4.48,15.45,16.63Z"/><path class="cls-9" d="M491,107.72c-1.21.43-2.25.91-3.35,1.18-7.07,1.75-12.38-.59-11.91-8.61.49-8.51.09-17.07.12-25.61,0-1.25.19-2.51.31-4.08h13.56c.35-1.12.61-1.92,1.06-3.35h-15V52.65l-4.14.76v13.7l-7.56.66c.16,1.13.27,1.87.4,2.8h7.23c.09,1.75.23,3.32.24,4.88,0,9,0,18.06.07,27.09,0,3.88,1.39,7.31,5,8.89,5.41,2.36,10.74,1.45,16.35-1.54Z"/><path class="cls-2" d="M178,108.85c-8.47,2.49-12.42-.55-12.37-9.42,0-8.53,0-17.05.07-25.58a33.55,33.55,0,0,1,.37-3.46H179.7l.9-3.06H165.47V52.42l-3.79,1.1v13.7l-7.58.41c.06,1.09.1,1.82.14,2.75l7.63.42V99.22a34.38,34.38,0,0,0,.64,6.32,8.09,8.09,0,0,0,6.51,6.57,19.52,19.52,0,0,0,13-1.45c.23-.11.35-.48.75-1L181,107.78C179.84,108.16,179,108.58,178,108.85Z"/><path class="cls-10" d="M333.34,108.77c-3.14-2.24-4-5-3.92-8.38.09-8.21,0-16.42.06-24.63a44.11,44.11,0,0,1,.72-5.37h13.62c.26-1.08.44-1.8.72-2.93H329.83c-.22-5.09-.42-9.88-.65-15l-3.75,1.4V67.24l-7.23.44c.13,1.18.22,1.92.31,2.71l6.95.36c.2,2.4.53,4.65.55,6.91.08,8.2,0,16.41.08,24.62.1,6.73,3.68,10.43,10.41,10.32,3.2,0,6.39-1.14,9.57-1.85.32-.07.52-.72.92-1.32-.55-.66-1.06-1.28-1.51-1.84C341.06,109.29,337.09,109.83,333.34,108.77Z"/><path class="cls-11" d="M103.53,107.92c-2.37-2.21-2-4.6-2-6.87V58.23c0-1.43-.13-2.85-.2-4.26H90.66c.24,1.08.4,1.82.57,2.61l6.43.3v45.49c0,7.72,3.34,10.35,11.57,9.17-.08-.85-.16-1.73-.24-2.52Z"/><path class="cls-12" d="M82.6,54H71.82c.24,1.13.39,1.87.55,2.59l6.31.29v5.27c0,13.61-.11,27.23.07,40.84.11,7.43,4,10.12,11.15,8.38v-2.12l-7.3-2.31Z"/><path class="cls-13" d="M402.14,72.94c-1.66-1.34-.26-4.67-3.8-4.2v42.31l3.66.17V77.76c4.64-4.44,9.34-7.74,15.6-7.4a6.32,6.32,0,0,0,.23-1.3,10.2,10.2,0,0,0-.32-1.35C411.05,65.77,407,70.83,402.14,72.94Z"/><path class="cls-14" d="M62.32,101.48c-.09-8,0-16.09,0-24.13v-9.8H51.45c.29,1.1.47,1.81.69,2.65h6.34v30.48a31.94,31.94,0,0,0,.64,5.85c.62,3.11,2.83,4.74,5.81,5.22a29.81,29.81,0,0,0,5,0v-2.61l-6.66-1.47A44.72,44.72,0,0,1,62.32,101.48Z"/></svg>