<svg id="Layer_1" data-name="Layer 1" xmlns="http://www.w3.org/2000/svg" viewBox="0 0 481.89 481.89"><defs><style>.cls-1{fill:#fff;}.cls-2{fill:#ee746f;}.cls-3{fill:#7b444a;}.cls-4{fill:#fff2e1;}.cls-5{fill:#ea5548;}.cls-6{fill:#fcd2ad;}.cls-7{fill:#a1d8ed;}.cls-8{fill:#f8b770;}.cls-9{fill:#eaf6fe;}</style></defs><path class="cls-1" d="M475.49,178.68c.09,1.24.15,2.5.19,3.75C475.64,181.18,475.58,179.92,475.49,178.68Z"/><path class="cls-1" d="M474.7,172.05c-.07-.53-.17-1.07-.27-1.6C474.53,171,474.63,171.51,474.7,172.05Z"/><path class="cls-1" d="M474.43,170.45c-.11-.67-.24-1.33-.38-2C474.2,169.12,474.32,169.78,474.43,170.45Z"/><path class="cls-1" d="M473.58,166.35c-.13-.61-.28-1.21-.44-1.8C473.3,165.15,473.45,165.74,473.58,166.35Z"/><path class="cls-1" d="M472.52,162.29c-.15-.54-.31-1.07-.48-1.6C472.21,161.22,472.37,161.75,472.52,162.29Z"/><path class="cls-1" d="M472,160.69c-.19-.64-.4-1.27-.61-1.9C471.65,159.42,471.85,160.05,472,160.69Z"/><path class="cls-1" d="M471.43,158.79c-.21-.62-.43-1.25-.67-1.87C471,157.54,471.22,158.17,471.43,158.79Z"/><path class="cls-1" d="M470.76,156.92l-.63-1.67C470.34,155.8,470.56,156.36,470.76,156.92Z"/><path class="cls-1" d="M468.47,151.35c-.26-.57-.53-1.14-.8-1.71C468,150.21,468.22,150.78,468.47,151.35Z"/><path class="cls-1" d="M466.76,147.79l-.89-1.66C466.18,146.69,466.46,147.24,466.76,147.79Z"/><path class="cls-1" d="M465.87,146.13l-1-1.71C465.24,145,465.56,145.55,465.87,146.13Z"/><path class="cls-1" d="M464.91,144.42c-.65-1.13-1.34-2.26-2.05-3.35C463.58,142.16,464.26,143.29,464.91,144.42Z"/><path class="cls-1" d="M462.86,141.07c-.35-.54-.71-1.1-1.08-1.64C462.16,140,462.52,140.51,462.86,141.07Z"/><path class="cls-1" d="M461.78,139.43c-.32-.48-.66-1-1-1.44C461.13,138.47,461.46,139,461.78,139.43Z"/><path class="cls-1" d="M459.51,136.25c-.39-.53-.78-1-1.19-1.55C458.74,135.21,459.13,135.72,459.51,136.25Z"/><path class="cls-1" d="M458.32,134.7q-.48-.63-1-1.23Q457.86,134.07,458.32,134.7Z"/><path class="cls-1" d="M457,133l-1.13-1.33C456.21,132.11,456.59,132.57,457,133Z"/><path class="cls-1" d="M455.83,131.68c-.32-.37-.64-.74-1-1.11C455.19,130.94,455.51,131.31,455.83,131.68Z"/><path class="cls-1" d="M444.2,120.66c-.48-.38-1-.75-1.46-1.11C443.23,119.91,443.72,120.28,444.2,120.66Z"/><path class="cls-1" d="M441.41,118.58c-.43-.31-.87-.61-1.3-.9C440.54,118,441,118.27,441.41,118.58Z"/><path class="cls-1" d="M434.82,114.34c.93.54,1.87,1.11,2.78,1.69C436.69,115.45,435.75,114.88,434.82,114.34Z"/><path class="cls-1" d="M425.5,144.64v6.71h-.14v-6.71A40.38,40.38,0,0,0,409,112.15l-11.6-8.55a.15.15,0,0,1,.13,0h0l11.61,8.57A40.34,40.34,0,0,1,425.5,144.64Z"/><path class="cls-2" d="M424.49,431.2c2.22,2.08,1.06,6.57-1.7,6.57h-51.4V421.62h42.85Z"/><path class="cls-1" d="M420.67,107.91l-1.18-.4Z"/><path class="cls-3" d="M415.24,211.22a10.45,10.45,0,0,1,1.16,4.92c0,4.68-2.76,8.47-6.16,8.47s-6.16-3.79-6.16-8.47,2.76-8.47,6.16-8.47A5.84,5.84,0,0,1,415.24,211.22Z"/><rect class="cls-4" x="371.39" y="406.97" width="42.86" height="14.65"/><path class="cls-1" d="M409.23,104.89l-1.88-.32Z"/><path class="cls-1" d="M407.35,104.57l-2-.3Z"/><path class="cls-1" d="M405.36,104.27c-.61-.08-1.22-.16-1.83-.22C404.14,104.11,404.76,104.19,405.36,104.27Z"/><path class="cls-1" d="M403.31,104c-.57-.07-1.14-.12-1.7-.17C402.17,103.9,402.74,104,403.31,104Z"/><path class="cls-1" d="M401.27,103.82c-.44,0-.88-.08-1.34-.1C400.37,103.74,400.83,103.78,401.27,103.82Z"/><path class="cls-1" d="M399.93,103.72l-1.29-.07C399.08,103.66,399.51,103.69,399.93,103.72Z"/><path class="cls-2" d="M396.86,303.5H349.57v77.2h50.06v-18l-18.79,8.71-2.76-10.69-5.82,1.62a13.16,13.16,0,0,1-6.54-25.5l5.82-1.51-2.1-8.12,30.19-4.15V303.5Z"/><path class="cls-1" d="M397.48,103.58v0a.39.39,0,0,0-.15,0Z"/><path class="cls-1" d="M397.49,103.6a.15.15,0,0,0-.13,0l0,0A.39.39,0,0,1,397.49,103.6Z"/><path class="cls-1" d="M397.34,103.58l0,0a.9.9,0,0,0-.23,0Z"/><path class="cls-1" d="M397.13,103.58H363.87v0h30.58C395.35,103.53,396.25,103.55,397.13,103.58Z"/><path class="cls-4" d="M371.54,335.33l6.54,25.39-5.82,1.62a13.16,13.16,0,0,1-6.54-25.5Z"/><polygon class="cls-4" points="374.6 280.92 374.6 288.86 364.5 288.86 354.38 288.86 354.38 280.92 374.6 280.92"/><path class="cls-1" d="M363.87,103.53v0H330.6c.89,0,1.79,0,2.69,0Z"/><path class="cls-2" d="M357.56,421.62v16.15H306.15c-2.76,0-3.92-4.49-1.69-6.57l10.24-9.58Z"/><rect class="cls-4" x="314.7" y="406.97" width="42.86" height="14.65"/><rect class="cls-5" x="338.19" y="303.5" width="11.38" height="77.2"/><path class="cls-4" d="M408.18,151.35H302.39V274.77a80.21,80.21,0,0,0,30.9,6.15h61.16a80.26,80.26,0,0,0,30.91-6.15V151.35Zm-4.1,64.79c0-4.68,2.76-8.47,6.16-8.47a5.84,5.84,0,0,1,5,3.55,10.45,10.45,0,0,1,1.16,4.92c0,4.68-2.76,8.47-6.16,8.47S404.08,220.82,404.08,216.14Zm-85.72,8.47c-3.4,0-6.16-3.79-6.16-8.47a10.69,10.69,0,0,1,1.14-4.92,5.89,5.89,0,0,1,5-3.55c3.4,0,6.16,3.79,6.16,8.47S321.76,224.61,318.36,224.61Z"/><path class="cls-1" d="M330.6,103.58a.62.62,0,0,0-.19,0v0Z"/><path class="cls-1" d="M330.41,103.6l-11.62,8.57a39.92,39.92,0,0,0-4.52,3.87,40.22,40.22,0,0,1,4.52-3.89l11.59-8.55S330.39,103.58,330.41,103.6Z"/><path class="cls-1" d="M330.39,103.58v0c-.41,0-.81,0-1.22.05Z"/><path class="cls-1" d="M329.1,103.65l-1.29.07C328.23,103.69,328.66,103.66,329.1,103.65Z"/><path class="cls-1" d="M327.81,103.72c-.46,0-.9.06-1.35.1C326.91,103.78,327.36,103.74,327.81,103.72Z"/><path class="cls-1" d="M326.13,103.85c-.57.05-1.13.1-1.7.17C325,104,325.56,103.9,326.13,103.85Z"/><path class="cls-1" d="M324.21,104.05c-.62.06-1.22.14-1.84.22C323,104.19,323.59,104.11,324.21,104.05Z"/><path class="cls-3" d="M313.34,211.22a5.89,5.89,0,0,1,5-3.55c3.4,0,6.16,3.79,6.16,8.47s-2.76,8.47-6.16,8.47-6.16-3.79-6.16-8.47A10.69,10.69,0,0,1,313.34,211.22Z"/><path class="cls-1" d="M322.35,104.27c-.65.09-1.31.19-2,.3C321,104.46,321.7,104.36,322.35,104.27Z"/><path class="cls-1" d="M320.39,104.57l-1.88.32Z"/><path class="cls-1" d="M310.41,120.47a39.8,39.8,0,0,1,3-3.58C312.37,118,311.36,119.23,310.41,120.47Z"/><polygon class="cls-1" points="309.22 365.94 306.59 374.94 309.19 365.93 309.22 365.94"/><path class="cls-1" d="M308.24,107.51l-1.18.4Z"/><path class="cls-4" d="M306.26,376.08,305.13,380a13.16,13.16,0,1,1-25-8.32l1.12-3.41Z"/><path class="cls-6" d="M475.68,182.43c0-1.25-.1-2.51-.19-3.75-.17-2.23-.43-4.45-.79-6.63-.07-.53-.17-1.07-.27-1.6s-.24-1.33-.38-2-.3-1.41-.47-2.11-.28-1.21-.44-1.8c-.19-.75-.4-1.51-.62-2.26-.15-.54-.31-1.07-.48-1.6s-.4-1.27-.61-1.9-.43-1.25-.67-1.87l-.63-1.67c-.51-1.32-1.07-2.61-1.66-3.9-.26-.57-.53-1.14-.8-1.71s-.6-1.23-.91-1.85l-.89-1.66-1-1.71c-.65-1.13-1.34-2.26-2-3.35-.36-.54-.72-1.1-1.09-1.64s-.66-1-1-1.44-.83-1.16-1.27-1.74-.78-1-1.19-1.55-.65-.83-1-1.23c-.12-.15-.24-.31-.37-.46l-1.13-1.33c-.32-.37-.64-.74-1-1.11a80.62,80.62,0,0,0-10.65-9.91c-.48-.38-1-.75-1.46-1.11s-.88-.65-1.33-1-.87-.61-1.3-.9c-.82-.58-1.66-1.12-2.51-1.65s-1.85-1.15-2.78-1.69a79.36,79.36,0,0,0-14.15-6.43l-1.18-.4a79.05,79.05,0,0,0-10.26-2.62l-1.88-.32-2-.3h0c-.61-.08-1.22-.16-1.83-.22l-.22,0c-.57-.07-1.14-.12-1.7-.17l-.34,0c-.44,0-.88-.08-1.34-.1l-1.29-.07c-.37,0-.75,0-1.14-.05l4.5,3.32c-.05,0-4.64-3.32-4.64-3.32a.9.9,0,0,0-.23,0H330.6a.62.62,0,0,0-.19,0h0c-.41,0-.81,0-1.22.05,0,0-.05,0-.06,0l-1.29.07c-.46,0-.9.06-1.35.1l-.33,0c-.57.05-1.13.1-1.7.17a1.66,1.66,0,0,0-.22,0c-.62.06-1.22.14-1.84.22h0c-.65.09-1.31.19-2,.3l-1.88.32a79.05,79.05,0,0,0-10.26,2.62l-1.19.4a79.92,79.92,0,0,0-16.33,7.75l-1.15.72-1.64,1.07c-.54.37-1.08.74-1.61,1.13l-1.33,1c-.49.36-1,.73-1.47,1.11l-.61.49c-.42.32-.83.65-1.23,1s-1,.82-1.49,1.25l-1.47,1.3L277.3,126c-.47.45-.93.91-1.39,1.37s-.91.92-1.37,1.39l-1.33,1.43c-.43.49-.87,1-1.29,1.46s-.85,1-1.27,1.49q-1.86,2.27-3.57,4.66c-.75,1.06-1.49,2.14-2.2,3.24s-1.39,2.22-2,3.35l-1,1.71-.93,1.75c-.29.58-.59,1.17-.87,1.76s-.54,1.14-.8,1.71c-.59,1.29-1.15,2.58-1.66,3.9l-.63,1.67c-.24.62-.46,1.25-.67,1.87s-.42,1.26-.61,1.9-.34,1.06-.48,1.6c-.23.75-.43,1.51-.62,2.26-.34,1.29-.64,2.6-.91,3.91-.14.66-.27,1.32-.38,2s-.2,1.07-.27,1.6c-.36,2.18-.62,4.4-.79,6.63-.09,1.24-.15,2.5-.19,3.75q0,1.17,0,2.34v114.7h50.35V151.35h123V299.47h50.35V184.77Q475.71,183.6,475.68,182.43Z"/><path class="cls-1" d="M290.73,115.66l-1.15.72C290,116.12,290.35,115.89,290.73,115.66Z"/><path class="cls-1" d="M289.58,116.38l-1.64,1.07C288.49,117.08,289,116.73,289.58,116.38Z"/><path class="cls-1" d="M287.94,117.45c-.54.37-1.08.74-1.61,1.13C286.86,118.19,287.4,117.82,287.94,117.45Z"/><path class="cls-1" d="M285,119.55c-.49.36-1,.73-1.47,1.11C284,120.29,284.51,119.91,285,119.55Z"/><path class="cls-7" d="M421.86,352.41c10.86-5.18,14.08-13.75,8.63-22.16L415,306.36a23.89,23.89,0,0,0-26-10.14l.4.63h0l.8,1.28-.8-1.28a43,43,0,0,0-24.89-8c-19.68,0-37,13.57-42.63,33.35L297.81,407H429.93L416,355.12Zm-50.32-17.08,6.54,25.39,2.76,10.69,18.79-8.71v18H338.19V303.5h61.44v19.56l-30.19,4.15Z"/><path class="cls-7" d="M306.59,374.94l2.6-9L321.87,322a46.38,46.38,0,0,1,19.36-26.45s-20.51-2.94-35.7,25.39c-8.54,15.94-16.44,28.49-21.7,36.45-4.11,6.17-6.63,9.55-6.63,9.55l4.07,1.28,25,7.86Z"/><path class="cls-1" d="M282.92,121.15c-.42.32-.83.65-1.23,1C282.09,121.8,282.5,121.47,282.92,121.15Z"/><path class="cls-1" d="M281.69,122.15c-.51.4-1,.82-1.49,1.25C280.69,123,281.18,122.55,281.69,122.15Z"/><path class="cls-1" d="M280.2,123.4l-1.47,1.3C279.21,124.25,279.7,123.82,280.2,123.4Z"/><path class="cls-1" d="M278.73,124.7,277.3,126C277.77,125.57,278.25,125.13,278.73,124.7Z"/><path class="cls-1" d="M277.3,126c-.47.45-.93.91-1.39,1.37C276.37,126.93,276.82,126.47,277.3,126Z"/><path class="cls-1" d="M275.91,127.4c-.46.45-.91.92-1.37,1.39C275,128.32,275.44,127.85,275.91,127.4Z"/><path class="cls-1" d="M274.54,128.79l-1.33,1.43C273.64,129.74,274.09,129.26,274.54,128.79Z"/><path class="cls-1" d="M273.21,130.22c-.43.49-.87,1-1.29,1.46C272.34,131.19,272.77,130.7,273.21,130.22Z"/><path class="cls-1" d="M271.92,131.68c-.43.49-.85,1-1.27,1.49C271.06,132.67,271.47,132.17,271.92,131.68Z"/><path class="cls-1" d="M270.65,133.17q-1.86,2.27-3.57,4.66Q268.76,135.43,270.65,133.17Z"/><path class="cls-1" d="M267.08,137.83c-.75,1.06-1.49,2.14-2.2,3.24C265.57,140,266.31,138.89,267.08,137.83Z"/><path class="cls-1" d="M264.88,141.07c-.7,1.09-1.39,2.22-2,3.35C263.49,143.29,264.17,142.16,264.88,141.07Z"/><path class="cls-1" d="M262.84,144.42l-1,1.71C262.19,145.55,262.51,145,262.84,144.42Z"/><path class="cls-1" d="M261.88,146.13l-.93,1.75C261.25,147.29,261.56,146.71,261.88,146.13Z"/><path class="cls-1" d="M261,147.88c-.29.58-.59,1.17-.87,1.76C260.35,149.05,260.65,148.46,261,147.88Z"/><path class="cls-1" d="M260.08,149.64c-.27.57-.54,1.14-.8,1.71C259.53,150.78,259.8,150.21,260.08,149.64Z"/><path class="cls-1" d="M257.62,155.25l-.63,1.67C257.19,156.36,257.39,155.8,257.62,155.25Z"/><path class="cls-1" d="M257,156.92c-.24.62-.46,1.25-.67,1.87C256.53,158.17,256.75,157.54,257,156.92Z"/><path class="cls-1" d="M256.32,158.79c-.21.63-.42,1.26-.61,1.9C255.9,160.05,256.1,159.42,256.32,158.79Z"/><path class="cls-1" d="M255.71,160.69c-.18.53-.34,1.06-.48,1.6C255.37,161.75,255.53,161.22,255.71,160.69Z"/><path class="cls-1" d="M254.61,164.55c-.34,1.29-.64,2.6-.91,3.91C254,167.15,254.27,165.84,254.61,164.55Z"/><path class="cls-1" d="M253.7,168.46c-.14.66-.27,1.32-.38,2C253.43,169.78,253.55,169.12,253.7,168.46Z"/><path class="cls-1" d="M253.32,170.45c-.1.53-.2,1.07-.27,1.6C253.12,171.51,253.22,171,253.32,170.45Z"/><path class="cls-1" d="M252.26,178.68c-.09,1.24-.15,2.5-.19,3.75C252.11,181.18,252.17,179.92,252.26,178.68Z"/><path class="cls-2" d="M201.42,206.8a7.19,7.19,0,1,1-7.19,7.18A7.17,7.17,0,0,1,201.42,206.8Z"/><polygon class="cls-2" points="188.83 374.25 198.96 411.9 172.18 411.9 129.32 411.9 115.49 411.9 72.63 411.9 43.74 411.9 54.42 374.25 188.83 374.25"/><path class="cls-8" d="M185.28,361l3.55,13.23H54.43l3.9-13.8a17.44,17.44,0,0,0,7.37,1.61h42.64c11.74,0,13.85-4.73,14.22-6.61.37,1.88,2.45,6.58,14.07,6.61h42.64A17.69,17.69,0,0,0,185.28,361Z"/><path class="cls-7" d="M182.43,431.2c2.21,2.08,1,6.57-1.7,6.57H129.32V421.62h42.86Z"/><rect class="cls-4" x="129.32" y="411.9" width="42.86" height="9.72"/><path class="cls-2" d="M165.86,312.12l4.95,15.58-34-.12s-1.35-7.59-7.12-12.44a3.94,3.94,0,0,0-1.31-.75l22.11-24.85.14,0,0,0A42,42,0,0,0,165.86,312.12Z"/><path class="cls-8" d="M148.13,280.44l2.46,9.06-.14,0-22.11,24.85a4.33,4.33,0,0,0-5.73,4.08l0,14.48,0-14.48a4.34,4.34,0,0,0-6-4L94.36,289.54,97,279.88a49,49,0,0,1,11.41-4.82L122,291.18,135.75,275A49.86,49.86,0,0,1,148.13,280.44Z"/><path class="cls-1" d="M136.77,327.58v34.49h-.14V327.58Z"/><path class="cls-4" d="M128.34,314.39a3.94,3.94,0,0,1,1.31.75c5.77,4.85,7.12,12.44,7.12,12.44h-.14v34.49c-11.62,0-13.7-4.73-14.07-6.61a4.37,4.37,0,0,0,.07-.78L122.56,333l0-14.48A4.33,4.33,0,0,1,128.34,314.39Z"/><path class="cls-4" d="M135.75,275,122,291.18,108.4,275.06a49.47,49.47,0,0,1,13.68-1.93A50.09,50.09,0,0,1,135.75,275Z"/><polygon class="cls-4" points="132.75 265.19 132.75 273.13 122.08 273.13 112.52 273.13 112.52 265.19 132.75 265.19"/><path class="cls-1" d="M122.63,354.68a4.37,4.37,0,0,1-.07.78,4,4,0,0,1-.08-.78l.08-21.73Z"/><path class="cls-4" d="M122.51,318.47l0,14.48-.08,21.73a4,4,0,0,0,.08.78c-.37,1.88-2.48,6.61-14.22,6.61V327.58s1.36-7.59,7.12-12.44a4.45,4.45,0,0,1,1.09-.67A4.34,4.34,0,0,1,122.51,318.47Z"/><path class="cls-2" d="M94.36,289.54l22.19,24.93a4.45,4.45,0,0,0-1.09.67c-5.76,4.85-7.12,12.44-7.12,12.44l-34.18.12,5-15.58A42,42,0,0,0,94.36,289.54Z"/><path class="cls-7" d="M115.49,421.62v16.15H64.08c-2.76,0-3.91-4.49-1.68-6.57l10.23-9.58Z"/><rect class="cls-4" x="72.63" y="411.9" width="42.86" height="9.72"/><path class="cls-2" d="M195.84,339.05,185,306.81a28.47,28.47,0,0,0-19-18.29V293a18.2,18.2,0,0,0,1.13,6.28c.34.92.77,2,1.35,3.22a79.91,79.91,0,0,0,10.59,16.1l.18.17a38.88,38.88,0,0,1-5.92-2.21,40.47,40.47,0,0,1-7.47-4.47l4.95,15.58-34-.12v34.49h42.5a17.69,17.69,0,0,0,6-1A17.5,17.5,0,0,0,195.84,339.05Z"/><path class="cls-2" d="M79.11,312.12A41.18,41.18,0,0,1,70.65,317a39.52,39.52,0,0,1-4.93,1.76l.17-.17a91.8,91.8,0,0,0,7.36-10.22,56.34,56.34,0,0,1,5-10.27A17.65,17.65,0,0,0,79,293v-4.51a28.47,28.47,0,0,0-19,18.29l-10.8,32.24a17.44,17.44,0,0,0,16.57,23h42.64V327.58l-34.18.12Z"/><path class="cls-4" d="M213.25,156.2c-5.86,8.05-13.79,14.48-24.43,15.8-14.3,1.76-24.79-1.1-38,4.5a62.54,62.54,0,0,0-15.36,9.65,33.07,33.07,0,0,1,.78-9.65c2-9.23,8.76-22.21,30.13-25.44,14.86-2.24,24.72-4.76,32.79-8.77l-14.62-14.4a21.3,21.3,0,0,0-14.94-6.41H74.76a21.25,21.25,0,0,0-14.89,6.36L45.45,142c8.2,4.21,18.19,6.8,33.46,9.1,21.38,3.21,28.1,16.2,30.14,25.44a33.25,33.25,0,0,1,.77,9.65,62.35,62.35,0,0,0-15.36-9.65c-13.23-5.6-23.71-2.74-38-4.5-10.92-1.36-19-8.09-24.89-16.45L10.18,176.5v7.44A81.56,81.56,0,0,0,79,264.23v-17.1a22.27,22.27,0,0,1,22.11-22.43h42.82A22.26,22.26,0,0,1,166,247.13v16.94a81.53,81.53,0,0,0,67.85-80.13V176.5Zm-169.69,65A7.19,7.19,0,1,1,50.75,214,7.18,7.18,0,0,1,43.56,221.17Zm157.86,0A7.19,7.19,0,1,1,208.6,214,7.18,7.18,0,0,1,201.42,221.17Z"/><path class="cls-4" d="M108.48,245.63a88,88,0,0,0-7.08,18l-.42,1.57h43l-.42-1.57a87.94,87.94,0,0,0-13.34-28.12l-7.75-10.8-7.74,10.8A89.29,89.29,0,0,0,108.48,245.63Z"/><path class="cls-9" d="M179.07,318.63a79.91,79.91,0,0,1-10.59-16.1c-.58-1.22-1-2.3-1.35-3.22A18.2,18.2,0,0,1,166,293v-45.9a22.26,22.26,0,0,0-22.11-22.43H122.48l7.75,10.8a87.94,87.94,0,0,1,13.34,28.12l.42,1.57,4.14,15.25,2.46,9.06,0,0a42,42,0,0,0,15.25,22.58,40.47,40.47,0,0,0,7.47,4.47,38.88,38.88,0,0,0,5.92,2.21Z"/><path class="cls-9" d="M79,247.13V293a17.65,17.65,0,0,1-.74,5.11h0a56.34,56.34,0,0,0-5,10.27h0a91.8,91.8,0,0,1-7.36,10.22l-.17.17A39.52,39.52,0,0,0,70.65,317h0a41.18,41.18,0,0,0,8.46-4.92,42,42,0,0,0,15.25-22.58L97,279.88h0l4-14.69.42-1.57a88,88,0,0,1,7.08-18,89.29,89.29,0,0,1,6.26-10.13l7.74-10.8H101.07A22.27,22.27,0,0,0,79,247.13Z"/><path class="cls-2" d="M43.56,206.8A7.19,7.19,0,1,1,36.38,214,7.18,7.18,0,0,1,43.56,206.8Z"/><path class="cls-9" d="M224.85,132a107.2,107.2,0,0,0,3.7-15.42c-2.79,3.11-5.33,5.92-7.74,8.47A81.34,81.34,0,0,0,152.6,87.8H145V55.06l7.91-24.33a7,7,0,0,0-6.64-9.14H98.69a7,7,0,0,0-6.62,9.22l8.18,24.25V87.8H91.44a81.35,81.35,0,0,0-67.7,36.48h0c-2.2-2.34-4.52-4.9-7-7.71a107,107,0,0,0,3.24,14h0a80.71,80.71,0,0,0-9.78,38.55v7.43l21.38-20.94c5.89,8.35,14,15.09,24.89,16.44,14.3,1.76,24.78-1.1,38,4.5a62.35,62.35,0,0,1,15.36,9.65,33.25,33.25,0,0,0-.77-9.65c-2-9.24-8.76-22.23-30.14-25.44-15.27-2.3-25.26-4.89-33.46-9.1l14.42-14.12a21.25,21.25,0,0,1,14.89-6.36h94.82a21.3,21.3,0,0,1,14.94,6.41l14.62,14.4c-8.07,4-17.93,6.53-32.79,8.77-21.37,3.23-28.09,16.21-30.13,25.44a33.07,33.07,0,0,0-.78,9.65,62.54,62.54,0,0,1,15.36-9.65c13.23-5.6,23.72-2.74,38-4.5,10.64-1.32,18.57-7.75,24.43-15.8l20.6,20.3v-7.43A80.54,80.54,0,0,0,224.85,132Z"/><path class="cls-3" d="M166.21,265.28l-.41-2.43c38.1-6.38,66.82-40.31,66.82-78.91V169.07a79.79,79.79,0,0,0-8.86-36.51l2.18-1.14a82.36,82.36,0,0,1,9.15,37.65v14.87a82.76,82.76,0,0,1-68.88,81.34Z"/><path class="cls-3" d="M219.78,125.71A79.89,79.89,0,0,0,152.6,89H145V86.57h7.59a82.33,82.33,0,0,1,69.24,37.8Z"/><path class="cls-3" d="M24.77,125l-2.06-1.36a82.45,82.45,0,0,1,68.73-37h8.81V89H91.44A80,80,0,0,0,24.77,125Z"/><path class="cls-3" d="M78.77,265.44C39,259.24,9,224.2,9,183.94V169.07a82.27,82.27,0,0,1,9.93-39.13L21,131.11a79.87,79.87,0,0,0-9.63,38v14.87C11.41,223,40.53,257,79.15,263Z"/><rect class="cls-3" x="100.98" y="263.96" width="11.54" height="2.46"/><rect class="cls-3" x="132.75" y="263.96" width="11.25" height="2.46"/><rect class="cls-3" x="222.32" y="151.88" width="2.46" height="28.93" transform="translate(-51.84 208.86) rotate(-45.43)"/><path class="cls-3" d="M198.28,143.17l-14.63-14.4a20.07,20.07,0,0,0-14.07-6.06H74.76a20.14,20.14,0,0,0-14,6L46.31,142.84l-1.73-1.76L59,127a22.52,22.52,0,0,1,15.75-6.71h94.82a22.53,22.53,0,0,1,15.8,6.76L200,141.41Z"/><rect class="cls-3" x="5.9" y="164.79" width="29.93" height="2.46" transform="translate(-110.14 61.93) rotate(-44.37)"/><polygon class="cls-3" points="146.25 89.04 99.02 89.04 99.02 55.06 101.48 55.06 101.48 86.57 143.78 86.57 143.78 55.06 146.25 55.06 146.25 89.04"/><path class="cls-3" d="M145.91,56.29H99.37L90.9,31.2a8.22,8.22,0,0,1,7.79-10.84h47.59a8.21,8.21,0,0,1,7.81,10.75Zm-44.78-2.46h43l7.63-23.48a5.76,5.76,0,0,0-5.47-7.53H98.69a5.76,5.76,0,0,0-5.45,7.59Z"/><path class="cls-3" d="M122.63,88.47a1.25,1.25,0,0,1-.67-.2L54.21,43.92l1.35-2.06,67.07,43.91,67.08-43.91,1.35,2.06L123.31,88.27A1.28,1.28,0,0,1,122.63,88.47Z"/><path class="cls-3" d="M122.53,251.26c-6.17,0-11.72-1.74-14.5-4.55a1.23,1.23,0,0,1,1.76-1.73c2.29,2.32,7.29,3.81,12.74,3.81S133,247.3,135.28,245a1.23,1.23,0,1,1,1.75,1.74C134.26,249.52,128.7,251.26,122.53,251.26Z"/><path class="cls-3" d="M132.75,274.37H112.52a1.24,1.24,0,0,1-1.23-1.24v-7.94a1.23,1.23,0,0,1,1.23-1.23h20.23a1.23,1.23,0,0,1,1.23,1.23v7.94A1.24,1.24,0,0,1,132.75,274.37Zm-19-2.47h17.76v-5.48H113.75Z"/><path class="cls-3" d="M199,413.13H172.18a1.23,1.23,0,1,1,0-2.46h25.17l-13.26-49.33a1.23,1.23,0,0,1,2.38-.63l13.68,50.87a1.24,1.24,0,0,1-1.19,1.55Z"/><path class="cls-3" d="M148.13,281.67a1.24,1.24,0,0,1-.64-.18,48.9,48.9,0,0,0-38.75-5.25A48,48,0,0,0,97.6,281a1.23,1.23,0,1,1-1.23-2.13,50.52,50.52,0,0,1,11.7-4.95,51.33,51.33,0,0,1,40.7,5.52,1.23,1.23,0,0,1-.64,2.28Z"/><path class="cls-3" d="M72.63,413.13H43.75a1.25,1.25,0,0,1-1-.49,1.23,1.23,0,0,1-.2-1.08l14.58-51.44a1.23,1.23,0,1,1,2.37.67L45.38,410.67H72.63a1.23,1.23,0,0,1,0,2.46Z"/><path class="cls-3" d="M129.32,413.13H115.49a1.23,1.23,0,0,1,0-2.46h13.83a1.23,1.23,0,1,1,0,2.46Z"/><path class="cls-3" d="M75.49,194.88a1.06,1.06,0,0,1-.46-.1c-15.21-6.19-30.67-.06-30.82,0a1.24,1.24,0,0,1-.93-2.29c.67-.27,16.52-6.58,32.67,0a1.24,1.24,0,0,1,.68,1.61A1.22,1.22,0,0,1,75.49,194.88Z"/><path class="cls-3" d="M199,194.88a1.1,1.1,0,0,1-.47-.1c-15.2-6.19-30.66-.06-30.81,0a1.24,1.24,0,1,1-.93-2.29c.66-.27,16.52-6.58,32.67,0a1.24,1.24,0,0,1-.46,2.38Z"/><path class="cls-3" d="M109.82,187.39a1.2,1.2,0,0,1-.78-.29A61.47,61.47,0,0,0,94,177.63h0c-8.35-3.53-15.74-3.6-23.57-3.69a119.81,119.81,0,0,1-14.11-.72c-10-1.24-18.69-6.95-25.74-17-4.8-6.76-8.76-15.31-11.78-25.38a108.33,108.33,0,0,1-3.28-14.14,1.23,1.23,0,0,1,2.14-1c2.88,3.23,5,5.6,7,7.68,7,7.5,13.33,13.32,21.37,17.43,7.81,4,17.4,6.61,33.09,9,22.8,3.43,29.3,18,31.15,26.39a33.76,33.76,0,0,1,.79,10.05,1.21,1.21,0,0,1-.75,1A1.1,1.1,0,0,1,109.82,187.39Zm-14.88-12a61,61,0,0,1,13.72,8.29,34.74,34.74,0,0,0-.82-6.89c-2.08-9.48-8.83-21.43-29.11-24.48-16-2.41-25.78-5.09-33.85-9.23-8.35-4.27-14.85-10.25-22-17.93-1.25-1.32-2.58-2.77-4.12-4.47.51,2.44,1.3,5.76,2.42,9.52,2.9,9.68,6.85,18.21,11.43,24.67,6.64,9.42,14.72,14.78,24,15.94a118.84,118.84,0,0,0,13.84.7c8.08.09,15.7.16,24.5,3.88Z"/><path class="cls-3" d="M135.44,187.39a1.09,1.09,0,0,1-.46-.1,1.23,1.23,0,0,1-.76-1,34,34,0,0,1,.8-10.05c2.27-10.24,9.51-23.12,31.15-26.39,15.32-2.31,24.72-4.82,32.42-8.66,8.19-4.05,14.45-9.72,21.32-17,2.54-2.68,5.21-5.65,7.72-8.45a1.22,1.22,0,0,1,1.44-.3,1.24,1.24,0,0,1,.7,1.29A108.53,108.53,0,0,1,226,132.36c-3.07,9.77-7,18-11.79,24.56-7,9.6-15.48,15.09-25.27,16.3a120.08,120.08,0,0,1-14.12.72c-7.83.09-15.22.16-23.57,3.69h0a61.43,61.43,0,0,0-15.05,9.47A1.24,1.24,0,0,1,135.44,187.39Zm91.1-66.75c-1.61,1.79-3.25,3.57-4.84,5.25-7,7.46-13.5,13.29-22,17.5-7.95,4-17.56,6.53-33.16,8.89-20.25,3.06-27,15-29.11,24.48a34.9,34.9,0,0,0-.82,6.89,61.28,61.28,0,0,1,13.73-8.29c8.79-3.72,16.42-3.79,24.5-3.88a118.84,118.84,0,0,0,13.84-.7c9.09-1.13,17-6.28,23.58-15.31,4.6-6.31,8.44-14.34,11.42-23.85C225.05,127.25,226,123.38,226.54,120.64ZM150.8,176.5h0Z"/><path class="cls-3" d="M43.56,222.41A8.42,8.42,0,1,1,52,214,8.43,8.43,0,0,1,43.56,222.41Zm0-14.38a6,6,0,1,0,6,5.95A6,6,0,0,0,43.56,208Z"/><path class="cls-3" d="M201.42,222.41a8.42,8.42,0,1,1,8.41-8.43A8.44,8.44,0,0,1,201.42,222.41Zm0-14.38a6,6,0,1,0,6,5.95A6,6,0,0,0,201.42,208Z"/><path class="cls-3" d="M74.16,328.94a1.22,1.22,0,0,1-1-.51,1.2,1.2,0,0,1-.18-1.1l5-15.58a1.22,1.22,0,0,1,1.54-.8,1.23,1.23,0,0,1,.81,1.54l-4.44,14,32.49-.12h0a1.23,1.23,0,0,1,1.23,1.23,1.21,1.21,0,0,1-1.22,1.23l-34.19.13Z"/><path class="cls-3" d="M108.34,363.3H65.7a18.47,18.47,0,0,1-7.89-1.73A18.69,18.69,0,0,1,48,338.66l10.8-32.24a29.71,29.71,0,0,1,19.86-19.08,1.23,1.23,0,1,1,.69,2.36A27.25,27.25,0,0,0,61.1,307.2L50.3,339.44a16.23,16.23,0,0,0,8.55,19.9,16,16,0,0,0,6.85,1.5h42.64a1.23,1.23,0,0,1,0,2.46Z"/><path class="cls-3" d="M170.81,328.94h0l-34-.13a1.23,1.23,0,1,1,0-2.46h0l32.34.12-4.44-14a1.23,1.23,0,0,1,2.35-.74L172,327.33a1.2,1.2,0,0,1-.18,1.1A1.22,1.22,0,0,1,170.81,328.94Z"/><path class="cls-3" d="M179.27,363.3h-42.5a1.23,1.23,0,0,1,0-2.46h42.5a16.39,16.39,0,0,0,5.59-1,16.17,16.17,0,0,0,9.81-20.43l-10.8-32.24a27.27,27.27,0,0,0-18.21-17.5,1.24,1.24,0,0,1-.84-1.53,1.22,1.22,0,0,1,1.53-.83,29.67,29.67,0,0,1,19.85,19.08L197,338.66a18.65,18.65,0,0,1-17.74,24.64Z"/><path class="cls-3" d="M108.34,363.3a1.23,1.23,0,0,1-1.23-1.23V327.58a1.8,1.8,0,0,1,0-.22c.06-.32,1.5-8.08,7.54-13.16a5.35,5.35,0,0,1,1.4-.86,5.57,5.57,0,0,1,7.67,5.12l.05,14.49a1.23,1.23,0,0,1-1.23,1.23h0a1.23,1.23,0,0,1-1.23-1.22l0-14.49a3.07,3.07,0,0,0-1.4-2.57,3,3,0,0,0-2.85-.29,3.16,3.16,0,0,0-.79.48c-5,4.2-6.48,10.74-6.67,11.61v33.12c10-.31,11.53-4.33,11.78-5.6a1.22,1.22,0,0,1,1.45-1,1.24,1.24,0,0,1,1,1.45C123.32,358,120.91,363.3,108.34,363.3Z"/><path class="cls-3" d="M136.77,363.3h-.14c-12.45,0-14.83-5.33-15.28-7.61a5.43,5.43,0,0,1-.1-1.06l.13-36.17a5.55,5.55,0,0,1,7.37-5.23,5.35,5.35,0,0,1,1.7,1c6,5.08,7.48,12.84,7.54,13.16a1.8,1.8,0,0,1,0,.22v34.49A1.24,1.24,0,0,1,136.77,363.3Zm-9.83-47.92a3.12,3.12,0,0,0-1.79.57,3,3,0,0,0-1.31,2.52l-.12,36.22a2.32,2.32,0,0,0,0,.55c.25,1.25,1.83,5.28,11.77,5.58V327.7c-.18-.87-1.68-7.41-6.68-11.62a3.07,3.07,0,0,0-.93-.53A3,3,0,0,0,126.94,315.38Z"/><path class="cls-3" d="M179.25,320a1.33,1.33,0,0,1-.34,0,39.51,39.51,0,0,1-6.09-2.27,42.59,42.59,0,0,1-7.7-4.6,43.41,43.41,0,0,1-15.7-23.25l-7-25.92a86.87,86.87,0,0,0-7-17.7,86.09,86.09,0,0,0-6.18-10l-7.75-10.8a1.25,1.25,0,0,1-.09-1.29,1.22,1.22,0,0,1,1.09-.66h21.41a23.53,23.53,0,0,1,23.35,23.66V293a16.93,16.93,0,0,0,1,5.85c.42,1.12.84,2.11,1.31,3.12A78.72,78.72,0,0,0,180,317.84l.09.09a1.23,1.23,0,0,1-.87,2.1Zm-54.37-94.1,6.35,8.85a89.32,89.32,0,0,1,13.53,28.52l7,25.88a41,41,0,0,0,14.82,22,38.81,38.81,0,0,0,7.25,4.33h0c.58.27,1.18.53,1.77.77a74.72,74.72,0,0,1-8.26-13.2c-.51-1.06-1-2.12-1.4-3.31a19.5,19.5,0,0,1-1.2-6.71v-45.9a21.06,21.06,0,0,0-20.88-21.2Z"/><path class="cls-3" d="M65.72,320a1.24,1.24,0,0,1-.87-2.11l.13-.12a92.58,92.58,0,0,0,7.22-10,51.53,51.53,0,0,0,4.49-8.89c.12-.34.24-.71.35-1.07a16.75,16.75,0,0,0,.69-4.78v-45.9a23.53,23.53,0,0,1,23.34-23.66h21.41a1.22,1.22,0,0,1,1.1.66,1.25,1.25,0,0,1-.1,1.29l-7.74,10.8a88.09,88.09,0,0,0-6.17,10,86.9,86.9,0,0,0-7,17.75l-7,25.91a43.4,43.4,0,0,1-15.7,23.24,42.6,42.6,0,0,1-8.71,5.07A40.87,40.87,0,0,1,66.06,320,1.33,1.33,0,0,1,65.72,320Zm35.35-94.1a21.07,21.07,0,0,0-20.88,21.2V293a18.88,18.88,0,0,1-.79,5.46c-.11.4-.25.82-.4,1.23a52.44,52.44,0,0,1-4.71,9.34,82.76,82.76,0,0,1-5,7.19l.82-.34a40.25,40.25,0,0,0,8.21-4.77,40.9,40.9,0,0,0,14.8-21.92l7-25.92a89.24,89.24,0,0,1,7.18-18.25,91.24,91.24,0,0,1,6.34-10.26l6.35-8.86Z"/><path class="cls-3" d="M122,292.41a1.16,1.16,0,0,1-.94-.44l-13.59-16.12.88-.87,1-.79.06.07,12.65,15,12.81-15,.13-.13,1.74,1.74L122.93,292A1.24,1.24,0,0,1,122,292.41Z"/><rect class="cls-3" x="104.22" y="285.32" width="2.46" height="33.37" transform="translate(-174.09 146.49) rotate(-41.66)"/><path class="cls-3" d="M129.26,315.21l-1.94-1.53.09-.11,22.12-24.85,1.84,1.64Z"/><rect class="cls-3" x="54.43" y="373.02" width="134.41" height="2.46"/><path class="cls-3" d="M115.49,439H64.08a4,4,0,0,1-3.69-2.76,5.48,5.48,0,0,1,1.16-5.94l9.85-9.21V411.9a1.23,1.23,0,0,1,1.23-1.23h42.86a1.23,1.23,0,0,1,1.23,1.23v25.87A1.23,1.23,0,0,1,115.49,439ZM73.86,413.13v8.49a1.23,1.23,0,0,1-.39.9L63.24,432.1a3,3,0,0,0-.56,3.23c.15.37.57,1.21,1.4,1.21h50.18V413.13Z"/><rect class="cls-3" x="72.63" y="420.39" width="42.86" height="2.46"/><path class="cls-3" d="M180.73,439H129.32a1.23,1.23,0,0,1-1.23-1.23V411.9a1.23,1.23,0,0,1,1.23-1.23h42.86a1.23,1.23,0,0,1,1.23,1.23v9.19l9.86,9.21a5.52,5.52,0,0,1,1.15,5.94A4,4,0,0,1,180.73,439Zm-50.18-2.46h50.18c.83,0,1.25-.84,1.4-1.21a3,3,0,0,0-.55-3.23l-10.24-9.58a1.24,1.24,0,0,1-.4-.9v-8.49H130.55Z"/><rect class="cls-3" x="129.32" y="420.39" width="42.86" height="2.46"/><path class="cls-3" d="M443.44,121.62c-.47-.37-.95-.73-1.43-1.07l1.45-2c.51.37,1,.75,1.51,1.14Z"/><path class="cls-3" d="M436.94,117.07c-.9-.58-1.82-1.13-2.74-1.66l1.23-2.14c.95.55,1.9,1.13,2.83,1.72Z"/><path class="cls-3" d="M420.27,109.07l-1.14-.38.73-2.35,1.18.39Z"/><path class="cls-3" d="M409,106.1l-.13,0-1.73-.29-1.93-.3.32-2.44c.67.09,1.33.19,2,.31s1.18.19,1.77.3l.13,0Z"/><path class="cls-3" d="M405.19,105.49c-.59-.08-1.19-.15-1.79-.21l.25-2.45c.64.06,1.27.14,1.89.22Z"/><path class="cls-3" d="M403.17,105.24l-1.67-.16.21-2.45,1.73.16Z"/><path class="cls-3" d="M401.17,105.05c-.43,0-.88-.08-1.31-.1l.14-2.46c.45,0,.92.06,1.38.1Z"/><path class="cls-3" d="M397.08,104.81c-.87,0-1.75,0-2.63,0H333.29c-.88,0-1.77,0-2.64,0l-.1-2.46c.91,0,1.82,0,2.74,0h61.16c.91,0,1.83,0,2.73,0Z"/><polygon class="cls-3" points="330.39 104.82 330.39 103.61 329.49 104.42 330.39 103.61 329.47 102.77 330.39 102.36 331.32 102.77 330.4 103.6 331.29 104.42 330.4 103.62 330.39 104.82"/><path class="cls-3" d="M326.57,105.05l-.21-2.46c.46,0,.93-.08,1.38-.1l.13,2.46C327.44,105,327,105,326.57,105.05Z"/><path class="cls-3" d="M324.56,105.24l-.26-2.45,1.72-.16.22,2.45Z"/><path class="cls-3" d="M322.55,105.49l-.35-2.44c.62-.08,1.25-.16,1.89-.22l.24,2.45C323.74,105.34,323.14,105.41,322.55,105.49Z"/><path class="cls-3" d="M318.72,106.1l-.43-2.42.17,0,1.74-.3c.65-.11,1.32-.21,2-.3l.32,2.44-1.91.29-1.71.29Z"/><path class="cls-3" d="M307.46,109.07l-.8-2.33c.41-.14.81-.28,1.22-.4l.73,2.35Z"/><path class="cls-3" d="M284.29,121.63l-1.51-1.95.16-.12,1.34-1,1.44,2c-.43.31-.86.64-1.28,1Z"/><path class="cls-3" d="M354.38,282.15H333.29a81.3,81.3,0,0,1-31.37-6.24l.95-2.27a78.85,78.85,0,0,0,30.42,6.05h21.09Z"/><path class="cls-3" d="M394.45,282.15H374.6v-2.46h19.85a78.9,78.9,0,0,0,30.43-6.05l.95,2.27A81.31,81.31,0,0,1,394.45,282.15Z"/><rect class="cls-3" x="302.39" y="150.12" width="122.96" height="2.46"/><path class="cls-3" d="M311.39,121.22l-2-1.5c1-1.26,2-2.5,3.11-3.67l1.8,1.68C313.3,118.84,312.31,120,311.39,121.22Z"/><path class="cls-3" d="M315.14,116.91l-1.74-1.75a42.47,42.47,0,0,1,4.66-4l11.52-8.5.28-.32H398l.37.4-.91.85v1.22H330.83l-11.31,8.34A38.6,38.6,0,0,0,315.14,116.91Z"/><path class="cls-3" d="M364.39,267c-6.18,0-11.74-1.74-14.5-4.54a1.23,1.23,0,0,1,1.76-1.73c2.27,2.32,7.28,3.81,12.74,3.81s10.46-1.5,12.75-3.81a1.23,1.23,0,1,1,1.75,1.73C376.12,265.23,370.56,267,364.39,267Z"/><path class="cls-3" d="M374.6,290.1H354.38a1.24,1.24,0,0,1-1.23-1.24v-7.94a1.23,1.23,0,0,1,1.23-1.23H374.6a1.24,1.24,0,0,1,1.24,1.23v7.94A1.25,1.25,0,0,1,374.6,290.1Zm-19-2.47h17.76v-5.48H355.61Z"/><path class="cls-3" d="M314.7,408.2H297.81a1.23,1.23,0,0,1-1-.49,1.17,1.17,0,0,1-.2-1.07l24.05-84.77c5.72-20.16,23.73-34.24,43.82-34.24a44.12,44.12,0,0,1,25.6,8.21,1.23,1.23,0,1,1-1.43,2,41.64,41.64,0,0,0-24.17-7.75c-19,0-36,13.34-41.45,32.45l-23.61,83.19H314.7a1.23,1.23,0,1,1,0,2.46Z"/><path class="cls-3" d="M371.39,408.2H357.56a1.23,1.23,0,1,1,0-2.46h13.83a1.23,1.23,0,1,1,0,2.46Z"/><path class="cls-3" d="M429.93,408.2H414.24a1.23,1.23,0,0,1,0-2.46h14.08l-13.52-50.3a1.23,1.23,0,1,1,2.38-.64l13.94,51.85a1.21,1.21,0,0,1-.22,1.07A1.2,1.2,0,0,1,429.93,408.2Z"/><path class="cls-3" d="M357.56,439H306.15a4,4,0,0,1-3.69-2.76,5.44,5.44,0,0,1,1.16-5.94l9.85-9.21V407a1.23,1.23,0,0,1,1.23-1.23h42.86a1.23,1.23,0,0,1,1.23,1.23v30.8A1.23,1.23,0,0,1,357.56,439Zm-41.63-30.8v13.42a1.23,1.23,0,0,1-.39.9l-10.23,9.58a3,3,0,0,0-.56,3.23c.14.36.57,1.21,1.4,1.21h50.17V408.2Z"/><rect class="cls-3" x="314.7" y="420.39" width="42.86" height="2.46"/><path class="cls-3" d="M422.79,439h-51.4a1.23,1.23,0,0,1-1.23-1.23V407a1.23,1.23,0,0,1,1.23-1.23h42.85a1.23,1.23,0,0,1,1.24,1.23v14.12l9.85,9.21a5.51,5.51,0,0,1,1.16,5.94A4,4,0,0,1,422.79,439Zm-50.17-2.46h50.17c.84,0,1.26-.84,1.4-1.21a3.05,3.05,0,0,0-.54-3.23l-10.25-9.58a1.26,1.26,0,0,1-.39-.9V408.2H372.62Z"/><rect class="cls-3" x="371.39" y="420.39" width="42.86" height="2.46"/><path class="cls-3" d="M303.63,300.7H250.8V184.77c0-.8,0-1.58,0-2.37h0c0-1.28.1-2.55.19-3.81.18-2.32.45-4.59.8-6.74.07-.53.17-1.08.28-1.63s.24-1.35.39-2c.24-1.24.55-2.59.92-4,.18-.75.4-1.51.62-2.28.15-.54.32-1.09.5-1.64s.39-1.28.62-1.93.44-1.26.68-1.89.4-1.13.63-1.7c.51-1.29,1.08-2.62,1.69-3.95.24-.57.52-1.16.82-1.75s.57-1.19.89-1.79.6-1.17.93-1.76.64-1.16,1-1.75c.71-1.23,1.39-2.34,2.07-3.39s1.41-2.16,2.23-3.29c1.1-1.58,2.33-3.18,3.63-4.73.4-.5.83-1,1.29-1.52s.85-1,1.31-1.48.88-1,1.35-1.45l.36-.37,1-1c.45-.46.92-.93,1.42-1.39s.94-.9,1.44-1.34,1-.89,1.49-1.31,1-.86,1.51-1.28.82-.69,1.26-1c.15-.14.39-.31.62-.49.47-.38,1-.76,1.49-1.13l1.14-.84.19-.13c.54-.39,1.09-.77,1.64-1.14s1.12-.75,1.67-1.1c.37-.25.77-.49,1.16-.73a81.43,81.43,0,0,1,16.58-7.87c.41-.14.81-.28,1.22-.4a80,80,0,0,1,10.4-2.66l.18,0,1.74-.3c.65-.11,1.32-.21,2-.3h.1c.57-.08,1.13-.15,1.71-.2a1.31,1.31,0,0,1,.22,0l1.8-.17.31,0c.49,0,.94-.08,1.41-.1l.39,0,.81,0,.33-.08.13.06,1-.05,2.91-.09-2.15,2.33-11.59,8.55a38.49,38.49,0,0,0-4.38,3.77l-.17.17c-.21.2-.41.4-.6.62a37.3,37.3,0,0,0-3,3.51,39.42,39.42,0,0,0-7.77,23.42Zm-50.36-2.46h47.89V144.63a41.93,41.93,0,0,1,8.27-24.9,40.57,40.57,0,0,1,3.12-3.69c.19-.22.44-.46.68-.71l.17-.16a42.68,42.68,0,0,1,4.66-4l8.24-6.07h0l-1.72.16-.12,0h-.11c-.6.06-1.18.13-1.78.21l-.12,0q-.92.12-1.83.27l-1.71.29-.17,0a78.06,78.06,0,0,0-10.09,2.58l-1.17.39a79.68,79.68,0,0,0-16.08,7.63l-1.11.7c-.56.36-1.1.71-1.63,1.07s-1.07.73-1.59,1.1l-.18.14-1.13.82c-.49.36-1,.72-1.44,1.09-.21.16-.39.3-.57.46-.47.36-.86.68-1.25,1s-1,.82-1.47,1.24-1,.84-1.45,1.27-.94.87-1.4,1.31-.93.89-1.37,1.35-.68.68-1,1l-.37.38c-.44.45-.87.92-1.29,1.39s-.86,1-1.27,1.44-.86,1-1.25,1.47c-1.27,1.51-2.45,3.05-3.52,4.59-.8,1.1-1.52,2.17-2.16,3.18s-1.33,2.11-2,3.31c-.33.57-.64,1.12-.94,1.68s-.63,1.15-.91,1.72-.6,1.15-.86,1.73-.55,1.12-.79,1.68c-.6,1.31-1.15,2.6-1.65,3.86-.21.54-.42,1.08-.61,1.63s-.45,1.24-.66,1.85-.41,1.25-.6,1.88-.33,1-.48,1.56q-.33,1.13-.6,2.22c-.36,1.35-.66,2.64-.9,3.86-.15.67-.27,1.31-.38,2s-.19,1-.26,1.56c-.35,2.12-.61,4.32-.78,6.56-.09,1.22-.15,2.46-.18,3.7h0c0,.77,0,1.53,0,2.3Z"/><path class="cls-3" d="M476.94,300.7H424.12V144.63a39.29,39.29,0,0,0-15.89-31.49l-11.74-8.67-2.11-2.11h3a1.63,1.63,0,0,1,.28,0c.4,0,.75,0,1.1,0s.58,0,.88,0l.4,0c.46,0,.91.06,1.37.1l.38,0,1.69.16a1.71,1.71,0,0,1,.3,0c.58,0,1.14.12,1.72.2h.09c.67.09,1.33.19,2,.31s1.18.19,1.77.3l.13,0a81.26,81.26,0,0,1,10.43,2.66l1.16.39a81,81,0,0,1,14.39,6.54c.95.55,1.9,1.13,2.83,1.72s1.8,1.15,2.56,1.68l.11.07,1.19.83c.47.33.92.66,1.37,1s1,.73,1.48,1.12a82.62,82.62,0,0,1,10.79,10.06c.34.36.67.74,1,1.13s.77.89,1.15,1.34l.37.46c.36.42.71.85,1,1.29s.8,1,1.2,1.56.87,1.16,1.28,1.75.69,1,1,1.47.74,1.09,1.1,1.67c.66,1,1.34,2.12,2.07,3.38.33.58.66,1.16,1,1.75.2.36.4.74.59,1.12l.29.54c.33.66.64,1.28.94,1.9s.57,1.16.82,1.76c.59,1.28,1.16,2.61,1.68,3.93l.18.46c.16.42.32.83.46,1.26.23.6.46,1.24.67,1.88s.43,1.27.63,1.93.34,1.08.49,1.64c.22.75.44,1.51.62,2.28q.24.9.45,1.83c.18.7.34,1.42.48,2.15s.27,1.33.39,2c.1.52.2,1.07.27,1.63.35,2.14.62,4.4.8,6.7.09,1.27.15,2.55.19,3.82,0,.79,0,1.57,0,2.37Zm-50.35-2.46h47.89V184.77c0-.77,0-1.53,0-2.3h0c0-1.24-.09-2.48-.18-3.71-.17-2.22-.43-4.42-.77-6.51-.08-.55-.17-1.07-.27-1.58s-.23-1.3-.37-1.93-.3-1.42-.46-2.1-.29-1.19-.44-1.78c-.19-.75-.39-1.49-.61-2.22-.15-.54-.3-1.06-.47-1.57s-.39-1.25-.61-1.87-.42-1.24-.65-1.84c-.15-.43-.3-.82-.45-1.21l-.18-.47c-.49-1.26-1-2.54-1.63-3.81-.25-.59-.51-1.13-.78-1.68s-.61-1.23-.91-1.84l-.29-.54c-.19-.36-.38-.72-.58-1.08-.31-.58-.62-1.14-.94-1.69-.71-1.23-1.37-2.3-2-3.3-.34-.55-.69-1.08-1.06-1.6s-.65-1-1-1.43-.83-1.15-1.25-1.72-.76-1-1.16-1.5-.65-.84-1-1.22l-.37-.47c-.36-.43-.74-.88-1.11-1.3s-.63-.73-1-1.09a80.71,80.71,0,0,0-10.5-9.78q-.72-.57-1.44-1.08c-.44-.35-.87-.66-1.31-1l-1.17-.81-.11-.08c-.82-.57-1.64-1.1-2.47-1.62s-1.83-1.13-2.75-1.66a78.46,78.46,0,0,0-13.92-6.34l-1.15-.38A77.74,77.74,0,0,0,409,106.1l-.12,0-1.73-.29c-.63-.11-1.24-.2-1.85-.28l-.12,0c-.6-.08-1.19-.15-1.79-.21l-.25-.06-1.65-.14h-.06l8.25,6.07a41.78,41.78,0,0,1,16.9,33.48ZM397.17,104.79h0Z"/><polygon class="cls-3" points="365.11 151.35 362.64 151.35 362.64 103.58 365.11 103.53 365.11 151.35"/><path class="cls-3" d="M322,151.35h-2.47v-11A46,46,0,0,1,329.35,112l7.25-9.16,1.93,1.53-7.25,9.16A43.52,43.52,0,0,0,322,140.35Z"/><path class="cls-3" d="M409.42,151.35H407v-11a43.48,43.48,0,0,0-9.32-26.84l-7.24-9.16,1.93-1.53,7.25,9.16a46,46,0,0,1,9.85,28.37Z"/><path class="cls-3" d="M306.59,376.18a1.33,1.33,0,0,1-.34-.05,1.24,1.24,0,0,1-.84-1.53l2.58-8.84a1.27,1.27,0,0,1,.11-.38,1.22,1.22,0,0,1,1.64-.55,1.24,1.24,0,0,1,.66,1.45l-2.62,9A1.24,1.24,0,0,1,306.59,376.18Z"/><path class="cls-3" d="M292.61,390.19a14.26,14.26,0,0,1-4.52-.74A14.42,14.42,0,0,1,279,371.24l1.12-3.41a1.23,1.23,0,0,1,2.34.77L281.32,372A11.93,11.93,0,1,0,304,379.56l1.12-3.83a1.23,1.23,0,0,1,2.36.69l-1.13,3.87A14.44,14.44,0,0,1,292.61,390.19Z"/><path class="cls-3" d="M306.26,377.31a1.24,1.24,0,0,1-.37-.06l-29.06-9.14a1.21,1.21,0,0,1-.8-.79,1.25,1.25,0,0,1,.19-1.12s2.54-3.42,6.59-9.49c7.56-11.45,14.84-23.68,21.64-36.35,15.42-28.77,36.09-26.15,37-26a1.23,1.23,0,0,1,.49,2.26,45.11,45.11,0,0,0-18.85,25.75l-15.27,53a1.3,1.3,0,0,0-.34,1.16A1.24,1.24,0,0,1,306.26,377.31Zm-27.06-11,26.23,8.25,15.26-52.87a47.72,47.72,0,0,1,16.68-24.88c-6.39.58-19.84,4.39-30.75,24.74-6.83,12.74-14.15,25-21.76,36.55C282.28,361.94,280.31,364.73,279.2,366.28Z"/><path class="cls-3" d="M412,213.62a1.23,1.23,0,0,1,0-2.46,4.88,4.88,0,0,0,2.54-.93,6.51,6.51,0,0,0,2.41-4.76,1.23,1.23,0,1,1,2.44.29,8.81,8.81,0,0,1-3.41,6.46A7.2,7.2,0,0,1,412,213.62Z"/><path class="cls-3" d="M316.61,213.62a7.28,7.28,0,0,1-4-1.4,8.94,8.94,0,0,1-3.39-6.45,1.23,1.23,0,0,1,1.07-1.38,1.22,1.22,0,0,1,1.37,1.08,6.61,6.61,0,0,0,2.4,4.76,5,5,0,0,0,2.55.93,1.23,1.23,0,0,1,0,2.46Z"/><path class="cls-3" d="M317.84,249.37a35.39,35.39,0,1,1,0-70.78,35.39,35.39,0,1,1,0,70.78Zm0-68.32A32.93,32.93,0,1,0,350.77,214,32.72,32.72,0,0,0,317.84,181.05Z"/><path class="cls-3" d="M409.42,249.37a35.39,35.39,0,1,1,16.51-66.69h0a35.39,35.39,0,0,1-16.51,66.69Zm0-68.32a32.93,32.93,0,0,0,0,65.86,32.56,32.56,0,0,0,15.36-3.8,32.94,32.94,0,0,0,0-58.26h0A32.56,32.56,0,0,0,409.42,181.05Z"/><rect class="cls-3" x="352" y="212.75" width="23.26" height="2.46"/><path class="cls-3" d="M399.63,324.29a1.23,1.23,0,0,1-1.23-1.23v-9.83a1.24,1.24,0,0,1,2.47,0v9.83A1.23,1.23,0,0,1,399.63,324.29Z"/><path class="cls-3" d="M393.55,304.73h-44a1.23,1.23,0,1,1,0-2.46h44a1.23,1.23,0,0,1,0,2.46Z"/><path class="cls-3" d="M399.63,381.93H349.57a1.23,1.23,0,0,1,0-2.46H398.4V362.7a1.24,1.24,0,0,1,2.47,0v18A1.23,1.23,0,0,1,399.63,381.93Z"/><path class="cls-3" d="M369,364a14.39,14.39,0,0,1-3.58-28.34l5.81-1.51a1.23,1.23,0,0,1,.62,2.38L366,338A11.93,11.93,0,1,0,372,361.15l5.79-1.62a1.23,1.23,0,0,1,.66,2.37l-5.81,1.63A14.45,14.45,0,0,1,369,364Z"/><path class="cls-3" d="M380.84,372.64a1.25,1.25,0,0,1-1.2-.92l-11.39-44.2a1.2,1.2,0,0,1,.17-1,1.23,1.23,0,0,1,.86-.54l34-4.67-4.66-7.44a1.23,1.23,0,0,1-.19-.65v-8.5h-4.85a1.24,1.24,0,0,1-1.05-.58l-4.16-6.65h0l-.39-.63a1.21,1.21,0,0,1-.1-1.11,1.23,1.23,0,0,1,.84-.74A25.11,25.11,0,0,1,416,305.69l15.5,23.89c2.62,4.05,3.42,8.28,2.3,12.22-1.33,4.74-5.29,8.79-11.44,11.73l-41,19A1.3,1.3,0,0,1,380.84,372.64ZM371,328.24l10.68,41.43,39.68-18.37c5.48-2.62,9-6.14,10.12-10.17.92-3.24.23-6.77-2-10.21L414,307a22.61,22.61,0,0,0-23-10l3.27,5.22h5.4a1.23,1.23,0,0,1,1.24,1.23v9.38l5.48,8.75a1.26,1.26,0,0,1,.07,1.18,1.24,1.24,0,0,1-.95.69Z"/><path class="cls-3" d="M349.57,381.93H338.19A1.23,1.23,0,0,1,337,380.7V303.5a1.23,1.23,0,0,1,1.23-1.23h11.38a1.24,1.24,0,0,1,1.24,1.23v77.2A1.24,1.24,0,0,1,349.57,381.93Zm-10.15-2.46h8.92V304.73h-8.92Z"/></svg>