<svg id="Layer_1" data-name="Layer 1" xmlns="http://www.w3.org/2000/svg" viewBox="0 0 449.33 71.33"><defs><style>.cls-1{fill:#e2426c;}</style></defs><path class="cls-1" d="M39.46,18.21a28.4,28.4,0,0,1,.83-3.42,5.71,5.71,0,0,1,1.24-2.06Q43,10.84,46.4,10.84A5.24,5.24,0,0,1,51.08,13,29.34,29.34,0,0,1,54,19.43l5.49,17h.12l5.9-18.57a18.58,18.58,0,0,1,2.84-5.16,5.44,5.44,0,0,1,4.41-1.84,6.29,6.29,0,0,1,4.44,1.66,7.18,7.18,0,0,1,2.25,4.3L84.7,46.63c0,.25.1.81.2,1.68a17.77,17.77,0,0,1,.17,1.92,4.46,4.46,0,0,1-1.44,3.4A5.09,5.09,0,0,1,80,55a4.49,4.49,0,0,1-3.48-1.42A6.42,6.42,0,0,1,75,49.87l-3.23-20.7h-.12L65,50.72a7,7,0,0,1-1.7,3.06A5,5,0,0,1,59.8,55a5.58,5.58,0,0,1-3.67-1,6.39,6.39,0,0,1-1.88-3.24L47.44,29.17h-.13L44.52,48.4q-1,6.6-5.61,6.6a4.67,4.67,0,0,1-3.35-1.27,5,5,0,0,1-1.51-3.25,4.8,4.8,0,0,1,.1-.89c.1-.53.13-1.09.21-1.67s.15-1.12.23-1.63Z"/><path class="cls-1" d="M91,29.05a15.8,15.8,0,0,1,5-5.56,13.14,13.14,0,0,1,6.82-2.31,12.08,12.08,0,0,1,5.17,1,10.52,10.52,0,0,1,3.54,2.74,4.56,4.56,0,0,1,1.77-2.22,4.74,4.74,0,0,1,7.39,4.23v23.2a5.2,5.2,0,0,1-1.13,3.23A4.33,4.33,0,0,1,116.41,55a5,5,0,0,1-3.25-1,5.23,5.23,0,0,1-1.61-2,9.73,9.73,0,0,1-8.1,3.6,12.81,12.81,0,0,1-7.75-2.43,16,16,0,0,1-5.13-6.39,22.05,22.05,0,0,1-2-8.37A21.24,21.24,0,0,1,91,29.05Zm13.64,1.34A5.53,5.53,0,0,0,100,32.71a9.8,9.8,0,0,0-1.83,5.7,9,9,0,0,0,1.77,5.65,5.67,5.67,0,0,0,4.75,2.34,6.06,6.06,0,0,0,3.58-1,6.46,6.46,0,0,0,2.24-2.87,10.69,10.69,0,0,0,.75-4.07,9.25,9.25,0,0,0-1.72-5.73,5.7,5.7,0,0,0-4.88-2.34Z"/><path class="cls-1" d="M126.06,49a5,5,0,0,1,1.09-3.32,3.36,3.36,0,0,1,2.69-1.3,6.56,6.56,0,0,1,2.15.36,23.88,23.88,0,0,1,2.43,1.07,24,24,0,0,0,2.44,1.07,6.66,6.66,0,0,0,2.17.35c1.83-.11,2.75-.73,2.75-1.89a1.79,1.79,0,0,0-.69-1.5,15.41,15.41,0,0,0-3.23-1.53c-1.7-.66-2.87-1.13-3.52-1.41a25.11,25.11,0,0,1-4.26-2.17,7.08,7.08,0,0,1-2.4-2.64,8.82,8.82,0,0,1-.83-4.08,10,10,0,0,1,1.52-5.27,11.17,11.17,0,0,1,4.35-4,13.25,13.25,0,0,1,6.44-1.54,17.07,17.07,0,0,1,4.7.73,11.71,11.71,0,0,1,4.38,2.25A4.77,4.77,0,0,1,150.06,28a4,4,0,0,1-1.1,2.93,3.73,3.73,0,0,1-2.8,1.14,4.87,4.87,0,0,1-1.72-.45c-.74-.29-1.41-.58-2-.86a18.67,18.67,0,0,0-1.93-.73,6,6,0,0,0-1.93-.32,3,3,0,0,0-1.79.51,1.74,1.74,0,0,0-.71,1.49q0,1.11,2.25,2.13c1.63.67,3.46,1.4,5.49,2.21a14.49,14.49,0,0,1,5.08,3.34,7.85,7.85,0,0,1,2,5.66,9.58,9.58,0,0,1-1.67,5.61,10.74,10.74,0,0,1-4.47,3.7,14.36,14.36,0,0,1-6.09,1.29,18.8,18.8,0,0,1-9.87-2.38C127,52,126.06,50.64,126.06,49Z"/><path class="cls-1" d="M159.5,30.94c-3.16,0-4.74-1.51-4.74-4.51a3.72,3.72,0,0,1,1.42-3.28,5.71,5.71,0,0,1,3.32-1h1.28V15.71a4.58,4.58,0,0,1,1.33-3.26,4.71,4.71,0,0,1,3.55-1.37,4.25,4.25,0,0,1,3.4,1.4,5,5,0,0,1,1.22,3.35v6.34h2.62q5,0,5,4.38a4.08,4.08,0,0,1-1.28,3.24,5,5,0,0,1-3.46,1.15h-2.87V49.87a5,5,0,0,1-1.4,3.76A5.17,5.17,0,0,1,165.17,55,4.56,4.56,0,0,1,162,53.4a5,5,0,0,1-1.18-3.28V30.94Z"/><path class="cls-1" d="M208.33,41.52H191.22a4.88,4.88,0,0,0,1.77,3.6q1.77,1.65,5.84,1.65a9.81,9.81,0,0,0,3.31-.49c.88-.33,2-.83,3.44-1.5a8.44,8.44,0,0,1,3-1A3.69,3.69,0,0,1,211.33,45a4.22,4.22,0,0,1,1.14,3,5,5,0,0,1-2.17,3.94,15.35,15.35,0,0,1-5.62,2.71,26.34,26.34,0,0,1-7.06,1,16.86,16.86,0,0,1-8.82-2.27A15.08,15.08,0,0,1,183,47.2a19.05,19.05,0,0,1-2-8.74A17.65,17.65,0,0,1,182.21,32a17.36,17.36,0,0,1,3.46-5.54,16,16,0,0,1,12-5.18,14.34,14.34,0,0,1,8,2.27,15.38,15.38,0,0,1,5.43,6,17.07,17.07,0,0,1,1.9,7.89c0,1.58-.36,2.67-1.09,3.25A5.59,5.59,0,0,1,208.33,41.52ZM191.22,35h12.24a5,5,0,0,0-.79-2.48,7,7,0,0,0-2.21-2.3,5.67,5.67,0,0,0-3.22-.94A5.58,5.58,0,0,0,193,31.23,5.82,5.82,0,0,0,191.22,35Z"/><path class="cls-1" d="M219.61,26.91a4.66,4.66,0,0,1,4.31-5h.45a5.52,5.52,0,0,1,2.89.77,4.25,4.25,0,0,1,1.85,2.22,8.69,8.69,0,0,1,6.94-3.72,4.28,4.28,0,0,1,3.24,1.62,5.34,5.34,0,0,1,1.26,3.5,3.48,3.48,0,0,1-1.42,3.08,16,16,0,0,1-4.19,1.83,15.38,15.38,0,0,0-3.75,1.55q-2.08,1.41-2.08,5v12a5,5,0,0,1-1.5,4A5.66,5.66,0,0,1,223.82,55a5.17,5.17,0,0,1-3-1.61,5,5,0,0,1-1.17-3.51Z"/><path class="cls-1" d="M246.85,16.07a4.94,4.94,0,0,1,1.48-4A5.39,5.39,0,0,1,252,10.84q4.74.21,4.74,5.48V45.49h10.84A4.63,4.63,0,0,1,271,46.8a4.93,4.93,0,0,1,1.25,3.55,4.29,4.29,0,0,1-1.5,3.15,4.74,4.74,0,0,1-3.12,1.12H251.84a4.67,4.67,0,0,1-3.66-1.47A4.6,4.6,0,0,1,246.85,50Z"/><path class="cls-1" d="M282.94,19.06a5.4,5.4,0,0,1-4-1.69,5.57,5.57,0,0,1-1.65-4,5.64,5.64,0,0,1,9.64-4,5.41,5.41,0,0,1,1.7,4,5.49,5.49,0,0,1-1.7,4A5.5,5.5,0,0,1,282.94,19.06Zm-4.76,31.05V26.79a5.07,5.07,0,0,1,1.33-3.55,4.71,4.71,0,0,1,6.66-.15l.15.15a5,5,0,0,1,1.36,3.54V50.11a4.78,4.78,0,0,1-1.35,3.47,4.74,4.74,0,0,1-8.15-3.47Z"/><path class="cls-1" d="M305.13,24.9a8.8,8.8,0,0,1,3.26-2.7,13.23,13.23,0,0,1,5.83-1A12.45,12.45,0,0,1,322,24.11c2.11,1.82,3.17,4.58,3.16,8.28V50.11a4.85,4.85,0,0,1-1.32,3.47A4.42,4.42,0,0,1,320.49,55a4.48,4.48,0,0,1-3.43-1.4,4.84,4.84,0,0,1-1.33-3.48V35a6.64,6.64,0,0,0-.65-2.94A4.87,4.87,0,0,0,313.22,30a5.09,5.09,0,0,0-2.72-.72A4.88,4.88,0,0,0,306.56,31a6,6,0,0,0-1.43,4V50.1A4.72,4.72,0,0,1,297,53.58a4.73,4.73,0,0,1-1.36-3.47V26.79A5,5,0,0,1,297,23.27a4.47,4.47,0,0,1,3.36-1.48,5,5,0,0,1,3.05.94A4.83,4.83,0,0,1,305.13,24.9Z"/><path class="cls-1" d="M332.41,29.05a15.92,15.92,0,0,1,5-5.6,13,13,0,0,1,6.9-2.27,12.08,12.08,0,0,1,5.17,1A10.62,10.62,0,0,1,353,24.9a4.48,4.48,0,0,1,1.76-2.22,4.74,4.74,0,0,1,7.39,4.23V51a28.08,28.08,0,0,1-.78,6.83,12,12,0,0,1-3.36,5.6q-4.71,4.62-13,4.62a27.14,27.14,0,0,1-9.24-1.47,7.45,7.45,0,0,1-5.07-5.47,4.53,4.53,0,0,1,4-4.25,5.37,5.37,0,0,1,1.25.27c.51.18,1,.39,1.51.62l1.86.86a12.64,12.64,0,0,0,5.49,1.1,7.43,7.43,0,0,0,7.84-7,6,6,0,0,0,0-.85v-.61h-.12Q349.88,55,344,55a13.13,13.13,0,0,1-7.12-1.93A13.41,13.41,0,0,1,332,47.51a24.06,24.06,0,0,1-2-9A20.93,20.93,0,0,1,332.41,29.05Zm13.64,1.34a5.53,5.53,0,0,0-4.69,2.32,10,10,0,0,0-1.83,5.7,10.7,10.7,0,0,0,.73,4,6.69,6.69,0,0,0,2.22,3,5.72,5.72,0,0,0,3.57,1.11,6.1,6.1,0,0,0,3.68-1.06,6.35,6.35,0,0,0,2.18-2.9,11.45,11.45,0,0,0,.71-4.14,9.25,9.25,0,0,0-1.72-5.73,5.69,5.69,0,0,0-4.85-2.3Z"/><path class="cls-1" d="M398.56,26.79V43a11.51,11.51,0,0,1-7.31,11.22,19.55,19.55,0,0,1-7.48,1.39,16.86,16.86,0,0,1-10.53-3.24Q369,49.15,369,43V26.79a5,5,0,0,1,1.37-3.54A4.72,4.72,0,0,1,377,23.1l.15.15a5.14,5.14,0,0,1,1.31,3.55V41.52a4.85,4.85,0,0,0,1.58,3.92,5.55,5.55,0,0,0,3.67,1.33,5.69,5.69,0,0,0,3.74-1.34,4.8,4.8,0,0,0,1.61-3.91V26.79a5.13,5.13,0,0,1,1.3-3.54,4.25,4.25,0,0,1,3.32-1.46,4.55,4.55,0,0,1,3.47,1.45A5,5,0,0,1,398.56,26.79Z"/><path class="cls-1" d="M406.79,29.05a15.88,15.88,0,0,1,5.06-5.56,13.14,13.14,0,0,1,6.82-2.31,12.08,12.08,0,0,1,5.17,1,10.52,10.52,0,0,1,3.54,2.74,4.56,4.56,0,0,1,1.77-2.22,4.74,4.74,0,0,1,7.39,4.23v23.2a5.2,5.2,0,0,1-1.13,3.23A4.3,4.3,0,0,1,432.24,55,5,5,0,0,1,429,54a5.23,5.23,0,0,1-1.61-2,9.73,9.73,0,0,1-8.1,3.6,12.75,12.75,0,0,1-7.75-2.43,15.85,15.85,0,0,1-5.13-6.39,22.05,22.05,0,0,1-2-8.37A21.36,21.36,0,0,1,406.79,29.05Zm13.65,1.34a5.53,5.53,0,0,0-4.69,2.32,9.9,9.9,0,0,0-1.84,5.7,9,9,0,0,0,1.78,5.65,5.67,5.67,0,0,0,4.75,2.34,6.06,6.06,0,0,0,3.58-1,6.46,6.46,0,0,0,2.24-2.87,10.69,10.69,0,0,0,.75-4.07,9.25,9.25,0,0,0-1.72-5.73A5.71,5.71,0,0,0,420.44,30.39Z"/></svg>