<svg id="Layer_1" data-name="Layer 1" xmlns="http://www.w3.org/2000/svg" viewBox="0 0 556 716"><defs><style>.cls-1{fill:#a1d8ed;}.cls-2{fill:#eaf6fe;}.cls-3{fill:#ee746f;}.cls-4{fill:#f6b9b3;}.cls-5{fill:#e05b5a;}.cls-6{fill:#7b444a;}</style></defs><path class="cls-1" d="M537.06,126.35a5.2,5.2,0,1,1,0,10.4H494s-51.29,27.19-102.82-25.52v-7.49h53.66l37.38-74.09,3.12-6.18S500,26.77,502.87,41.9a21,21,0,0,1,15.6,20.37s14.91,23.86-10.42,41.47h29a5.2,5.2,0,0,1,5.2,5.2v.87a5.2,5.2,0,0,1-5.2,5.2,5.2,5.2,0,0,1,5.2,5.2v.94A5.19,5.19,0,0,1,537.06,126.35ZM411.51,113.63a2.5,2.5,0,1,0-2.5,2.5A2.5,2.5,0,0,0,411.51,113.63Z"/><path class="cls-2" d="M525.41,236a18.44,18.44,0,0,1,0,36.87h-138a18.44,18.44,0,1,1,4.63-36.29,30.69,30.69,0,0,1,49.27-22.22,38.71,38.71,0,0,1,71.37,26.71A18.38,18.38,0,0,1,525.41,236Z"/><path class="cls-3" d="M503.9,463.23H290.08a106.91,106.91,0,0,1,213.82,0Z"/><path class="cls-1" d="M482.26,29.65l-37.38,74.09H430.1l41.28-80.21A25.87,25.87,0,0,1,482.26,29.65Z"/><path class="cls-4" d="M294.39,556.73a9.67,9.67,0,0,1,9.2-12.62h22.19a11.13,11.13,0,0,0,8.74-4.2,30.53,30.53,0,0,1,47.68,0,11.13,11.13,0,0,0,8.74,4.2h22.19a9.67,9.67,0,0,1,0,19.33H390.94A30.36,30.36,0,0,1,367.1,552a11.19,11.19,0,0,0-17.48,0,30.36,30.36,0,0,1-23.84,11.46H303.59A9.66,9.66,0,0,1,294.39,556.73ZM311.13,551a2.23,2.23,0,1,0-2.23,2.22A2.23,2.23,0,0,0,311.13,551Z"/><path class="cls-2" d="M367.09,154a20.82,20.82,0,1,1,0,41.64H304a20.82,20.82,0,1,1,7.31-40.29,27.69,27.69,0,0,1,49.2-.27A20.71,20.71,0,0,1,367.09,154Z"/><path class="cls-2" d="M230.33,539.79l25.14-13a5.3,5.3,0,0,1,5.92.71,5.15,5.15,0,0,1,1.28,1.64A5.32,5.32,0,0,1,262,535l-35.79,42.7H156.81l32.79-16.9A20.55,20.55,0,0,0,193,559Z"/><path class="cls-4" d="M193,559l-3.43,1.76a21.5,21.5,0,0,1-8.31,1.59,27.08,27.08,0,0,1-26.87-27.29,33.85,33.85,0,0,1,34.12-33.59,42.31,42.31,0,0,1,41.79,38.31Z"/><path class="cls-5" d="M218.86,400.16a45,45,0,0,1,0,63.07Z"/><path class="cls-3" d="M218.86,400.16v63.07a45,45,0,0,1,0-63.07Z"/><path class="cls-4" d="M218.86,176.35c0,21.34-9.38,40.09-23.55,50.85a37.31,37.31,0,0,0-14.95,30.69q0,1,0,2.13c0,31.82-20.86,57.9-47.34,60.28h-7.91C98.66,317.93,77.79,291.84,77.79,260v-.25a38.55,38.55,0,0,0-16.31-31.63c-14.88-10.58-24.84-29.81-24.84-51.79s9.92-41.15,24.76-51.74A39.34,39.34,0,0,0,78,89.58q-.24-2.89-.24-5.85c0-33.4,23-60.47,51.3-60.47s51.3,27.07,51.3,60.47a70.91,70.91,0,0,1-.41,7.62,37,37,0,0,0,14.73,33.7C209.21,135.73,218.86,154.71,218.86,176.35ZM145.25,251a30.9,30.9,0,0,0-14.12-26.68A30.9,30.9,0,0,0,145.25,251Zm-3.76-147.74A30.89,30.89,0,0,0,145.07,88,30.84,30.84,0,0,0,131,114.71,30.9,30.9,0,0,0,141.49,103.21Zm-8.61-22a30.78,30.78,0,0,0-3.94-15.09,30.89,30.89,0,0,0,0,30.19A30.82,30.82,0,0,0,132.88,81.18Zm-.19,176.61a30.68,30.68,0,0,0-3.94-15.09,30.89,30.89,0,0,0,0,30.19A30.74,30.74,0,0,0,132.69,257.79Zm-9.52-18.34a30.71,30.71,0,0,0,3.57-15.18A30.9,30.9,0,0,0,112.62,251,30.69,30.69,0,0,0,123.17,239.45Zm3.39-124.74A30.9,30.9,0,0,0,112.44,88a30.9,30.9,0,0,0,14.12,26.69Z"/><path class="cls-5" d="M179,370.49a45,45,0,0,1,0,63.08Z"/><path class="cls-1" d="M299.6,504.59a2.23,2.23,0,1,0,2.22-2.23A2.21,2.21,0,0,0,299.6,504.59Zm-44.13-3.11a2.23,2.23,0,1,0-2.22-2.23A2.23,2.23,0,0,0,255.47,501.48ZM503.9,463.23h40.93c-40.93,70.57-119.64,167-267.22,167s-225.9-96.48-267.23-167H503.9ZM189.6,560.77l-32.79,16.9H226.2L262,535a5.32,5.32,0,0,0,.68-5.79,5.15,5.15,0,0,0-1.28-1.64,5.3,5.3,0,0,0-5.92-.71l-25.14,13a42.31,42.31,0,0,0-41.79-38.31,33.85,33.85,0,0,0-34.12,33.59,27.08,27.08,0,0,0,26.87,27.29A21.5,21.5,0,0,0,189.6,560.77Zm233.19-7a9.66,9.66,0,0,0-9.66-9.67H390.94a11.13,11.13,0,0,1-8.74-4.2,30.53,30.53,0,0,0-47.68,0,11.13,11.13,0,0,1-8.74,4.2H303.59a9.67,9.67,0,0,0,0,19.33h22.19A30.36,30.36,0,0,0,349.62,552a11.19,11.19,0,0,1,17.48,0,30.36,30.36,0,0,0,23.84,11.46h22.19A9.66,9.66,0,0,0,422.79,553.78Z"/><path class="cls-3" d="M179,370.49v63.08a45,45,0,0,1,0-63.08Z"/><path class="cls-1" d="M141.67,235.77A30.72,30.72,0,0,1,145.25,251a30.9,30.9,0,0,1-14.12-26.68A30.67,30.67,0,0,1,141.67,235.77Z"/><path class="cls-1" d="M145.07,88A30.9,30.9,0,0,1,131,114.71,30.84,30.84,0,0,1,145.07,88Z"/><path class="cls-2" d="M133.05,320.3V463.23H122.46V320.3h2.68c1.31.12,2.62.18,4,.18s2.64-.06,3.95-.18Z"/><path class="cls-1" d="M128.94,66.09a30.89,30.89,0,0,1,0,30.19,30.89,30.89,0,0,1,0-30.19Z"/><path class="cls-1" d="M128.75,242.7a30.89,30.89,0,0,1,0,30.19,30.89,30.89,0,0,1,0-30.19Z"/><path class="cls-1" d="M126.74,224.27A30.84,30.84,0,0,1,112.62,251a30.9,30.9,0,0,1,14.12-26.68Z"/><path class="cls-1" d="M123,99.52a30.68,30.68,0,0,1,3.58,15.19A30.9,30.9,0,0,1,112.44,88,30.82,30.82,0,0,1,123,99.52Z"/><path class="cls-3" d="M114.31,418.63l-44.6,44.6a45,45,0,0,1,44.6-44.6Z"/><path class="cls-5" d="M69.71,463.23l44.6-44.6a45,45,0,0,1-44.6,44.6Z"/><path class="cls-1" d="M69.71,418.27c-1.89,0-3.77-1-5.38-3.09a17.77,17.77,0,0,0-16.85-6.95c-5.63.95-8.94-2.26-8.13-7.82a17.37,17.37,0,0,0-6.13-16.33c-4.06-3.21-4.06-7.48,0-10.68a17.39,17.39,0,0,0,6.13-16.34c-.81-5.55,2.5-8.76,8.13-7.81a17.76,17.76,0,0,0,16.85-7c3.34-4.26,7.85-4.11,11.1.45a16.28,16.28,0,0,0,15.41,6.43c5.27-.65,8.33,2.49,7.59,7.81a16.86,16.86,0,0,0,7.25,16c4.76,3.37,4.76,8.1,0,11.48a16.83,16.83,0,0,0-7.25,16c.74,5.32-2.32,8.46-7.59,7.82a16.26,16.26,0,0,0-15.41,6.42C73.75,417.1,71.73,418.28,69.71,418.27ZM92,378.74A22.3,22.3,0,1,0,69.71,401,22.29,22.29,0,0,0,92,378.74Z"/><path class="cls-3" d="M69.71,356.44a22.3,22.3,0,1,1-22.3,22.3A22.29,22.29,0,0,1,69.71,356.44Zm14.56,22.3A14.56,14.56,0,1,0,69.71,393.3,14.56,14.56,0,0,0,84.27,378.74Z"/><path class="cls-5" d="M56.53,431.81a44.85,44.85,0,0,1,13.18,31.42l-44.6-44.6A44.9,44.9,0,0,1,56.53,431.81Z"/><path class="cls-3" d="M69.71,463.23a45,45,0,0,1-44.6-44.6Z"/><path class="cls-6" d="M504.91,464h-2v-.68C502.53,405.22,455,358,397,358s-105.53,47.19-105.91,105.2c0,.26,0,.49,0,.72h-2c0-.26,0-.51,0-.76a107.91,107.91,0,0,1,215.82,0C504.91,463.44,504.91,463.69,504.91,464Z"/><rect class="cls-6" x="396.26" y="305.13" width="2" height="31.71"/><rect class="cls-6" x="482.57" y="361.89" width="31.71" height="2" transform="translate(-110.61 458.73) rotate(-45)"/><rect class="cls-6" x="294.83" y="346.93" width="2" height="31.71" transform="translate(-169.88 315.45) rotate(-45)"/><rect class="cls-6" x="434.79" y="330.32" width="31.7" height="2" transform="translate(-25.52 624.78) rotate(-67.97)"/><rect class="cls-6" x="512.86" y="407.1" width="31.71" height="2" transform="translate(-117.38 238.86) rotate(-22.99)"/><rect class="cls-6" x="264.29" y="392.24" width="2" height="31.71" transform="translate(-214 492.98) rotate(-67.02)"/><rect class="cls-6" x="339.93" y="316.19" width="2" height="31.71" transform="translate(-102.58 159.47) rotate(-22.98)"/><polygon class="cls-6" points="70.71 463.23 68.71 463.23 68.71 418.27 70.71 418.2 70.71 463.23"/><path class="cls-6" d="M69.71,464.23h0a46,46,0,0,1-45.59-45.59,1,1,0,0,1,.3-.72,1,1,0,0,1,.71-.29,46,46,0,0,1,45.59,45.59,1,1,0,0,1-.29.71A1,1,0,0,1,69.71,464.23ZM26.14,419.65a44,44,0,0,0,42.55,42.56,44,44,0,0,0-42.55-42.56Z"/><path class="cls-6" d="M69.71,464.23a1,1,0,0,1-.7-.3,1,1,0,0,1-.3-.71,46,46,0,0,1,45.59-45.59,1,1,0,0,1,.72.29,1,1,0,0,1,.29.72,46,46,0,0,1-45.59,45.59Zm43.58-44.58a44,44,0,0,0-42.55,42.56,44,44,0,0,0,42.55-42.56Z"/><path class="cls-6" d="M69.74,419.27h0c-2.25,0-4.39-1.2-6.16-3.48a16.84,16.84,0,0,0-15.9-6.58c-3.06.52-5.68-.11-7.37-1.76s-2.35-4.19-1.92-7.19a16.45,16.45,0,0,0-5.76-15.4c-2.24-1.77-3.42-3.89-3.42-6.13s1.19-4.35,3.42-6.12a16.26,16.26,0,0,0,5.76-15.41c-.43-3,.25-5.54,1.92-7.17s4.31-2.29,7.37-1.77a16.79,16.79,0,0,0,15.9-6.59c1.82-2.32,4-3.51,6.31-3.47s4.61,1.46,6.39,4a15.28,15.28,0,0,0,14.47,6c2.89-.35,5.27.32,6.86,1.94s2.25,4.06,1.84,7h0a15.87,15.87,0,0,0,6.84,15.06c2.57,1.82,4,4.15,4,6.55s-1.41,4.73-4,6.56a15.86,15.86,0,0,0-6.84,15.06c.41,2.94-.22,5.36-1.83,7s-4,2.3-6.87,1.95a15.28,15.28,0,0,0-14.47,6C74.44,417.86,72.13,419.27,69.74,419.27ZM50.19,407a19.12,19.12,0,0,1,14.93,7.56c1.39,1.77,3,2.71,4.59,2.71h0c1.73,0,3.46-1.11,4.89-3.12A17.27,17.27,0,0,1,91,407.31c2.25.27,4-.19,5.19-1.36s1.6-3,1.28-5.33a17.83,17.83,0,0,1,7.67-17c2-1.44,3.15-3.19,3.14-4.93s-1.11-3.48-3.14-4.92a17.86,17.86,0,0,1-7.67-17h0c.32-2.31-.12-4.15-1.28-5.33s-2.94-1.63-5.19-1.35a17.32,17.32,0,0,1-16.35-6.84c-1.43-2-3.09-3.08-4.81-3.12s-3.27.9-4.69,2.7a18.77,18.77,0,0,1-17.8,7.33c-2.45-.41-4.4,0-5.64,1.23s-1.68,3.07-1.34,5.45a18.27,18.27,0,0,1-6.5,17.27,5.23,5.23,0,0,0,0,9.11,18.46,18.46,0,0,1,6.5,17.26c-.34,2.38.12,4.28,1.34,5.47s3.19,1.64,5.64,1.22A17.28,17.28,0,0,1,50.19,407Z"/><path class="cls-6" d="M69.71,402A23.3,23.3,0,1,1,93,378.74,23.34,23.34,0,0,1,69.71,402Zm0-44.6A21.3,21.3,0,1,0,91,378.74,21.32,21.32,0,0,0,69.71,357.44Z"/><path class="cls-6" d="M69.71,394.3a15.56,15.56,0,1,1,15.56-15.56A15.58,15.58,0,0,1,69.71,394.3Zm0-29.12a13.56,13.56,0,1,0,13.56,13.56A13.58,13.58,0,0,0,69.71,365.18Z"/><path class="cls-6" d="M69.71,464.23a1,1,0,0,1-.7-.3l-44.6-44.6,1.41-1.41,43.89,43.89,43.9-43.89,1.41,1.41-44.6,44.6A1,1,0,0,1,69.71,464.23Z"/><rect class="cls-6" x="177.88" y="433.57" width="2" height="29.66"/><path class="cls-6" d="M129.09,321.48c-1.36,0-2.68-.06-4-.19C98,318.87,76.79,292,76.79,260v-.25A37.72,37.72,0,0,0,60.91,229C45.09,217.71,35.64,198,35.64,176.35S45.06,135,60.82,123.79A38.46,38.46,0,0,0,77,89.66c-.16-2-.25-3.94-.25-5.93,0-33.9,23.47-61.47,52.3-61.47s52.3,27.57,52.3,61.47a73.65,73.65,0,0,1-.41,7.72,36,36,0,0,0,14.33,32.79c15.37,11.33,24.55,30.81,24.55,52.11,0,21-9,40.26-23.94,51.64a36.36,36.36,0,0,0-14.56,29.87q0,1.06,0,2.16c0,31.93-21.19,58.84-48.25,61.27l-.18-2c26-2.34,46.43-28.38,46.43-59.28q0-1.06,0-2.1a38.37,38.37,0,0,1,15.35-31.52c14.5-11,23.15-29.72,23.15-50.05,0-20.67-8.87-39.55-23.74-50.5A38.06,38.06,0,0,1,179,91.24a69.7,69.7,0,0,0,.4-7.51c0-32.8-22.56-59.47-50.3-59.47s-50.3,26.67-50.3,59.47c0,1.93.08,3.87.24,5.76a40.48,40.48,0,0,1-17,35.93c-15.25,10.88-24.35,29.91-24.35,50.93s9.13,40.1,24.42,51a39.68,39.68,0,0,1,16.73,32.45V260c0,30.91,20.4,57,46.44,59.28a41.48,41.48,0,0,0,7.72,0l.19,2C131.78,321.42,130.46,321.48,129.09,321.48Z"/><path class="cls-6" d="M134.05,463.23h-2V321.3h-8.59V463.23h-2V320.3a1,1,0,0,1,1-1H133a1,1,0,0,1,1,1Z"/><path class="cls-6" d="M128.94,97.28a1,1,0,0,1-.87-.51,31.87,31.87,0,0,1,0-31.17,1,1,0,0,1,.87-.51h0a1,1,0,0,1,.88.51,31.92,31.92,0,0,1,0,31.16,1,1,0,0,1-.87.52Zm0-29a29.9,29.9,0,0,0,0,25.86,29.9,29.9,0,0,0,0-25.86Z"/><path class="cls-6" d="M126.56,115.71a1.09,1.09,0,0,1-.54-.16A31.95,31.95,0,0,1,111.44,88a1,1,0,0,1,.54-.86,1,1,0,0,1,1,.05,31.88,31.88,0,0,1,14.57,27.55,1,1,0,0,1-.53.86A1,1,0,0,1,126.56,115.71Zm-13.1-25.77a29.91,29.91,0,0,0,12.09,22.85,29.87,29.87,0,0,0-12.09-22.85Z"/><path class="cls-6" d="M131,115.71a.93.93,0,0,1-.46-.12,1,1,0,0,1-.54-.86,31.85,31.85,0,0,1,14.58-27.55,1,1,0,0,1,1.54.81,31.91,31.91,0,0,1-14.57,27.56A1.1,1.1,0,0,1,131,115.71Zm13.11-25.78A29.87,29.87,0,0,0,132,112.79a29.91,29.91,0,0,0,12.09-22.86Z"/><path class="cls-6" d="M128.75,273.89h0a1,1,0,0,1-.87-.51,31.87,31.87,0,0,1,0-31.17,1,1,0,0,1,.87-.51h0a1,1,0,0,1,.88.51,31.94,31.94,0,0,1,0,31.17A1,1,0,0,1,128.75,273.89Zm0-29a29.81,29.81,0,0,0,0,25.86,30,30,0,0,0,0-25.86Z"/><path class="cls-6" d="M145.25,252a1.09,1.09,0,0,1-.54-.16,31.95,31.95,0,0,1-14.58-27.55,1,1,0,0,1,.54-.86,1,1,0,0,1,1,.05A31.87,31.87,0,0,1,146.25,251a1,1,0,0,1-.53.86A.94.94,0,0,1,145.25,252Zm-13.1-25.77A29.91,29.91,0,0,0,144.24,249a30,30,0,0,0-12.09-22.85Z"/><path class="cls-6" d="M112.62,252a.93.93,0,0,1-.46-.12,1,1,0,0,1-.54-.86,31.91,31.91,0,0,1,14.58-27.54,1,1,0,0,1,1-.05,1,1,0,0,1,.53.86,31.83,31.83,0,0,1-14.58,27.55A1,1,0,0,1,112.62,252Zm13.11-25.77A29.91,29.91,0,0,0,113.64,249a29.83,29.83,0,0,0,12.09-22.85Z"/><path class="cls-6" d="M179,434.57h0a1,1,0,0,1-.71-.3,46,46,0,0,1,0-64.48,1,1,0,0,1,1.43,0,46,46,0,0,1,0,64.48A1,1,0,0,1,179,434.57Zm0-62.64a44,44,0,0,0,0,60.19,44,44,0,0,0,0-60.19Z"/><rect class="cls-6" x="178.01" y="370.49" width="2" height="63.08"/><path class="cls-6" d="M218.86,464.23h0a1,1,0,0,1-.71-.3,46,46,0,0,1,0-64.47,1,1,0,0,1,1.43,0,46,46,0,0,1,0,64.47A1,1,0,0,1,218.86,464.23Zm0-62.63a44,44,0,0,0,0,60.18,44,44,0,0,0,0-60.18Z"/><rect class="cls-6" x="217.86" y="400.16" width="2" height="63.07"/><path class="cls-6" d="M525.41,273.89h-138a19.44,19.44,0,1,1,0-38.87,20.17,20.17,0,0,1,3.74.35,31.78,31.78,0,0,1,31.51-28.31,31.38,31.38,0,0,1,18.37,5.86,39.72,39.72,0,0,1,73.28,21.24,37.84,37.84,0,0,1-.26,4.5,19.44,19.44,0,1,1,11.33,35.23ZM387.44,237a17.44,17.44,0,1,0,0,34.87h138a17.44,17.44,0,1,0-12-30.08,1,1,0,0,1-1.67-.9,37.72,37.72,0,0,0-69.53-26,1,1,0,0,1-.67.47,1,1,0,0,1-.79-.19,29.44,29.44,0,0,0-18.05-6.11,29.77,29.77,0,0,0-29.62,27.61,1,1,0,0,1-1.24.9A17.43,17.43,0,0,0,387.44,237Z"/><path class="cls-6" d="M367.09,196.63H304A21.82,21.82,0,0,1,304,153a21.4,21.4,0,0,1,6.84,1.12,28.69,28.69,0,0,1,50.16-.24,21.45,21.45,0,0,1,6.08-.88,21.82,21.82,0,1,1,0,43.64ZM304,155a19.82,19.82,0,0,0,0,39.64h63.08a19.82,19.82,0,1,0,0-39.64,19.54,19.54,0,0,0-6.25,1,1,1,0,0,1-1.2-.49,26.7,26.7,0,0,0-47.43.26,1,1,0,0,1-1.24.48A19.71,19.71,0,0,0,304,155Z"/><path class="cls-6" d="M277.61,631.28c-65.68,0-124.24-19.27-174.06-57.27-35.8-27.3-66.56-63.37-94-110.28a1,1,0,0,1,.86-1.5H544.83a1,1,0,0,1,.87.5,1,1,0,0,1,0,1C481.22,574.91,391,631.28,277.61,631.28Zm-265.48-167c64.66,109.51,154,165,265.48,165,112.14,0,201.45-55.53,265.48-165Z"/><path class="cls-6" d="M461.09,144.76c-17.74,0-44.06-5.78-70.44-32.69l-17.31-7.41a1,1,0,0,1,.39-1.92h70.54L484.49,23a1,1,0,0,1,1.11-.53c.15,0,14.93,3.53,18.13,18.61A22.05,22.05,0,0,1,519.47,62c1.44,2.53,12.74,24-8.39,40.76h26a6.21,6.21,0,0,1,6.2,6.2v.87a6.21,6.21,0,0,1-6.2,6.2h-44v-2h44a4.21,4.21,0,0,0,4.2-4.2v-.87a4.2,4.2,0,0,0-4.2-4.2h-29a1,1,0,0,1-.95-.7,1,1,0,0,1,.38-1.12c24.23-16.85,10.73-39.18,10.15-40.12a1,1,0,0,1-.16-.51c-.44-16-14.23-19.28-14.82-19.42a1,1,0,0,1-.76-.79c-2.35-12.53-13-16.55-16-17.44l-40.13,79.55a1,1,0,0,1-.9.55H378.61l13,5.57a.87.87,0,0,1,.32.22c26.33,26.93,52.53,32.39,69.91,32.22,18.82-.18,31.6-6.82,31.73-6.89a1,1,0,0,1,.46-.11h43a4.21,4.21,0,0,0,3-7.18,4.14,4.14,0,0,0-3-1.22v-2a6.2,6.2,0,1,1,0,12.4H494.29c-1.86.93-14.19,6.81-32.32,7Z"/><path class="cls-6" d="M537.06,127.35h-44v-2h44a4.21,4.21,0,0,0,4.2-4.2v-.94a4.2,4.2,0,0,0-4.2-4.2v-2a6.21,6.21,0,0,1,6.2,6.2v.94A6.21,6.21,0,0,1,537.06,127.35Z"/><path class="cls-6" d="M430.71,104.74l-1.78-.91.28-.55L470.5,23.07a1,1,0,0,1,1.11-.52A26.75,26.75,0,0,1,483,28.92l.21.2-1.42,1.41-.19-.18a25.43,25.43,0,0,0-9.65-5.64Z"/><path class="cls-6" d="M409,117.13a3.5,3.5,0,1,1,3.5-3.5A3.5,3.5,0,0,1,409,117.13Zm0-5a1.5,1.5,0,1,0,1.5,1.5A1.5,1.5,0,0,0,409,112.13Z"/><rect class="cls-6" x="390.22" y="103.74" width="2" height="7.49"/><path class="cls-6" d="M413.13,564.44H390.94a31.39,31.39,0,0,1-24.62-11.84,10.2,10.2,0,0,0-15.92,0,31.36,31.36,0,0,1-24.62,11.84H303.59a10.67,10.67,0,0,1,0-21.33h22.19a10.14,10.14,0,0,0,8-3.83,31.53,31.53,0,0,1,49.24,0,10.15,10.15,0,0,0,8,3.83h22.19a10.67,10.67,0,0,1,0,21.33Zm-54.77-17.66a12.11,12.11,0,0,1,9.53,4.57,29.35,29.35,0,0,0,23.05,11.09h22.19a8.67,8.67,0,0,0,0-17.33H390.94a12.11,12.11,0,0,1-9.52-4.58,29.54,29.54,0,0,0-46.12,0,12.08,12.08,0,0,1-9.52,4.58H303.59a8.68,8.68,0,0,0-8.66,8.67,8.34,8.34,0,0,0,.42,2.64,8.63,8.63,0,0,0,8.24,6h22.19a29.37,29.37,0,0,0,23.06-11.09A12.13,12.13,0,0,1,358.36,546.78Z"/><rect class="cls-6" x="294.39" y="555.73" width="11.1" height="2"/><path class="cls-6" d="M308.9,554.23a3.23,3.23,0,1,1,3.23-3.22A3.23,3.23,0,0,1,308.9,554.23Zm0-4.45a1.23,1.23,0,1,0,1.23,1.23A1.23,1.23,0,0,0,308.9,549.78Z"/><path class="cls-6" d="M226.2,578.67H156.81a1,1,0,0,1-.45-1.89L255,525.94a6.33,6.33,0,0,1,8.55,2.79,6.43,6.43,0,0,1,.66,2.83,6.3,6.3,0,0,1-1.47,4.05L227,578.31A1,1,0,0,1,226.2,578.67Zm-65.26-2h64.8l35.49-42.35a4.28,4.28,0,0,0,1-2.76,4.35,4.35,0,0,0-.45-1.94h0a4.14,4.14,0,0,0-1-1.32,4.28,4.28,0,0,0-4.81-.59Z"/><path class="cls-6" d="M181.45,563.36h-.16a28.1,28.1,0,0,1-27.87-28.3,34.86,34.86,0,0,1,34.84-34.58h.29a43.17,43.17,0,0,1,42.78,39.21v.11h-2a41.14,41.14,0,0,0-40.79-37.31,32.86,32.86,0,0,0-33.12,32.59,26.1,26.1,0,0,0,25.88,26.29,21,21,0,0,0,7.93-1.52,19.79,19.79,0,0,0,3.27-1.68,20.6,20.6,0,0,0,9.62-17.31,16.3,16.3,0,0,0-16.19-16.45h-.11A12.88,12.88,0,0,0,173,537.15a10.11,10.11,0,0,0,10,10.18,7.92,7.92,0,0,0,5.59-2.26,7.84,7.84,0,0,0,2.34-5.55,6.09,6.09,0,0,0-6-6.15h0a4.71,4.71,0,0,0-4.7,4.65l-2,0a6.71,6.71,0,0,1,6.7-6.63h0a8.1,8.1,0,0,1,8,8.16,9.8,9.8,0,0,1-2.94,7,9.91,9.91,0,0,1-7,2.84,12.12,12.12,0,0,1-12-12.19,14.87,14.87,0,0,1,15-14.74,18.3,18.3,0,0,1,18.18,18.47,22.65,22.65,0,0,1-22.67,22.49Z"/><rect class="cls-6" x="259.29" y="516.5" width="43.69" height="2" transform="translate(-232.99 230.24) rotate(-32.29)"/><rect class="cls-6" x="254.47" y="501.48" width="2" height="25.35"/><path class="cls-6" d="M255.47,502.48a3.23,3.23,0,1,1,3.23-3.23A3.23,3.23,0,0,1,255.47,502.48Zm0-4.45a1.22,1.22,0,0,0-1.22,1.22,1.23,1.23,0,1,0,2.45,0A1.22,1.22,0,0,0,255.47,498Z"/><path class="cls-6" d="M301.82,507.81a3.23,3.23,0,1,1,3.23-3.22A3.23,3.23,0,0,1,301.82,507.81Zm0-4.45a1.23,1.23,0,1,0,1.23,1.23A1.23,1.23,0,0,0,301.82,503.36Z"/><rect class="cls-6" x="276.61" y="630.28" width="2" height="58.85"/><path class="cls-6" d="M277.61,707.52a9.89,9.89,0,1,1,9.88-9.89A9.91,9.91,0,0,1,277.61,707.52Zm0-17.78a7.89,7.89,0,1,0,7.88,7.89A7.9,7.9,0,0,0,277.61,689.74Z"/><path class="cls-6" d="M250.69,353a7,7,0,1,1,7-7A7,7,0,0,1,250.69,353Zm0-12a5,5,0,1,0,5,5A5,5,0,0,0,250.69,341Z"/><path class="cls-6" d="M214,294a5,5,0,1,1,5-5A5,5,0,0,1,214,294Zm0-8a3,3,0,1,0,3,3A3,3,0,0,0,214,286Z"/><path class="cls-6" d="M520.84,308.42a5,5,0,1,1,5-5A5,5,0,0,1,520.84,308.42Zm0-8a3,3,0,1,0,3,3A3,3,0,0,0,520.84,300.42Z"/><path class="cls-6" d="M271.61,255.68c-2.28,0-4-3-4-7a12.06,12.06,0,0,1,.19-2.19,12.06,12.06,0,0,1-2.19.19c-4,0-7-1.72-7-4s3-4,7-4a12.06,12.06,0,0,1,2.19.19,12.06,12.06,0,0,1-.19-2.19c0-4,1.72-7,4-7s4,3,4,7a13,13,0,0,1-.19,2.19,13,13,0,0,1,2.19-.19c4,0,7,1.72,7,4s-3,4-7,4a12.06,12.06,0,0,1-2.19-.19,12.06,12.06,0,0,1,.19,2.19C275.61,252.67,273.89,255.68,271.61,255.68Zm-2.39-11.61a1,1,0,0,1,.93,1.36,9.42,9.42,0,0,0-.54,3.25c0,3,1.18,5,2,5s2-2,2-5a9.42,9.42,0,0,0-.54-3.25,1,1,0,0,1,1.29-1.29,9.42,9.42,0,0,0,3.25.54c3.05,0,5-1.18,5-2s-1.95-2-5-2a9.42,9.42,0,0,0-3.25.54,1,1,0,0,1-1.29-1.29,9.42,9.42,0,0,0,.54-3.25c0-3.05-1.18-5-2-5s-2,1.95-2,5a9.42,9.42,0,0,0,.54,3.25,1,1,0,0,1-1.29,1.29,9.42,9.42,0,0,0-3.25-.54c-3.05,0-5,1.18-5,2s1.95,2,5,2a9.42,9.42,0,0,0,3.25-.54A.92.92,0,0,1,269.22,244.07Z"/><path class="cls-6" d="M34.43,285.88c-2.28,0-4-3-4-7a13,13,0,0,1,.19-2.19,11.9,11.9,0,0,1-2.19.19c-4,0-7-1.72-7-4s3-4,7-4a12.84,12.84,0,0,1,2.19.19,12.93,12.93,0,0,1-.19-2.19c0-4,1.72-7,4-7s4,3,4,7a12.06,12.06,0,0,1-.19,2.19,13,13,0,0,1,2.19-.19c4,0,7,1.72,7,4s-3,4-7,4a12.06,12.06,0,0,1-2.19-.19,12.06,12.06,0,0,1,.19,2.19C38.43,282.87,36.71,285.88,34.43,285.88ZM32,274.27a1,1,0,0,1,.71.3,1,1,0,0,1,.23,1.06,9.19,9.19,0,0,0-.55,3.25c0,3.05,1.19,5,2,5s2-1.95,2-5a9.19,9.19,0,0,0-.54-3.25,1,1,0,0,1,1.29-1.29,9.46,9.46,0,0,0,3.25.54c3.06,0,5-1.18,5-2s-1.94-2-5-2a9.46,9.46,0,0,0-3.25.54,1,1,0,0,1-1.29-1.29,9.19,9.19,0,0,0,.54-3.25c0-3.05-1.18-5-2-5s-2,1.95-2,5a9.15,9.15,0,0,0,.55,3.25,1,1,0,0,1-1.29,1.29,9.48,9.48,0,0,0-3.26-.54c-3.05,0-5,1.19-5,2s1.95,2,5,2a9.48,9.48,0,0,0,3.26-.54A1,1,0,0,1,32,274.27Z"/><rect class="cls-6" x="276.82" y="39.66" width="2" height="11.91"/><rect class="cls-6" x="276.4" y="76.24" width="2" height="11.91"/><rect class="cls-6" x="253.36" y="62.69" width="11.91" height="2"/><rect class="cls-6" x="289.95" y="63.12" width="11.91" height="2"/><rect class="cls-6" x="263.82" y="44.86" width="2" height="11.91" transform="translate(41.63 202.14) rotate(-45)"/><rect class="cls-6" x="289.4" y="71.04" width="2" height="11.91" transform="translate(30.61 227.88) rotate(-45)"/><rect class="cls-6" x="258.57" y="75.69" width="11.91" height="2" transform="translate(23.25 209.51) rotate(-45)"/><rect class="cls-6" x="284.74" y="50.12" width="11.91" height="2" transform="translate(49 220.53) rotate(-45)"/></svg>