<svg id="Слой_1" data-name="Слой 1" xmlns="http://www.w3.org/2000/svg" viewBox="0 0 500 150"><defs><style>.cls-1{fill:#353535;}.cls-2{fill:#29c1e7;}.cls-3{fill:#343434;}.cls-4{fill:#363636;}.cls-5{fill:#0da1d4;}.cls-6{fill:#383838;}.cls-7{fill:#373737;}.cls-8{fill:#3c3c3c;}.cls-9{fill:#d0cfcf;}.cls-10{fill:#acb0b3;}.cls-11{fill:#bbbec1;}.cls-12{fill:#d5d9db;}.cls-13{fill:#6bd2ec;}.cls-14{fill:#69cde6;}.cls-15{fill:#dedede;}.cls-16{fill:#ececec;}.cls-17{fill:#6ec2e1;}.cls-18{fill:#dfe3e4;}.cls-19{fill:#c9cccf;}.cls-20{fill:#bebfc1;}.cls-21{fill:#28c1e7;}.cls-22{fill:#0da0d3;}.cls-23{fill:#25c0e7;}.cls-24{fill:#0fa0d3;}.cls-25{fill:#dcdcdc;}.cls-26{fill:#e9e8e8;}.cls-27{fill:#09a2d3;}.cls-28{fill:#e3e5e5;}.cls-29{fill:#e4e5e6;}.cls-30{fill:#cfd0d2;}.cls-31{fill:#dfe1e3;}.cls-32{fill:#71d2ea;}</style></defs><path class="cls-1" d="M394.1,89.55V58h4.62v47.86l-5.45.35c-3.87-12-7.71-23.91-11.56-35.83l-.73.1v35.33h-4.79V58.05H383l10.17,31.68Z"/><path class="cls-2" d="M121,112.92c-7,5.18-15.15,7.51-23.62,8C70,122.56,46,113.81,24.54,97.13A66,66,0,0,1,6.23,75.77,72.87,72.87,0,0,1,3,68.07l1-3c3.68,7.69,8.2,14.76,14.93,20.2C30.38,97.13,44.37,104.91,60,110c4.67,2.43,9.75,3.38,14.9,4a6.24,6.24,0,0,0,1.66.86c4.22.68,8.44,1.64,12.69,1.81s8.62,1,12.79-.73c6.35.26,12.11-2,17.93-4.1Z"/><path class="cls-3" d="M371.15,81.87v14c.05,8.16-7.49,13.21-15.84,10.06-4.23-1.59-6.09-5.32-6.21-9.44-.29-9.79-.43-19.61,0-29.39.35-7.58,6.71-11.67,14.11-9.84,4.75,1.17,7.68,4.79,7.87,10.2.18,4.81,0,9.64,0,14.45Zm-5.28-.09v-12a14.4,14.4,0,0,0-.45-3.92c-.83-2.79-2.74-4-5.62-3.93-2.67.1-4.19,1.25-5,4a15.3,15.3,0,0,0-.53,3.92c0,8-.07,16,0,24a14.51,14.51,0,0,0,.91,4.83,4.69,4.69,0,0,0,4.69,3.09c2.36,0,4.32-.86,5.17-3.16a13.78,13.78,0,0,0,.76-4.36C365.93,90.11,365.87,86,365.87,81.78Z"/><path class="cls-4" d="M430.12,58h5.59V93.18a24.79,24.79,0,0,0,.26,4.47,5.27,5.27,0,0,0,10.15.62,19.92,19.92,0,0,0,.7-5.38c.06-11.46,0-22.93,0-34.76H452V93.58a20.85,20.85,0,0,1-.55,4.92c-1.5,6-5.21,8.67-11.22,8.3-5.36-.33-9.07-3.84-9.93-9.43a9.25,9.25,0,0,1-.1-1.49Z"/><path class="cls-3" d="M206.23,105.89h-5.4c-.3-1.41-.57-2.81-.89-4.21s-.71-2.88-1.14-4.62h-12c-.66,2.84-1.32,5.69-2,8.77h-4.92C183,89.72,186,73.83,189,57.89h7.86C200.26,73.5,202.92,89.44,206.23,105.89Zm-8.09-14.34c-1.7-8.66-3.34-17-5-25.32l-1,.07-4.82,25.25Z"/><path class="cls-1" d="M344.2,73.55a24.25,24.25,0,0,1-2.82.17,12.35,12.35,0,0,1-2.09-.45c-.1-1.41-.22-2.69-.26-4-.16-5-1.81-7.25-5.48-7.32-3.92-.07-5.62,2.18-5.68,7.59V93.48a25,25,0,0,0,.08,3c.4,3.34,2.54,5.36,5.47,5.28a5.32,5.32,0,0,0,5.5-5.12v-.15c.2-2.47,0-5,0-7.16.61-.48.85-.84,1.13-.87,1.12-.13,2.26-.16,3.25-.21.34.45.7.71.7,1a69.91,69.91,0,0,1-.09,8.44c-.63,5.46-4.6,8.89-10.1,9.12-5.76.24-10.07-2.49-10.83-8.08A130,130,0,0,1,323,65c.67-5.4,4.71-8,10.36-8s9.32,2.79,10.51,8a17.58,17.58,0,0,1,.32,3.47C344.24,70.06,344.2,71.68,344.2,73.55Z"/><path class="cls-1" d="M425.94,70h-4.75a37.68,37.68,0,0,0-.89-4.35c-.88-2.73-2.5-3.82-5.18-3.73A5.11,5.11,0,0,0,410,66.41c-.94,4.61,1.06,8.1,4.3,11.07,2.45,2.25,5.06,4.33,7.44,6.65A14.6,14.6,0,0,1,426,96.46c-.66,7.61-6.68,11.81-14.1,10a8.75,8.75,0,0,1-6.73-6,70,70,0,0,1-1.47-8.13l4.76-.53a6.78,6.78,0,0,1,.66,1.51,42.57,42.57,0,0,0,.73,4.9,4.93,4.93,0,0,0,5.28,3.67,5.11,5.11,0,0,0,4.88-3.6c1.2-3.59.71-7-1.93-9.75-2.4-2.52-5.06-4.82-7.63-7.18-3.15-2.89-5.64-6.15-6-10.58a17.83,17.83,0,0,1,0-4c.93-6.54,4.76-9.86,11.09-9.73,6,.12,9.62,3.53,10.44,9.89A28.59,28.59,0,0,1,425.94,70Z"/><path class="cls-3" d="M154,92h5.19c.23,1.84.36,3.49.66,5.1.54,3,2.31,4.55,5,4.66a5.39,5.39,0,0,0,5.64-4,8.55,8.55,0,0,0-.94-7.65,40,40,0,0,0-4.63-5.19c-1.89-1.87-4-3.51-5.9-5.37-4.38-4.28-5-9.65-3.82-15.26,1-4.77,4.7-7.32,9.93-7.36,5.65,0,9.47,2.7,10.66,7.85a34.94,34.94,0,0,1,.39,5.21l-4.57.28a9.19,9.19,0,0,1-.58-1.62c-.12-.82,0-1.69-.2-2.48A5.2,5.2,0,0,0,165.41,62a5.14,5.14,0,0,0-5.25,4.38,9.29,9.29,0,0,0,1.4,7.64,34.11,34.11,0,0,0,4,4.41c2,2,4.24,3.75,6.27,5.71,4.27,4.1,5.09,9.24,4,14.74-1,5-5.36,8-10.67,7.93-5.52-.1-9-2.7-10.16-7.77A63.26,63.26,0,0,1,154,92Z"/><path class="cls-3" d="M239.38,62.29V78.84h11.39l.37,5H239.39V101h14c.21,1.67.39,3,.61,4.79H234.1V58.47c3.12-1,14.13-1.15,19.56-.2a12.34,12.34,0,0,1,.19,1.82,11.88,11.88,0,0,1-.22,1.68c-.35.3-.47.5-.6.5C248.61,62.29,244.19,62.29,239.38,62.29Z"/><path class="cls-5" d="M12,45a3.53,3.53,0,0,1,.15-.91L13,42l5.87-8c7.06-4.72,14.84-6.8,23.33-7.25C56.51,26,70,29.15,83.09,34.53c3.35,1.38,6.63,3,9.94,4.45l2,1h0c7.66,5.22,15.35,10.41,21.93,17,4.53,6.21,9.4,12.22,11.24,19.94a5.6,5.6,0,0,0,0,2c1.91,5.28-.09,9.9-2.39,14.46a7.09,7.09,0,0,1-1-.38c2.36-7.44.75-14.37-2.72-21l-.2-1-.79-1-1.14-2-.84-1.15a1.34,1.34,0,0,0-.17-.85l-.84-1.13c-1.51-4.24-4.58-7.27-7.88-10.12l-2.94-2.85-1.16-1A66.58,66.58,0,0,0,84,37.08a86.66,86.66,0,0,0-30.45-8c-8.62-.75-16.83,1.33-24.76,4.16-6.12,2.17-11.73,5.53-15,11.65L13,46h0Z"/><path class="cls-6" d="M215.93,80h10.58l.28,5H215.64v20.93l-4.87.22c-1-3.63-1.2-40.84-.35-48.09a10,10,0,0,1,1.79-.31H229l.24,4.89H215.93Z"/><path class="cls-4" d="M282.51,57.91h5.6l7.33,23c3.25-8,5-15.47,7.65-22.93h5.06c-2.16,6.69-3.93,13.23-6.4,19.49a52.31,52.31,0,0,0-3.69,23.37c.11,1.49,0,3,0,5l-5.3.26c0-3.82-.14-7.28,0-10.71a32.25,32.25,0,0,0-2-12.22C288.07,75,285.42,66.76,282.51,57.91Z"/><path class="cls-7" d="M475.52,57.82h23.05v4.79h-8.66v43.12h-5.74V62.48h-8.65Z"/><path class="cls-8" d="M457.82,57.92h5.09v43h13.81c.09,1.81.15,3.08.21,4.19-1.2,1.21-11.51,1.45-18.82.61C457.12,102.4,456.86,63.94,457.82,57.92Z"/><path class="cls-7" d="M280,58l-.2,4.6h-8.63v43.29l-5.3.25V62.53H257V58Z"/><path class="cls-9" d="M119.93,111.91c-5.82,2.06-11.58,4.36-17.93,4.1-1.81-2.44-.63-4.42.9-6.44A35.5,35.5,0,0,0,105,106a103.41,103.41,0,0,0,10.47-3.31A16.16,16.16,0,0,0,123,97a46.54,46.54,0,0,0,1,4.69c.61,2.16,1.39,4.27,2.1,6.4l-.84.93Z"/><path class="cls-10" d="M126,108.07c-.71-2.13-1.49-4.24-2.1-6.4-.44-1.53-.66-3.12-1-4.69l1.79-4a7.09,7.09,0,0,0,1,.38c2.3-4.56,4.3-9.18,2.39-14.46a5.6,5.6,0,0,1,0-2l4.77-1c1,4,2.32,7.87,2.81,11.89a16.37,16.37,0,0,1-1.16,7.7C132.7,100.36,130.6,105.1,126,108.07Z"/><path class="cls-11" d="M132.92,76l-4.77,1c-1.84-7.72-6.71-13.73-11.24-19.94L119,56a27.7,27.7,0,0,0,2.52,2.9C126.83,63.61,130.2,69.6,132.92,76Z"/><path class="cls-12" d="M119,56l-2.07,1C110.35,50.39,102.66,45.2,95,40c2.8-.83,4.74,1.07,6.73,2.36C107.89,46.38,114.33,50.08,119,56Z"/><path class="cls-13" d="M2,59l1.92,5-1,3C1.05,64.58,2.32,61.72,2,59Z"/><path class="cls-14" d="M119.93,111.91l5.26-2.91L121,112.92Z"/><path class="cls-12" d="M95,40l-2-1Z"/><path class="cls-15" d="M88,107l17-1a37.28,37.28,0,0,1-2.11,3.55c-1.53,2-2.71,4-.9,6.44-4.17,1.72-8.54.9-12.79.73s-8.47-1.13-12.69-1.81a6.24,6.24,0,0,1-1.66-.86c2.27.1,3.59-.26,3.92-3.21s2.2-3.78,5.29-3.85Z"/><path class="cls-16" d="M88,107H84.07c-3.09.07-5,.91-5.29,3.85s-1.65,3.31-3.92,3.21c-5.15-.67-10.23-1.62-14.9-4l1.44-.2c-1-5.44.57-7.34,6.05-6.75,4.14.44,8.2,1.56,12.31,2.28,1.91.33,3.86.37,5.77.68A12.28,12.28,0,0,1,88,107Z"/><path class="cls-17" d="M13,45l-1,3.91c-1.62-1.64-1.4-3.28,0-4.93Z"/><path class="cls-17" d="M13,41l-.87,2.08Z"/><path class="cls-18" d="M82,38l2-.93a66.73,66.73,0,0,1,22.1,13.76l1.16,1,2.94,2.85L108,56h0l-.93-1h0l-.94-1-.13-.1L105,53h0L104,52a67.84,67.84,0,0,0-5.54-4.16C93.07,44.46,87.5,41.27,82,38Z"/><path class="cls-19" d="M108,56l2.13-1.24c3.3,2.85,6.37,5.88,7.88,10.12l.84,1.13a1.34,1.34,0,0,1,.17.85L119.9,68,121,70l.79,1,.2,1a5.57,5.57,0,0,1-1,0c-1.31-2.36-3.62-3.22-6-4Z"/><path class="cls-17" d="M13.79,43.9,13,45Z"/><path class="cls-20" d="M118.89,66l-.84-1.13Z"/><path class="cls-20" d="M119.9,68l-.84-1.15Z"/><path class="cls-20" d="M121.83,71,121,70Z"/><path class="cls-19" d="M107.23,51.89l-1.16-1Z"/><path class="cls-2" d="M113,95c-5.31,4.73-11.7,6.59-18.63,7.11-21,1.59-39.49-5.26-56-17.65-7-5.3-12.94-11.91-16.38-20.34-1.85-4.54-2.1-5.39-1.62-11.51a45.61,45.61,0,0,0,14.2,22.22A86.23,86.23,0,0,0,60.57,91c3.06,1.19,6.24,2,9.37,3.06a38.46,38.46,0,0,0,14.88,3.06,12.3,12.3,0,0,0,2.65.81c8.44.55,16.66-.35,24.44-3.95Z"/><path class="cls-21" d="M105.16,78.94a1.93,1.93,0,0,0-.22,1L104,81c-5.06,4.54-11,6.28-17.78,6.16-16.34-.3-30.24-6.3-41.95-17.48a27.15,27.15,0,0,1-8.08-15.56,4.25,4.25,0,0,1,.84-3,22.06,22.06,0,0,1,1,2.23c2.43,6.46,7,11.26,12.25,15.43A66.66,66.66,0,0,0,79.91,82a18.82,18.82,0,0,0,3,.12c4,1.62,8.09,1.15,12,.3C98.43,81.62,101.76,80.12,105.16,78.94Z"/><path class="cls-22" d="M108,56l7,12a14.52,14.52,0,0,1-1.18,12.28c0,.09-.65-.15-1-.23A21,21,0,0,0,110,66l-4.74-7.06-.42-.91L104,57h0l-1-1.07h0l-1-1h0l-1-1h0l-1-1.13a31.23,31.23,0,0,0-12-8.86c-6.43-4.28-13.71-6.24-21.11-8C58.89,34,51,35.19,43.37,37.2c-5.55,1.46-10.84,4.06-14,9.57.48-6,4.09-9.53,9.17-11.81,7.19-3.22,14.7-3.39,22.38-2.49,7.28.86,14.08,3.42,21,5.56,5.52,3.26,11.09,6.45,16.56,9.8a68.9,68.9,0,0,1,5.6,4.17l1,.94h0l1,.94.06.06.94,1h0l.93,1Z"/><path class="cls-23" d="M94,71c-5.26,5.77-12.29,4.87-18.59,3.74-8-1.43-15.36-5-20.86-11.53A17.49,17.49,0,0,1,50.27,54c-.1-.84.46-1.76.84-3C56.59,62.13,65.75,67.49,77,70a21.33,21.33,0,0,0,13.22,0A1.3,1.3,0,0,0,91,70l4-1a1.9,1.9,0,0,0-.12.82Z"/><path class="cls-24" d="M82,46a30.32,30.32,0,0,0-16.44-4.77c-7.17,0-14.49,1-20.72,7.17,1-4.74,3.36-7.12,6.92-8.61,6.28-2.62,12.7-2,18.94-.37C75.92,40.85,80.91,43.12,86,45c4.47,3.57,9.69,6.23,13.15,11l.85,1h0l.9,1.21a1.13,1.13,0,0,0,.24.79l.8,1.08h0c.26,1.09.57,2.17.77,3.28.48,2.73.76,5.44-1.66,7.55l-.92-4.11L98.88,63l-.79-1.09h0c-2.41-4.76-4.87-9.48-10-12h0L87,49h0l-1-.78a1,1,0,0,0-.82-.31L84,47.07a.91.91,0,0,0-.71-.21Z"/><path class="cls-25" d="M112,93.93c-7.78,3.6-16,4.5-24.44,3.95a12.3,12.3,0,0,1-2.65-.81H97.37L93,94.67,95,90c5-.47,9.83-1.32,14-4.44A22.57,22.57,0,0,1,112,84l6,5.94L116.08,92c-.32-.19-.8-.63-.92-.55C114.06,92.22,113,93.09,112,93.93Z"/><path class="cls-26" d="M95,90l-2,4.65,4.38,2.4H84.86A38.5,38.5,0,0,1,70,94l2.43-.13c1.07-4,2.72-5.68,5.87-4.77,5.08,1.48,10.17.55,15.24.89Z"/><path class="cls-27" d="M89,63c-1-1.85-1.68-4-3.07-5.49A25.69,25.69,0,0,0,65.6,49c-2.17.08-4.33.87-6.5,1.33.74-3.67,2.12-4.93,5.71-5.36,4.89-.58,9.48.75,14.06,2.15l2.09,1h0l2,1.06h0L84,50h0l1.86,1.17h0a50.39,50.39,0,0,1,4.35,5.72C91.72,59.33,91.3,60.81,89,63Z"/><path class="cls-28" d="M100.11,66.81l.92,4.11L107,77l-1.82,2c-3.4,1.18-6.73,2.68-10.23,3.43-4,.85-8.06,1.32-12-.3l1.81-3.86L92.82,76c.77-.21,1.56-.38,2.32-.61,3.49-1.09,5.72-3,4.88-7.12A5.11,5.11,0,0,1,100.11,66.81Z"/><path class="cls-20" d="M117.93,89.94,112,84l.91-4c.34.08.94.32,1,.23A14.52,14.52,0,0,0,115.05,68c2.37.79,4.68,1.65,6,4C123.42,78.58,121.58,84.42,117.93,89.94Z"/><path class="cls-29" d="M89,63c2.29-2.16,2.71-3.64,1.2-6.08-1.26-2-2.87-3.86-4.33-5.77l2.23-1.21c5.13,2.49,7.59,7.21,10,12A7.85,7.85,0,0,0,97,64.39c-.12,1.84-.41,3.52-2,4.66l-4,1a32.74,32.74,0,0,0-.26-5C90.64,64.21,89.63,63.63,89,63Z"/><path class="cls-30" d="M107,77l-6-6.06c2.42-2.11,2.14-4.82,1.66-7.55-.2-1.11-.51-2.19-.77-3.28l3.34-1.18L110,66c-.33.79-1,1.61-.94,2.38C109.28,71.48,108.23,74.24,107,77Z"/><path class="cls-31" d="M105.26,58.91l-3.34,1.18h0l-.8-1.08a1.13,1.13,0,0,1-.24-.79L100,57h0l-.85-1C95.69,51.23,90.47,48.57,86,45l2-1.06a31.21,31.21,0,0,1,12.07,8.84l1,1.13h0l1,1h0l1,1h0L104,57h0l.83,1Z"/><path class="cls-32" d="M112,93.93c1.06-.84,2.11-1.71,3.21-2.48.12-.08.6.36.92.55L113,95Z"/></svg>