<svg width="19" height="19" viewBox="0 0 19 19" fill="none" xmlns="http://www.w3.org/2000/svg">
<path d="M9.5 1C10.6162 1 11.7215 1.21986 12.7528 1.64702C13.7841 2.07419 14.7211 2.70029 15.5104 3.48959C16.2997 4.27889 16.9258 5.21592 17.353 6.24719C17.7801 7.27846 18 8.38377 18 9.5C18 10.6162 17.7801 11.7215 17.353 12.7528C16.9258 13.7841 16.2997 14.7211 15.5104 15.5104C14.7211 16.2997 13.7841 16.9258 12.7528 17.353C11.7215 17.7801 10.6162 18 9.5 18C8.38376 18 7.27846 17.7801 6.24719 17.353C5.21592 16.9258 4.27889 16.2997 3.48959 15.5104C2.70029 14.7211 2.07419 13.7841 1.64702 12.7528C1.21986 11.7215 0.999999 10.6162 1 9.5C1 8.38376 1.21986 7.27845 1.64703 6.24719C2.07419 5.21592 2.7003 4.27889 3.4896 3.48959C4.27889 2.70029 5.21593 2.07419 6.2472 1.64702C7.27846 1.21986 8.38377 0.999999 9.50001 1L9.5 1Z" stroke="white" stroke-width="2" stroke-linecap="round" stroke-linejoin="round"/>
<path d="M9.5 1C11.295 1 13.044 1.56827 14.4962 2.62336C15.9484 3.67844 17.0293 5.16619 17.584 6.87336C18.1387 8.58052 18.1387 10.4195 17.584 12.1266C17.0293 13.8338 15.9484 15.3216 14.4962 16.3766" stroke="#E168A8" stroke-width="2" stroke-linecap="round" stroke-linejoin="round"/>
</svg>
