<svg width="19" height="19" viewBox="0 0 19 19" fill="none" xmlns="http://www.w3.org/2000/svg">
<rect width="19" height="19" rx="9.5" fill="#E168A8"/>
<g clip-path="url(#clip0_71_291)">
<path d="M14.3239 11.6028H13.9033V11.2317H14.3239C14.6208 11.2317 14.8682 10.9843 14.8682 10.6874V8.08976C14.8682 7.61971 14.4723 7.22388 14.0023 7.22388H11.2809C10.8109 7.22388 10.415 7.61971 10.415 8.08976V10.6874C10.415 10.9843 10.6624 11.2317 10.9593 11.2317H11.3799V11.6028H10.9593C10.4398 11.6028 10.0439 11.1822 10.0439 10.6874V8.08976C10.0439 7.39705 10.5882 6.85278 11.2809 6.85278H14.027C14.7197 6.85278 15.264 7.39705 15.264 8.08976V10.6874C15.264 11.2069 14.8434 11.6028 14.3239 11.6028ZM12.6416 6.45695C11.8994 6.45695 11.2809 5.83846 11.2809 5.09627C11.2809 4.35409 11.8994 3.7356 12.6416 3.7356C13.3838 3.7356 14.0023 4.35409 14.0023 5.09627C14.0023 5.83846 13.4085 6.45695 12.6416 6.45695ZM12.6416 4.13143C12.0973 4.13143 11.652 4.57674 11.652 5.12101C11.652 5.66528 12.0973 6.1106 12.6416 6.1106C13.1859 6.1106 13.6312 5.66528 13.6312 5.12101C13.6312 4.57674 13.1859 4.13143 12.6416 4.13143Z" fill="white"/>
<path d="M13.2848 15.2642C13.0374 15.2642 12.8148 15.1405 12.6663 14.9674C12.5179 15.1405 12.2952 15.2642 12.0479 15.2642C11.6025 15.2642 11.2314 14.8931 11.2314 14.4478V8.41138H11.6025V14.4478C11.6025 14.6952 11.8005 14.8931 12.0479 14.8931C12.2952 14.8931 12.4684 14.6705 12.4684 14.4478V11.4296H12.8395V14.4478C12.8395 14.6952 13.0374 14.8931 13.2848 14.8931C13.5322 14.8931 13.7301 14.6952 13.7301 14.4478V8.41138H14.1012V14.4478C14.1012 14.8931 13.7301 15.2642 13.2848 15.2642Z" fill="white"/>
<path d="M10.6136 12.6913H3.76074V4.9231H10.7373V5.29419H4.13184V12.3202H10.6136V12.6913Z" fill="white"/>
<path d="M9.40072 8.38672H5.14551V8.75781H9.40072V8.38672Z" fill="white"/>
<path d="M9.40072 9.64844H5.14551V10.0195H9.40072V9.64844Z" fill="white"/>
<path d="M9.40072 10.9348H5.14551V11.3059H9.40072V10.9348Z" fill="white"/>
</g>
<defs>
<clipPath id="clip0_71_291">
<rect width="11.875" height="11.875" fill="white" transform="translate(3.5625 3.5625)"/>
</clipPath>
</defs>
</svg>
