<svg width="25" height="25" viewBox="0 0 25 25" fill="none" xmlns="http://www.w3.org/2000/svg">
<rect width="25" height="25" rx="12.24" fill="#E168A8"/>
<path d="M14.0775 18.1018H10.5775L10.1608 16.9768H3.86914V6.26847C3.86914 5.76847 4.28581 5.35181 4.78581 5.35181H20.3691C20.8691 5.35181 21.2858 5.76847 21.2858 6.26847V17.0185H14.9108L14.0775 18.1018ZM11.0358 17.4768H13.7858L14.6191 16.3518H20.6608V6.26847C20.6608 6.10181 20.5358 5.97681 20.3691 5.97681H4.78581C4.61914 5.97681 4.49414 6.10181 4.49414 6.26847V16.3935H10.6191L11.0358 17.4768Z" fill="white"/>
<path d="M19.5775 19.3517H5.57747C4.07747 19.3517 2.86914 18.1434 2.86914 16.6434V16.3101H10.5775L10.9941 17.4351H13.7441L14.5775 16.3101H22.2441V16.6434C22.2858 18.1434 21.0358 19.3517 19.5775 19.3517ZM3.53581 16.9767C3.70247 17.9767 4.53581 18.7267 5.57747 18.7267H19.5358C20.5775 18.7267 21.4525 17.9767 21.5775 16.9767H14.9108L14.0775 18.1017H10.5775L10.1608 16.9767H3.53581Z" fill="white"/>
<path d="M9.53548 7.56006H6.32715V10.3517H9.53548V7.56006Z" fill="white"/>
<path d="M9.82747 10.6435H5.99414V7.22681H9.82747V10.6435ZM6.61914 10.0185H9.20247V7.85181H6.61914V10.0185Z" fill="white"/>
<path d="M9.53548 11.9768H6.32715V14.7685H9.53548V11.9768Z" fill="white"/>
<path d="M9.82747 15.1017H5.99414V11.6851H9.82747V15.1017ZM6.61914 14.4767H9.20247V12.3101H6.61914V14.4767Z" fill="white"/>
<path d="M18.9935 8.60181H11.5352V9.22681H18.9935V8.60181Z" fill="white"/>
<path d="M18.9935 13.0601H11.5352V13.6851H18.9935V13.0601Z" fill="white"/>
</svg>
