<svg id="Слой_1" data-name="Слой 1" xmlns="http://www.w3.org/2000/svg" viewBox="0 0 100 100"><defs><style>.cls-1{fill:#0153b4;}.cls-2{fill:#efefef;}.cls-3{fill:#d70128;}.cls-4{fill:#1e65bb;}.cls-5{fill:#efeeee;}.cls-6{fill:#d70228;}.cls-7{fill:#eaebee;}.cls-8{fill:#e9ebee;}.cls-9{fill:#eaecee;}.cls-10{fill:#ebedee;}.cls-11{fill:#ebecee;}.cls-12{fill:#ecedee;}.cls-13{fill:#e6e9ed;}.cls-14{fill:#d8032a;}</style></defs><path class="cls-1" d="M49.23,50l.87,0V38.08c0-.36,0-.71,0-1.07V11L50.1.26h-.39a2.2,2.2,0,0,1-1.94,0H46c-.55.11-1.09.27-1.64.33A49.23,49.23,0,0,0,23.84,7.76a1.42,1.42,0,0,1-.18.08,4.28,4.28,0,0,0,.79.17,30.26,30.26,0,0,1,3.25.15l-4,2.89,1.48,4.71-.13.08-4-2.84-4,2.81v0l-.08,0h.06l0,0a9.19,9.19,0,0,1,.17-1.05c.23-.88.5-1.75.75-2.63a2.67,2.67,0,0,0-.58.31,48.35,48.35,0,0,0-8.56,9.72,1.57,1.57,0,0,0-.16.34c.15,0,.29.09.42.11s.3,0,.52.05c-.14.15-.21.28-.32.33a6.55,6.55,0,0,0-3,3.33,2.44,2.44,0,0,0-.12.55l1.16,3.39-.18.11-2-1.54L4.15,31c-.25.52-.51,1-.74,1.56-.05.11,0,.26,0,.4.46,1.34.92,2.67,1.39,4.06H9.76l.08.16L5.9,40.06c.49,1.58,1,3.13,1.47,4.68l-.15.09L3.26,42,.75,43.82.36,50l.87,0ZM43,44.61l-.21.13L39,42,35,44.82l-.17-.12c.48-1.53,1-3.05,1.47-4.64l-4.18-3h5.19L39,32.09c.58,1.75,1.1,3.3,1.63,4.92h4.92l.08.18-4,2.86C42.08,41.57,42.55,43.09,43,44.61Zm.16-14.09-4.21-3-4,2.87-.14-.1c.5-1.55,1-3.11,1.53-4.71l-3.9-2.84,0-.16h4.84l1.63-5,1.64,5h4.89l.05.15L41.6,25.58C42.11,27.18,42.6,28.74,43.17,30.52ZM37.35,8.06,39,3.13,40.6,8.06h4.92l.06.16-4,2.88c.5,1.58,1,3.17,1.55,4.94l-4.17-3-3.91,2.77-.21-.09c.48-1.53,1-3.05,1.46-4.63l-4.17-3ZM14.61,22.6h4.85c.55-1.65,1.05-3.2,1.64-5l1.63,4.94h4.89l.06.17-3.93,2.87c.51,1.59,1,3.14,1.49,4.7l-.13.09-4-2.85-4,2.82L17,30.26c.48-1.53,1-3.05,1.48-4.67l-3.88-2.82ZM19.45,37l1.62-4.95c.57,1.73,1.09,3.31,1.62,4.9h4.9a33.85,33.85,0,0,1-3.81,3c.26,1.6,1.09,3,1.3,4.81l-4-2.83C20,42.76,19,43.51,18,44.24a7.53,7.53,0,0,1-.87.5v0l-.09.11.07-.13h0a8.24,8.24,0,0,1,.19-1c.37-1.2.76-2.39,1.17-3.67l-4.16-3Z"/><path class="cls-2" d="M50.1,50l-.87,0h-48L.36,50l-.21.21v2.92c.13.18.37.37.37.56A42.42,42.42,0,0,0,2.1,63l1.07,0Q50.09,63,97,63c.36,0,.71,0,1.07,0a42.49,42.49,0,0,0,1.39-7.14c0-.16.24-.31.37-.46V50H51.26C50.87,50,50.48,50,50.1,50Z"/><path class="cls-3" d="M99.46,43.81c-.45-2.27-.91-4.53-1.37-6.8h-48c0,.36,0,.71,0,1.07V50c.38,0,.77,0,1.16,0H99.85V46.12C99.72,45.35,99.61,44.58,99.46,43.81Z"/><path class="cls-2" d="M79.45,11c.39,0,.77,0,1.16-.06a7.45,7.45,0,0,0-.91-1,51.76,51.76,0,0,0-9.06-5.33,51.15,51.15,0,0,0-8.2-2.88A38,38,0,0,0,56,.63c-.16,0-.31-.24-.46-.37H50.1l0,10.77Z"/><path class="cls-4" d="M49.71.26H47.77A2.2,2.2,0,0,0,49.71.26Z"/><path class="cls-5" d="M50.13,24V37h48c-.16-.59-.31-1.18-.48-1.77a47.3,47.3,0,0,0-3.07-7.61c-.61-1.27-1.4-2.45-2.11-3.67-.42,0-.84.05-1.26.05Z"/><path class="cls-6" d="M50.13,11V24h41c.42,0,.84,0,1.26-.05A48.62,48.62,0,0,0,81.6,11.52a6,6,0,0,0-1-.55c-.39,0-.77.06-1.16.06Z"/><path class="cls-7" d="M17.27,43.75a8.24,8.24,0,0,0-.19,1,7.53,7.53,0,0,0,.87-.5C19,43.51,20,42.76,21.09,42l4,2.83c-.21-1.78-1-3.21-1.3-4.81a33.85,33.85,0,0,0,3.81-3h-4.9c-.53-1.59-1.05-3.17-1.62-4.9L19.45,37H14.28l4.16,3C18,41.36,17.64,42.55,17.27,43.75Z"/><path class="cls-8" d="M45.51,37H40.59c-.53-1.62-1.05-3.17-1.63-4.92L37.35,37H32.16l4.18,3c-.51,1.59-1,3.11-1.47,4.64l.17.12L39,42l3.84,2.72.21-.13c-.46-1.52-.93-3-1.39-4.56l4-2.86Z"/><path class="cls-9" d="M34.87,15.73l.21.09L39,13.05l4.17,3c-.55-1.77-1-3.36-1.55-4.94l4-2.88-.06-.16H40.6L39,3.13,37.35,8.06H32.16l4.17,3C35.84,12.68,35.35,14.2,34.87,15.73Z"/><path class="cls-10" d="M45.48,22.59H40.59l-1.64-5-1.63,5H32.48l0,.16,3.9,2.84c-.52,1.6-1,3.16-1.53,4.71l.14.1,4-2.87,4.21,3c-.57-1.78-1.06-3.34-1.57-4.94l3.93-2.84Z"/><path class="cls-11" d="M17,30.26l.16.09,4-2.82,4,2.85.13-.09c-.49-1.56-1-3.11-1.49-4.7l3.93-2.87-.06-.17H22.73L21.1,17.61c-.59,1.79-1.09,3.34-1.64,5H14.61l0,.17,3.88,2.82C18,27.21,17.47,28.73,17,30.26Z"/><path class="cls-12" d="M7.22,44.83l.15-.09c-.49-1.55-1-3.1-1.47-4.68l3.94-2.93L9.76,37H4.83c-.47-1.39-.93-2.72-1.39-4.06C3,34.28,2.42,35.62,2.09,37c-.53,2.25-.9,4.53-1.34,6.8L3.26,42Z"/><path class="cls-11" d="M17.11,15.81l4-2.81,4,2.84.13-.08-1.48-4.71,4-2.89A30.26,30.26,0,0,0,24.45,8a4.28,4.28,0,0,1-.79-.17c-1,.71-2.08,1.38-3.08,2.14s-1.7,1.43-2.55,2.15c-.25.88-.52,1.75-.75,2.63A9.19,9.19,0,0,0,17.11,15.81Z"/><path class="cls-13" d="M7.41,30.26,6.25,26.87a2.77,2.77,0,0,0-1,2l2,1.54Z"/><path class="cls-11" d="M17,15.83l.08,0v0l0,0Z"/><path class="cls-7" d="M17,44.88l.09-.11v0h0Z"/><path class="cls-3" d="M3.17,63,2.1,63c.52,1.63,1,3.28,1.58,4.88A39.9,39.9,0,0,0,7.73,76l1,0H91.49l1,0a2.17,2.17,0,0,0,.23-.3,47.34,47.34,0,0,0,5.4-12.68c-.36,0-.71,0-1.07,0Q50.1,63,3.17,63Z"/><path class="cls-2" d="M8.7,76l-1,0a42.87,42.87,0,0,0,5.43,7.27c1.15,1.27,2.38,2.47,3.64,3.64.77.71,1.65,1.32,2.48,2l.58,0H80.34l.58,0a27.84,27.84,0,0,0,2.34-1.84A51.44,51.44,0,0,0,89,80.93c1.18-1.6,2.29-3.26,3.44-4.9l-1,0Z"/><path class="cls-14" d="M19.86,88.94l-.58,0a7.17,7.17,0,0,0,.69.66,49,49,0,0,0,37.38,9.64,48.2,48.2,0,0,0,22.88-9.63c.25-.2.46-.45.69-.67l-.58,0Z"/></svg>