<svg width="11" height="9" viewBox="0 0 11 9" fill="none" xmlns="http://www.w3.org/2000/svg">
<path d="M6.73269 0.124081C6.54958 -0.0471464 6.25923 -0.0403962 6.08483 0.139606C5.91021 0.319609 5.91754 0.604462 6.10065 0.775915L9.61652 4.04993H0.458333C0.205333 4.04993 0 4.25154 0 4.49994C0 4.74834 0.205333 4.94995 0.458333 4.94995H9.60185L6.10065 8.22419C5.91731 8.39564 5.91021 8.6805 6.08483 8.8605C6.1749 8.9532 6.29567 9 6.41667 9C6.53033 9 6.644 8.95882 6.73269 8.8758L10.7314 5.13625C10.9047 4.96637 11 4.74047 11 4.49994C11 4.25941 10.9047 4.03351 10.7234 3.85598L6.73269 0.124081Z" fill="#1F1D1B"/>
</svg>
