<svg width="12" height="12" viewBox="0 0 12 12" fill="none" xmlns="http://www.w3.org/2000/svg">
<path d="M11.9754 4.61431L11.4307 1.75565C11.326 1.20637 10.7939 0.674312 10.2445 0.569507L7.38578 0.0249673C7.29966 0.00841922 7.20646 0 7.10882 0C6.59776 0 6.01694 0.224222 5.69594 0.544927L0.304737 5.93613C0.108289 6.13248 0 6.39483 0 6.67451C0 6.95447 0.108289 7.21653 0.304737 7.41327L4.58712 11.6956C4.78357 11.8919 5.04582 12 5.3255 12C5.60527 12 5.86752 11.8919 6.06397 11.6956L11.4553 6.30435C11.8452 5.91407 12.0785 5.15624 11.9754 4.61431ZM10.4946 2.52664C10.3615 2.65922 10.185 2.73218 9.99719 2.73218C9.80936 2.73218 9.63284 2.65922 9.50017 2.52664C9.22601 2.25209 9.22601 1.80626 9.50017 1.5321C9.63284 1.39914 9.80936 1.32617 9.99719 1.32617C10.185 1.32617 10.3615 1.39914 10.4946 1.5321C10.7686 1.80626 10.7686 2.25209 10.4946 2.52664Z" fill="#3C2023"/>
</svg>
