<svg id="Слой_1" data-name="Слой 1" xmlns="http://www.w3.org/2000/svg" viewBox="0 0 100 100"><defs><style>.cls-1{fill:#c7102e;}.cls-2{fill:#fcfcfd;}.cls-3{fill:#022269;}.cls-4{fill:#012169;}.cls-5{fill:#c81330;}</style></defs><path class="cls-1" d="M100,60.17V39.83H60.17V0H39.83V39.83H0V60.17H39.83V100H60.17V60.17Z"/><path class="cls-2" d="M39.83,0H33V30c-.41-.16-.72-.25-1-.39L0,13.6V25l14.45,7.22,1.36.72c-.62,0-1,.08-1.3.08-4.11,0-8.22,0-12.32,0A5.25,5.25,0,0,1,0,32.57v7.26H39.83Z"/><path class="cls-2" d="M84.47,67h1.24c4,0,8,0,12,0a5.81,5.81,0,0,1,2.34.45V60.17H60.17V100H67V69.92c.54.25,1,.42,1.34.62L100,86.38V75L85.61,67.8A3.46,3.46,0,0,1,84.47,67Z"/><path class="cls-2" d="M0,60.17V75l14.94-7.47A4.4,4.4,0,0,1,17,67c4.41,0,8.82,0,13.22,0,.17,0,.33,0,.77.06-.58.32-.94.54-1.32.73L0,82.6v3.79l28.06-14,4.85-2.42a7,7,0,0,1,.11.82V100h6.81V60.17Z"/><path class="cls-2" d="M100,39.83V25L85.06,32.48a5,5,0,0,1-2.3.55c-4.11,0-8.22,0-12.33,0H69.32c.26-.56.75-.63,1.12-.81Q85.22,24.8,100,17.42v-3.8L68.32,29.46c-.37.19-.75.36-1.23.59a5.88,5.88,0,0,1-.11-.79V0H60.17V39.83Z"/><path class="cls-3" d="M67.09,30.05c.48-.23.86-.4,1.23-.59L100,13.62V7.28A7.29,7.29,0,0,0,92.72,0H67V29.26A5.88,5.88,0,0,0,67.09,30.05Z"/><path class="cls-3" d="M67,69.92V100H92.72A7.29,7.29,0,0,0,100,92.72V86.38L68.32,70.54C67.93,70.34,67.52,70.17,67,69.92Z"/><path class="cls-4" d="M33,30V0H7.28A7.29,7.29,0,0,0,0,7.28V13.6l32,16C32.3,29.76,32.61,29.85,33,30Z"/><path class="cls-4" d="M32.91,69.94l-4.85,2.42L0,86.39v6.33A7.29,7.29,0,0,0,7.28,100H33V70.76A7,7,0,0,0,32.91,69.94Z"/><path class="cls-5" d="M31,67c-.44,0-.6-.06-.77-.06-4.4,0-8.81,0-13.22,0a4.4,4.4,0,0,0-2,.57L0,75V82.6L29.65,67.77C30,67.58,30.39,67.36,31,67Z"/><path class="cls-5" d="M69.32,33h1.11c4.11,0,8.22,0,12.33,0a5,5,0,0,0,2.3-.55L100,25V17.42q-14.77,7.4-29.56,14.79C70.07,32.39,69.58,32.46,69.32,33Z"/><path class="cls-5" d="M14.51,33c.34,0,.68,0,1.3-.08l-1.36-.72L0,25v7.58A5.25,5.25,0,0,0,2.19,33C6.29,33,10.4,33,14.51,33Z"/><path class="cls-5" d="M97.66,67c-4,0-8,0-12,0H84.47a3.46,3.46,0,0,0,1.14.82L100,75V67.42A5.81,5.81,0,0,0,97.66,67Z"/></svg>