<svg id="Слой_1" data-name="Слой 1" xmlns="http://www.w3.org/2000/svg" viewBox="0 0 388.6 388.09"><defs><style>.cls-1{fill:#d70027;}.cls-2{fill:#edebec;}.cls-3{fill:#0152b3;}</style></defs><path class="cls-1" d="M178,2.38h30.69L218.4,3.9c.09,1.61.26,3.22.26,4.83q0,77.77,0,155.53v4.81H379c1.61,0,3.22.17,4.83.26.51,3.23,1,6.47,1.52,9.7V209q-.75,4.85-1.52,9.7c-1.61.09-3.22.26-4.83.26H218.67v4.8q0,77.76,0,155.53c0,1.61-.17,3.22-.26,4.84a202.53,202.53,0,0,1-49.33,0c-.09-1.62-.26-3.23-.26-4.84q0-77.76,0-155.53V219H8.46c-1.61,0-3.22-.17-4.83-.26a201.12,201.12,0,0,1,0-49.34c1.61-.09,3.22-.26,4.83-.26H168.8v-4.81q0-77.76,0-155.53c0-1.61.17-3.22.26-4.83Z"/><path class="cls-2" d="M345.7,310.39l-5.58,6.37q-35.17-35.13-70.36-70.26c-.93-.93-2.09-2.26-3.18-2.29-7.26-.2-14.53-.11-22.53-.11,1.41,1.51,2.21,2.41,3.06,3.26q35.68,35.68,71.37,71.37c3.43,3.43,6.75,6.95,10.12,10.44L310.13,346q-32.62-32.69-65.25-65.36c-.19-.19-.61-.15-1-.23v98.47l-25.5,5.26c.09-1.62.26-3.23.26-4.84q0-77.76,0-155.53V219H379c1.61,0,3.22-.17,4.83-.26q-2.62,12.73-5.26,25.49l-97.94,0c-.17,0-.34.26-.95.74,4.11,4,8.22,7.94,12.25,11.95Q318.84,283.6,345.7,310.39Z"/><path class="cls-2" d="M58.58,328.88,41.77,310.4q32.69-32.61,65.34-65.24c.2-.19.16-.61.24-1H8.9c-1.51-6.92-3-13.85-4.51-20.78-.34-1.55-.51-3.14-.76-4.71,1.61.09,3.22.26,4.83.26H168.8v4.8q0,77.76,0,155.53c0,1.61.17,3.22.26,4.84l-25.5-5.27q0-49,0-98c0-.17-.26-.34-.8-1-4.61,4.76-9.12,9.52-13.75,14.17q-25.82,26-51.69,51.92L71,340.39q35.14-35.17,70.27-70.36c.92-.93,2.26-2.09,2.29-3.18.21-7.26.11-14.53.11-22.56-1.6,1.52-2.59,2.41-3.53,3.35l-78.51,78.5C60.64,327.1,59.59,328,58.58,328.88Z"/><path class="cls-2" d="M143.57,9.16c6.91-1.5,13.81-3,20.72-4.5,1.57-.33,3.18-.51,4.78-.76-.09,1.61-.26,3.22-.26,4.83q0,77.77,0,155.53v4.81H8.46c-1.61,0-3.22.17-4.83.26q2.63-12.75,5.27-25.5,49,0,97.95,0c.17,0,.34-.27.86-.69q-8-7.87-15.88-15.71-25-24.91-50.06-49.86l5.58-6.36q35.18,35.15,70.37,70.26c.93.93,2.09,2.27,3.18,2.3,7.26.2,14.54.1,22.54.1-1.32-1.42-2-2.23-2.78-3Q106,106.29,71.41,71.65c-4.22-4.22-8.35-8.54-12.52-12.81,4.67-4.52,9.29-9.09,14-13.55A43.74,43.74,0,0,1,77.36,42Q110,74.72,142.59,107.38c.19.19.61.15,1,.23Z"/><path class="cls-2" d="M218.4,3.9l25.5,5.26q0,49,0,98c0,.17.26.34.7.88,4.81-4.88,9.58-9.75,14.38-14.57Q284.52,67.73,310.13,42l6.36,5.59Q281.36,82.79,246.24,118c-.93.94-2.28,2.09-2.31,3.17-.21,7.27-.11,14.54-.11,22.56,1.6-1.5,2.58-2.39,3.52-3.32L325.85,61.9c1-1,2-1.83,3-2.74L345.7,77.63Q313,110.24,280.37,142.86c-.19.19-.15.61-.23,1h98.44c1.5,6.9,3,13.8,4.5,20.71.34,1.58.51,3.19.76,4.78-1.61-.09-3.22-.26-4.83-.26H218.67v-4.81q0-77.76,0-155.53C218.66,7.12,218.49,5.51,218.4,3.9Z"/><path class="cls-3" d="M243.9,378.86V280.39c.37.08.79,0,1,.23q32.64,32.67,65.25,65.36c-18.12,14.39-38.46,24.51-60.49,31.36C247.75,377.92,245.81,378.35,243.9,378.86Z"/><path class="cls-3" d="M41.77,77.61q25,24.93,50.06,49.86,7.9,7.86,15.88,15.71c-.52.42-.69.69-.86.69q-49,0-97.95,0A180.16,180.16,0,0,1,41.77,77.61Z"/><path class="cls-3" d="M8.9,244.17h98.45c-.08.38,0,.8-.24,1Q74.46,277.8,41.77,310.4c-12.39-15.47-21.5-32.76-28.28-51.3C11.7,254.22,10.41,249.15,8.9,244.17Z"/><path class="cls-3" d="M143.57,9.16v98.45c-.37-.08-.79,0-1-.23Q110,74.72,77.36,42a177.09,177.09,0,0,1,49.55-27.62C132.36,12.39,138,10.9,143.57,9.16Z"/><path class="cls-3" d="M345.7,310.39q-26.86-26.77-53.76-53.55c-4-4-8.14-7.94-12.25-11.95.61-.48.78-.74.95-.74l97.94,0A181,181,0,0,1,345.7,310.39Z"/><path class="cls-3" d="M77.36,346q25.86-26,51.69-51.92c4.63-4.65,9.14-9.41,13.75-14.17.54.67.8.84.8,1q0,49,0,98A181.4,181.4,0,0,1,77.36,346Z"/><path class="cls-1" d="M58.89,58.84c4.17,4.27,8.3,8.59,12.52,12.81Q106,106.3,140.66,140.92c.76.76,1.46,1.57,2.78,3-8,0-15.28.1-22.54-.1-1.09,0-2.25-1.37-3.18-2.3q-35.2-35.1-70.37-70.26Q53.13,65.06,58.89,58.84Z"/><path class="cls-1" d="M328.6,329.17c-3.37-3.49-6.69-7-10.12-10.44q-35.67-35.7-71.37-71.37c-.85-.85-1.65-1.75-3.06-3.26,8,0,15.27-.09,22.53.11,1.09,0,2.25,1.36,3.18,2.29q35.21,35.12,70.36,70.26Z"/><path class="cls-1" d="M58.58,328.88c1-.91,2.06-1.78,3-2.74l78.51-78.5c.94-.94,1.93-1.83,3.53-3.35,0,8,.1,15.3-.11,22.56,0,1.09-1.37,2.25-2.29,3.18Q106.14,305.24,71,340.39Z"/><path class="cls-3" d="M310.13,42Q284.54,67.74,259,93.44c-4.8,4.82-9.57,9.69-14.38,14.57-.44-.54-.7-.71-.7-.88q0-49,0-98A180,180,0,0,1,310.13,42Z"/><path class="cls-3" d="M378.58,143.85H280.14c.08-.38,0-.8.23-1Q313,110.23,345.7,77.63c14.4,18.11,24.5,38.45,31.36,60.47C377.65,140,378.08,141.93,378.58,143.85Z"/><path class="cls-1" d="M328.87,59.16c-1,.91-2.06,1.78-3,2.74l-78.51,78.49c-.94.93-1.92,1.82-3.52,3.32,0-8-.1-15.29.11-22.56,0-1.08,1.38-2.23,2.31-3.17q35.1-35.19,70.25-70.35Q322.69,53.39,328.87,59.16Z"/></svg>