<svg width="28" height="23" viewBox="0 0 28 23" fill="none" xmlns="http://www.w3.org/2000/svg">
<path d="M18.896 14.5269C20.4894 14.5269 21.7855 13.2307 21.7855 11.6374V2.88978C21.7855 1.29645 20.4894 0 18.896 0H2.88905C1.29599 0 0 1.29645 0 2.88978V11.6374C0 13.2307 1.29599 14.5269 2.88905 14.5269H4.9917V17.5515C4.9917 17.9193 5.21321 18.2508 5.55291 18.3915C5.6655 18.438 5.7836 18.4606 5.90059 18.4606C6.13714 18.4606 6.36975 18.3682 6.54368 18.1943L10.2103 14.5269H18.896Z" fill="#eb486b"/>
<path d="M24.7018 7.56494H23.2399V11.6375C23.2399 14.0328 21.2913 15.9814 18.896 15.9814H10.8128L9.11322 17.6815C9.31805 18.8722 10.3571 19.7813 11.6054 19.7813H18.6434L21.5949 22.7332C21.7687 22.9071 22.0014 22.9996 22.238 22.9996C22.355 22.9996 22.4731 22.9767 22.5857 22.9303C22.9254 22.7895 23.1468 22.4582 23.1468 22.0904V19.7812H24.7019C26.0965 19.7812 27.2311 18.6463 27.2311 17.2515V10.0943C27.231 8.69966 26.0964 7.56494 24.7018 7.56494Z" fill="#eb486b"/>
</svg>
