<svg id="Слой_1" data-name="Слой 1" xmlns="http://www.w3.org/2000/svg" viewBox="0 0 100 100"><defs><style>.cls-1{fill:#dd1928;}.cls-2{fill:#fefc00;}.cls-3{fill:#fef701;}.cls-4{fill:#fef801;}.cls-5{fill:#fef901;}</style></defs><rect class="cls-1" width="100" height="100" rx="7.28"/><path class="cls-2" d="M35.33,22.5H24.64C23.5,19,22.4,15.65,21.3,12.27h-.16C20,15.66,18.93,19,17.79,22.52H7.08l0,.18L15.69,29c-1.12,3.44-2.21,6.82-3.31,10.21l.16.1L21.23,33l8.69,6.3.14-.09L26.76,29l8.64-6.29Z"/><path class="cls-3" d="M48.26,42.88l-2.21,2.7-3.2-1.17-.08.14c.6.92,1.2,1.84,1.84,2.84-.73.93-1.42,1.79-2.24,2.84l3.52-.9,2,3c.08-1.37.15-2.49.22-3.6l3.24-.93v-.16c-1-.41-2.07-.81-3.15-1.22A34,34,0,0,0,48.26,42.88Z"/><path class="cls-3" d="M48.52,7.41l-2.4,2.69L43,8.83l-.1.16c.56.94,1.11,1.89,1.69,2.87l-2.23,2.57.09.12,3.33-.72c.6,1,1.17,1.93,1.75,2.87l.16,0c.11-1.09.21-2.19.32-3.35l3.52-.86L48.26,11C48.35,9.82,48.43,8.72,48.52,7.41Z"/><path class="cls-4" d="M55.29,23.51c.18,1.18.35,2.26.55,3.57l1.73-3.17,3.58.58-2.51-2.61c.52-1,1-2,1.52-2.94L60,18.81l-3.11,1.45-2.4-2.41c.15,1.12.3,2.2.46,3.39-1.06.52-2,1-3.23,1.62Z"/><path class="cls-5" d="M57.79,35.67,56.6,32.59l-.16,0c-.32,1-.63,2.1-1,3.18L51.9,36l3,2.06-1,3.47,2.88-2.2,2.82,1.87.1-.13-1.13-3.15,2.78-2.22Z"/></svg>