<svg width="16" height="18" viewBox="0 0 16 18" fill="none" xmlns="http://www.w3.org/2000/svg">
<path d="M15.293 11.0171C15.5784 10.7175 15.5671 10.2424 15.2671 9.957C14.9671 9.67125 14.4924 9.68325 14.2066 9.98287L8.74999 15.7361L8.74999 0.75C8.74999 0.336 8.41399 -3.0973e-07 7.99999 -3.27827e-07C7.58599 -3.45923e-07 7.24999 0.336 7.24999 0.75L7.24999 15.7121L1.79299 9.98287C1.50724 9.68287 1.03249 9.67125 0.732488 9.957C0.577988 10.1044 0.499989 10.302 0.499989 10.5C0.499989 10.686 0.568614 10.872 0.706988 11.0171L6.93949 17.5605C7.22261 17.844 7.59911 18 7.99999 18C8.40086 18 8.77736 17.844 9.07324 17.5474L15.293 11.0171Z" fill="#EA5548"/>
</svg>
