<svg width="15" height="18" viewBox="0 0 15 18" fill="none" xmlns="http://www.w3.org/2000/svg">
<path d="M14.7932 11.0171C15.0786 10.7175 15.0673 10.2424 14.7673 9.957C14.4673 9.67125 13.9926 9.68325 13.7068 9.98287L8.2502 15.7361L8.2502 0.75C8.2502 0.336 7.9142 -3.0973e-07 7.5002 -3.27827e-07C7.0862 -3.45923e-07 6.7502 0.336 6.7502 0.75L6.7502 15.7121L1.2932 9.98287C1.00745 9.68287 0.532702 9.67125 0.232702 9.957C0.0782018 10.1044 0.000202682 10.302 0.000202674 10.5C0.000202666 10.686 0.0688272 10.872 0.207201 11.0171L6.4397 17.5605C6.72283 17.844 7.09933 18 7.5002 18C7.90108 18 8.27758 17.844 8.57345 17.5474L14.7932 11.0171Z" fill="#D070A3"/>
</svg>
