<svg width="20" height="21" viewBox="0 0 20 21" fill="none" xmlns="http://www.w3.org/2000/svg">
<rect x="0.720596" y="2.73296" width="18.3711" height="16.534" rx="2.8125" fill="url(#paint0_linear_0_937)"/>
<path d="M3.57802 9.5937C3.57802 8.57946 3.57951 7.88951 3.64898 7.37284C3.71572 6.87639 3.8334 6.64646 3.9899 6.48996C4.14639 6.33347 4.37633 6.21578 4.87278 6.14904C5.38945 6.07957 6.0794 6.07808 7.09364 6.07808H12.7186C13.7329 6.07808 14.4228 6.07957 14.9395 6.14904C15.436 6.21578 15.6659 6.33347 15.8224 6.48996C15.9789 6.64646 16.0966 6.87639 16.1633 7.37284C16.2328 7.88951 16.2343 8.57946 16.2343 9.5937V12.4062C16.2343 13.4205 16.2328 14.1104 16.1633 14.6271C16.0966 15.1235 15.9789 15.3535 15.8224 15.5099C15.6659 15.6664 15.436 15.7841 14.9395 15.8509C14.4228 15.9203 13.7329 15.9218 12.7186 15.9218H7.09364C6.0794 15.9218 5.38945 15.9203 4.87278 15.8509C4.37633 15.7841 4.14639 15.6664 3.9899 15.5099C3.8334 15.3535 3.71572 15.1235 3.64898 14.6271C3.57951 14.1104 3.57802 13.4205 3.57802 12.4062V9.5937Z" stroke="white" stroke-width="1.40625"/>
<path d="M4.28114 6.7812L8.21864 9.73433C9.03114 10.3437 9.43739 10.6484 9.90614 10.6484C10.3749 10.6484 10.7811 10.3437 11.5936 9.73433L15.5311 6.7812" stroke="white" stroke-width="1.40625"/>
<defs>
<linearGradient id="paint0_linear_0_937" x1="9.90614" y1="2.73296" x2="9.90614" y2="19.2669" gradientUnits="userSpaceOnUse">
<stop stop-color="#FBAD10"/>
<stop offset="1" stop-color="#FE6125"/>
</linearGradient>
</defs>
</svg>
