<svg width="20" height="15" viewBox="0 0 20 15" fill="none" xmlns="http://www.w3.org/2000/svg">
<path d="M18.113 14.9997C18.5422 14.9997 18.914 14.858 19.2301 14.5782L13.8213 9.16918C13.6915 9.26211 13.5657 9.35247 13.4469 9.43839C13.0422 9.73662 12.7136 9.96933 12.4614 10.1361C12.2091 10.3032 11.8736 10.4736 11.4546 10.6475C11.0355 10.8216 10.6449 10.9084 10.2827 10.9084H10.272H10.2614C9.89913 10.9084 9.5086 10.8217 9.08945 10.6475C8.67029 10.4736 8.3347 10.3032 8.08272 10.1361C7.83049 9.96933 7.50214 9.73665 7.09716 9.43839C6.98431 9.35566 6.85914 9.26488 6.72383 9.16772L1.31396 14.5782C1.63004 14.858 2.00213 14.9997 2.43123 14.9997H18.113Z" fill="#B29BC9"/>
<path d="M1.80317 5.76389C1.39844 5.49405 1.03952 5.18502 0.727051 4.83691V13.0663L5.49437 8.299C4.54063 7.63316 3.31179 6.78909 1.80317 5.76389Z" fill="#B29BC9"/>
<path d="M18.7528 5.76389C17.3017 6.74605 16.0684 7.59157 15.0527 8.30091L19.8181 13.0665V4.83691C19.5126 5.17801 19.1575 5.48684 18.7528 5.76389Z" fill="#B29BC9"/>
<path d="M18.1138 0H2.432C1.88491 0 1.46429 0.184743 1.16964 0.553849C0.874745 0.923128 0.727539 1.38495 0.727539 1.9388C0.727539 2.38617 0.922889 2.87091 1.31341 3.39314C1.70394 3.91517 2.11949 4.32521 2.55986 4.62347C2.80128 4.79404 3.5293 5.30016 4.74392 6.14166C5.39961 6.59603 5.96982 6.99207 6.45982 7.33383C6.87749 7.62484 7.23768 7.87686 7.53507 8.08601C7.56922 8.10996 7.62291 8.14836 7.69417 8.19932C7.77094 8.25446 7.8681 8.32444 7.98796 8.41099C8.21876 8.57792 8.41051 8.71285 8.56323 8.81594C8.71573 8.91905 8.90051 9.03423 9.11728 9.16213C9.33388 9.28986 9.53817 9.3859 9.72992 9.44978C9.9217 9.51363 10.0992 9.54565 10.2626 9.54565H10.2732H10.2838C10.4471 9.54565 10.6246 9.51363 10.8164 9.44978C11.0081 9.3859 11.2123 9.29006 11.429 9.16213C11.6456 9.03423 11.8301 8.91881 11.9831 8.81594C12.1358 8.71285 12.3276 8.57795 12.5584 8.41099C12.678 8.32444 12.7752 8.25443 12.852 8.19949C12.9233 8.14833 12.9769 8.11017 13.0113 8.08601C13.243 7.9248 13.604 7.67382 14.0894 7.33677C14.9726 6.7231 16.2734 5.81987 17.9971 4.62347C18.5156 4.26137 18.9487 3.8244 19.2968 3.31318C19.6443 2.80196 19.8185 2.26572 19.8185 1.70463C19.8185 1.23584 19.6496 0.834708 19.3125 0.50061C18.975 0.166928 18.5754 0 18.1138 0Z" fill="#B29BC9"/>
</svg>
