<svg width="28" height="23" viewBox="0 0 28 23" fill="none" xmlns="http://www.w3.org/2000/svg">
<path d="M18.896 14.5269C20.4894 14.5269 21.7855 13.2307 21.7855 11.6374V2.88978C21.7855 1.29645 20.4894 0 18.896 0H2.88905C1.29599 0 0 1.29645 0 2.88978V11.6374C0 13.2307 1.29599 14.5269 2.88905 14.5269H4.9917V17.5515C4.9917 17.9193 5.21321 18.2508 5.55291 18.3915C5.6655 18.438 5.7836 18.4606 5.90059 18.4606C6.13714 18.4606 6.36975 18.3682 6.54368 18.1943L10.2103 14.5269H18.896Z" fill="#D070A3"/>
<path d="M24.7019 7.56488H23.24V11.6374C23.24 14.0327 21.2914 15.9813 18.8961 15.9813H10.8129L9.11328 17.6814C9.31811 18.8721 10.3572 19.7812 11.6054 19.7812H18.6435L21.595 22.7332C21.7688 22.9071 22.0015 22.9995 22.238 22.9995C22.355 22.9995 22.4731 22.9767 22.5857 22.9302C22.9254 22.7895 23.1468 22.4581 23.1468 22.0903V19.7811H24.7019C26.0966 19.7811 27.2311 18.6462 27.2311 17.2514V10.0942C27.231 8.69959 26.0965 7.56488 24.7019 7.56488Z" fill="#D070A3"/>
</svg>
