<svg width="28" height="23" viewBox="0 0 28 23" fill="none" xmlns="http://www.w3.org/2000/svg">
<path d="M20.3493 0C18.0025 0 15.9294 1.17815 14.6906 2.97334C14.6906 2.97334 14.2723 3.59931 13.6089 3.59931C12.946 3.59931 12.5277 2.97334 12.5277 2.97334C11.2883 1.17815 9.21637 0 6.869 0C3.07512 0 3.05176e-05 3.07509 3.05176e-05 6.87016C3.05176e-05 7.76627 0.176158 8.61894 0.487951 9.40378C2.41226 15.379 11.0187 22.4039 13.6089 22.6603C16.1996 22.4039 24.8048 15.379 26.7303 9.40378C27.0421 8.61953 27.2183 7.76627 27.2183 6.87016C27.2183 3.07509 24.1432 0 20.3493 0Z" fill="#eb486b"/>
</svg>
