<svg id="Слой_1" data-name="Слой 1" xmlns="http://www.w3.org/2000/svg" viewBox="0 0 100 100"><defs><style>.cls-1{fill:#cd2b37;}.cls-2{fill:#019246;}.cls-3{fill:#fff;}</style></defs><path class="cls-1" d="M99.58,5.64A6.83,6.83,0,0,0,94.11.17C94,.16,94,.06,93.91,0H66.48V98.43c0,.19,0,.39,0,.58,0,.72,0,.73.75.73q12.8,0,25.61,0a7,7,0,0,0,6.54-4.8,9,9,0,0,1,.38-.84V5.84C99.7,5.78,99.6,5.72,99.58,5.64Z"/><path class="cls-2" d="M33.29,0H5.85a1.33,1.33,0,0,1-.3.18,7,7,0,0,0-5,4.11A8,8,0,0,0,0,7.61Q0,49.88,0,92.14v.58a6.66,6.66,0,0,0,1.12,3.76A6.91,6.91,0,0,0,7.2,99.74H32.13c1.15,0,1.15,0,1.15-1.21V1.17s0-.1,0-.15c0-.34,0-.68,0-1Z"/><path class="cls-3" d="M66.48,0V0H33.29V0h0c0,.34,0,.68,0,1V99.75H66.48V0Z"/></svg>