<svg width="27" height="21" viewBox="0 0 27 21" fill="none" xmlns="http://www.w3.org/2000/svg">
<path d="M24.3415 21.0007C24.9423 21.0007 25.4629 20.8024 25.9055 20.4107L18.3328 12.8377C18.1512 12.9678 17.975 13.0943 17.8087 13.2146C17.242 13.6322 16.7821 13.958 16.4289 14.1914C16.0757 14.4254 15.6059 14.664 15.0194 14.9075C14.4325 15.1513 13.8858 15.2728 13.3785 15.2728H13.3637H13.3488C12.8416 15.2728 12.2948 15.1513 11.708 14.9075C11.1212 14.664 10.6513 14.4254 10.2985 14.1914C9.94538 13.958 9.48568 13.6322 8.91869 13.2146C8.76069 13.0988 8.58545 12.9717 8.396 12.8357L0.821915 20.4107C1.26443 20.8024 1.78538 21.0007 2.38614 21.0007H24.3415Z" fill="#eb486b"/>
<path d="M1.50663 8.06979C0.939973 7.692 0.437473 7.25933 0 6.77197V18.2936L6.67449 11.6191C5.33921 10.6869 3.61878 9.50513 1.50663 8.06979Z" fill="#eb486b"/>
<path d="M25.2371 8.06979C23.2055 9.44486 21.4788 10.6286 20.0568 11.6217L26.7286 18.2939V6.77197C26.3009 7.24953 25.8037 7.68191 25.2371 8.06979Z" fill="#eb486b"/>
<path d="M24.3423 0H2.38702C1.62106 0 1.03218 0.25865 0.619652 0.775417C0.206782 1.29243 0.000686646 1.939 0.000686646 2.71442C0.000686646 3.34076 0.274186 4.01942 0.820943 4.75058C1.3677 5.48145 1.94949 6.05552 2.56603 6.4731C2.90403 6.7119 3.92329 7.4205 5.62383 8.59864C6.54182 9.23479 7.34015 9.78926 8.02618 10.2677C8.61093 10.6752 9.11522 11.028 9.53159 11.3208C9.57939 11.3544 9.65456 11.4081 9.75433 11.4795C9.86182 11.5567 9.99784 11.6546 10.1656 11.7758C10.4888 12.0095 10.7572 12.1984 10.9711 12.3428C11.1846 12.4871 11.4433 12.6484 11.7468 12.8275C12.05 13.0063 12.336 13.1407 12.6045 13.2302C12.873 13.3196 13.1215 13.3644 13.3502 13.3644H13.365H13.3799C13.6085 13.3644 13.8571 13.3196 14.1257 13.2302C14.3941 13.1407 14.6798 13.0066 14.9833 12.8275C15.2865 12.6484 15.5449 12.4868 15.7591 12.3428C15.9729 12.1984 16.2414 12.0096 16.5646 11.7758C16.732 11.6546 16.868 11.5566 16.9755 11.4797C17.0753 11.4081 17.1505 11.3547 17.1986 11.3208C17.5229 11.0951 18.0284 10.7437 18.708 10.2719C19.9445 9.41269 21.7657 8.14812 24.179 6.4731C24.9048 5.96614 25.5112 5.35435 25.9986 4.63862C26.4851 3.9229 26.729 3.17213 26.729 2.38657C26.729 1.73024 26.4925 1.16863 26.0206 0.700879C25.5481 0.233707 24.9886 0 24.3423 0Z" fill="#eb486b"/>
</svg>
