<svg width="14" height="15" viewBox="0 0 14 15" fill="none" xmlns="http://www.w3.org/2000/svg">
<path d="M6.78906 0C4.60823 0 2.83398 1.77425 2.83398 3.95508C2.83398 6.13591 4.60823 7.91016 6.78906 7.91016C8.96989 7.91016 10.7441 6.13591 10.7441 3.95508C10.7441 1.77425 8.96989 0 6.78906 0Z" fill="#B29BC9"/>
<path d="M11.7099 10.494C10.6271 9.39454 9.19167 8.78906 7.66797 8.78906H5.91016C4.38648 8.78906 2.951 9.39454 1.86818 10.494C0.790674 11.5881 0.197266 13.0322 0.197266 14.5605C0.197266 14.8032 0.394023 15 0.636719 15H12.9414C13.1841 15 13.3809 14.8032 13.3809 14.5605C13.3809 13.0322 12.7875 11.5881 11.7099 10.494Z" fill="#B29BC9"/>
</svg>
