<svg width="26" height="26" viewBox="0 0 26 26" fill="none" xmlns="http://www.w3.org/2000/svg">
<path d="M25.3182 19.0814L21.6822 15.453C20.3836 14.1571 18.176 14.6755 17.6566 16.3601C17.267 17.5264 15.9685 18.1743 14.7997 17.9151C12.2026 17.2672 8.69644 13.898 8.04715 11.1767C7.65758 10.0104 8.43672 8.71453 9.60544 8.32582C11.2936 7.80748 11.813 5.60454 10.5144 4.30869L6.87843 0.68032C5.83957 -0.226773 4.28128 -0.226773 3.37228 0.68032L0.904987 3.14243C-1.56231 5.73413 1.1647 12.6021 7.26801 18.6926C13.3713 24.7831 20.2538 27.634 22.8509 25.0423L25.3182 22.5801C26.2273 21.5435 26.2273 19.9885 25.3182 19.0814Z" fill="#eb486b"/>
</svg>
