<svg width="23" height="23" viewBox="0 0 23 23" fill="none" xmlns="http://www.w3.org/2000/svg">
<path d="M22.3969 16.8797L19.1804 13.6699C18.0317 12.5236 16.0788 12.9822 15.6193 14.4724C15.2747 15.5041 14.1259 16.0773 13.0921 15.848C10.7946 15.2748 7.693 12.2944 7.11863 9.88707C6.77401 8.85533 7.46326 7.709 8.49712 7.36515C9.99048 6.90662 10.45 4.95786 9.30124 3.81154L6.08477 0.601822C5.16578 -0.200607 3.78729 -0.200607 2.98317 0.601822L0.800565 2.77984C-1.38204 5.0725 1.03031 11.148 6.42939 16.5358C11.8285 21.9235 17.9168 24.4455 20.2143 22.1528L22.3969 19.9747C23.201 19.0577 23.201 17.6821 22.3969 16.8797Z" fill="#D070A3"/>
</svg>
