<svg width="30" height="30" viewBox="0 0 30 30" fill="none" xmlns="http://www.w3.org/2000/svg">
<path d="M15 30C6.71573 30 0 23.2843 0 15C0 6.71573 6.71573 0 15 0C23.2843 0 30 6.71573 30 15C30 23.2843 23.2843 30 15 30ZM15 28.5C22.4558 28.5 28.5 22.4558 28.5 15C28.5 7.54416 22.4558 1.5 15 1.5C7.54416 1.5 1.5 7.54416 1.5 15C1.5 22.4558 7.54416 28.5 15 28.5ZM9 10.227C9 9.73015 9.13708 9.24297 9.39614 8.81905C10.1737 7.54666 11.8355 7.14553 13.1079 7.9231L21.3372 12.9521C21.6621 13.1507 21.9351 13.4236 22.1336 13.7485C22.8248 14.8795 22.4682 16.3567 21.3372 17.0479L13.1079 22.0769C12.684 22.336 12.1968 22.473 11.7 22.473C10.2088 22.473 9 21.2642 9 19.773V10.227ZM10.5 10.227V19.773C10.5 20.4358 11.0373 20.973 11.7 20.973C11.9208 20.973 12.1373 20.9121 12.3257 20.797L20.555 15.768C20.9792 15.5088 21.1129 14.9548 20.8537 14.5307C20.7792 14.4089 20.6769 14.3065 20.555 14.232L12.3257 9.20302C11.7602 8.85744 11.0216 9.03572 10.6761 9.60122C10.5609 9.78963 10.5 10.0062 10.5 10.227Z" fill="white"/>
</svg>
