<svg width="70" height="70" viewBox="0 0 70 70" fill="none" xmlns="http://www.w3.org/2000/svg">
<circle cx="35" cy="35" r="35" fill="#E84366"/>
<circle cx="35" cy="35" r="24" stroke="white" stroke-width="2"/>
<path d="M33.4932 39.7158H35.4268V38.6025C35.4268 38.0557 35.5 37.582 35.6465 37.1816C35.793 36.7812 36.042 36.4053 36.3936 36.0537C36.7549 35.7021 37.2529 35.3213 37.8877 34.9111C38.8936 34.2568 39.6602 33.5342 40.1875 32.7432C40.7148 31.9424 40.9785 31 40.9785 29.916V29.9014C40.9785 28.9053 40.7246 28.0166 40.2168 27.2354C39.709 26.4443 39.001 25.8193 38.0928 25.3604C37.1943 24.8916 36.1592 24.6572 34.9873 24.6572C33.7373 24.6572 32.668 24.9014 31.7793 25.3896C30.8906 25.8682 30.2021 26.5176 29.7139 27.3379C29.2354 28.1484 28.9521 29.042 28.8643 30.0186L28.8496 30.1943H30.7393L30.7539 30.0479C30.832 29.3252 31.0518 28.6904 31.4131 28.1436C31.7744 27.5967 32.2529 27.1719 32.8486 26.8691C33.4541 26.5566 34.1426 26.4004 34.9141 26.4004C35.6953 26.4004 36.3887 26.5566 36.9941 26.8691C37.5996 27.1719 38.0732 27.5967 38.415 28.1436C38.7568 28.6807 38.9277 29.3008 38.9277 30.0039V30.0186C38.9277 30.5361 38.8447 31.0098 38.6787 31.4395C38.5127 31.8691 38.2393 32.2744 37.8584 32.6553C37.4873 33.0264 36.9941 33.417 36.3789 33.8271C35.7051 34.2764 35.1533 34.7256 34.7236 35.1748C34.2939 35.6143 33.9814 36.0879 33.7861 36.5957C33.5908 37.1035 33.4932 37.6797 33.4932 38.3242V39.7158ZM34.4893 46.1318C34.8799 46.1318 35.2021 46 35.4561 45.7363C35.7197 45.4727 35.8516 45.1504 35.8516 44.7695C35.8516 44.3789 35.7197 44.0566 35.4561 43.8027C35.2021 43.5391 34.8799 43.4072 34.4893 43.4072C34.1084 43.4072 33.7861 43.5391 33.5225 43.8027C33.2588 44.0566 33.127 44.3789 33.127 44.7695C33.127 45.1504 33.2588 45.4727 33.5225 45.7363C33.7861 46 34.1084 46.1318 34.4893 46.1318Z" fill="white"/>
</svg>
