<svg width="16" height="18" viewBox="0 0 16 18" fill="none" xmlns="http://www.w3.org/2000/svg">
<path d="M0.707012 6.98287C0.421637 7.2825 0.432887 7.75763 0.732887 8.043C1.03289 8.32875 1.50764 8.31675 1.79339 8.01713L7.25001 2.26387L7.25001 17.25C7.25001 17.664 7.58601 18 8.00001 18C8.41401 18 8.75001 17.664 8.75001 17.25L8.75001 2.28788L14.207 8.01713C14.4928 8.31712 14.9675 8.32875 15.2675 8.043C15.422 7.89563 15.5 7.698 15.5 7.5C15.5 7.314 15.4314 7.128 15.293 6.98287L9.06051 0.4395C8.77739 0.156 8.40089 -3.45349e-07 8.00001 -3.27827e-07C7.59914 -3.10304e-07 7.22264 0.156 6.92676 0.452625L0.707012 6.98287Z" fill="#EA5548"/>
</svg>
